G75*
G70*
%OFA0B0*%
%FSLAX24Y24*%
%IPPOS*%
%LPD*%
%AMOC8*
5,1,8,0,0,1.08239X$1,22.5*
%
%ADD10C,0.0020*%
%ADD11R,0.0520X0.0220*%
%ADD12C,0.0709*%
%ADD13R,0.0591X0.0512*%
%ADD14R,0.0630X0.0710*%
%ADD15R,0.0807X0.1142*%
%ADD16R,0.0591X0.0394*%
%ADD17R,0.0220X0.0500*%
%ADD18R,0.0394X0.0433*%
%ADD19R,0.0433X0.0394*%
%ADD20C,0.0250*%
%ADD21R,0.0394X0.0551*%
%ADD22R,0.0780X0.0220*%
%ADD23C,0.0030*%
%ADD24R,0.0220X0.0520*%
%ADD25R,0.0512X0.0591*%
%ADD26R,0.0710X0.0630*%
%ADD27R,0.1142X0.0807*%
%ADD28R,0.0394X0.0591*%
%ADD29R,0.0500X0.0220*%
%ADD30R,0.0551X0.0394*%
%ADD31R,0.0220X0.0780*%
%ADD32C,0.0100*%
%ADD33C,0.0396*%
%ADD34C,0.0160*%
%ADD35C,0.0500*%
D10*
X021090Y012342D02*
X021153Y012278D01*
X021280Y012278D01*
X021344Y012342D01*
X021344Y012659D01*
X021458Y012595D02*
X021458Y012532D01*
X021522Y012468D01*
X021648Y012468D01*
X021712Y012405D01*
X021712Y012342D01*
X021648Y012278D01*
X021522Y012278D01*
X021458Y012342D01*
X021458Y012595D02*
X021522Y012659D01*
X021648Y012659D01*
X021712Y012595D01*
X021827Y012532D02*
X021953Y012659D01*
X022080Y012532D01*
X022080Y012278D01*
X022080Y012468D02*
X021827Y012468D01*
X021827Y012532D02*
X021827Y012278D01*
X021827Y012878D02*
X021827Y013132D01*
X021953Y013132D02*
X021827Y013005D01*
X021712Y013005D02*
X021522Y013005D01*
X021458Y012942D01*
X021522Y012878D01*
X021712Y012878D01*
X021712Y013068D01*
X021648Y013132D01*
X021522Y013132D01*
X021344Y013259D02*
X021344Y012878D01*
X021217Y013005D01*
X021090Y012878D01*
X021090Y013259D01*
X021153Y013478D02*
X021280Y013478D01*
X021344Y013542D01*
X021344Y013795D01*
X021280Y013859D01*
X021153Y013859D01*
X021090Y013795D01*
X021090Y013732D01*
X021153Y013668D01*
X021344Y013668D01*
X021458Y013542D02*
X021458Y013478D01*
X021458Y013542D02*
X021712Y013795D01*
X021712Y013859D01*
X021458Y013859D01*
X021458Y014078D02*
X021458Y014332D01*
X021458Y014205D02*
X021585Y014332D01*
X021648Y014332D01*
X021765Y014332D02*
X021829Y014332D01*
X021829Y014078D01*
X021892Y014078D02*
X021765Y014078D01*
X022011Y014142D02*
X022074Y014078D01*
X022264Y014078D01*
X022195Y013859D02*
X022195Y013605D01*
X022322Y013478D01*
X022448Y013605D01*
X022448Y013859D01*
X022627Y013732D02*
X022563Y013668D01*
X022563Y013542D01*
X022627Y013478D01*
X022753Y013478D01*
X022817Y013605D02*
X022563Y013605D01*
X022627Y013732D02*
X022753Y013732D01*
X022817Y013668D01*
X022817Y013605D01*
X022932Y013605D02*
X023058Y013732D01*
X023122Y013732D01*
X023239Y013732D02*
X023239Y013478D01*
X023116Y013259D02*
X023116Y012878D01*
X023001Y012878D02*
X022811Y012878D01*
X022747Y012942D01*
X022747Y013068D01*
X022811Y013132D01*
X023001Y013132D01*
X023116Y013005D02*
X023306Y013132D01*
X023116Y013005D02*
X023306Y012878D01*
X023423Y012752D02*
X023549Y012878D01*
X023486Y012878D01*
X023486Y012942D01*
X023549Y012942D01*
X023549Y012878D01*
X024037Y012878D02*
X024037Y013259D01*
X024227Y013259D01*
X024290Y013195D01*
X024290Y013068D01*
X024227Y013005D01*
X024037Y013005D01*
X024163Y013005D02*
X024290Y012878D01*
X024405Y012878D02*
X024532Y012878D01*
X024468Y012878D02*
X024468Y013259D01*
X024405Y013259D02*
X024532Y013259D01*
X024775Y013478D02*
X024712Y013542D01*
X024775Y013478D02*
X024902Y013478D01*
X024965Y013542D01*
X024965Y013605D01*
X024902Y013668D01*
X024775Y013668D01*
X024712Y013732D01*
X024712Y013795D01*
X024775Y013859D01*
X024902Y013859D01*
X024965Y013795D01*
X025080Y013732D02*
X025207Y013732D01*
X025143Y013795D02*
X025143Y013542D01*
X025207Y013478D01*
X025326Y013478D02*
X025389Y013478D01*
X025389Y013542D01*
X025326Y013542D01*
X025326Y013478D01*
X025209Y013259D02*
X025082Y013259D01*
X025019Y013195D01*
X025019Y012942D01*
X025272Y013195D01*
X025272Y012942D01*
X025209Y012878D01*
X025082Y012878D01*
X025019Y012942D01*
X025272Y013195D02*
X025209Y013259D01*
X025387Y013195D02*
X025450Y013259D01*
X025577Y013259D01*
X025641Y013195D01*
X025641Y013132D01*
X025387Y012878D01*
X025641Y012878D01*
X025755Y012942D02*
X025755Y013005D01*
X025819Y013068D01*
X025945Y013068D01*
X026009Y013005D01*
X026009Y012942D01*
X025945Y012878D01*
X025819Y012878D01*
X025755Y012942D01*
X025819Y013068D02*
X025755Y013132D01*
X025755Y013195D01*
X025819Y013259D01*
X025945Y013259D01*
X026009Y013195D01*
X026009Y013132D01*
X025945Y013068D01*
X026124Y013005D02*
X026187Y013068D01*
X026314Y013068D01*
X026377Y013005D01*
X026377Y012942D01*
X026314Y012878D01*
X026187Y012878D01*
X026124Y012942D01*
X026124Y013005D01*
X026187Y013068D02*
X026124Y013132D01*
X026124Y013195D01*
X026187Y013259D01*
X026314Y013259D01*
X026377Y013195D01*
X026377Y013132D01*
X026314Y013068D01*
X026492Y013132D02*
X026555Y013068D01*
X026745Y013068D01*
X026745Y012942D02*
X026745Y013195D01*
X026682Y013259D01*
X026555Y013259D01*
X026492Y013195D01*
X026492Y013132D01*
X026492Y012942D02*
X026555Y012878D01*
X026682Y012878D01*
X026745Y012942D01*
X025334Y014078D02*
X025334Y014268D01*
X025270Y014332D01*
X025080Y014332D01*
X025080Y014078D01*
X024965Y014142D02*
X024965Y014268D01*
X024902Y014332D01*
X024775Y014332D01*
X024712Y014268D01*
X024712Y014142D01*
X024775Y014078D01*
X024902Y014078D01*
X024965Y014142D01*
X024597Y014142D02*
X024534Y014205D01*
X024407Y014205D01*
X024343Y014268D01*
X024407Y014332D01*
X024597Y014332D01*
X024597Y014142D02*
X024534Y014078D01*
X024343Y014078D01*
X024225Y014078D02*
X024098Y014078D01*
X024161Y014078D02*
X024161Y014332D01*
X024098Y014332D01*
X023981Y014332D02*
X023918Y014332D01*
X023791Y014205D01*
X023791Y014078D02*
X023791Y014332D01*
X023674Y014332D02*
X023611Y014332D01*
X023484Y014205D01*
X023484Y014078D02*
X023484Y014332D01*
X023369Y014268D02*
X023306Y014332D01*
X023179Y014332D01*
X023116Y014268D01*
X023116Y014142D01*
X023179Y014078D01*
X023306Y014078D01*
X023369Y014142D01*
X023369Y014268D01*
X023001Y014459D02*
X023001Y014078D01*
X022747Y014078D02*
X022747Y014459D01*
X022874Y014332D01*
X023001Y014459D01*
X022932Y013732D02*
X022932Y013478D01*
X023239Y013732D02*
X023429Y013732D01*
X023492Y013668D01*
X023492Y013478D01*
X023607Y013542D02*
X023670Y013478D01*
X023797Y013478D01*
X023860Y013542D01*
X023860Y013668D01*
X023797Y013732D01*
X023670Y013732D01*
X023607Y013668D01*
X023607Y013542D01*
X023975Y013478D02*
X023975Y013732D01*
X024165Y013732D01*
X024229Y013668D01*
X024229Y013478D01*
X024161Y014459D02*
X024161Y014522D01*
X022264Y014332D02*
X022074Y014332D01*
X022011Y014268D01*
X022011Y014142D01*
X021829Y014459D02*
X021829Y014522D01*
X021344Y014459D02*
X021090Y014459D01*
X021090Y014078D01*
X021344Y014078D01*
X021217Y014268D02*
X021090Y014268D01*
X021090Y013542D02*
X021153Y013478D01*
X021090Y012659D02*
X021090Y012342D01*
X021953Y013132D02*
X022017Y013132D01*
X022134Y013132D02*
X022134Y012942D01*
X022197Y012878D01*
X022260Y012942D01*
X022324Y012878D01*
X022387Y012942D01*
X022387Y013132D01*
X022502Y013132D02*
X022565Y013132D01*
X022565Y012878D01*
X022502Y012878D02*
X022629Y012878D01*
X022565Y013259D02*
X022565Y013322D01*
D11*
X011310Y012048D03*
X011310Y011308D03*
X010390Y011308D03*
X010390Y011678D03*
X010390Y012048D03*
X010430Y017988D03*
X010430Y018358D03*
X010430Y018728D03*
X011350Y018728D03*
X011350Y017988D03*
X011310Y024748D03*
X011310Y025488D03*
X010390Y025488D03*
X010390Y025118D03*
X010390Y024748D03*
D12*
X009654Y024738D02*
X008946Y024738D01*
X008946Y025738D02*
X009654Y025738D01*
X009654Y026738D02*
X008946Y026738D01*
X008986Y019978D02*
X009694Y019978D01*
X009694Y018978D02*
X008986Y018978D01*
X008986Y017978D02*
X009694Y017978D01*
X009654Y013298D02*
X008946Y013298D01*
X008946Y012298D02*
X009654Y012298D01*
X009654Y011298D02*
X008946Y011298D01*
X018816Y012048D02*
X019524Y012048D01*
X019524Y013048D02*
X018816Y013048D01*
X023490Y017404D02*
X023490Y018113D01*
X024490Y018113D02*
X024490Y017404D01*
X025490Y017404D02*
X025490Y018113D01*
X019564Y018728D02*
X018856Y018728D01*
X018856Y019728D02*
X019564Y019728D01*
X019524Y025488D02*
X018816Y025488D01*
X018816Y026488D02*
X019524Y026488D01*
X023740Y027274D02*
X023740Y027983D01*
X024740Y027983D02*
X024740Y027274D01*
D13*
X012220Y024483D03*
X012220Y023814D03*
X012260Y017723D03*
X012260Y017054D03*
X012220Y011043D03*
X012220Y010374D03*
D14*
X017890Y014378D03*
X019010Y014378D03*
X019050Y021058D03*
X017930Y021058D03*
X017890Y027818D03*
X019010Y027818D03*
D15*
X017750Y023568D03*
X017790Y016808D03*
X017750Y010128D03*
D16*
X016953Y009754D03*
X016953Y010502D03*
X016993Y016434D03*
X016993Y017182D03*
X016953Y023194D03*
X016953Y023942D03*
D17*
X013640Y025258D03*
X013270Y025258D03*
X012900Y025258D03*
X012900Y026278D03*
X013270Y026278D03*
X013640Y026278D03*
X013680Y019518D03*
X013310Y019518D03*
X012940Y019518D03*
X012940Y018498D03*
X013310Y018498D03*
X013680Y018498D03*
X013640Y012838D03*
X013270Y012838D03*
X012900Y012838D03*
X012900Y011818D03*
X013270Y011818D03*
X013640Y011818D03*
D18*
X013030Y011023D03*
X013030Y010354D03*
X014175Y010518D03*
X014845Y010518D03*
X012105Y012768D03*
X011435Y012768D03*
X011425Y013608D03*
X012095Y013608D03*
X012790Y014054D03*
X012790Y014723D03*
X013070Y017034D03*
X013070Y017703D03*
X014215Y017198D03*
X014885Y017198D03*
X012145Y019448D03*
X011475Y019448D03*
X011465Y020288D03*
X012135Y020288D03*
X012830Y020734D03*
X012830Y021403D03*
X013030Y023794D03*
X013030Y024463D03*
X014175Y023958D03*
X014845Y023958D03*
X012105Y026208D03*
X012095Y027048D03*
X012790Y027494D03*
X012790Y028163D03*
X011425Y027048D03*
X011435Y026208D03*
X015795Y027998D03*
X016465Y027998D03*
X022240Y023603D03*
X022240Y022934D03*
X022065Y022078D03*
X022735Y022078D03*
X025200Y022884D03*
X025200Y023553D03*
X026355Y024018D03*
X027025Y024018D03*
X024655Y025628D03*
X023985Y025628D03*
X023985Y026448D03*
X024655Y026448D03*
X026250Y019663D03*
X026250Y018994D03*
X023805Y019218D03*
X023135Y019218D03*
X016505Y021238D03*
X015835Y021238D03*
X015795Y014558D03*
X016465Y014558D03*
D19*
X015145Y014548D03*
X014475Y014548D03*
X013620Y014723D03*
X013620Y014054D03*
X015600Y016444D03*
X015600Y017113D03*
X015135Y018268D03*
X014465Y018268D03*
X013660Y020734D03*
X013660Y021403D03*
X014515Y021228D03*
X015185Y021228D03*
X015560Y023204D03*
X015560Y023873D03*
X015095Y025028D03*
X014425Y025028D03*
X013620Y027494D03*
X013620Y028163D03*
X014475Y027988D03*
X015145Y027988D03*
X017170Y026243D03*
X017170Y025574D03*
X017990Y025574D03*
X017990Y026243D03*
X022230Y024923D03*
X022230Y024254D03*
X022065Y021248D03*
X022735Y021248D03*
X023180Y020553D03*
X023180Y019884D03*
X024020Y019894D03*
X024020Y020563D03*
X025765Y021488D03*
X026435Y021488D03*
X026270Y022634D03*
X026270Y023303D03*
X018030Y019483D03*
X018030Y018814D03*
X017210Y018814D03*
X017210Y019483D03*
X011245Y017218D03*
X010575Y017218D03*
X010800Y019664D03*
X010800Y020333D03*
X010535Y023978D03*
X011205Y023978D03*
X010760Y026424D03*
X010760Y027093D03*
X010760Y013653D03*
X010760Y012984D03*
X010535Y010538D03*
X011205Y010538D03*
X014425Y011588D03*
X015095Y011588D03*
X015560Y010433D03*
X015560Y009764D03*
X017170Y012134D03*
X017170Y012803D03*
X017990Y012803D03*
X017990Y012134D03*
D20*
X016980Y010998D03*
X016340Y011928D03*
X013640Y011318D03*
X013630Y010688D03*
X012580Y011818D03*
X012060Y012178D03*
X011800Y011398D03*
X010280Y014338D03*
X013670Y017368D03*
X013680Y017998D03*
X012620Y018498D03*
X012100Y018858D03*
X011840Y018078D03*
X010320Y021018D03*
X013630Y024128D03*
X013640Y024758D03*
X012580Y025258D03*
X012060Y025618D03*
X011800Y024838D03*
X010280Y027778D03*
X016340Y025368D03*
X016980Y024438D03*
X016380Y018608D03*
X017020Y017678D03*
X022450Y018738D03*
X024610Y020518D03*
X024970Y021038D03*
X025390Y020258D03*
X025470Y022098D03*
X026100Y022088D03*
X024860Y024798D03*
X025790Y025438D03*
D21*
X016564Y024891D03*
X015816Y024891D03*
X016190Y024025D03*
X015856Y018131D03*
X016230Y017265D03*
X016604Y018131D03*
X016564Y011451D03*
X015816Y011451D03*
X016190Y010585D03*
D22*
X016340Y012308D03*
X016340Y012808D03*
X016340Y013308D03*
X016340Y013808D03*
X014480Y013808D03*
X014480Y013308D03*
X014480Y012808D03*
X014480Y012308D03*
X014520Y018988D03*
X014520Y019488D03*
X014520Y019988D03*
X014520Y020488D03*
X016380Y020488D03*
X016380Y019988D03*
X016380Y019488D03*
X016380Y018988D03*
X016340Y025748D03*
X016340Y026248D03*
X016340Y026748D03*
X016340Y027248D03*
X014480Y027248D03*
X014480Y026748D03*
X014480Y026248D03*
X014480Y025748D03*
D23*
X010960Y027258D02*
X010560Y027258D01*
X010660Y027358D01*
X010860Y027358D01*
X010960Y027258D01*
X010936Y027282D02*
X010584Y027282D01*
X010612Y027310D02*
X010908Y027310D01*
X010879Y027339D02*
X010641Y027339D01*
X010700Y020598D02*
X010900Y020598D01*
X011000Y020498D01*
X010600Y020498D01*
X010700Y020598D01*
X010686Y020584D02*
X010914Y020584D01*
X010942Y020556D02*
X010658Y020556D01*
X010629Y020527D02*
X010971Y020527D01*
X010999Y020499D02*
X010601Y020499D01*
X010660Y013918D02*
X010860Y013918D01*
X010960Y013818D01*
X010560Y013818D01*
X010660Y013918D01*
X010657Y013915D02*
X010863Y013915D01*
X010891Y013887D02*
X010629Y013887D01*
X010600Y013858D02*
X010920Y013858D01*
X010948Y013830D02*
X010572Y013830D01*
X022870Y019118D02*
X022870Y019318D01*
X022970Y019418D01*
X022970Y019018D01*
X022870Y019118D01*
X022870Y019131D02*
X022970Y019131D01*
X022970Y019159D02*
X022870Y019159D01*
X022870Y019188D02*
X022970Y019188D01*
X022970Y019216D02*
X022870Y019216D01*
X022870Y019245D02*
X022970Y019245D01*
X022970Y019273D02*
X022870Y019273D01*
X022870Y019302D02*
X022970Y019302D01*
X022970Y019330D02*
X022882Y019330D01*
X022911Y019359D02*
X022970Y019359D01*
X022970Y019387D02*
X022939Y019387D01*
X022968Y019416D02*
X022970Y019416D01*
X022970Y019102D02*
X022886Y019102D01*
X022914Y019074D02*
X022970Y019074D01*
X022970Y019045D02*
X022943Y019045D01*
D24*
X024740Y018848D03*
X025110Y018848D03*
X025480Y018848D03*
X025480Y019768D03*
X024740Y019768D03*
D25*
X025745Y020678D03*
X026415Y020678D03*
D26*
X022410Y026348D03*
X022410Y027468D03*
D27*
X026660Y026208D03*
D28*
X026286Y025411D03*
X027034Y025411D03*
D29*
X024970Y022098D03*
X024970Y021728D03*
X024970Y021358D03*
X023950Y021358D03*
X023950Y021728D03*
X023950Y022098D03*
D30*
X025337Y024274D03*
X025337Y025022D03*
X026203Y024648D03*
D31*
X024480Y024798D03*
X023980Y024798D03*
X023480Y024798D03*
X022980Y024798D03*
X022980Y022938D03*
X023480Y022938D03*
X023980Y022938D03*
X024480Y022938D03*
D32*
X024700Y022891D02*
X025152Y022891D01*
X025152Y022932D02*
X025152Y022835D01*
X025248Y022835D01*
X025248Y022517D01*
X025417Y022517D01*
X025455Y022527D01*
X025489Y022547D01*
X025517Y022575D01*
X025532Y022601D01*
X025532Y022567D01*
X025579Y022454D01*
X025661Y022372D01*
X025660Y022308D01*
X025989Y022310D01*
X025865Y022186D01*
X025865Y021991D01*
X026003Y021853D01*
X026197Y021853D01*
X026335Y021991D01*
X026335Y022013D01*
X026341Y022013D01*
X026386Y022057D01*
X026438Y022093D01*
X026441Y022110D01*
X026454Y022123D01*
X026454Y022186D01*
X026465Y022248D01*
X026455Y022263D01*
X026456Y022312D01*
X026674Y022313D01*
X026674Y021834D01*
X026671Y021835D01*
X026483Y021835D01*
X026483Y021537D01*
X026386Y021537D01*
X026386Y021835D01*
X026198Y021835D01*
X026160Y021825D01*
X026126Y021805D01*
X026098Y021777D01*
X026079Y021744D01*
X026027Y021795D01*
X025713Y021795D01*
X025637Y021865D01*
X025603Y021899D01*
X025705Y022001D01*
X025705Y022196D01*
X025567Y022333D01*
X025373Y022333D01*
X025328Y022288D01*
X025296Y022288D01*
X025266Y022318D01*
X024760Y022318D01*
X024760Y022363D01*
X024764Y022436D01*
X024760Y022441D01*
X024760Y022447D01*
X024708Y022499D01*
X024700Y022508D01*
X024700Y023363D01*
X024893Y023363D01*
X024893Y023291D01*
X024944Y023240D01*
X024911Y023220D01*
X024883Y023192D01*
X024863Y023158D01*
X024853Y023120D01*
X024853Y022932D01*
X025152Y022932D01*
X025248Y022932D02*
X025547Y022932D01*
X025547Y023120D01*
X025537Y023158D01*
X025517Y023192D01*
X025489Y023220D01*
X025456Y023240D01*
X025507Y023291D01*
X025507Y023815D01*
X025442Y023879D01*
X024958Y023879D01*
X024893Y023815D01*
X024893Y023743D01*
X024526Y023743D01*
X024421Y023638D01*
X024310Y023527D01*
X024310Y023424D01*
X024260Y023374D01*
X024260Y022608D01*
X024200Y022608D01*
X024200Y023374D01*
X024136Y023438D01*
X023824Y023438D01*
X023760Y023374D01*
X023760Y023128D01*
X023700Y023128D01*
X023700Y023374D01*
X023636Y023438D01*
X023324Y023438D01*
X023260Y023374D01*
X023260Y022590D01*
X023200Y022524D01*
X023200Y023374D01*
X023136Y023438D01*
X022824Y023438D01*
X022760Y023374D01*
X022760Y023124D01*
X022547Y023124D01*
X022547Y023196D01*
X022496Y023247D01*
X022529Y023266D01*
X022557Y023294D01*
X022577Y023329D01*
X022587Y023367D01*
X022587Y023555D01*
X022288Y023555D01*
X022288Y023651D01*
X022587Y023651D01*
X022587Y023839D01*
X022577Y023877D01*
X022557Y023912D01*
X022529Y023939D01*
X022501Y023956D01*
X022557Y024011D01*
X022557Y024153D01*
X022610Y024100D01*
X022721Y023988D01*
X024429Y023988D01*
X024540Y024100D01*
X024549Y024108D01*
X024660Y024220D01*
X024660Y024323D01*
X024700Y024363D01*
X024700Y024608D01*
X024718Y024608D01*
X024763Y024563D01*
X024941Y024563D01*
X024922Y024529D01*
X024911Y024491D01*
X024911Y024323D01*
X025288Y024323D01*
X025288Y024226D01*
X024911Y024226D01*
X024911Y024058D01*
X024922Y024020D01*
X024941Y023985D01*
X024969Y023957D01*
X025003Y023938D01*
X025042Y023927D01*
X025289Y023927D01*
X025289Y024226D01*
X025385Y024226D01*
X025385Y023927D01*
X025590Y023927D01*
X025590Y023722D01*
X025587Y023647D01*
X025590Y023644D01*
X025590Y023640D01*
X025643Y023586D01*
X025673Y023554D01*
X025666Y022890D01*
X025665Y022889D01*
X025579Y022803D01*
X025547Y022726D01*
X025547Y022835D01*
X025248Y022835D01*
X025248Y022932D01*
X025248Y022891D02*
X025666Y022891D01*
X025667Y022990D02*
X025547Y022990D01*
X025547Y023088D02*
X025668Y023088D01*
X025669Y023187D02*
X025520Y023187D01*
X025501Y023285D02*
X025670Y023285D01*
X025671Y023384D02*
X025507Y023384D01*
X025507Y023482D02*
X025672Y023482D01*
X025648Y023581D02*
X025507Y023581D01*
X025507Y023679D02*
X025588Y023679D01*
X025590Y023778D02*
X025507Y023778D01*
X025446Y023876D02*
X025590Y023876D01*
X025385Y023975D02*
X025289Y023975D01*
X025289Y024073D02*
X025385Y024073D01*
X025385Y024172D02*
X025289Y024172D01*
X025288Y024270D02*
X024660Y024270D01*
X024700Y024369D02*
X024911Y024369D01*
X024911Y024467D02*
X024700Y024467D01*
X024700Y024566D02*
X024760Y024566D01*
X024941Y024563D02*
X024941Y024563D01*
X025006Y024611D02*
X025095Y024701D01*
X025095Y024715D01*
X025368Y024715D01*
X025458Y024621D01*
X025385Y024621D01*
X025385Y024323D01*
X025289Y024323D01*
X025289Y024621D01*
X025042Y024621D01*
X025006Y024611D01*
X025058Y024664D02*
X025416Y024664D01*
X025385Y024566D02*
X025289Y024566D01*
X025289Y024467D02*
X025385Y024467D01*
X025385Y024369D02*
X025289Y024369D01*
X024911Y024172D02*
X024612Y024172D01*
X024549Y024108D02*
X024549Y024108D01*
X024540Y024100D02*
X024540Y024100D01*
X024514Y024073D02*
X024911Y024073D01*
X024952Y023975D02*
X022520Y023975D01*
X022557Y024073D02*
X022636Y024073D01*
X022577Y023876D02*
X024954Y023876D01*
X024893Y023778D02*
X022587Y023778D01*
X022587Y023679D02*
X024462Y023679D01*
X024364Y023581D02*
X022288Y023581D01*
X022587Y023482D02*
X024310Y023482D01*
X024270Y023384D02*
X024190Y023384D01*
X024200Y023285D02*
X024260Y023285D01*
X024260Y023187D02*
X024200Y023187D01*
X024200Y023088D02*
X024260Y023088D01*
X024260Y022990D02*
X024200Y022990D01*
X024200Y022891D02*
X024260Y022891D01*
X024260Y022793D02*
X024200Y022793D01*
X024200Y022694D02*
X024260Y022694D01*
X024700Y022694D02*
X024853Y022694D01*
X024853Y022647D02*
X024863Y022609D01*
X024883Y022575D01*
X024911Y022547D01*
X024945Y022527D01*
X024983Y022517D01*
X025152Y022517D01*
X025152Y022835D01*
X024853Y022835D01*
X024853Y022647D01*
X024871Y022596D02*
X024700Y022596D01*
X024710Y022497D02*
X025561Y022497D01*
X025532Y022596D02*
X025529Y022596D01*
X025547Y022793D02*
X025575Y022793D01*
X025248Y022793D02*
X025152Y022793D01*
X025152Y022694D02*
X025248Y022694D01*
X025248Y022596D02*
X025152Y022596D01*
X025284Y022300D02*
X025340Y022300D01*
X025600Y022300D02*
X025980Y022300D01*
X025881Y022202D02*
X025699Y022202D01*
X025705Y022103D02*
X025865Y022103D01*
X025865Y022005D02*
X025705Y022005D01*
X025610Y021906D02*
X025950Y021906D01*
X026131Y021808D02*
X025699Y021808D01*
X025439Y021531D02*
X025431Y021538D01*
X025306Y021538D01*
X025330Y021514D01*
X025330Y021203D01*
X025266Y021138D01*
X025202Y021138D01*
X025205Y021136D01*
X025205Y020941D01*
X025067Y020803D01*
X024873Y020803D01*
X024735Y020941D01*
X024735Y021136D01*
X024738Y021138D01*
X024674Y021138D01*
X024644Y021168D01*
X024591Y021168D01*
X024310Y021450D01*
X024310Y021203D01*
X024246Y021138D01*
X024210Y021138D01*
X024210Y020870D01*
X024282Y020870D01*
X024347Y020805D01*
X024347Y020708D01*
X024468Y020708D01*
X024513Y020753D01*
X024707Y020753D01*
X024845Y020616D01*
X024845Y020421D01*
X024707Y020283D01*
X024513Y020283D01*
X024468Y020328D01*
X024347Y020328D01*
X024347Y020321D01*
X024282Y020256D01*
X023758Y020256D01*
X023693Y020321D01*
X023693Y020363D01*
X023507Y020363D01*
X023507Y020311D01*
X023442Y020246D01*
X022918Y020246D01*
X022853Y020311D01*
X022853Y020795D01*
X022918Y020860D01*
X023442Y020860D01*
X023507Y020795D01*
X023507Y020743D01*
X023693Y020743D01*
X023693Y020805D01*
X023758Y020870D01*
X023830Y020870D01*
X023830Y021138D01*
X023654Y021138D01*
X023590Y021203D01*
X023590Y021514D01*
X023591Y021515D01*
X023580Y021526D01*
X023560Y021560D01*
X023550Y021599D01*
X023550Y021700D01*
X023501Y021680D01*
X023379Y021680D01*
X023282Y021720D01*
X023284Y021680D01*
X023280Y021675D01*
X023280Y021670D01*
X023228Y021618D01*
X023061Y021432D01*
X023061Y021006D01*
X022997Y020941D01*
X022473Y020941D01*
X022408Y021006D01*
X022408Y021491D01*
X022473Y021555D01*
X022661Y021555D01*
X022838Y021752D01*
X022492Y021752D01*
X022428Y021816D01*
X022428Y022340D01*
X022492Y022405D01*
X022748Y022405D01*
X022790Y022447D01*
X022790Y022473D01*
X022760Y022503D01*
X022760Y022744D01*
X022547Y022744D01*
X022547Y022672D01*
X022482Y022607D01*
X022060Y022607D01*
X022060Y022420D01*
X022076Y022405D01*
X022308Y022405D01*
X022372Y022340D01*
X022372Y021816D01*
X022308Y021752D01*
X022255Y021752D01*
X022255Y021555D01*
X022327Y021555D01*
X022392Y021491D01*
X022392Y021006D01*
X022327Y020941D01*
X021839Y020941D01*
X021839Y017991D01*
X021946Y018097D01*
X022202Y018203D01*
X022478Y018203D01*
X022734Y018097D01*
X022929Y017902D01*
X023026Y017669D01*
X023026Y018205D01*
X023096Y018376D01*
X023227Y018506D01*
X023398Y018577D01*
X023430Y018577D01*
X023620Y018767D01*
X023620Y018892D01*
X023562Y018892D01*
X023498Y018956D01*
X023498Y019480D01*
X023562Y019545D01*
X024047Y019545D01*
X024111Y019480D01*
X024111Y018956D01*
X024047Y018892D01*
X024000Y018892D01*
X024000Y018610D01*
X023889Y018498D01*
X023825Y018434D01*
X023884Y018376D01*
X023954Y018205D01*
X023954Y017312D01*
X023884Y017141D01*
X023756Y017013D01*
X024170Y017013D01*
X024161Y017019D01*
X024105Y017075D01*
X024059Y017140D01*
X024023Y017210D01*
X023998Y017286D01*
X023986Y017364D01*
X023986Y017708D01*
X024440Y017708D01*
X024440Y017808D01*
X023986Y017808D01*
X023986Y018152D01*
X023998Y018231D01*
X024023Y018306D01*
X024059Y018377D01*
X024105Y018441D01*
X024161Y018497D01*
X024226Y018544D01*
X024296Y018580D01*
X024372Y018605D01*
X024440Y018615D01*
X024440Y017808D01*
X024540Y017808D01*
X024994Y017808D01*
X024994Y018152D01*
X024990Y018178D01*
X025026Y018178D01*
X025026Y017312D01*
X025096Y017141D01*
X025224Y017013D01*
X024810Y017013D01*
X024819Y017019D01*
X024875Y017075D01*
X024921Y017140D01*
X024957Y017210D01*
X024982Y017286D01*
X024994Y017364D01*
X024994Y017708D01*
X024540Y017708D01*
X024540Y017808D01*
X024540Y018523D01*
X024520Y018543D01*
X024520Y019154D01*
X024584Y019218D01*
X024896Y019218D01*
X024897Y019217D01*
X024908Y019228D01*
X024942Y019248D01*
X024980Y019258D01*
X025105Y019258D01*
X025105Y018853D01*
X025115Y018853D01*
X025115Y019258D01*
X025240Y019258D01*
X025278Y019248D01*
X025312Y019228D01*
X025323Y019217D01*
X025324Y019218D01*
X025636Y019218D01*
X025700Y019154D01*
X025700Y018543D01*
X025690Y018532D01*
X025753Y018506D01*
X025884Y018376D01*
X025954Y018205D01*
X025954Y018098D01*
X026491Y018098D01*
X026674Y018281D01*
X026674Y020233D01*
X026465Y020233D01*
X026465Y020628D01*
X026365Y020628D01*
X026365Y020233D01*
X026139Y020233D01*
X026101Y020243D01*
X026067Y020263D01*
X026052Y020278D01*
X026047Y020273D01*
X025673Y020273D01*
X025625Y020225D01*
X025625Y020161D01*
X025602Y020138D01*
X025636Y020138D01*
X025700Y020074D01*
X025700Y019958D01*
X025976Y019958D01*
X026008Y019989D01*
X026492Y019989D01*
X026557Y019925D01*
X026557Y019757D01*
X026570Y019730D01*
X026557Y019692D01*
X026557Y019401D01*
X026506Y019350D01*
X026539Y019330D01*
X026567Y019302D01*
X026587Y019268D01*
X026597Y019230D01*
X026597Y019042D01*
X026298Y019042D01*
X026298Y018945D01*
X026298Y018627D01*
X026467Y018627D01*
X026505Y018637D01*
X026539Y018657D01*
X026567Y018685D01*
X026587Y018719D01*
X026597Y018757D01*
X026597Y018945D01*
X026298Y018945D01*
X026202Y018945D01*
X026202Y018627D01*
X026033Y018627D01*
X025995Y018637D01*
X025961Y018657D01*
X025933Y018685D01*
X025913Y018719D01*
X025903Y018757D01*
X025903Y018945D01*
X026202Y018945D01*
X026202Y019042D01*
X025903Y019042D01*
X025903Y019230D01*
X025913Y019268D01*
X025933Y019302D01*
X025961Y019330D01*
X025994Y019350D01*
X025943Y019401D01*
X025943Y019578D01*
X025700Y019578D01*
X025700Y019463D01*
X025636Y019398D01*
X025324Y019398D01*
X025260Y019463D01*
X025260Y020056D01*
X025248Y020068D01*
X025157Y020068D01*
X024960Y019877D01*
X024960Y019463D01*
X024896Y019398D01*
X024584Y019398D01*
X024520Y019463D01*
X024520Y020074D01*
X024584Y020138D01*
X024684Y020138D01*
X024947Y020394D01*
X025001Y020448D01*
X025003Y020448D01*
X025004Y020449D01*
X025081Y020448D01*
X025248Y020448D01*
X025293Y020493D01*
X025356Y020493D01*
X025379Y020516D01*
X025379Y021019D01*
X025444Y021084D01*
X025575Y021084D01*
X025575Y021181D01*
X025503Y021181D01*
X025439Y021246D01*
X025439Y021531D01*
X025439Y021512D02*
X025330Y021512D01*
X025330Y021414D02*
X025439Y021414D01*
X025439Y021315D02*
X025330Y021315D01*
X025330Y021217D02*
X025468Y021217D01*
X025575Y021118D02*
X025205Y021118D01*
X025205Y021020D02*
X025380Y021020D01*
X025379Y020921D02*
X025185Y020921D01*
X025087Y020823D02*
X025379Y020823D01*
X025379Y020724D02*
X024736Y020724D01*
X024835Y020626D02*
X025379Y020626D01*
X025379Y020527D02*
X024845Y020527D01*
X024845Y020429D02*
X024982Y020429D01*
X024881Y020330D02*
X024754Y020330D01*
X024780Y020232D02*
X024289Y020232D01*
X024294Y020230D02*
X024256Y020240D01*
X024068Y020240D01*
X024068Y019942D01*
X023972Y019942D01*
X023972Y020240D01*
X023784Y020240D01*
X023746Y020230D01*
X023711Y020211D01*
X023683Y020183D01*
X023664Y020148D01*
X023653Y020110D01*
X023653Y019942D01*
X023972Y019942D01*
X023972Y019845D01*
X024068Y019845D01*
X024068Y019547D01*
X024256Y019547D01*
X024294Y019557D01*
X024329Y019577D01*
X024357Y019605D01*
X024376Y019639D01*
X024387Y019677D01*
X024387Y019845D01*
X024068Y019845D01*
X024068Y019942D01*
X024387Y019942D01*
X024387Y020110D01*
X024376Y020148D01*
X024357Y020183D01*
X024329Y020211D01*
X024294Y020230D01*
X024380Y020133D02*
X024579Y020133D01*
X024520Y020035D02*
X024387Y020035D01*
X024520Y019936D02*
X024068Y019936D01*
X023972Y019936D02*
X023507Y019936D01*
X023507Y019838D02*
X023653Y019838D01*
X023653Y019845D02*
X023653Y019677D01*
X023664Y019639D01*
X023683Y019605D01*
X023711Y019577D01*
X023746Y019557D01*
X023784Y019547D01*
X023972Y019547D01*
X023972Y019845D01*
X023653Y019845D01*
X023653Y019739D02*
X023507Y019739D01*
X023507Y019641D02*
X023507Y020126D01*
X023442Y020190D01*
X022918Y020190D01*
X022853Y020126D01*
X022853Y019641D01*
X022918Y019577D01*
X022945Y019577D01*
X022945Y019545D01*
X022893Y019545D01*
X022829Y019480D01*
X022829Y019454D01*
X022745Y019370D01*
X022745Y019067D01*
X022818Y018993D01*
X022829Y018983D01*
X022829Y018956D01*
X022893Y018892D01*
X023378Y018892D01*
X023442Y018956D01*
X023442Y019480D01*
X023378Y019545D01*
X023325Y019545D01*
X023325Y019577D01*
X023442Y019577D01*
X023507Y019641D01*
X023506Y019641D02*
X023663Y019641D01*
X023560Y019542D02*
X023380Y019542D01*
X023442Y019444D02*
X023498Y019444D01*
X023498Y019345D02*
X023442Y019345D01*
X023442Y019247D02*
X023498Y019247D01*
X023498Y019148D02*
X023442Y019148D01*
X023442Y019050D02*
X023498Y019050D01*
X023503Y018951D02*
X023437Y018951D01*
X023620Y018853D02*
X022700Y018853D01*
X022694Y018869D02*
X022664Y018914D01*
X022625Y018952D01*
X022580Y018982D01*
X022530Y019003D01*
X022477Y019013D01*
X022463Y019013D01*
X022463Y018751D01*
X022725Y018751D01*
X022725Y018765D01*
X022714Y018819D01*
X022694Y018869D01*
X022626Y018951D02*
X022833Y018951D01*
X022762Y019050D02*
X021839Y019050D01*
X021839Y019148D02*
X022745Y019148D01*
X022745Y019247D02*
X021839Y019247D01*
X021839Y019345D02*
X022745Y019345D01*
X022819Y019444D02*
X021839Y019444D01*
X021839Y019542D02*
X022890Y019542D01*
X022854Y019641D02*
X021839Y019641D01*
X021839Y019739D02*
X022853Y019739D01*
X022853Y019838D02*
X021839Y019838D01*
X021839Y019936D02*
X022853Y019936D01*
X022853Y020035D02*
X021839Y020035D01*
X021839Y020133D02*
X022861Y020133D01*
X022853Y020330D02*
X021839Y020330D01*
X021839Y020232D02*
X023751Y020232D01*
X023693Y020330D02*
X023507Y020330D01*
X023499Y020133D02*
X023660Y020133D01*
X023653Y020035D02*
X023507Y020035D01*
X023972Y020035D02*
X024068Y020035D01*
X024068Y020133D02*
X023972Y020133D01*
X023972Y020232D02*
X024068Y020232D01*
X024347Y020724D02*
X024484Y020724D01*
X024329Y020823D02*
X024853Y020823D01*
X024755Y020921D02*
X024210Y020921D01*
X024210Y021020D02*
X024735Y021020D01*
X024735Y021118D02*
X024210Y021118D01*
X024310Y021217D02*
X024543Y021217D01*
X024444Y021315D02*
X024310Y021315D01*
X024310Y021414D02*
X024346Y021414D01*
X023830Y021118D02*
X023061Y021118D01*
X023061Y021020D02*
X023830Y021020D01*
X023830Y020921D02*
X021839Y020921D01*
X021839Y020823D02*
X022881Y020823D01*
X022853Y020724D02*
X021839Y020724D01*
X021839Y020626D02*
X022853Y020626D01*
X022853Y020527D02*
X021839Y020527D01*
X021839Y020429D02*
X022853Y020429D01*
X022408Y021020D02*
X022392Y021020D01*
X022392Y021118D02*
X022408Y021118D01*
X022408Y021217D02*
X022392Y021217D01*
X022392Y021315D02*
X022408Y021315D01*
X022408Y021414D02*
X022392Y021414D01*
X022370Y021512D02*
X022430Y021512D01*
X022255Y021611D02*
X022711Y021611D01*
X022800Y021709D02*
X022255Y021709D01*
X022364Y021808D02*
X022436Y021808D01*
X022428Y021906D02*
X022372Y021906D01*
X022372Y022005D02*
X022428Y022005D01*
X022428Y022103D02*
X022372Y022103D01*
X022372Y022202D02*
X022428Y022202D01*
X022428Y022300D02*
X022372Y022300D01*
X022314Y022399D02*
X022486Y022399D01*
X022765Y022497D02*
X022060Y022497D01*
X022060Y022596D02*
X022760Y022596D01*
X022760Y022694D02*
X022547Y022694D01*
X022547Y023187D02*
X022760Y023187D01*
X022760Y023285D02*
X022548Y023285D01*
X022587Y023384D02*
X022770Y023384D01*
X023190Y023384D02*
X023270Y023384D01*
X023260Y023285D02*
X023200Y023285D01*
X023200Y023187D02*
X023260Y023187D01*
X023260Y023088D02*
X023200Y023088D01*
X023200Y022990D02*
X023260Y022990D01*
X023260Y022891D02*
X023200Y022891D01*
X023200Y022793D02*
X023260Y022793D01*
X023260Y022694D02*
X023200Y022694D01*
X023200Y022596D02*
X023260Y022596D01*
X023700Y023187D02*
X023760Y023187D01*
X023760Y023285D02*
X023700Y023285D01*
X023690Y023384D02*
X023770Y023384D01*
X024700Y023285D02*
X024899Y023285D01*
X024880Y023187D02*
X024700Y023187D01*
X024700Y023088D02*
X024853Y023088D01*
X024853Y022990D02*
X024700Y022990D01*
X024700Y022793D02*
X024853Y022793D01*
X024762Y022399D02*
X025634Y022399D01*
X025977Y022909D02*
X025972Y023032D01*
X026008Y022996D01*
X026532Y022996D01*
X026597Y023061D01*
X026597Y023545D01*
X026532Y023610D01*
X026140Y023610D01*
X025974Y023789D01*
X025988Y024231D01*
X026049Y024171D01*
X026049Y023756D01*
X026113Y023692D01*
X026598Y023692D01*
X026662Y023756D01*
X026662Y024280D01*
X026598Y024345D01*
X026528Y024345D01*
X026589Y024406D01*
X026589Y024891D01*
X026524Y024955D01*
X026480Y024955D01*
X026480Y025006D01*
X026528Y025006D01*
X026593Y025070D01*
X026593Y025695D01*
X026687Y025695D01*
X026687Y025459D01*
X026986Y025459D01*
X026986Y025363D01*
X027082Y025363D01*
X027082Y024966D01*
X027235Y024966D01*
X027235Y024385D01*
X027073Y024385D01*
X027073Y024067D01*
X026976Y024067D01*
X026976Y024385D01*
X026808Y024385D01*
X026770Y024375D01*
X026736Y024355D01*
X026708Y024327D01*
X026688Y024293D01*
X026678Y024255D01*
X026678Y024067D01*
X026976Y024067D01*
X026976Y023970D01*
X026678Y023970D01*
X026678Y023782D01*
X026688Y023744D01*
X026708Y023710D01*
X026736Y023682D01*
X026770Y023662D01*
X026808Y023652D01*
X026976Y023652D01*
X026976Y023970D01*
X027073Y023970D01*
X027073Y023652D01*
X027235Y023652D01*
X027235Y022538D01*
X026597Y022538D01*
X026597Y022876D01*
X026532Y022940D01*
X026008Y022940D01*
X025977Y022909D01*
X025974Y022990D02*
X027235Y022990D01*
X027235Y023088D02*
X026597Y023088D01*
X026597Y023187D02*
X027235Y023187D01*
X027235Y023285D02*
X026597Y023285D01*
X026597Y023384D02*
X027235Y023384D01*
X027235Y023482D02*
X026597Y023482D01*
X026561Y023581D02*
X027235Y023581D01*
X027073Y023679D02*
X026976Y023679D01*
X026976Y023778D02*
X027073Y023778D01*
X027073Y023876D02*
X026976Y023876D01*
X026976Y023975D02*
X026662Y023975D01*
X026662Y024073D02*
X026678Y024073D01*
X026678Y024172D02*
X026662Y024172D01*
X026662Y024270D02*
X026682Y024270D01*
X026760Y024369D02*
X026552Y024369D01*
X026589Y024467D02*
X027235Y024467D01*
X027235Y024566D02*
X026589Y024566D01*
X026589Y024664D02*
X027235Y024664D01*
X027235Y024763D02*
X026589Y024763D01*
X026589Y024861D02*
X027235Y024861D01*
X027235Y024960D02*
X026480Y024960D01*
X026581Y025058D02*
X026697Y025058D01*
X026717Y025024D01*
X026745Y024996D01*
X026779Y024976D01*
X026817Y024966D01*
X026986Y024966D01*
X026986Y025363D01*
X026687Y025363D01*
X026687Y025096D01*
X026697Y025058D01*
X026687Y025157D02*
X026593Y025157D01*
X026593Y025255D02*
X026687Y025255D01*
X026687Y025354D02*
X026593Y025354D01*
X026593Y025452D02*
X026986Y025452D01*
X026986Y025354D02*
X027082Y025354D01*
X027082Y025255D02*
X026986Y025255D01*
X026986Y025157D02*
X027082Y025157D01*
X027082Y025058D02*
X026986Y025058D01*
X026687Y025551D02*
X026593Y025551D01*
X026593Y025649D02*
X026687Y025649D01*
X025693Y025673D02*
X025693Y025673D01*
X025700Y027039D01*
X025471Y027268D01*
X025204Y027268D01*
X025204Y027182D01*
X025134Y027011D01*
X025003Y026880D01*
X024845Y026815D01*
X024871Y026815D01*
X024909Y026805D01*
X024944Y026785D01*
X024972Y026757D01*
X024991Y026723D01*
X025001Y026685D01*
X025001Y026497D01*
X024703Y026497D01*
X024606Y026497D01*
X024606Y026815D01*
X024438Y026815D01*
X024400Y026805D01*
X024366Y026785D01*
X024338Y026757D01*
X024318Y026723D01*
X024308Y026685D01*
X024308Y026497D01*
X024606Y026497D01*
X024606Y026400D01*
X024308Y026400D01*
X024308Y026212D01*
X024318Y026174D01*
X024338Y026140D01*
X024366Y026112D01*
X024400Y026092D01*
X024438Y026082D01*
X024606Y026082D01*
X024606Y026400D01*
X024703Y026400D01*
X024703Y026497D01*
X024703Y026810D01*
X024648Y026810D01*
X024477Y026880D01*
X024346Y027011D01*
X024276Y027182D01*
X024276Y028075D01*
X024346Y028246D01*
X024415Y028314D01*
X024065Y028314D01*
X024134Y028246D01*
X024204Y028075D01*
X024204Y027182D01*
X024134Y027011D01*
X024003Y026880D01*
X023920Y026846D01*
X023920Y026810D01*
X023885Y026775D01*
X024228Y026775D01*
X024292Y026710D01*
X024292Y026186D01*
X024228Y026122D01*
X024175Y026122D01*
X024175Y025955D01*
X024228Y025955D01*
X024292Y025890D01*
X024292Y025366D01*
X024228Y025302D01*
X024170Y025302D01*
X024170Y025264D01*
X024200Y025234D01*
X024200Y024368D01*
X024260Y024368D01*
X024260Y025234D01*
X024324Y025298D01*
X024401Y025298D01*
X024408Y025305D01*
X024348Y025366D01*
X024348Y025890D01*
X024412Y025955D01*
X024897Y025955D01*
X024961Y025890D01*
X024961Y025366D01*
X024897Y025302D01*
X024840Y025302D01*
X024840Y025200D01*
X024729Y025088D01*
X024700Y025060D01*
X024700Y024988D01*
X024718Y024988D01*
X024763Y025033D01*
X024951Y025033D01*
X024951Y025265D01*
X025016Y025329D01*
X025567Y025329D01*
X025555Y025341D01*
X025555Y025536D01*
X025693Y025673D01*
X025669Y025649D02*
X024961Y025649D01*
X024961Y025551D02*
X025570Y025551D01*
X025555Y025452D02*
X024961Y025452D01*
X024949Y025354D02*
X025555Y025354D01*
X025693Y025748D02*
X024961Y025748D01*
X024961Y025846D02*
X025694Y025846D01*
X025694Y025945D02*
X024907Y025945D01*
X024871Y026082D02*
X024909Y026092D01*
X024944Y026112D01*
X024972Y026140D01*
X024991Y026174D01*
X025001Y026212D01*
X025001Y026400D01*
X024703Y026400D01*
X024703Y026082D01*
X024871Y026082D01*
X024973Y026142D02*
X025695Y026142D01*
X025696Y026240D02*
X025001Y026240D01*
X025001Y026339D02*
X025696Y026339D01*
X025697Y026437D02*
X024703Y026437D01*
X024606Y026437D02*
X024292Y026437D01*
X024292Y026339D02*
X024308Y026339D01*
X024308Y026240D02*
X024292Y026240D01*
X024248Y026142D02*
X024337Y026142D01*
X024175Y026043D02*
X025695Y026043D01*
X025698Y026536D02*
X025001Y026536D01*
X025001Y026634D02*
X025698Y026634D01*
X025699Y026733D02*
X024985Y026733D01*
X024885Y026831D02*
X025699Y026831D01*
X025700Y026930D02*
X025053Y026930D01*
X025141Y027028D02*
X025700Y027028D01*
X025612Y027127D02*
X025182Y027127D01*
X025204Y027225D02*
X025514Y027225D01*
X024703Y026733D02*
X024606Y026733D01*
X024606Y026634D02*
X024703Y026634D01*
X024703Y026536D02*
X024606Y026536D01*
X024606Y026339D02*
X024703Y026339D01*
X024703Y026240D02*
X024606Y026240D01*
X024606Y026142D02*
X024703Y026142D01*
X024402Y025945D02*
X024238Y025945D01*
X024292Y025846D02*
X024348Y025846D01*
X024348Y025748D02*
X024292Y025748D01*
X024292Y025649D02*
X024348Y025649D01*
X024348Y025551D02*
X024292Y025551D01*
X024292Y025452D02*
X024348Y025452D01*
X024360Y025354D02*
X024280Y025354D01*
X024281Y025255D02*
X024179Y025255D01*
X024200Y025157D02*
X024260Y025157D01*
X024260Y025058D02*
X024200Y025058D01*
X024200Y024960D02*
X024260Y024960D01*
X024260Y024861D02*
X024200Y024861D01*
X024200Y024763D02*
X024260Y024763D01*
X024260Y024664D02*
X024200Y024664D01*
X024200Y024566D02*
X024260Y024566D01*
X024260Y024467D02*
X024200Y024467D01*
X024200Y024369D02*
X024260Y024369D01*
X024700Y025058D02*
X024951Y025058D01*
X024951Y025157D02*
X024797Y025157D01*
X024840Y025255D02*
X024951Y025255D01*
X025986Y024172D02*
X026048Y024172D01*
X026049Y024073D02*
X025983Y024073D01*
X025980Y023975D02*
X026049Y023975D01*
X026049Y023876D02*
X025977Y023876D01*
X025984Y023778D02*
X026049Y023778D01*
X026075Y023679D02*
X026740Y023679D01*
X026679Y023778D02*
X026662Y023778D01*
X026662Y023876D02*
X026678Y023876D01*
X026976Y024073D02*
X027073Y024073D01*
X027073Y024172D02*
X026976Y024172D01*
X026976Y024270D02*
X027073Y024270D01*
X027073Y024369D02*
X026976Y024369D01*
X027235Y022891D02*
X026581Y022891D01*
X026597Y022793D02*
X027235Y022793D01*
X027235Y022694D02*
X026597Y022694D01*
X026597Y022596D02*
X027235Y022596D01*
X026674Y022300D02*
X026456Y022300D01*
X026457Y022202D02*
X026674Y022202D01*
X026674Y022103D02*
X026440Y022103D01*
X026335Y022005D02*
X026674Y022005D01*
X026674Y021906D02*
X026250Y021906D01*
X026386Y021808D02*
X026483Y021808D01*
X026483Y021709D02*
X026386Y021709D01*
X026386Y021611D02*
X026483Y021611D01*
X026483Y021440D02*
X026483Y021141D01*
X026671Y021141D01*
X026674Y021142D01*
X026674Y021124D01*
X026465Y021124D01*
X026465Y020728D01*
X026365Y020728D01*
X026365Y021124D01*
X026139Y021124D01*
X026101Y021113D01*
X026067Y021094D01*
X026052Y021079D01*
X026047Y021084D01*
X025955Y021084D01*
X025955Y021181D01*
X026027Y021181D01*
X026079Y021233D01*
X026098Y021199D01*
X026126Y021171D01*
X026160Y021152D01*
X026198Y021141D01*
X026386Y021141D01*
X026386Y021440D01*
X026483Y021440D01*
X026483Y021414D02*
X026386Y021414D01*
X026386Y021315D02*
X026483Y021315D01*
X026483Y021217D02*
X026386Y021217D01*
X026365Y021118D02*
X026465Y021118D01*
X026465Y021020D02*
X026365Y021020D01*
X026365Y020921D02*
X026465Y020921D01*
X026465Y020823D02*
X026365Y020823D01*
X026365Y020626D02*
X026465Y020626D01*
X026465Y020527D02*
X026365Y020527D01*
X026365Y020429D02*
X026465Y020429D01*
X026465Y020330D02*
X026365Y020330D01*
X026674Y020232D02*
X025632Y020232D01*
X025641Y020133D02*
X026674Y020133D01*
X026674Y020035D02*
X025700Y020035D01*
X025260Y020035D02*
X025123Y020035D01*
X025021Y019936D02*
X025260Y019936D01*
X025260Y019838D02*
X024960Y019838D01*
X024960Y019739D02*
X025260Y019739D01*
X025260Y019641D02*
X024960Y019641D01*
X024960Y019542D02*
X025260Y019542D01*
X025279Y019444D02*
X024941Y019444D01*
X024940Y019247D02*
X024111Y019247D01*
X024111Y019345D02*
X025987Y019345D01*
X025943Y019444D02*
X025681Y019444D01*
X025700Y019542D02*
X025943Y019542D01*
X025908Y019247D02*
X025280Y019247D01*
X025115Y019247D02*
X025105Y019247D01*
X025105Y019148D02*
X025115Y019148D01*
X025105Y019050D02*
X025115Y019050D01*
X025105Y018951D02*
X025115Y018951D01*
X024520Y018951D02*
X024107Y018951D01*
X024111Y019050D02*
X024520Y019050D01*
X024520Y019148D02*
X024111Y019148D01*
X024111Y019444D02*
X024539Y019444D01*
X024520Y019542D02*
X024050Y019542D01*
X024068Y019641D02*
X023972Y019641D01*
X023972Y019739D02*
X024068Y019739D01*
X024068Y019838D02*
X023972Y019838D01*
X024387Y019838D02*
X024520Y019838D01*
X024520Y019739D02*
X024387Y019739D01*
X024377Y019641D02*
X024520Y019641D01*
X024520Y018853D02*
X024000Y018853D01*
X024000Y018754D02*
X024520Y018754D01*
X024520Y018656D02*
X024000Y018656D01*
X023948Y018557D02*
X024252Y018557D01*
X024123Y018459D02*
X023849Y018459D01*
X023890Y018360D02*
X024050Y018360D01*
X024008Y018262D02*
X023931Y018262D01*
X023954Y018163D02*
X023987Y018163D01*
X023986Y018065D02*
X023954Y018065D01*
X023954Y017966D02*
X023986Y017966D01*
X023986Y017868D02*
X023954Y017868D01*
X023954Y017769D02*
X024440Y017769D01*
X024440Y017868D02*
X024540Y017868D01*
X024540Y017966D02*
X024440Y017966D01*
X024440Y018065D02*
X024540Y018065D01*
X024540Y018163D02*
X024440Y018163D01*
X024440Y018262D02*
X024540Y018262D01*
X024540Y018360D02*
X024440Y018360D01*
X024440Y018459D02*
X024540Y018459D01*
X024520Y018557D02*
X024440Y018557D01*
X024993Y018163D02*
X025026Y018163D01*
X025026Y018065D02*
X024994Y018065D01*
X024994Y017966D02*
X025026Y017966D01*
X025026Y017868D02*
X024994Y017868D01*
X025026Y017769D02*
X024540Y017769D01*
X024994Y017671D02*
X025026Y017671D01*
X025026Y017572D02*
X024994Y017572D01*
X024994Y017474D02*
X025026Y017474D01*
X025026Y017375D02*
X024994Y017375D01*
X024979Y017277D02*
X025040Y017277D01*
X025081Y017178D02*
X024941Y017178D01*
X024878Y017080D02*
X025157Y017080D01*
X024102Y017080D02*
X023823Y017080D01*
X023899Y017178D02*
X024039Y017178D01*
X024001Y017277D02*
X023940Y017277D01*
X023954Y017375D02*
X023986Y017375D01*
X023986Y017474D02*
X023954Y017474D01*
X023954Y017572D02*
X023986Y017572D01*
X023986Y017671D02*
X023954Y017671D01*
X023026Y017671D02*
X023025Y017671D01*
X023026Y017769D02*
X022984Y017769D01*
X022943Y017868D02*
X023026Y017868D01*
X023026Y017966D02*
X022865Y017966D01*
X022766Y018065D02*
X023026Y018065D01*
X023026Y018163D02*
X022575Y018163D01*
X022530Y018474D02*
X022580Y018495D01*
X022625Y018525D01*
X022664Y018563D01*
X022694Y018608D01*
X022714Y018658D01*
X022725Y018711D01*
X022725Y018726D01*
X022463Y018726D01*
X022463Y018751D01*
X022437Y018751D01*
X022437Y018726D01*
X022175Y018726D01*
X022175Y018711D01*
X022186Y018658D01*
X022206Y018608D01*
X022236Y018563D01*
X022275Y018525D01*
X022320Y018495D01*
X022370Y018474D01*
X022423Y018463D01*
X022437Y018463D01*
X022437Y018726D01*
X022463Y018726D01*
X022463Y018463D01*
X022477Y018463D01*
X022530Y018474D01*
X022463Y018557D02*
X022437Y018557D01*
X022437Y018656D02*
X022463Y018656D01*
X022437Y018751D02*
X022175Y018751D01*
X022175Y018765D01*
X022186Y018819D01*
X022206Y018869D01*
X022236Y018914D01*
X022275Y018952D01*
X022320Y018982D01*
X022370Y019003D01*
X022423Y019013D01*
X022437Y019013D01*
X022437Y018751D01*
X022437Y018754D02*
X022463Y018754D01*
X022463Y018853D02*
X022437Y018853D01*
X022437Y018951D02*
X022463Y018951D01*
X022274Y018951D02*
X021839Y018951D01*
X021839Y018853D02*
X022200Y018853D01*
X022175Y018754D02*
X021839Y018754D01*
X021839Y018656D02*
X022187Y018656D01*
X022242Y018557D02*
X021839Y018557D01*
X021839Y018459D02*
X023180Y018459D01*
X023090Y018360D02*
X021839Y018360D01*
X021839Y018262D02*
X023049Y018262D01*
X023350Y018557D02*
X022658Y018557D01*
X022713Y018656D02*
X023509Y018656D01*
X023607Y018754D02*
X022725Y018754D01*
X022105Y018163D02*
X021839Y018163D01*
X021839Y018065D02*
X021914Y018065D01*
X019896Y019053D02*
X019827Y019122D01*
X019657Y019193D01*
X018763Y019193D01*
X018593Y019122D01*
X018462Y018991D01*
X018391Y018821D01*
X018391Y018765D01*
X018078Y018765D01*
X018078Y018467D01*
X018266Y018467D01*
X018304Y018477D01*
X018339Y018497D01*
X018367Y018525D01*
X018386Y018559D01*
X018397Y018597D01*
X018397Y018623D01*
X018462Y018465D01*
X018593Y018335D01*
X018763Y018264D01*
X018850Y018264D01*
X018850Y017997D01*
X018621Y017768D01*
X017255Y017775D01*
X017255Y017776D01*
X017117Y017913D01*
X016923Y017913D01*
X016911Y017901D01*
X016911Y018453D01*
X016846Y018517D01*
X016615Y018517D01*
X016615Y018706D01*
X016570Y018751D01*
X016570Y018768D01*
X016641Y018768D01*
X016670Y018740D01*
X016781Y018628D01*
X016883Y018628D01*
X016883Y018571D01*
X016948Y018507D01*
X017472Y018507D01*
X017537Y018571D01*
X017537Y019056D01*
X017472Y019120D01*
X016948Y019120D01*
X016887Y019060D01*
X016880Y019067D01*
X016880Y019144D01*
X016816Y019208D01*
X015950Y019208D01*
X015950Y019268D01*
X016816Y019268D01*
X016846Y019298D01*
X016883Y019298D01*
X016883Y019241D01*
X016948Y019176D01*
X017472Y019176D01*
X017537Y019241D01*
X017537Y019293D01*
X017703Y019293D01*
X017703Y019241D01*
X017768Y019176D01*
X018292Y019176D01*
X018357Y019241D01*
X018357Y019583D01*
X018391Y019548D01*
X018428Y019548D01*
X018462Y019465D01*
X018593Y019335D01*
X018763Y019264D01*
X019657Y019264D01*
X019827Y019335D01*
X019896Y019403D01*
X019896Y019053D01*
X019896Y019148D02*
X019764Y019148D01*
X019896Y019247D02*
X018357Y019247D01*
X018357Y019345D02*
X018582Y019345D01*
X018483Y019444D02*
X018357Y019444D01*
X018357Y019542D02*
X018430Y019542D01*
X018304Y019150D02*
X018266Y019160D01*
X018078Y019160D01*
X018078Y018862D01*
X017982Y018862D01*
X017982Y019160D01*
X017794Y019160D01*
X017756Y019150D01*
X017721Y019131D01*
X017693Y019103D01*
X017674Y019068D01*
X017663Y019030D01*
X017663Y018862D01*
X017982Y018862D01*
X017982Y018765D01*
X018078Y018765D01*
X018078Y018862D01*
X018397Y018862D01*
X018397Y019030D01*
X018386Y019068D01*
X018367Y019103D01*
X018339Y019131D01*
X018304Y019150D01*
X018308Y019148D02*
X018656Y019148D01*
X018521Y019050D02*
X018391Y019050D01*
X018397Y018951D02*
X018445Y018951D01*
X018405Y018853D02*
X018078Y018853D01*
X017982Y018853D02*
X017537Y018853D01*
X017537Y018951D02*
X017663Y018951D01*
X017669Y019050D02*
X017537Y019050D01*
X017537Y019247D02*
X017703Y019247D01*
X017752Y019148D02*
X016876Y019148D01*
X016883Y019247D02*
X015950Y019247D01*
X015658Y018951D02*
X015316Y018951D01*
X015325Y018942D02*
X015220Y019047D01*
X015109Y019158D01*
X015006Y019158D01*
X014956Y019208D01*
X014190Y019208D01*
X014190Y019268D01*
X014956Y019268D01*
X015020Y019333D01*
X015020Y019644D01*
X014956Y019708D01*
X014710Y019708D01*
X014710Y019768D01*
X014956Y019768D01*
X015020Y019833D01*
X015020Y020144D01*
X014956Y020208D01*
X014172Y020208D01*
X014105Y020268D01*
X014956Y020268D01*
X015020Y020333D01*
X015020Y020644D01*
X014956Y020708D01*
X014705Y020708D01*
X014705Y020921D01*
X014866Y020921D01*
X014876Y020911D02*
X014910Y020892D01*
X014948Y020881D01*
X015136Y020881D01*
X015136Y021180D01*
X015233Y021180D01*
X015233Y020881D01*
X015421Y020881D01*
X015459Y020892D01*
X015493Y020911D01*
X015521Y020939D01*
X015537Y020967D01*
X015593Y020912D01*
X015735Y020912D01*
X015681Y020858D01*
X015570Y020747D01*
X015570Y019040D01*
X015690Y018920D01*
X015801Y018808D01*
X015904Y018808D01*
X015944Y018768D01*
X016190Y018768D01*
X016190Y018751D01*
X016145Y018706D01*
X016145Y018527D01*
X016111Y018547D01*
X016073Y018557D01*
X015904Y018557D01*
X015904Y018180D01*
X015808Y018180D01*
X015808Y018557D01*
X015639Y018557D01*
X015601Y018547D01*
X015567Y018527D01*
X015539Y018499D01*
X015519Y018465D01*
X015509Y018427D01*
X015509Y018180D01*
X015808Y018180D01*
X015808Y018083D01*
X015509Y018083D01*
X015509Y017878D01*
X015304Y017878D01*
X015228Y017881D01*
X015225Y017878D01*
X015221Y017878D01*
X015168Y017825D01*
X015136Y017795D01*
X014471Y017802D01*
X014471Y017803D01*
X014385Y017889D01*
X014307Y017921D01*
X014417Y017921D01*
X014417Y018220D01*
X014099Y018220D01*
X014099Y018052D01*
X014109Y018014D01*
X014129Y017979D01*
X014157Y017951D01*
X014183Y017936D01*
X014149Y017936D01*
X014035Y017889D01*
X013954Y017808D01*
X013890Y017808D01*
X013895Y017476D01*
X013767Y017603D01*
X013573Y017603D01*
X013435Y017466D01*
X013435Y017271D01*
X013573Y017133D01*
X013594Y017133D01*
X013594Y017127D01*
X013639Y017082D01*
X013675Y017030D01*
X013692Y017027D01*
X013704Y017015D01*
X013768Y017014D01*
X013830Y017003D01*
X013844Y017013D01*
X013902Y017012D01*
X013905Y016794D01*
X013416Y016794D01*
X013417Y016797D01*
X013417Y016985D01*
X013118Y016985D01*
X013118Y017082D01*
X013417Y017082D01*
X013417Y017270D01*
X013407Y017308D01*
X013387Y017342D01*
X013359Y017370D01*
X013326Y017390D01*
X013377Y017441D01*
X013377Y017755D01*
X013447Y017831D01*
X013481Y017865D01*
X013583Y017763D01*
X013777Y017763D01*
X013915Y017901D01*
X013915Y018096D01*
X013870Y018141D01*
X013870Y018173D01*
X013900Y018203D01*
X013900Y018708D01*
X013944Y018708D01*
X014017Y018704D01*
X014022Y018708D01*
X014029Y018708D01*
X014080Y018760D01*
X014090Y018768D01*
X014945Y018768D01*
X014945Y018575D01*
X014873Y018575D01*
X014821Y018524D01*
X014802Y018557D01*
X014774Y018585D01*
X014740Y018605D01*
X014702Y018615D01*
X014514Y018615D01*
X014514Y018317D01*
X014417Y018317D01*
X014417Y018615D01*
X014229Y018615D01*
X014191Y018605D01*
X014157Y018585D01*
X014129Y018557D01*
X014109Y018523D01*
X014099Y018485D01*
X014099Y018317D01*
X014417Y018317D01*
X014417Y018220D01*
X014514Y018220D01*
X014514Y017921D01*
X014702Y017921D01*
X014740Y017932D01*
X014774Y017951D01*
X014802Y017979D01*
X014821Y018013D01*
X014873Y017961D01*
X015397Y017961D01*
X015461Y018026D01*
X015461Y018511D01*
X015397Y018575D01*
X015325Y018575D01*
X015325Y018942D01*
X015325Y018853D02*
X015757Y018853D01*
X015570Y019050D02*
X015217Y019050D01*
X015119Y019148D02*
X015570Y019148D01*
X015570Y019247D02*
X014190Y019247D01*
X014075Y018754D02*
X014945Y018754D01*
X014945Y018656D02*
X013900Y018656D01*
X013900Y018557D02*
X014129Y018557D01*
X014099Y018459D02*
X013900Y018459D01*
X013900Y018360D02*
X014099Y018360D01*
X014099Y018163D02*
X013870Y018163D01*
X013900Y018262D02*
X014417Y018262D01*
X014417Y018360D02*
X014514Y018360D01*
X014514Y018459D02*
X014417Y018459D01*
X014417Y018557D02*
X014514Y018557D01*
X014802Y018557D02*
X014855Y018557D01*
X014514Y018163D02*
X014417Y018163D01*
X014417Y018065D02*
X014514Y018065D01*
X014514Y017966D02*
X014417Y017966D01*
X014406Y017868D02*
X015211Y017868D01*
X015402Y017966D02*
X015509Y017966D01*
X015509Y018065D02*
X015461Y018065D01*
X015461Y018163D02*
X015808Y018163D01*
X015904Y018163D02*
X016297Y018163D01*
X016297Y018101D02*
X016297Y018373D01*
X016283Y018373D01*
X016193Y018463D01*
X016203Y018427D01*
X016203Y018180D01*
X015904Y018180D01*
X015904Y018083D01*
X016203Y018083D01*
X016203Y018010D01*
X016297Y018101D01*
X016260Y018065D02*
X016203Y018065D01*
X016203Y018262D02*
X016297Y018262D01*
X016297Y018360D02*
X016203Y018360D01*
X016194Y018459D02*
X016197Y018459D01*
X016145Y018527D02*
X016145Y018527D01*
X016145Y018557D02*
X015415Y018557D01*
X015461Y018459D02*
X015518Y018459D01*
X015509Y018360D02*
X015461Y018360D01*
X015461Y018262D02*
X015509Y018262D01*
X015808Y018262D02*
X015904Y018262D01*
X015904Y018360D02*
X015808Y018360D01*
X015808Y018459D02*
X015904Y018459D01*
X016145Y018656D02*
X015325Y018656D01*
X015325Y018754D02*
X016190Y018754D01*
X016570Y018754D02*
X016655Y018754D01*
X016615Y018656D02*
X016754Y018656D01*
X016615Y018557D02*
X016897Y018557D01*
X016905Y018459D02*
X018468Y018459D01*
X018424Y018557D02*
X018385Y018557D01*
X018567Y018360D02*
X016911Y018360D01*
X016911Y018262D02*
X018850Y018262D01*
X018850Y018163D02*
X016911Y018163D01*
X016911Y018065D02*
X018850Y018065D01*
X018819Y017966D02*
X016911Y017966D01*
X017163Y017868D02*
X018720Y017868D01*
X018622Y017769D02*
X018374Y017769D01*
X017982Y018467D02*
X017794Y018467D01*
X017756Y018477D01*
X017721Y018497D01*
X017693Y018525D01*
X017674Y018559D01*
X017663Y018597D01*
X017663Y018765D01*
X017982Y018765D01*
X017982Y018467D01*
X017982Y018557D02*
X018078Y018557D01*
X018078Y018656D02*
X017982Y018656D01*
X017982Y018754D02*
X018078Y018754D01*
X018078Y018951D02*
X017982Y018951D01*
X017982Y019050D02*
X018078Y019050D01*
X018078Y019148D02*
X017982Y019148D01*
X017663Y018754D02*
X017537Y018754D01*
X017537Y018656D02*
X017663Y018656D01*
X017675Y018557D02*
X017523Y018557D01*
X018474Y020003D02*
X018299Y020178D01*
X016846Y020178D01*
X016816Y020208D01*
X015950Y020208D01*
X015950Y020234D01*
X015970Y020228D01*
X016375Y020228D01*
X016375Y020483D01*
X016385Y020483D01*
X016385Y020228D01*
X016790Y020228D01*
X016828Y020239D01*
X016862Y020258D01*
X016890Y020286D01*
X016910Y020320D01*
X016920Y020359D01*
X016920Y020483D01*
X016385Y020483D01*
X016385Y020493D01*
X016920Y020493D01*
X016920Y020618D01*
X016910Y020656D01*
X016890Y020690D01*
X016862Y020718D01*
X016828Y020738D01*
X016790Y020748D01*
X016489Y020748D01*
X016490Y020750D01*
X016652Y020912D01*
X016747Y020912D01*
X016811Y020976D01*
X016811Y021500D01*
X016747Y021565D01*
X016262Y021565D01*
X016198Y021500D01*
X016198Y021018D01*
X016142Y021018D01*
X016142Y021500D01*
X016078Y021565D01*
X015985Y021565D01*
X015942Y021605D01*
X015918Y021629D01*
X019896Y021629D01*
X019896Y020053D01*
X019827Y020122D01*
X019657Y020193D01*
X019410Y020193D01*
X019410Y020593D01*
X019410Y020593D01*
X019475Y020658D01*
X019475Y021459D01*
X019410Y021523D01*
X018689Y021523D01*
X018625Y021459D01*
X018625Y020658D01*
X018689Y020593D01*
X018690Y020593D01*
X018690Y020162D01*
X018593Y020122D01*
X018474Y020003D01*
X018442Y020035D02*
X018506Y020035D01*
X018620Y020133D02*
X018344Y020133D01*
X018690Y020232D02*
X016803Y020232D01*
X016912Y020330D02*
X018690Y020330D01*
X018690Y020429D02*
X016920Y020429D01*
X016920Y020527D02*
X018690Y020527D01*
X018657Y020626D02*
X018374Y020626D01*
X018365Y020611D02*
X018385Y020645D01*
X018395Y020684D01*
X018395Y021008D01*
X017980Y021008D01*
X017980Y020553D01*
X018265Y020553D01*
X018303Y020564D01*
X018337Y020583D01*
X018365Y020611D01*
X018395Y020724D02*
X018625Y020724D01*
X018625Y020823D02*
X018395Y020823D01*
X018395Y020921D02*
X018625Y020921D01*
X018625Y021020D02*
X017980Y021020D01*
X017980Y021008D02*
X017980Y021108D01*
X018395Y021108D01*
X018395Y021433D01*
X018385Y021471D01*
X018365Y021505D01*
X018337Y021533D01*
X018303Y021553D01*
X018265Y021563D01*
X017980Y021563D01*
X017980Y021108D01*
X017880Y021108D01*
X017880Y021008D01*
X017980Y021008D01*
X017980Y020921D02*
X017880Y020921D01*
X017880Y021008D02*
X017880Y020553D01*
X017595Y020553D01*
X017557Y020564D01*
X017523Y020583D01*
X017495Y020611D01*
X017475Y020645D01*
X017465Y020684D01*
X017465Y021008D01*
X017880Y021008D01*
X017880Y021020D02*
X016811Y021020D01*
X016811Y021118D02*
X017465Y021118D01*
X017465Y021108D02*
X017880Y021108D01*
X017880Y021563D01*
X017595Y021563D01*
X017557Y021553D01*
X017523Y021533D01*
X017495Y021505D01*
X017475Y021471D01*
X017465Y021433D01*
X017465Y021108D01*
X017465Y021217D02*
X016811Y021217D01*
X016811Y021315D02*
X017465Y021315D01*
X017465Y021414D02*
X016811Y021414D01*
X016800Y021512D02*
X017502Y021512D01*
X017880Y021512D02*
X017980Y021512D01*
X017980Y021414D02*
X017880Y021414D01*
X017880Y021315D02*
X017980Y021315D01*
X017980Y021217D02*
X017880Y021217D01*
X017880Y021118D02*
X017980Y021118D01*
X017980Y020823D02*
X017880Y020823D01*
X017880Y020724D02*
X017980Y020724D01*
X017980Y020626D02*
X017880Y020626D01*
X018395Y021118D02*
X018625Y021118D01*
X018625Y021217D02*
X018395Y021217D01*
X018395Y021315D02*
X018625Y021315D01*
X018625Y021414D02*
X018395Y021414D01*
X018358Y021512D02*
X018678Y021512D01*
X019421Y021512D02*
X019896Y021512D01*
X019896Y021414D02*
X019475Y021414D01*
X019475Y021315D02*
X019896Y021315D01*
X019896Y021217D02*
X019475Y021217D01*
X019475Y021118D02*
X019896Y021118D01*
X019896Y021020D02*
X019475Y021020D01*
X019475Y020921D02*
X019896Y020921D01*
X019896Y020823D02*
X019475Y020823D01*
X019475Y020724D02*
X019896Y020724D01*
X019896Y020626D02*
X019443Y020626D01*
X019410Y020527D02*
X019896Y020527D01*
X019896Y020429D02*
X019410Y020429D01*
X019410Y020330D02*
X019896Y020330D01*
X019896Y020232D02*
X019410Y020232D01*
X019800Y020133D02*
X019896Y020133D01*
X019896Y019345D02*
X019838Y019345D01*
X019896Y021611D02*
X015936Y021611D01*
X016130Y021512D02*
X016210Y021512D01*
X016198Y021414D02*
X016142Y021414D01*
X016142Y021315D02*
X016198Y021315D01*
X016198Y021217D02*
X016142Y021217D01*
X016142Y021118D02*
X016198Y021118D01*
X016198Y021020D02*
X016142Y021020D01*
X015646Y020823D02*
X014705Y020823D01*
X014705Y020921D02*
X014777Y020921D01*
X014829Y020973D01*
X014848Y020939D01*
X014876Y020911D01*
X014705Y020724D02*
X015570Y020724D01*
X015570Y020626D02*
X015020Y020626D01*
X015020Y020527D02*
X015570Y020527D01*
X015570Y020429D02*
X015020Y020429D01*
X015018Y020330D02*
X015570Y020330D01*
X015570Y020232D02*
X014146Y020232D01*
X014054Y020678D02*
X014029Y020678D01*
X013987Y020720D01*
X013987Y020976D01*
X013922Y021040D01*
X013398Y021040D01*
X013333Y020976D01*
X013333Y020631D01*
X013137Y020807D01*
X013137Y020996D01*
X013072Y021060D01*
X012588Y021060D01*
X012523Y020996D01*
X012523Y020472D01*
X012588Y020407D01*
X013014Y020407D01*
X013199Y020240D01*
X013251Y020188D01*
X013257Y020188D01*
X013262Y020184D01*
X013302Y020187D01*
X013262Y020090D01*
X013262Y019967D01*
X013282Y019918D01*
X013180Y019918D01*
X013142Y019908D01*
X013108Y019888D01*
X013097Y019877D01*
X013096Y019878D01*
X012784Y019878D01*
X012720Y019814D01*
X012720Y019638D01*
X012451Y019638D01*
X012451Y019710D01*
X012387Y019775D01*
X012325Y019775D01*
X012325Y019962D01*
X012377Y019962D01*
X012441Y020026D01*
X012441Y020550D01*
X012377Y020615D01*
X011892Y020615D01*
X011828Y020550D01*
X011828Y020026D01*
X011892Y019962D01*
X011945Y019962D01*
X011945Y019775D01*
X011902Y019775D01*
X011838Y019710D01*
X011838Y019186D01*
X011902Y019122D01*
X011910Y019122D01*
X011910Y019001D01*
X011865Y018956D01*
X011865Y018761D01*
X012003Y018623D01*
X012197Y018623D01*
X012335Y018761D01*
X012335Y018956D01*
X012290Y019001D01*
X012290Y019122D01*
X012387Y019122D01*
X012451Y019186D01*
X012451Y019258D01*
X012720Y019258D01*
X012720Y019223D01*
X012784Y019158D01*
X013031Y019158D01*
X012750Y018877D01*
X012750Y018824D01*
X012720Y018794D01*
X012720Y018731D01*
X012717Y018733D01*
X012523Y018733D01*
X012385Y018596D01*
X012385Y018401D01*
X012523Y018263D01*
X012717Y018263D01*
X012720Y018266D01*
X012720Y018203D01*
X012784Y018138D01*
X013096Y018138D01*
X013120Y018163D01*
X013120Y018037D01*
X013113Y018029D01*
X012828Y018029D01*
X012763Y017965D01*
X012763Y017893D01*
X012665Y017893D01*
X012665Y018024D01*
X012601Y018089D01*
X012098Y018089D01*
X012075Y018112D01*
X012075Y018176D01*
X012030Y018221D01*
X012030Y018387D01*
X012031Y018464D01*
X012030Y018465D01*
X012030Y018467D01*
X011975Y018522D01*
X011720Y018785D01*
X011720Y018884D01*
X011656Y018948D01*
X011044Y018948D01*
X010980Y018884D01*
X010980Y018573D01*
X011044Y018508D01*
X011459Y018508D01*
X011650Y018311D01*
X011650Y018221D01*
X011638Y018208D01*
X011044Y018208D01*
X010980Y018144D01*
X010980Y017833D01*
X011044Y017768D01*
X011160Y017768D01*
X011160Y017525D01*
X010983Y017525D01*
X010931Y017474D01*
X010912Y017507D01*
X010884Y017535D01*
X010850Y017555D01*
X010812Y017565D01*
X010624Y017565D01*
X010624Y017267D01*
X010527Y017267D01*
X010527Y017565D01*
X010339Y017565D01*
X010301Y017555D01*
X010267Y017535D01*
X010239Y017507D01*
X010219Y017473D01*
X010209Y017435D01*
X010209Y017267D01*
X010527Y017267D01*
X010527Y017170D01*
X010209Y017170D01*
X010209Y017002D01*
X010219Y016964D01*
X010239Y016929D01*
X010267Y016901D01*
X010301Y016882D01*
X010339Y016871D01*
X010527Y016871D01*
X010527Y017170D01*
X010624Y017170D01*
X010624Y016871D01*
X010812Y016871D01*
X010850Y016882D01*
X010884Y016901D01*
X010912Y016929D01*
X010931Y016963D01*
X010983Y016911D01*
X011274Y016911D01*
X011312Y016898D01*
X011339Y016911D01*
X011507Y016911D01*
X011571Y016976D01*
X011571Y017461D01*
X011540Y017492D01*
X011540Y017768D01*
X011656Y017768D01*
X011720Y017833D01*
X011720Y017866D01*
X011743Y017843D01*
X011806Y017843D01*
X011855Y017795D01*
X011855Y017421D01*
X011860Y017417D01*
X011845Y017402D01*
X011825Y017367D01*
X011815Y017329D01*
X011815Y017104D01*
X012210Y017104D01*
X012210Y017004D01*
X011815Y017004D01*
X011815Y016794D01*
X009863Y016794D01*
X009680Y016977D01*
X009680Y017514D01*
X009787Y017514D01*
X009957Y017585D01*
X010088Y017715D01*
X010114Y017779D01*
X010124Y017768D01*
X010736Y017768D01*
X010800Y017833D01*
X010800Y018144D01*
X010799Y018145D01*
X010810Y018156D01*
X010830Y018190D01*
X010840Y018229D01*
X010840Y018353D01*
X010435Y018353D01*
X010435Y018363D01*
X010840Y018363D01*
X010840Y018488D01*
X010830Y018526D01*
X010810Y018560D01*
X010799Y018572D01*
X010800Y018573D01*
X010800Y018884D01*
X010736Y018948D01*
X010124Y018948D01*
X010104Y018928D01*
X009390Y018928D01*
X009390Y018474D01*
X009734Y018474D01*
X009760Y018478D01*
X009760Y018443D01*
X008893Y018443D01*
X008723Y018372D01*
X008595Y018244D01*
X008595Y018658D01*
X008601Y018650D01*
X008657Y018594D01*
X008721Y018547D01*
X008792Y018511D01*
X008868Y018486D01*
X008946Y018474D01*
X009290Y018474D01*
X009290Y018928D01*
X009390Y018928D01*
X009390Y019028D01*
X010197Y019028D01*
X010186Y019096D01*
X010162Y019172D01*
X010126Y019243D01*
X010079Y019307D01*
X010023Y019363D01*
X009959Y019410D01*
X009888Y019446D01*
X009812Y019470D01*
X009734Y019483D01*
X009390Y019483D01*
X009390Y019028D01*
X009290Y019028D01*
X009290Y019483D01*
X008946Y019483D01*
X008868Y019470D01*
X008792Y019446D01*
X008721Y019410D01*
X008657Y019363D01*
X008601Y019307D01*
X008595Y019299D01*
X008595Y019712D01*
X008723Y019585D01*
X008893Y019514D01*
X009787Y019514D01*
X009957Y019585D01*
X010016Y019643D01*
X010080Y019580D01*
X010191Y019468D01*
X010473Y019468D01*
X010473Y019421D01*
X010538Y019357D01*
X011062Y019357D01*
X011127Y019421D01*
X011127Y019906D01*
X011062Y019970D01*
X010538Y019970D01*
X010473Y019906D01*
X010473Y019848D01*
X010349Y019848D01*
X010159Y020038D01*
X010159Y020071D01*
X010088Y020241D01*
X009957Y020372D01*
X009787Y020443D01*
X009251Y020443D01*
X009484Y020539D01*
X009679Y020735D01*
X009785Y020990D01*
X009785Y021267D01*
X009679Y021522D01*
X009572Y021629D01*
X012523Y021629D01*
X012523Y021141D01*
X012588Y021076D01*
X013072Y021076D01*
X013137Y021141D01*
X013137Y021213D01*
X013333Y021213D01*
X013333Y021161D01*
X013398Y021096D01*
X013922Y021096D01*
X013987Y021161D01*
X013987Y021392D01*
X014002Y021408D01*
X014189Y021408D01*
X014189Y020986D01*
X014253Y020921D01*
X014325Y020921D01*
X013987Y020921D01*
X013987Y020823D02*
X014325Y020823D01*
X014325Y020921D02*
X014325Y020708D01*
X014084Y020708D01*
X014054Y020678D01*
X013987Y020724D02*
X014325Y020724D01*
X014189Y021020D02*
X013943Y021020D01*
X013944Y021118D02*
X014189Y021118D01*
X014189Y021217D02*
X013987Y021217D01*
X013987Y021315D02*
X014189Y021315D01*
X013376Y021118D02*
X013114Y021118D01*
X013113Y021020D02*
X013377Y021020D01*
X013333Y020921D02*
X013137Y020921D01*
X013137Y020823D02*
X013333Y020823D01*
X013333Y020724D02*
X013229Y020724D01*
X013099Y020330D02*
X012441Y020330D01*
X012441Y020232D02*
X013208Y020232D01*
X013280Y020133D02*
X012441Y020133D01*
X012441Y020035D02*
X013262Y020035D01*
X013275Y019936D02*
X012325Y019936D01*
X012325Y019838D02*
X012744Y019838D01*
X012720Y019739D02*
X012423Y019739D01*
X012451Y019641D02*
X012720Y019641D01*
X012720Y019247D02*
X012451Y019247D01*
X012414Y019148D02*
X013021Y019148D01*
X012923Y019050D02*
X012290Y019050D01*
X012335Y018951D02*
X012824Y018951D01*
X012750Y018853D02*
X012335Y018853D01*
X012328Y018754D02*
X012720Y018754D01*
X012445Y018656D02*
X012230Y018656D01*
X012385Y018557D02*
X011941Y018557D01*
X011970Y018656D02*
X011845Y018656D01*
X011872Y018754D02*
X011750Y018754D01*
X011720Y018853D02*
X011865Y018853D01*
X011865Y018951D02*
X009390Y018951D01*
X009390Y018853D02*
X009290Y018853D01*
X009290Y018754D02*
X009390Y018754D01*
X009390Y018656D02*
X009290Y018656D01*
X009290Y018557D02*
X009390Y018557D01*
X009760Y018459D02*
X008595Y018459D01*
X008595Y018557D02*
X008707Y018557D01*
X008597Y018656D02*
X008595Y018656D01*
X008595Y018360D02*
X008711Y018360D01*
X008613Y018262D02*
X008595Y018262D01*
X009290Y019050D02*
X009390Y019050D01*
X009390Y019148D02*
X009290Y019148D01*
X009290Y019247D02*
X009390Y019247D01*
X009390Y019345D02*
X009290Y019345D01*
X009290Y019444D02*
X009390Y019444D01*
X009855Y019542D02*
X010117Y019542D01*
X010019Y019641D02*
X010014Y019641D01*
X009892Y019444D02*
X010473Y019444D01*
X010123Y019247D02*
X011129Y019247D01*
X011129Y019212D02*
X011139Y019174D01*
X011158Y019140D01*
X011186Y019112D01*
X011221Y019092D01*
X011259Y019082D01*
X011427Y019082D01*
X011427Y019400D01*
X011129Y019400D01*
X011129Y019212D01*
X011153Y019148D02*
X010169Y019148D01*
X010194Y019050D02*
X011910Y019050D01*
X011876Y019148D02*
X011797Y019148D01*
X011792Y019140D02*
X011812Y019174D01*
X011822Y019212D01*
X011822Y019400D01*
X011524Y019400D01*
X011524Y019497D01*
X011427Y019497D01*
X011427Y019815D01*
X011259Y019815D01*
X011221Y019805D01*
X011186Y019785D01*
X011158Y019757D01*
X011139Y019723D01*
X011129Y019685D01*
X011129Y019497D01*
X011427Y019497D01*
X011427Y019400D01*
X011524Y019400D01*
X011524Y019082D01*
X011692Y019082D01*
X011730Y019092D01*
X011764Y019112D01*
X011792Y019140D01*
X011822Y019247D02*
X011838Y019247D01*
X011838Y019345D02*
X011822Y019345D01*
X011838Y019444D02*
X011524Y019444D01*
X011524Y019497D02*
X011822Y019497D01*
X011822Y019685D01*
X011812Y019723D01*
X011792Y019757D01*
X011764Y019785D01*
X011730Y019805D01*
X011692Y019815D01*
X011524Y019815D01*
X011524Y019497D01*
X011524Y019542D02*
X011427Y019542D01*
X011427Y019444D02*
X011127Y019444D01*
X011127Y019542D02*
X011129Y019542D01*
X011127Y019641D02*
X011129Y019641D01*
X011127Y019739D02*
X011148Y019739D01*
X011127Y019838D02*
X011945Y019838D01*
X011945Y019936D02*
X011096Y019936D01*
X011062Y020026D02*
X011127Y020091D01*
X011127Y020143D01*
X011159Y020143D01*
X011159Y020026D01*
X011223Y019962D01*
X011708Y019962D01*
X011772Y020026D01*
X011772Y020550D01*
X011708Y020615D01*
X011223Y020615D01*
X011159Y020550D01*
X011159Y020523D01*
X011127Y020523D01*
X011127Y020575D01*
X011062Y020640D01*
X011035Y020640D01*
X010952Y020723D01*
X010648Y020723D01*
X010575Y020650D01*
X010565Y020640D01*
X010538Y020640D01*
X010473Y020575D01*
X010473Y020091D01*
X010538Y020026D01*
X011062Y020026D01*
X011071Y020035D02*
X011159Y020035D01*
X011159Y020133D02*
X011127Y020133D01*
X011127Y020527D02*
X011159Y020527D01*
X011076Y020626D02*
X012523Y020626D01*
X012523Y020724D02*
X009669Y020724D01*
X009716Y020823D02*
X010127Y020823D01*
X010145Y020805D02*
X010190Y020775D01*
X010240Y020754D01*
X010293Y020743D01*
X010307Y020743D01*
X010307Y021006D01*
X010045Y021006D01*
X010045Y020991D01*
X010056Y020938D01*
X010076Y020888D01*
X010106Y020843D01*
X010145Y020805D01*
X010063Y020921D02*
X009757Y020921D01*
X009785Y021020D02*
X010307Y021020D01*
X010307Y021031D02*
X010307Y021006D01*
X010333Y021006D01*
X010333Y021031D01*
X010595Y021031D01*
X010595Y021045D01*
X010584Y021099D01*
X010564Y021149D01*
X010534Y021194D01*
X010495Y021232D01*
X010450Y021262D01*
X010400Y021283D01*
X010347Y021293D01*
X010333Y021293D01*
X010333Y021031D01*
X010307Y021031D01*
X010045Y021031D01*
X010045Y021045D01*
X010056Y021099D01*
X010076Y021149D01*
X010106Y021194D01*
X010145Y021232D01*
X010190Y021262D01*
X010240Y021283D01*
X010293Y021293D01*
X010307Y021293D01*
X010307Y021031D01*
X010333Y021020D02*
X012547Y021020D01*
X012546Y021118D02*
X010576Y021118D01*
X010595Y021006D02*
X010333Y021006D01*
X010333Y020743D01*
X010347Y020743D01*
X010400Y020754D01*
X010450Y020775D01*
X010495Y020805D01*
X010534Y020843D01*
X010564Y020888D01*
X010584Y020938D01*
X010595Y020991D01*
X010595Y021006D01*
X010577Y020921D02*
X012523Y020921D01*
X012523Y020823D02*
X010513Y020823D01*
X010333Y020823D02*
X010307Y020823D01*
X010307Y020921D02*
X010333Y020921D01*
X010333Y021118D02*
X010307Y021118D01*
X010307Y021217D02*
X010333Y021217D01*
X010510Y021217D02*
X012523Y021217D01*
X012523Y021315D02*
X009765Y021315D01*
X009785Y021217D02*
X010130Y021217D01*
X010064Y021118D02*
X009785Y021118D01*
X009724Y021414D02*
X012523Y021414D01*
X012523Y021512D02*
X009683Y021512D01*
X009590Y021611D02*
X012523Y021611D01*
X012523Y020527D02*
X012441Y020527D01*
X012441Y020429D02*
X012566Y020429D01*
X011828Y020429D02*
X011772Y020429D01*
X011772Y020527D02*
X011828Y020527D01*
X011828Y020330D02*
X011772Y020330D01*
X011772Y020232D02*
X011828Y020232D01*
X011828Y020133D02*
X011772Y020133D01*
X011772Y020035D02*
X011828Y020035D01*
X011802Y019739D02*
X011867Y019739D01*
X011838Y019641D02*
X011822Y019641D01*
X011822Y019542D02*
X011838Y019542D01*
X011524Y019641D02*
X011427Y019641D01*
X011427Y019739D02*
X011524Y019739D01*
X011524Y019345D02*
X011427Y019345D01*
X011427Y019247D02*
X011524Y019247D01*
X011524Y019148D02*
X011427Y019148D01*
X011129Y019345D02*
X010041Y019345D01*
X010261Y019936D02*
X010504Y019936D01*
X010529Y020035D02*
X010162Y020035D01*
X010133Y020133D02*
X010473Y020133D01*
X010473Y020232D02*
X010092Y020232D01*
X009999Y020330D02*
X010473Y020330D01*
X010473Y020429D02*
X009820Y020429D01*
X009570Y020626D02*
X010524Y020626D01*
X010473Y020527D02*
X009455Y020527D01*
X008666Y019641D02*
X008595Y019641D01*
X008595Y019542D02*
X008825Y019542D01*
X008788Y019444D02*
X008595Y019444D01*
X008595Y019345D02*
X008639Y019345D01*
X010435Y018360D02*
X011602Y018360D01*
X011650Y018262D02*
X010840Y018262D01*
X010814Y018163D02*
X010999Y018163D01*
X010980Y018065D02*
X010800Y018065D01*
X010800Y017966D02*
X010980Y017966D01*
X010980Y017868D02*
X010800Y017868D01*
X010737Y017769D02*
X011043Y017769D01*
X011160Y017671D02*
X010044Y017671D01*
X010110Y017769D02*
X010123Y017769D01*
X009928Y017572D02*
X011160Y017572D01*
X011540Y017572D02*
X011855Y017572D01*
X011855Y017474D02*
X011558Y017474D01*
X011571Y017375D02*
X011829Y017375D01*
X011815Y017277D02*
X011571Y017277D01*
X011571Y017178D02*
X011815Y017178D01*
X011815Y016981D02*
X011571Y016981D01*
X011571Y017080D02*
X012210Y017080D01*
X012310Y017080D02*
X013022Y017080D01*
X013022Y017082D02*
X013022Y016985D01*
X012723Y016985D01*
X012723Y016797D01*
X012724Y016794D01*
X012705Y016794D01*
X012705Y017004D01*
X012310Y017004D01*
X012310Y017104D01*
X012705Y017104D01*
X012705Y017329D01*
X012695Y017367D01*
X012675Y017402D01*
X012660Y017417D01*
X012665Y017421D01*
X012665Y017513D01*
X012763Y017513D01*
X012763Y017441D01*
X012814Y017390D01*
X012781Y017370D01*
X012753Y017342D01*
X012733Y017308D01*
X012723Y017270D01*
X012723Y017082D01*
X013022Y017082D01*
X013118Y017080D02*
X013640Y017080D01*
X013528Y017178D02*
X013417Y017178D01*
X013415Y017277D02*
X013435Y017277D01*
X013435Y017375D02*
X013350Y017375D01*
X013377Y017474D02*
X013443Y017474D01*
X013377Y017572D02*
X013542Y017572D01*
X013377Y017671D02*
X013892Y017671D01*
X013891Y017769D02*
X013783Y017769D01*
X013882Y017868D02*
X014014Y017868D01*
X013915Y017966D02*
X014142Y017966D01*
X014099Y018065D02*
X013915Y018065D01*
X013577Y017769D02*
X013390Y017769D01*
X013120Y018065D02*
X012625Y018065D01*
X012665Y017966D02*
X012764Y017966D01*
X012759Y018163D02*
X012075Y018163D01*
X012030Y018262D02*
X012720Y018262D01*
X012426Y018360D02*
X012030Y018360D01*
X012031Y018459D02*
X012385Y018459D01*
X011507Y018459D02*
X010840Y018459D01*
X010812Y018557D02*
X010995Y018557D01*
X010980Y018656D02*
X010800Y018656D01*
X010800Y018754D02*
X010980Y018754D01*
X010980Y018853D02*
X010800Y018853D01*
X011657Y017769D02*
X011855Y017769D01*
X011855Y017671D02*
X011540Y017671D01*
X011815Y016883D02*
X010852Y016883D01*
X010624Y016883D02*
X010527Y016883D01*
X010527Y016981D02*
X010624Y016981D01*
X010624Y017080D02*
X010527Y017080D01*
X010527Y017178D02*
X009680Y017178D01*
X009680Y017080D02*
X010209Y017080D01*
X010214Y016981D02*
X009680Y016981D01*
X009775Y016883D02*
X010299Y016883D01*
X010209Y017277D02*
X009680Y017277D01*
X009680Y017375D02*
X010209Y017375D01*
X010219Y017474D02*
X009680Y017474D01*
X010527Y017474D02*
X010624Y017474D01*
X010624Y017375D02*
X010527Y017375D01*
X010527Y017277D02*
X010624Y017277D01*
X012665Y017474D02*
X012763Y017474D01*
X012790Y017375D02*
X012691Y017375D01*
X012705Y017277D02*
X012725Y017277D01*
X012723Y017178D02*
X012705Y017178D01*
X012705Y016981D02*
X012723Y016981D01*
X012723Y016883D02*
X012705Y016883D01*
X013417Y016883D02*
X013904Y016883D01*
X013903Y016981D02*
X013417Y016981D01*
X014087Y016872D02*
X014458Y016872D01*
X014522Y016936D01*
X014522Y017460D01*
X014491Y017492D01*
X014614Y017496D01*
X014578Y017460D01*
X014578Y016936D01*
X014642Y016872D01*
X015127Y016872D01*
X015191Y016936D01*
X015191Y017328D01*
X015370Y017494D01*
X015813Y017480D01*
X015753Y017420D01*
X015338Y017420D01*
X015273Y017355D01*
X015273Y016871D01*
X015338Y016806D01*
X015862Y016806D01*
X015927Y016871D01*
X015927Y016941D01*
X015988Y016880D01*
X016472Y016880D01*
X016537Y016944D01*
X016537Y016988D01*
X016587Y016988D01*
X016587Y016940D01*
X016652Y016875D01*
X017276Y016875D01*
X017276Y016781D01*
X017041Y016781D01*
X017041Y016483D01*
X016944Y016483D01*
X016944Y016781D01*
X016678Y016781D01*
X016640Y016771D01*
X016605Y016751D01*
X016577Y016723D01*
X016558Y016689D01*
X016547Y016651D01*
X016547Y016483D01*
X016944Y016483D01*
X016944Y016386D01*
X016547Y016386D01*
X016547Y016233D01*
X015967Y016233D01*
X015967Y016395D01*
X015648Y016395D01*
X015648Y016492D01*
X015552Y016492D01*
X015552Y016790D01*
X015364Y016790D01*
X015326Y016780D01*
X015291Y016761D01*
X015263Y016733D01*
X015244Y016698D01*
X015233Y016660D01*
X015233Y016492D01*
X015552Y016492D01*
X015552Y016395D01*
X015233Y016395D01*
X015233Y016233D01*
X014052Y016233D01*
X014087Y016872D01*
X014082Y016784D02*
X015341Y016784D01*
X015273Y016883D02*
X015138Y016883D01*
X015191Y016981D02*
X015273Y016981D01*
X015273Y017080D02*
X015191Y017080D01*
X015191Y017178D02*
X015273Y017178D01*
X015273Y017277D02*
X015191Y017277D01*
X015242Y017375D02*
X015293Y017375D01*
X015348Y017474D02*
X015807Y017474D01*
X015927Y016883D02*
X015984Y016883D01*
X015909Y016761D02*
X015874Y016780D01*
X015836Y016790D01*
X015648Y016790D01*
X015648Y016492D01*
X015967Y016492D01*
X015967Y016660D01*
X015956Y016698D01*
X015937Y016733D01*
X015909Y016761D01*
X015859Y016784D02*
X017276Y016784D01*
X017041Y016686D02*
X016944Y016686D01*
X016944Y016587D02*
X017041Y016587D01*
X017041Y016489D02*
X016944Y016489D01*
X016944Y016390D02*
X015967Y016390D01*
X015967Y016292D02*
X016547Y016292D01*
X016547Y016489D02*
X015648Y016489D01*
X015552Y016489D02*
X014066Y016489D01*
X014071Y016587D02*
X015233Y016587D01*
X015240Y016686D02*
X014077Y016686D01*
X014060Y016390D02*
X015233Y016390D01*
X015233Y016292D02*
X014055Y016292D01*
X014469Y016883D02*
X014631Y016883D01*
X014578Y016981D02*
X014522Y016981D01*
X014522Y017080D02*
X014578Y017080D01*
X014578Y017178D02*
X014522Y017178D01*
X014522Y017277D02*
X014578Y017277D01*
X014578Y017375D02*
X014522Y017375D01*
X014509Y017474D02*
X014591Y017474D01*
X014789Y017966D02*
X014868Y017966D01*
X013894Y017572D02*
X013798Y017572D01*
X015552Y016784D02*
X015648Y016784D01*
X015648Y016686D02*
X015552Y016686D01*
X015552Y016587D02*
X015648Y016587D01*
X015967Y016587D02*
X016547Y016587D01*
X016557Y016686D02*
X015960Y016686D01*
X016476Y016883D02*
X016645Y016883D01*
X016587Y016981D02*
X016537Y016981D01*
X016707Y014885D02*
X016222Y014885D01*
X016158Y014820D01*
X016158Y014338D01*
X016102Y014338D01*
X016102Y014820D01*
X016038Y014885D01*
X015945Y014885D01*
X015902Y014925D01*
X015878Y014949D01*
X019856Y014949D01*
X019856Y013373D01*
X019787Y013442D01*
X019617Y013513D01*
X019370Y013513D01*
X019370Y013913D01*
X019370Y013913D01*
X019435Y013978D01*
X019435Y014779D01*
X019370Y014843D01*
X018649Y014843D01*
X018585Y014779D01*
X018585Y013978D01*
X018649Y013913D01*
X018650Y013913D01*
X018650Y013482D01*
X018553Y013442D01*
X018434Y013323D01*
X018259Y013498D01*
X016806Y013498D01*
X016776Y013528D01*
X015910Y013528D01*
X015910Y013554D01*
X015930Y013548D01*
X016335Y013548D01*
X016335Y013803D01*
X016345Y013803D01*
X016345Y013548D01*
X016750Y013548D01*
X016788Y013559D01*
X016822Y013578D01*
X016850Y013606D01*
X016870Y013640D01*
X016880Y013679D01*
X016880Y013803D01*
X016345Y013803D01*
X016345Y013813D01*
X016880Y013813D01*
X016880Y013938D01*
X016870Y013976D01*
X016850Y014010D01*
X016822Y014038D01*
X016788Y014058D01*
X016750Y014068D01*
X016449Y014068D01*
X016450Y014070D01*
X016612Y014232D01*
X016707Y014232D01*
X016771Y014296D01*
X016771Y014820D01*
X016707Y014885D01*
X016771Y014814D02*
X017449Y014814D01*
X017455Y014825D02*
X017435Y014791D01*
X017425Y014753D01*
X017425Y014428D01*
X017840Y014428D01*
X017840Y014328D01*
X017940Y014328D01*
X017940Y013873D01*
X018225Y013873D01*
X018263Y013884D01*
X018297Y013903D01*
X018325Y013931D01*
X018345Y013965D01*
X018355Y014004D01*
X018355Y014328D01*
X017940Y014328D01*
X017940Y014428D01*
X018355Y014428D01*
X018355Y014753D01*
X018345Y014791D01*
X018325Y014825D01*
X018297Y014853D01*
X018263Y014873D01*
X018225Y014883D01*
X017940Y014883D01*
X017940Y014428D01*
X017840Y014428D01*
X017840Y014883D01*
X017555Y014883D01*
X017517Y014873D01*
X017483Y014853D01*
X017455Y014825D01*
X017425Y014716D02*
X016771Y014716D01*
X016771Y014617D02*
X017425Y014617D01*
X017425Y014519D02*
X016771Y014519D01*
X016771Y014420D02*
X017840Y014420D01*
X017840Y014328D02*
X017425Y014328D01*
X017425Y014004D01*
X017435Y013965D01*
X017455Y013931D01*
X017483Y013903D01*
X017517Y013884D01*
X017555Y013873D01*
X017840Y013873D01*
X017840Y014328D01*
X017840Y014322D02*
X017940Y014322D01*
X017940Y014420D02*
X018585Y014420D01*
X018585Y014322D02*
X018355Y014322D01*
X018355Y014223D02*
X018585Y014223D01*
X018585Y014125D02*
X018355Y014125D01*
X018355Y014026D02*
X018585Y014026D01*
X018635Y013928D02*
X018322Y013928D01*
X018650Y013829D02*
X016880Y013829D01*
X016880Y013731D02*
X018650Y013731D01*
X018650Y013632D02*
X016865Y013632D01*
X016880Y013928D02*
X017459Y013928D01*
X017425Y014026D02*
X016834Y014026D01*
X016771Y014322D02*
X017425Y014322D01*
X017425Y014223D02*
X016604Y014223D01*
X016505Y014125D02*
X017425Y014125D01*
X017840Y014125D02*
X017940Y014125D01*
X017940Y014223D02*
X017840Y014223D01*
X017840Y014026D02*
X017940Y014026D01*
X017940Y013928D02*
X017840Y013928D01*
X018322Y013435D02*
X018546Y013435D01*
X018448Y013337D02*
X018420Y013337D01*
X018650Y013534D02*
X015910Y013534D01*
X016335Y013632D02*
X016345Y013632D01*
X016335Y013731D02*
X016345Y013731D01*
X016158Y014420D02*
X016102Y014420D01*
X016102Y014519D02*
X016158Y014519D01*
X016158Y014617D02*
X016102Y014617D01*
X016102Y014716D02*
X016158Y014716D01*
X016158Y014814D02*
X016102Y014814D01*
X015915Y014913D02*
X019856Y014913D01*
X019856Y014814D02*
X019399Y014814D01*
X019435Y014716D02*
X019856Y014716D01*
X019856Y014617D02*
X019435Y014617D01*
X019435Y014519D02*
X019856Y014519D01*
X019856Y014420D02*
X019435Y014420D01*
X019435Y014322D02*
X019856Y014322D01*
X019856Y014223D02*
X019435Y014223D01*
X019435Y014125D02*
X019856Y014125D01*
X019856Y014026D02*
X019435Y014026D01*
X019385Y013928D02*
X019856Y013928D01*
X019856Y013829D02*
X019370Y013829D01*
X019370Y013731D02*
X019856Y013731D01*
X019856Y013632D02*
X019370Y013632D01*
X019370Y013534D02*
X019856Y013534D01*
X019856Y013435D02*
X019794Y013435D01*
X019856Y012723D02*
X019856Y012373D01*
X019787Y012442D01*
X019617Y012513D01*
X018723Y012513D01*
X018553Y012442D01*
X018422Y012311D01*
X018351Y012141D01*
X018351Y012085D01*
X018038Y012085D01*
X018038Y011787D01*
X018226Y011787D01*
X018264Y011797D01*
X018299Y011817D01*
X018327Y011845D01*
X018346Y011879D01*
X018357Y011917D01*
X018357Y011943D01*
X018422Y011785D01*
X018553Y011655D01*
X018723Y011584D01*
X018810Y011584D01*
X018810Y011317D01*
X018581Y011088D01*
X017215Y011095D01*
X017215Y011096D01*
X017077Y011233D01*
X016883Y011233D01*
X016871Y011221D01*
X016871Y011773D01*
X016806Y011837D01*
X016575Y011837D01*
X016575Y012026D01*
X016530Y012071D01*
X016530Y012088D01*
X016601Y012088D01*
X016630Y012060D01*
X016741Y011948D01*
X016843Y011948D01*
X016843Y011891D01*
X016908Y011827D01*
X017432Y011827D01*
X017497Y011891D01*
X017497Y012376D01*
X017432Y012440D01*
X016908Y012440D01*
X016847Y012380D01*
X016840Y012387D01*
X016840Y012464D01*
X016776Y012528D01*
X015910Y012528D01*
X015910Y012588D01*
X016776Y012588D01*
X016806Y012618D01*
X016843Y012618D01*
X016843Y012561D01*
X016908Y012496D01*
X017432Y012496D01*
X017497Y012561D01*
X017497Y012613D01*
X017663Y012613D01*
X017663Y012561D01*
X017728Y012496D01*
X018252Y012496D01*
X018317Y012561D01*
X018317Y012903D01*
X018351Y012868D01*
X018388Y012868D01*
X018422Y012785D01*
X018553Y012655D01*
X018723Y012584D01*
X019617Y012584D01*
X019787Y012655D01*
X019856Y012723D01*
X019856Y012647D02*
X019770Y012647D01*
X019856Y012549D02*
X018305Y012549D01*
X018264Y012470D02*
X018226Y012480D01*
X018038Y012480D01*
X018038Y012182D01*
X017942Y012182D01*
X017942Y012480D01*
X017754Y012480D01*
X017716Y012470D01*
X017681Y012451D01*
X017653Y012423D01*
X017634Y012388D01*
X017623Y012350D01*
X017623Y012182D01*
X017942Y012182D01*
X017942Y012085D01*
X018038Y012085D01*
X018038Y012182D01*
X018357Y012182D01*
X018357Y012350D01*
X018346Y012388D01*
X018327Y012423D01*
X018299Y012451D01*
X018264Y012470D01*
X018299Y012450D02*
X018573Y012450D01*
X018463Y012352D02*
X018356Y012352D01*
X018357Y012253D02*
X018398Y012253D01*
X018357Y012155D02*
X018038Y012155D01*
X017942Y012155D02*
X017497Y012155D01*
X017497Y012253D02*
X017623Y012253D01*
X017624Y012352D02*
X017497Y012352D01*
X017485Y012549D02*
X017675Y012549D01*
X017681Y012450D02*
X016840Y012450D01*
X016855Y012549D02*
X015910Y012549D01*
X015636Y012253D02*
X015285Y012253D01*
X015285Y012262D02*
X015180Y012367D01*
X015069Y012478D01*
X014966Y012478D01*
X014916Y012528D01*
X014150Y012528D01*
X014150Y012588D01*
X014916Y012588D01*
X014980Y012653D01*
X014980Y012964D01*
X014916Y013028D01*
X014670Y013028D01*
X014670Y013088D01*
X014916Y013088D01*
X014980Y013153D01*
X014980Y013464D01*
X014916Y013528D01*
X014132Y013528D01*
X014065Y013588D01*
X014916Y013588D01*
X014980Y013653D01*
X014980Y013964D01*
X014916Y014028D01*
X014665Y014028D01*
X014665Y014241D01*
X014737Y014241D01*
X014789Y014293D01*
X014808Y014259D01*
X014836Y014231D01*
X014870Y014212D01*
X014908Y014201D01*
X015096Y014201D01*
X015096Y014500D01*
X015193Y014500D01*
X015193Y014201D01*
X015381Y014201D01*
X015419Y014212D01*
X015453Y014231D01*
X015481Y014259D01*
X015497Y014287D01*
X015553Y014232D01*
X015695Y014232D01*
X015641Y014178D01*
X015530Y014067D01*
X015530Y012360D01*
X015650Y012240D01*
X015761Y012128D01*
X015864Y012128D01*
X015904Y012088D01*
X016150Y012088D01*
X016150Y012071D01*
X016105Y012026D01*
X016105Y011847D01*
X016071Y011867D01*
X016033Y011877D01*
X015864Y011877D01*
X015864Y011500D01*
X015768Y011500D01*
X015768Y011877D01*
X015599Y011877D01*
X015561Y011867D01*
X015527Y011847D01*
X015499Y011819D01*
X015479Y011785D01*
X015469Y011747D01*
X015469Y011500D01*
X015768Y011500D01*
X015768Y011403D01*
X015469Y011403D01*
X015469Y011198D01*
X015264Y011198D01*
X015188Y011201D01*
X015185Y011198D01*
X015181Y011198D01*
X015128Y011145D01*
X015096Y011115D01*
X014431Y011122D01*
X014431Y011123D01*
X014345Y011209D01*
X014267Y011241D01*
X014377Y011241D01*
X014377Y011540D01*
X014059Y011540D01*
X014059Y011372D01*
X014069Y011334D01*
X014089Y011299D01*
X014117Y011271D01*
X014143Y011256D01*
X014109Y011256D01*
X013995Y011209D01*
X013914Y011128D01*
X013850Y011128D01*
X013848Y010802D01*
X013727Y010923D01*
X013533Y010923D01*
X013395Y010786D01*
X013395Y010591D01*
X013533Y010453D01*
X013554Y010453D01*
X013554Y010447D01*
X013599Y010402D01*
X013635Y010350D01*
X013652Y010347D01*
X013664Y010335D01*
X013728Y010334D01*
X013790Y010323D01*
X013804Y010333D01*
X013846Y010332D01*
X013845Y010114D01*
X013376Y010114D01*
X013377Y010117D01*
X013377Y010305D01*
X013078Y010305D01*
X013078Y010402D01*
X013377Y010402D01*
X013377Y010590D01*
X013367Y010628D01*
X013347Y010662D01*
X013319Y010690D01*
X013286Y010710D01*
X013337Y010761D01*
X013337Y011075D01*
X013407Y011151D01*
X013441Y011185D01*
X013543Y011083D01*
X013737Y011083D01*
X013875Y011221D01*
X013875Y011416D01*
X013830Y011461D01*
X013830Y011493D01*
X013860Y011523D01*
X013860Y012028D01*
X013904Y012028D01*
X013977Y012024D01*
X013982Y012028D01*
X013989Y012028D01*
X014040Y012080D01*
X014050Y012088D01*
X014905Y012088D01*
X014905Y011895D01*
X014833Y011895D01*
X014781Y011844D01*
X014762Y011877D01*
X014734Y011905D01*
X014700Y011925D01*
X014662Y011935D01*
X014474Y011935D01*
X014474Y011637D01*
X014377Y011637D01*
X014377Y011935D01*
X014189Y011935D01*
X014151Y011925D01*
X014117Y011905D01*
X014089Y011877D01*
X014069Y011843D01*
X014059Y011805D01*
X014059Y011637D01*
X014377Y011637D01*
X014377Y011540D01*
X014474Y011540D01*
X014474Y011241D01*
X014662Y011241D01*
X014700Y011252D01*
X014734Y011271D01*
X014762Y011299D01*
X014781Y011333D01*
X014833Y011281D01*
X015357Y011281D01*
X015421Y011346D01*
X015421Y011831D01*
X015357Y011895D01*
X015285Y011895D01*
X015285Y012262D01*
X015285Y012155D02*
X015735Y012155D01*
X015538Y012352D02*
X015195Y012352D01*
X015097Y012450D02*
X015530Y012450D01*
X015530Y012549D02*
X014150Y012549D01*
X014017Y012056D02*
X014905Y012056D01*
X014905Y011958D02*
X013860Y011958D01*
X013860Y011859D02*
X014078Y011859D01*
X014059Y011761D02*
X013860Y011761D01*
X013860Y011662D02*
X014059Y011662D01*
X014059Y011465D02*
X013830Y011465D01*
X013860Y011564D02*
X014377Y011564D01*
X014377Y011662D02*
X014474Y011662D01*
X014474Y011761D02*
X014377Y011761D01*
X014377Y011859D02*
X014474Y011859D01*
X014772Y011859D02*
X014797Y011859D01*
X014474Y011465D02*
X014377Y011465D01*
X014377Y011367D02*
X014474Y011367D01*
X014474Y011268D02*
X014377Y011268D01*
X014384Y011170D02*
X015153Y011170D01*
X015469Y011268D02*
X014729Y011268D01*
X014574Y010816D02*
X014538Y010780D01*
X014538Y010256D01*
X014602Y010192D01*
X015087Y010192D01*
X015151Y010256D01*
X015151Y010648D01*
X015330Y010814D01*
X015773Y010800D01*
X015713Y010740D01*
X015298Y010740D01*
X015233Y010675D01*
X015233Y010191D01*
X015298Y010126D01*
X015822Y010126D01*
X015887Y010191D01*
X015887Y010261D01*
X015948Y010200D01*
X016432Y010200D01*
X016497Y010264D01*
X016497Y010308D01*
X016547Y010308D01*
X016547Y010260D01*
X016612Y010195D01*
X017236Y010195D01*
X017236Y010101D01*
X017001Y010101D01*
X017001Y009803D01*
X016904Y009803D01*
X016904Y010101D01*
X016638Y010101D01*
X016600Y010091D01*
X016565Y010071D01*
X016537Y010043D01*
X016518Y010009D01*
X016507Y009971D01*
X016507Y009803D01*
X016904Y009803D01*
X016904Y009706D01*
X016507Y009706D01*
X016507Y009553D01*
X015927Y009553D01*
X015927Y009715D01*
X015608Y009715D01*
X015608Y009812D01*
X015512Y009812D01*
X015512Y010110D01*
X015324Y010110D01*
X015286Y010100D01*
X015251Y010081D01*
X015223Y010053D01*
X015204Y010018D01*
X015193Y009980D01*
X015193Y009812D01*
X015512Y009812D01*
X015512Y009715D01*
X015193Y009715D01*
X015193Y009553D01*
X014080Y009553D01*
X014080Y010192D01*
X014418Y010192D01*
X014482Y010256D01*
X014482Y010780D01*
X014451Y010812D01*
X014574Y010816D01*
X014538Y010776D02*
X014482Y010776D01*
X014482Y010677D02*
X014538Y010677D01*
X014538Y010579D02*
X014482Y010579D01*
X014482Y010480D02*
X014538Y010480D01*
X014538Y010382D02*
X014482Y010382D01*
X014482Y010283D02*
X014538Y010283D01*
X014080Y010185D02*
X015239Y010185D01*
X015233Y010283D02*
X015151Y010283D01*
X015151Y010382D02*
X015233Y010382D01*
X015233Y010480D02*
X015151Y010480D01*
X015151Y010579D02*
X015233Y010579D01*
X015235Y010677D02*
X015183Y010677D01*
X015289Y010776D02*
X015749Y010776D01*
X015881Y010185D02*
X017236Y010185D01*
X017001Y010086D02*
X016904Y010086D01*
X016904Y009988D02*
X017001Y009988D01*
X017001Y009889D02*
X016904Y009889D01*
X016904Y009791D02*
X015608Y009791D01*
X015608Y009812D02*
X015927Y009812D01*
X015927Y009980D01*
X015916Y010018D01*
X015897Y010053D01*
X015869Y010081D01*
X015834Y010100D01*
X015796Y010110D01*
X015608Y010110D01*
X015608Y009812D01*
X015608Y009889D02*
X015512Y009889D01*
X015512Y009791D02*
X014080Y009791D01*
X014080Y009889D02*
X015193Y009889D01*
X015195Y009988D02*
X014080Y009988D01*
X014080Y010086D02*
X015261Y010086D01*
X015512Y010086D02*
X015608Y010086D01*
X015608Y009988D02*
X015512Y009988D01*
X015859Y010086D02*
X016592Y010086D01*
X016512Y009988D02*
X015925Y009988D01*
X015927Y009889D02*
X016507Y009889D01*
X016507Y009692D02*
X015927Y009692D01*
X015927Y009594D02*
X016507Y009594D01*
X016497Y010283D02*
X016547Y010283D01*
X016871Y011268D02*
X018761Y011268D01*
X018810Y011367D02*
X016871Y011367D01*
X016871Y011465D02*
X018810Y011465D01*
X018810Y011564D02*
X016871Y011564D01*
X016871Y011662D02*
X018545Y011662D01*
X018446Y011761D02*
X016871Y011761D01*
X016875Y011859D02*
X016575Y011859D01*
X016575Y011958D02*
X016732Y011958D01*
X016633Y012056D02*
X016544Y012056D01*
X016257Y011693D02*
X016257Y011421D01*
X016163Y011330D01*
X016163Y011403D01*
X015864Y011403D01*
X015864Y011500D01*
X016163Y011500D01*
X016163Y011747D01*
X016153Y011783D01*
X016243Y011693D01*
X016257Y011693D01*
X016257Y011662D02*
X016163Y011662D01*
X016163Y011564D02*
X016257Y011564D01*
X016257Y011465D02*
X015864Y011465D01*
X015768Y011465D02*
X015421Y011465D01*
X015421Y011367D02*
X015469Y011367D01*
X015469Y011564D02*
X015421Y011564D01*
X015421Y011662D02*
X015469Y011662D01*
X015473Y011761D02*
X015421Y011761D01*
X015393Y011859D02*
X015548Y011859D01*
X015768Y011859D02*
X015864Y011859D01*
X015864Y011761D02*
X015768Y011761D01*
X015768Y011662D02*
X015864Y011662D01*
X015864Y011564D02*
X015768Y011564D01*
X016084Y011859D02*
X016105Y011859D01*
X016105Y011847D02*
X016105Y011847D01*
X016159Y011761D02*
X016175Y011761D01*
X016105Y011958D02*
X015285Y011958D01*
X015285Y012056D02*
X016136Y012056D01*
X016163Y011367D02*
X016201Y011367D01*
X017141Y011170D02*
X018662Y011170D01*
X018391Y011859D02*
X018335Y011859D01*
X018038Y011859D02*
X017942Y011859D01*
X017942Y011787D02*
X017942Y012085D01*
X017623Y012085D01*
X017623Y011917D01*
X017634Y011879D01*
X017653Y011845D01*
X017681Y011817D01*
X017716Y011797D01*
X017754Y011787D01*
X017942Y011787D01*
X017942Y011958D02*
X018038Y011958D01*
X018038Y012056D02*
X017942Y012056D01*
X017942Y012253D02*
X018038Y012253D01*
X018038Y012352D02*
X017942Y012352D01*
X017942Y012450D02*
X018038Y012450D01*
X018317Y012647D02*
X018570Y012647D01*
X018461Y012746D02*
X018317Y012746D01*
X018317Y012844D02*
X018398Y012844D01*
X017623Y012056D02*
X017497Y012056D01*
X017497Y011958D02*
X017623Y011958D01*
X017645Y011859D02*
X017465Y011859D01*
X015530Y012647D02*
X014975Y012647D01*
X014980Y012746D02*
X015530Y012746D01*
X015530Y012844D02*
X014980Y012844D01*
X014980Y012943D02*
X015530Y012943D01*
X015530Y013041D02*
X014670Y013041D01*
X014967Y013140D02*
X015530Y013140D01*
X015530Y013238D02*
X014980Y013238D01*
X014980Y013337D02*
X015530Y013337D01*
X015530Y013435D02*
X014980Y013435D01*
X014960Y013632D02*
X015530Y013632D01*
X015530Y013534D02*
X014126Y013534D01*
X014014Y013998D02*
X013989Y013998D01*
X013947Y014040D01*
X013947Y014296D01*
X013882Y014360D01*
X013358Y014360D01*
X013293Y014296D01*
X013293Y013951D01*
X013097Y014127D01*
X013097Y014316D01*
X013032Y014380D01*
X012548Y014380D01*
X012483Y014316D01*
X012483Y013792D01*
X012548Y013727D01*
X012974Y013727D01*
X013159Y013560D01*
X013211Y013508D01*
X013217Y013508D01*
X013222Y013504D01*
X013262Y013507D01*
X013222Y013410D01*
X013222Y013287D01*
X013242Y013238D01*
X013140Y013238D01*
X013102Y013228D01*
X013068Y013208D01*
X013057Y013197D01*
X013056Y013198D01*
X012744Y013198D01*
X012680Y013134D01*
X012680Y012958D01*
X012411Y012958D01*
X012411Y013030D01*
X012347Y013095D01*
X012285Y013095D01*
X012285Y013282D01*
X012337Y013282D01*
X012401Y013346D01*
X012401Y013870D01*
X012337Y013935D01*
X011852Y013935D01*
X011788Y013870D01*
X011788Y013346D01*
X011852Y013282D01*
X011905Y013282D01*
X011905Y013095D01*
X011862Y013095D01*
X011798Y013030D01*
X011798Y012506D01*
X011862Y012442D01*
X011870Y012442D01*
X011870Y012321D01*
X011825Y012276D01*
X011825Y012081D01*
X011963Y011943D01*
X012157Y011943D01*
X012295Y012081D01*
X012295Y012276D01*
X012250Y012321D01*
X012250Y012442D01*
X012347Y012442D01*
X012411Y012506D01*
X012411Y012578D01*
X012680Y012578D01*
X012680Y012543D01*
X012744Y012478D01*
X012991Y012478D01*
X012710Y012197D01*
X012710Y012144D01*
X012680Y012114D01*
X012680Y012051D01*
X012677Y012053D01*
X012483Y012053D01*
X012345Y011916D01*
X012345Y011721D01*
X012483Y011583D01*
X012677Y011583D01*
X012680Y011586D01*
X012680Y011523D01*
X012744Y011458D01*
X013056Y011458D01*
X013080Y011483D01*
X013080Y011357D01*
X013073Y011349D01*
X012788Y011349D01*
X012723Y011285D01*
X012723Y011213D01*
X012625Y011213D01*
X012625Y011344D01*
X012561Y011409D01*
X012058Y011409D01*
X012035Y011432D01*
X012035Y011496D01*
X011990Y011541D01*
X011990Y011707D01*
X011991Y011784D01*
X011990Y011785D01*
X011990Y011787D01*
X011935Y011842D01*
X011680Y012105D01*
X011680Y012204D01*
X011616Y012268D01*
X011004Y012268D01*
X010940Y012204D01*
X010940Y011893D01*
X011004Y011828D01*
X011419Y011828D01*
X011610Y011631D01*
X011610Y011541D01*
X011598Y011528D01*
X011004Y011528D01*
X010940Y011464D01*
X010940Y011153D01*
X011004Y011088D01*
X011120Y011088D01*
X011120Y010845D01*
X010943Y010845D01*
X010891Y010794D01*
X010872Y010827D01*
X010844Y010855D01*
X010810Y010875D01*
X010772Y010885D01*
X010584Y010885D01*
X010584Y010587D01*
X010487Y010587D01*
X010487Y010885D01*
X010299Y010885D01*
X010261Y010875D01*
X010227Y010855D01*
X010199Y010827D01*
X010179Y010793D01*
X010169Y010755D01*
X010169Y010587D01*
X010487Y010587D01*
X010487Y010490D01*
X010169Y010490D01*
X010169Y010322D01*
X010179Y010284D01*
X010199Y010249D01*
X010227Y010221D01*
X010261Y010202D01*
X010299Y010191D01*
X010487Y010191D01*
X010487Y010490D01*
X010584Y010490D01*
X010584Y010191D01*
X010772Y010191D01*
X010810Y010202D01*
X010844Y010221D01*
X010872Y010249D01*
X010891Y010283D01*
X010943Y010231D01*
X011234Y010231D01*
X011272Y010218D01*
X011299Y010231D01*
X011467Y010231D01*
X011531Y010296D01*
X011531Y010781D01*
X011500Y010812D01*
X011500Y011088D01*
X011616Y011088D01*
X011680Y011153D01*
X011680Y011186D01*
X011703Y011163D01*
X011766Y011163D01*
X011815Y011115D01*
X011815Y010741D01*
X011820Y010737D01*
X011805Y010722D01*
X011785Y010687D01*
X011775Y010649D01*
X011775Y010424D01*
X012170Y010424D01*
X012170Y010324D01*
X011775Y010324D01*
X011775Y010114D01*
X009823Y010114D01*
X009640Y010297D01*
X009640Y010834D01*
X009747Y010834D01*
X009917Y010905D01*
X010048Y011035D01*
X010074Y011099D01*
X010084Y011088D01*
X010696Y011088D01*
X010760Y011153D01*
X010760Y011464D01*
X010759Y011465D01*
X010770Y011476D01*
X010790Y011510D01*
X010800Y011549D01*
X010800Y011673D01*
X010395Y011673D01*
X010395Y011683D01*
X010800Y011683D01*
X010800Y011808D01*
X010790Y011846D01*
X010770Y011880D01*
X010759Y011892D01*
X010760Y011893D01*
X010760Y012204D01*
X010696Y012268D01*
X010084Y012268D01*
X010064Y012248D01*
X009350Y012248D01*
X009350Y011794D01*
X009694Y011794D01*
X009720Y011798D01*
X009720Y011763D01*
X008853Y011763D01*
X008683Y011692D01*
X008555Y011564D01*
X008555Y011978D01*
X008561Y011970D01*
X008617Y011914D01*
X008681Y011867D01*
X008752Y011831D01*
X008828Y011806D01*
X008906Y011794D01*
X009250Y011794D01*
X009250Y012248D01*
X009350Y012248D01*
X009350Y012348D01*
X010157Y012348D01*
X010146Y012416D01*
X010122Y012492D01*
X010086Y012563D01*
X010039Y012627D01*
X009983Y012683D01*
X009919Y012730D01*
X009848Y012766D01*
X009772Y012790D01*
X009694Y012803D01*
X009350Y012803D01*
X009350Y012348D01*
X009250Y012348D01*
X009250Y012803D01*
X008906Y012803D01*
X008828Y012790D01*
X008752Y012766D01*
X008681Y012730D01*
X008617Y012683D01*
X008561Y012627D01*
X008555Y012619D01*
X008555Y013032D01*
X008683Y012905D01*
X008853Y012834D01*
X009747Y012834D01*
X009917Y012905D01*
X009976Y012963D01*
X010040Y012900D01*
X010151Y012788D01*
X010433Y012788D01*
X010433Y012741D01*
X010498Y012677D01*
X011022Y012677D01*
X011087Y012741D01*
X011087Y013226D01*
X011022Y013290D01*
X010498Y013290D01*
X010433Y013226D01*
X010433Y013168D01*
X010309Y013168D01*
X010119Y013358D01*
X010119Y013391D01*
X010048Y013561D01*
X009917Y013692D01*
X009747Y013763D01*
X009211Y013763D01*
X009444Y013859D01*
X009639Y014055D01*
X009745Y014310D01*
X009745Y014587D01*
X009639Y014842D01*
X009532Y014949D01*
X012483Y014949D01*
X012483Y014461D01*
X012548Y014396D01*
X013032Y014396D01*
X013097Y014461D01*
X013097Y014533D01*
X013293Y014533D01*
X013293Y014481D01*
X013358Y014416D01*
X013882Y014416D01*
X013947Y014481D01*
X013947Y014712D01*
X013962Y014728D01*
X014149Y014728D01*
X014149Y014306D01*
X014213Y014241D01*
X014285Y014241D01*
X014285Y014028D01*
X014044Y014028D01*
X014014Y013998D01*
X014042Y014026D02*
X013961Y014026D01*
X013947Y014125D02*
X014285Y014125D01*
X014285Y014223D02*
X013947Y014223D01*
X013921Y014322D02*
X014149Y014322D01*
X014149Y014420D02*
X013886Y014420D01*
X013947Y014519D02*
X014149Y014519D01*
X014149Y014617D02*
X013947Y014617D01*
X013950Y014716D02*
X014149Y014716D01*
X014665Y014223D02*
X014850Y014223D01*
X014918Y014026D02*
X015530Y014026D01*
X015530Y013928D02*
X014980Y013928D01*
X014980Y013829D02*
X015530Y013829D01*
X015530Y013731D02*
X014980Y013731D01*
X014665Y014125D02*
X015588Y014125D01*
X015686Y014223D02*
X015439Y014223D01*
X015193Y014223D02*
X015096Y014223D01*
X015096Y014322D02*
X015193Y014322D01*
X015193Y014420D02*
X015096Y014420D01*
X013354Y014420D02*
X013056Y014420D01*
X013091Y014322D02*
X013319Y014322D01*
X013293Y014223D02*
X013097Y014223D01*
X013100Y014125D02*
X013293Y014125D01*
X013293Y014026D02*
X013209Y014026D01*
X013293Y014519D02*
X013097Y014519D01*
X012524Y014420D02*
X010544Y014420D01*
X010544Y014419D02*
X010524Y014469D01*
X010494Y014514D01*
X010455Y014552D01*
X010410Y014582D01*
X010360Y014603D01*
X010307Y014613D01*
X010293Y014613D01*
X010293Y014351D01*
X010555Y014351D01*
X010555Y014365D01*
X010544Y014419D01*
X010555Y014326D02*
X010293Y014326D01*
X010293Y014351D01*
X010267Y014351D01*
X010267Y014326D01*
X010005Y014326D01*
X010005Y014311D01*
X010016Y014258D01*
X010036Y014208D01*
X010066Y014163D01*
X010105Y014125D01*
X010150Y014095D01*
X010200Y014074D01*
X010253Y014063D01*
X010267Y014063D01*
X010267Y014326D01*
X010293Y014326D01*
X010293Y014063D01*
X010307Y014063D01*
X010360Y014074D01*
X010410Y014095D01*
X010455Y014125D01*
X010494Y014163D01*
X010524Y014208D01*
X010544Y014258D01*
X010555Y014311D01*
X010555Y014326D01*
X010555Y014322D02*
X012489Y014322D01*
X012483Y014223D02*
X010530Y014223D01*
X010455Y014125D02*
X012483Y014125D01*
X012483Y014026D02*
X010929Y014026D01*
X010912Y014043D02*
X010608Y014043D01*
X010535Y013970D01*
X010525Y013960D01*
X010498Y013960D01*
X010433Y013895D01*
X010433Y013411D01*
X010498Y013346D01*
X011022Y013346D01*
X011087Y013411D01*
X011087Y013463D01*
X011119Y013463D01*
X011119Y013346D01*
X011183Y013282D01*
X011668Y013282D01*
X011732Y013346D01*
X011732Y013870D01*
X011668Y013935D01*
X011183Y013935D01*
X011119Y013870D01*
X011119Y013843D01*
X011087Y013843D01*
X011087Y013895D01*
X011022Y013960D01*
X010995Y013960D01*
X010912Y014043D01*
X011054Y013928D02*
X011176Y013928D01*
X011119Y013435D02*
X011087Y013435D01*
X011128Y013337D02*
X010140Y013337D01*
X010100Y013435D02*
X010433Y013435D01*
X010433Y013534D02*
X010059Y013534D01*
X009977Y013632D02*
X010433Y013632D01*
X010433Y013731D02*
X009824Y013731D01*
X009611Y014026D02*
X010591Y014026D01*
X010535Y013970D02*
X010535Y013970D01*
X010466Y013928D02*
X009512Y013928D01*
X009372Y013829D02*
X010433Y013829D01*
X010293Y014125D02*
X010267Y014125D01*
X010267Y014223D02*
X010293Y014223D01*
X010293Y014322D02*
X010267Y014322D01*
X010267Y014351D02*
X010005Y014351D01*
X010005Y014365D01*
X010016Y014419D01*
X010036Y014469D01*
X010066Y014514D01*
X010105Y014552D01*
X010150Y014582D01*
X010200Y014603D01*
X010253Y014613D01*
X010267Y014613D01*
X010267Y014351D01*
X010267Y014420D02*
X010293Y014420D01*
X010293Y014519D02*
X010267Y014519D01*
X010072Y014519D02*
X009745Y014519D01*
X009745Y014420D02*
X010016Y014420D01*
X010005Y014322D02*
X009745Y014322D01*
X009709Y014223D02*
X010030Y014223D01*
X010105Y014125D02*
X009668Y014125D01*
X009732Y014617D02*
X012483Y014617D01*
X012483Y014519D02*
X010488Y014519D01*
X009691Y014716D02*
X012483Y014716D01*
X012483Y014814D02*
X009651Y014814D01*
X009568Y014913D02*
X012483Y014913D01*
X012483Y013928D02*
X012344Y013928D01*
X012401Y013829D02*
X012483Y013829D01*
X012544Y013731D02*
X012401Y013731D01*
X012401Y013632D02*
X013079Y013632D01*
X013186Y013534D02*
X012401Y013534D01*
X012401Y013435D02*
X013233Y013435D01*
X013222Y013337D02*
X012392Y013337D01*
X012285Y013238D02*
X013242Y013238D01*
X012686Y013140D02*
X012285Y013140D01*
X012401Y013041D02*
X012680Y013041D01*
X012680Y012549D02*
X012411Y012549D01*
X012356Y012450D02*
X012963Y012450D01*
X012865Y012352D02*
X012250Y012352D01*
X012295Y012253D02*
X012766Y012253D01*
X012710Y012155D02*
X012295Y012155D01*
X012270Y012056D02*
X012680Y012056D01*
X012387Y011958D02*
X012172Y011958D01*
X012345Y011859D02*
X011918Y011859D01*
X011948Y011958D02*
X011823Y011958D01*
X011850Y012056D02*
X011727Y012056D01*
X011680Y012155D02*
X011825Y012155D01*
X011825Y012253D02*
X011631Y012253D01*
X011652Y012402D02*
X011690Y012412D01*
X011724Y012432D01*
X011752Y012460D01*
X011772Y012494D01*
X011782Y012532D01*
X011782Y012720D01*
X011484Y012720D01*
X011484Y012817D01*
X011387Y012817D01*
X011387Y013135D01*
X011219Y013135D01*
X011181Y013125D01*
X011146Y013105D01*
X011118Y013077D01*
X011099Y013043D01*
X011089Y013005D01*
X011089Y012817D01*
X011387Y012817D01*
X011387Y012720D01*
X011089Y012720D01*
X011089Y012532D01*
X011099Y012494D01*
X011118Y012460D01*
X011146Y012432D01*
X011181Y012412D01*
X011219Y012402D01*
X011387Y012402D01*
X011387Y012720D01*
X011484Y012720D01*
X011484Y012402D01*
X011652Y012402D01*
X011743Y012450D02*
X011854Y012450D01*
X011870Y012352D02*
X010156Y012352D01*
X010135Y012450D02*
X011128Y012450D01*
X011089Y012549D02*
X010093Y012549D01*
X010019Y012647D02*
X011089Y012647D01*
X011087Y012746D02*
X011387Y012746D01*
X011484Y012746D02*
X011798Y012746D01*
X011782Y012817D02*
X011484Y012817D01*
X011484Y013135D01*
X011652Y013135D01*
X011690Y013125D01*
X011724Y013105D01*
X011752Y013077D01*
X011772Y013043D01*
X011782Y013005D01*
X011782Y012817D01*
X011782Y012844D02*
X011798Y012844D01*
X011798Y012943D02*
X011782Y012943D01*
X011772Y013041D02*
X011809Y013041D01*
X011905Y013140D02*
X011087Y013140D01*
X011087Y013041D02*
X011098Y013041D01*
X011087Y012943D02*
X011089Y012943D01*
X011087Y012844D02*
X011089Y012844D01*
X011387Y012844D02*
X011484Y012844D01*
X011484Y012943D02*
X011387Y012943D01*
X011387Y013041D02*
X011484Y013041D01*
X011723Y013337D02*
X011797Y013337D01*
X011788Y013435D02*
X011732Y013435D01*
X011732Y013534D02*
X011788Y013534D01*
X011788Y013632D02*
X011732Y013632D01*
X011732Y013731D02*
X011788Y013731D01*
X011788Y013829D02*
X011732Y013829D01*
X011675Y013928D02*
X011845Y013928D01*
X011905Y013238D02*
X011074Y013238D01*
X010446Y013238D02*
X010239Y013238D01*
X009997Y012943D02*
X009956Y012943D01*
X010095Y012844D02*
X009772Y012844D01*
X009887Y012746D02*
X010433Y012746D01*
X010711Y012253D02*
X010989Y012253D01*
X010940Y012155D02*
X010760Y012155D01*
X010760Y012056D02*
X010940Y012056D01*
X010940Y011958D02*
X010760Y011958D01*
X010782Y011859D02*
X010973Y011859D01*
X010800Y011761D02*
X011484Y011761D01*
X011580Y011662D02*
X010800Y011662D01*
X010800Y011564D02*
X011610Y011564D01*
X011990Y011564D02*
X012680Y011564D01*
X012737Y011465D02*
X012035Y011465D01*
X011990Y011662D02*
X012404Y011662D01*
X012345Y011761D02*
X011991Y011761D01*
X011696Y011170D02*
X011680Y011170D01*
X011815Y011071D02*
X011500Y011071D01*
X011500Y010973D02*
X011815Y010973D01*
X011815Y010874D02*
X011500Y010874D01*
X011531Y010776D02*
X011815Y010776D01*
X011782Y010677D02*
X011531Y010677D01*
X011531Y010579D02*
X011775Y010579D01*
X011775Y010480D02*
X011531Y010480D01*
X011531Y010382D02*
X012170Y010382D01*
X012270Y010382D02*
X012982Y010382D01*
X012982Y010402D02*
X012982Y010305D01*
X012683Y010305D01*
X012683Y010117D01*
X012684Y010114D01*
X012665Y010114D01*
X012665Y010324D01*
X012270Y010324D01*
X012270Y010424D01*
X012665Y010424D01*
X012665Y010649D01*
X012655Y010687D01*
X012635Y010722D01*
X012620Y010737D01*
X012625Y010741D01*
X012625Y010833D01*
X012723Y010833D01*
X012723Y010761D01*
X012774Y010710D01*
X012741Y010690D01*
X012713Y010662D01*
X012693Y010628D01*
X012683Y010590D01*
X012683Y010402D01*
X012982Y010402D01*
X013078Y010382D02*
X013613Y010382D01*
X013506Y010480D02*
X013377Y010480D01*
X013377Y010579D02*
X013407Y010579D01*
X013395Y010677D02*
X013332Y010677D01*
X013337Y010776D02*
X013395Y010776D01*
X013337Y010874D02*
X013484Y010874D01*
X013337Y010973D02*
X013849Y010973D01*
X013850Y011071D02*
X013337Y011071D01*
X013426Y011170D02*
X013456Y011170D01*
X013824Y011170D02*
X013956Y011170D01*
X013875Y011268D02*
X014122Y011268D01*
X014060Y011367D02*
X013875Y011367D01*
X013849Y010874D02*
X013776Y010874D01*
X013846Y010283D02*
X013377Y010283D01*
X013377Y010185D02*
X013845Y010185D01*
X014080Y009692D02*
X015193Y009692D01*
X015193Y009594D02*
X014080Y009594D01*
X012728Y010677D02*
X012658Y010677D01*
X012665Y010579D02*
X012683Y010579D01*
X012683Y010480D02*
X012665Y010480D01*
X012665Y010283D02*
X012683Y010283D01*
X012683Y010185D02*
X012665Y010185D01*
X012625Y010776D02*
X012723Y010776D01*
X012723Y011268D02*
X012625Y011268D01*
X012603Y011367D02*
X013080Y011367D01*
X013080Y011465D02*
X013063Y011465D01*
X011798Y012549D02*
X011782Y012549D01*
X011782Y012647D02*
X011798Y012647D01*
X011484Y012647D02*
X011387Y012647D01*
X011387Y012549D02*
X011484Y012549D01*
X011484Y012450D02*
X011387Y012450D01*
X010941Y011465D02*
X010759Y011465D01*
X010760Y011367D02*
X010940Y011367D01*
X010940Y011268D02*
X010760Y011268D01*
X010760Y011170D02*
X010940Y011170D01*
X011120Y011071D02*
X010063Y011071D01*
X009985Y010973D02*
X011120Y010973D01*
X011120Y010874D02*
X010811Y010874D01*
X010584Y010874D02*
X010487Y010874D01*
X010487Y010776D02*
X010584Y010776D01*
X010584Y010677D02*
X010487Y010677D01*
X010487Y010579D02*
X009640Y010579D01*
X009640Y010677D02*
X010169Y010677D01*
X010174Y010776D02*
X009640Y010776D01*
X009844Y010874D02*
X010260Y010874D01*
X010169Y010480D02*
X009640Y010480D01*
X009640Y010382D02*
X010169Y010382D01*
X010179Y010283D02*
X009654Y010283D01*
X009753Y010185D02*
X011775Y010185D01*
X011775Y010283D02*
X011519Y010283D01*
X010584Y010283D02*
X010487Y010283D01*
X010487Y010382D02*
X010584Y010382D01*
X010584Y010480D02*
X010487Y010480D01*
X009350Y011859D02*
X009250Y011859D01*
X009250Y011958D02*
X009350Y011958D01*
X009350Y012056D02*
X009250Y012056D01*
X009250Y012155D02*
X009350Y012155D01*
X009350Y012253D02*
X010069Y012253D01*
X009350Y012352D02*
X009250Y012352D01*
X009250Y012450D02*
X009350Y012450D01*
X009350Y012549D02*
X009250Y012549D01*
X009250Y012647D02*
X009350Y012647D01*
X009350Y012746D02*
X009250Y012746D01*
X008828Y012844D02*
X008555Y012844D01*
X008555Y012746D02*
X008713Y012746D01*
X008581Y012647D02*
X008555Y012647D01*
X008555Y012943D02*
X008644Y012943D01*
X008573Y011958D02*
X008555Y011958D01*
X008555Y011859D02*
X008696Y011859D01*
X008555Y011761D02*
X008849Y011761D01*
X008653Y011662D02*
X008555Y011662D01*
X015020Y019345D02*
X015570Y019345D01*
X015570Y019444D02*
X015020Y019444D01*
X015020Y019542D02*
X015570Y019542D01*
X015570Y019641D02*
X015020Y019641D01*
X015020Y019838D02*
X015570Y019838D01*
X015570Y019936D02*
X015020Y019936D01*
X015020Y020035D02*
X015570Y020035D01*
X015570Y020133D02*
X015020Y020133D01*
X014710Y019739D02*
X015570Y019739D01*
X015950Y020232D02*
X015957Y020232D01*
X016375Y020232D02*
X016385Y020232D01*
X016375Y020330D02*
X016385Y020330D01*
X016375Y020429D02*
X016385Y020429D01*
X016563Y020823D02*
X017465Y020823D01*
X017465Y020921D02*
X016757Y020921D01*
X016852Y020724D02*
X017465Y020724D01*
X017487Y020626D02*
X016918Y020626D01*
X015583Y020921D02*
X015503Y020921D01*
X015233Y020921D02*
X015136Y020921D01*
X015136Y021020D02*
X015233Y021020D01*
X015233Y021118D02*
X015136Y021118D01*
X015193Y022993D02*
X014080Y022993D01*
X014080Y023632D01*
X014418Y023632D01*
X014482Y023696D01*
X014482Y024220D01*
X014451Y024252D01*
X014574Y024256D01*
X014538Y024220D01*
X014538Y023696D01*
X014602Y023632D01*
X015087Y023632D01*
X015151Y023696D01*
X015151Y024088D01*
X015330Y024254D01*
X015773Y024240D01*
X015713Y024180D01*
X015298Y024180D01*
X015233Y024115D01*
X015233Y023631D01*
X015298Y023566D01*
X015822Y023566D01*
X015887Y023631D01*
X015887Y023701D01*
X015948Y023640D01*
X016432Y023640D01*
X016497Y023704D01*
X016497Y023748D01*
X016547Y023748D01*
X016547Y023700D01*
X016612Y023635D01*
X017236Y023635D01*
X017236Y023541D01*
X017001Y023541D01*
X017001Y023243D01*
X016904Y023243D01*
X016904Y023541D01*
X016638Y023541D01*
X016600Y023531D01*
X016565Y023511D01*
X016537Y023483D01*
X016518Y023449D01*
X016507Y023411D01*
X016507Y023243D01*
X016904Y023243D01*
X016904Y023146D01*
X016507Y023146D01*
X016507Y022993D01*
X015927Y022993D01*
X015927Y023155D01*
X015608Y023155D01*
X015608Y023252D01*
X015512Y023252D01*
X015512Y023550D01*
X015324Y023550D01*
X015286Y023540D01*
X015251Y023521D01*
X015223Y023493D01*
X015204Y023458D01*
X015193Y023420D01*
X015193Y023252D01*
X015512Y023252D01*
X015512Y023155D01*
X015193Y023155D01*
X015193Y022993D01*
X015193Y023088D02*
X014080Y023088D01*
X014080Y023187D02*
X015512Y023187D01*
X015608Y023187D02*
X016904Y023187D01*
X016904Y023285D02*
X017001Y023285D01*
X017001Y023384D02*
X016904Y023384D01*
X016904Y023482D02*
X017001Y023482D01*
X017236Y023581D02*
X015837Y023581D01*
X015834Y023540D02*
X015796Y023550D01*
X015608Y023550D01*
X015608Y023252D01*
X015927Y023252D01*
X015927Y023420D01*
X015916Y023458D01*
X015897Y023493D01*
X015869Y023521D01*
X015834Y023540D01*
X015902Y023482D02*
X016537Y023482D01*
X016507Y023384D02*
X015927Y023384D01*
X015927Y023285D02*
X016507Y023285D01*
X016507Y023088D02*
X015927Y023088D01*
X015608Y023285D02*
X015512Y023285D01*
X015512Y023384D02*
X015608Y023384D01*
X015608Y023482D02*
X015512Y023482D01*
X015283Y023581D02*
X014080Y023581D01*
X014080Y023482D02*
X015218Y023482D01*
X015193Y023384D02*
X014080Y023384D01*
X014080Y023285D02*
X015193Y023285D01*
X015233Y023679D02*
X015135Y023679D01*
X015151Y023778D02*
X015233Y023778D01*
X015233Y023876D02*
X015151Y023876D01*
X015151Y023975D02*
X015233Y023975D01*
X015233Y024073D02*
X015151Y024073D01*
X015241Y024172D02*
X015290Y024172D01*
X015096Y024555D02*
X014431Y024562D01*
X014431Y024563D01*
X014345Y024649D01*
X014267Y024681D01*
X014377Y024681D01*
X014377Y024980D01*
X014059Y024980D01*
X014059Y024812D01*
X014069Y024774D01*
X014089Y024739D01*
X014117Y024711D01*
X014143Y024696D01*
X014109Y024696D01*
X013995Y024649D01*
X013914Y024568D01*
X013850Y024568D01*
X013852Y024239D01*
X013727Y024363D01*
X013533Y024363D01*
X013395Y024226D01*
X013395Y024031D01*
X013533Y023893D01*
X013554Y023893D01*
X013554Y023887D01*
X013599Y023842D01*
X013635Y023790D01*
X013652Y023787D01*
X013664Y023775D01*
X013728Y023774D01*
X013790Y023763D01*
X013804Y023773D01*
X013854Y023772D01*
X013855Y023554D01*
X013376Y023554D01*
X013377Y023557D01*
X013377Y023745D01*
X013078Y023745D01*
X013078Y023842D01*
X013377Y023842D01*
X013377Y024030D01*
X013367Y024068D01*
X013347Y024102D01*
X013319Y024130D01*
X013286Y024150D01*
X013337Y024201D01*
X013337Y024515D01*
X013407Y024591D01*
X013441Y024625D01*
X013543Y024523D01*
X013737Y024523D01*
X013875Y024661D01*
X013875Y024856D01*
X013830Y024901D01*
X013830Y024933D01*
X013860Y024963D01*
X013860Y025468D01*
X013904Y025468D01*
X013977Y025464D01*
X013982Y025468D01*
X013989Y025468D01*
X014040Y025520D01*
X014050Y025528D01*
X014905Y025528D01*
X014905Y025335D01*
X014833Y025335D01*
X014781Y025284D01*
X014762Y025317D01*
X014734Y025345D01*
X014700Y025365D01*
X014662Y025375D01*
X014474Y025375D01*
X014474Y025077D01*
X014377Y025077D01*
X014377Y025375D01*
X014189Y025375D01*
X014151Y025365D01*
X014117Y025345D01*
X014089Y025317D01*
X014069Y025283D01*
X014059Y025245D01*
X014059Y025077D01*
X014377Y025077D01*
X014377Y024980D01*
X014474Y024980D01*
X014474Y024681D01*
X014662Y024681D01*
X014700Y024692D01*
X014734Y024711D01*
X014762Y024739D01*
X014781Y024773D01*
X014833Y024721D01*
X015357Y024721D01*
X015421Y024786D01*
X015421Y025271D01*
X015357Y025335D01*
X015285Y025335D01*
X015285Y025702D01*
X015069Y025918D01*
X014966Y025918D01*
X014916Y025968D01*
X014150Y025968D01*
X014150Y026028D01*
X014916Y026028D01*
X014980Y026093D01*
X014980Y026404D01*
X014916Y026468D01*
X014670Y026468D01*
X014670Y026528D01*
X014916Y026528D01*
X014980Y026593D01*
X014980Y026904D01*
X014916Y026968D01*
X014132Y026968D01*
X014065Y027028D01*
X014916Y027028D01*
X015530Y027028D01*
X015530Y026930D02*
X014954Y026930D01*
X014980Y026831D02*
X015530Y026831D01*
X015530Y026733D02*
X014980Y026733D01*
X014980Y026634D02*
X015530Y026634D01*
X015530Y026536D02*
X014923Y026536D01*
X014947Y026437D02*
X015530Y026437D01*
X015530Y026339D02*
X014980Y026339D01*
X014980Y026240D02*
X015530Y026240D01*
X015530Y026142D02*
X014980Y026142D01*
X014931Y026043D02*
X015530Y026043D01*
X015530Y025945D02*
X014939Y025945D01*
X015141Y025846D02*
X015530Y025846D01*
X015530Y025800D02*
X015650Y025680D01*
X015761Y025568D01*
X015864Y025568D01*
X015904Y025528D01*
X016150Y025528D01*
X016150Y025511D01*
X016105Y025466D01*
X016105Y025287D01*
X016071Y025307D01*
X016033Y025317D01*
X015864Y025317D01*
X015864Y024940D01*
X015768Y024940D01*
X015768Y025317D01*
X015599Y025317D01*
X015561Y025307D01*
X015527Y025287D01*
X015499Y025259D01*
X015479Y025225D01*
X015469Y025187D01*
X015469Y024940D01*
X015768Y024940D01*
X015768Y024843D01*
X015469Y024843D01*
X015469Y024638D01*
X015264Y024638D01*
X015188Y024641D01*
X015185Y024638D01*
X015181Y024638D01*
X015128Y024585D01*
X015096Y024555D01*
X015107Y024566D02*
X014428Y024566D01*
X014309Y024664D02*
X015469Y024664D01*
X015469Y024763D02*
X015398Y024763D01*
X015421Y024861D02*
X015768Y024861D01*
X015864Y024861D02*
X016257Y024861D01*
X016163Y024770D01*
X016163Y024843D01*
X015864Y024843D01*
X015864Y024940D01*
X016163Y024940D01*
X016163Y025187D01*
X016153Y025223D01*
X016243Y025133D01*
X016257Y025133D01*
X016257Y024861D01*
X016257Y024960D02*
X016163Y024960D01*
X016163Y025058D02*
X016257Y025058D01*
X016219Y025157D02*
X016163Y025157D01*
X016105Y025287D02*
X016105Y025287D01*
X016105Y025354D02*
X015285Y025354D01*
X015285Y025452D02*
X016105Y025452D01*
X015882Y025551D02*
X015285Y025551D01*
X015285Y025649D02*
X015680Y025649D01*
X015582Y025748D02*
X015239Y025748D01*
X015530Y025800D02*
X015530Y027507D01*
X015641Y027618D01*
X015695Y027672D01*
X015553Y027672D01*
X015497Y027727D01*
X015481Y027699D01*
X015453Y027671D01*
X015419Y027652D01*
X015381Y027641D01*
X015193Y027641D01*
X015193Y027940D01*
X015096Y027940D01*
X015096Y027641D01*
X014908Y027641D01*
X014870Y027652D01*
X014836Y027671D01*
X014808Y027699D01*
X014789Y027733D01*
X014737Y027681D01*
X014665Y027681D01*
X014665Y027468D01*
X014916Y027468D01*
X014980Y027404D01*
X014980Y027093D01*
X014916Y027028D01*
X014980Y027127D02*
X015530Y027127D01*
X015530Y027225D02*
X014980Y027225D01*
X014980Y027324D02*
X015530Y027324D01*
X015530Y027422D02*
X014962Y027422D01*
X014665Y027521D02*
X015544Y027521D01*
X015642Y027619D02*
X014665Y027619D01*
X014774Y027718D02*
X014797Y027718D01*
X015096Y027718D02*
X015193Y027718D01*
X015193Y027816D02*
X015096Y027816D01*
X015096Y027915D02*
X015193Y027915D01*
X015492Y027718D02*
X015507Y027718D01*
X016102Y027778D02*
X016102Y028260D01*
X016038Y028325D01*
X015945Y028325D01*
X015902Y028365D01*
X015878Y028389D01*
X019856Y028389D01*
X019856Y026813D01*
X019787Y026882D01*
X019617Y026953D01*
X019370Y026953D01*
X019370Y027353D01*
X019370Y027353D01*
X019435Y027418D01*
X019435Y028219D01*
X019370Y028283D01*
X018649Y028283D01*
X018585Y028219D01*
X018585Y027418D01*
X018649Y027353D01*
X018650Y027353D01*
X018650Y026922D01*
X018553Y026882D01*
X018434Y026763D01*
X018259Y026938D01*
X016806Y026938D01*
X016776Y026968D01*
X015910Y026968D01*
X015910Y026994D01*
X015930Y026988D01*
X016335Y026988D01*
X016335Y027243D01*
X016345Y027243D01*
X016345Y026988D01*
X016750Y026988D01*
X016788Y026999D01*
X016822Y027018D01*
X016850Y027046D01*
X016870Y027080D01*
X016880Y027119D01*
X016880Y027243D01*
X016345Y027243D01*
X016345Y027253D01*
X016880Y027253D01*
X016880Y027378D01*
X016870Y027416D01*
X016850Y027450D01*
X016822Y027478D01*
X016788Y027498D01*
X016750Y027508D01*
X016449Y027508D01*
X016450Y027510D01*
X016612Y027672D01*
X016707Y027672D01*
X016771Y027736D01*
X016771Y028260D01*
X016707Y028325D01*
X016222Y028325D01*
X016158Y028260D01*
X016158Y027778D01*
X016102Y027778D01*
X016102Y027816D02*
X016158Y027816D01*
X016158Y027915D02*
X016102Y027915D01*
X016102Y028013D02*
X016158Y028013D01*
X016158Y028112D02*
X016102Y028112D01*
X016102Y028210D02*
X016158Y028210D01*
X016206Y028309D02*
X016054Y028309D01*
X016723Y028309D02*
X017510Y028309D01*
X017517Y028313D02*
X017483Y028293D01*
X017455Y028265D01*
X017435Y028231D01*
X017425Y028193D01*
X017425Y027868D01*
X017840Y027868D01*
X017840Y027768D01*
X017940Y027768D01*
X017940Y027313D01*
X018225Y027313D01*
X018263Y027324D01*
X018297Y027343D01*
X018325Y027371D01*
X018345Y027405D01*
X018355Y027444D01*
X018355Y027768D01*
X017940Y027768D01*
X017940Y027868D01*
X018355Y027868D01*
X018355Y028193D01*
X018345Y028231D01*
X018325Y028265D01*
X018297Y028293D01*
X018263Y028313D01*
X018225Y028323D01*
X017940Y028323D01*
X017940Y027868D01*
X017840Y027868D01*
X017840Y028323D01*
X017555Y028323D01*
X017517Y028313D01*
X017430Y028210D02*
X016771Y028210D01*
X016771Y028112D02*
X017425Y028112D01*
X017425Y028013D02*
X016771Y028013D01*
X016771Y027915D02*
X017425Y027915D01*
X017425Y027768D02*
X017425Y027444D01*
X017435Y027405D01*
X017455Y027371D01*
X017483Y027343D01*
X017517Y027324D01*
X016880Y027324D01*
X016880Y027225D02*
X018650Y027225D01*
X018650Y027127D02*
X016880Y027127D01*
X016832Y027028D02*
X018650Y027028D01*
X018650Y026930D02*
X018267Y026930D01*
X018366Y026831D02*
X018502Y026831D01*
X018650Y027324D02*
X018263Y027324D01*
X018349Y027422D02*
X018585Y027422D01*
X018585Y027521D02*
X018355Y027521D01*
X018355Y027619D02*
X018585Y027619D01*
X018585Y027718D02*
X018355Y027718D01*
X018355Y027915D02*
X018585Y027915D01*
X018585Y028013D02*
X018355Y028013D01*
X018355Y028112D02*
X018585Y028112D01*
X018585Y028210D02*
X018350Y028210D01*
X018270Y028309D02*
X019856Y028309D01*
X019856Y028210D02*
X019435Y028210D01*
X019435Y028112D02*
X019856Y028112D01*
X019856Y028013D02*
X019435Y028013D01*
X019435Y027915D02*
X019856Y027915D01*
X019856Y027816D02*
X019435Y027816D01*
X019435Y027718D02*
X019856Y027718D01*
X019856Y027619D02*
X019435Y027619D01*
X019435Y027521D02*
X019856Y027521D01*
X019856Y027422D02*
X019435Y027422D01*
X019370Y027324D02*
X019856Y027324D01*
X019856Y027225D02*
X019370Y027225D01*
X019370Y027127D02*
X019856Y027127D01*
X019856Y027028D02*
X019370Y027028D01*
X019672Y026930D02*
X019856Y026930D01*
X019856Y026831D02*
X019838Y026831D01*
X019856Y026163D02*
X019856Y025813D01*
X019787Y025882D01*
X019617Y025953D01*
X018723Y025953D01*
X018553Y025882D01*
X018422Y025751D01*
X018351Y025581D01*
X018351Y025525D01*
X018038Y025525D01*
X018038Y025227D01*
X018226Y025227D01*
X018264Y025237D01*
X018299Y025257D01*
X018327Y025285D01*
X018346Y025319D01*
X018357Y025357D01*
X018357Y025383D01*
X018422Y025225D01*
X018553Y025095D01*
X018723Y025024D01*
X018810Y025024D01*
X018810Y024757D01*
X018581Y024528D01*
X017215Y024535D01*
X017215Y024536D01*
X017077Y024673D01*
X016883Y024673D01*
X016871Y024661D01*
X016871Y025213D01*
X016806Y025277D01*
X016575Y025277D01*
X016575Y025466D01*
X016530Y025511D01*
X016530Y025528D01*
X016601Y025528D01*
X016630Y025500D01*
X016741Y025388D01*
X016843Y025388D01*
X016843Y025331D01*
X016908Y025267D01*
X017432Y025267D01*
X017497Y025331D01*
X017497Y025816D01*
X017432Y025880D01*
X016908Y025880D01*
X016847Y025820D01*
X016840Y025827D01*
X016840Y025904D01*
X016776Y025968D01*
X015910Y025968D01*
X015910Y026028D01*
X016776Y026028D01*
X016806Y026058D01*
X016843Y026058D01*
X016843Y026001D01*
X016908Y025936D01*
X017432Y025936D01*
X017497Y026001D01*
X017497Y026053D01*
X017663Y026053D01*
X017663Y026001D01*
X017728Y025936D01*
X018252Y025936D01*
X018317Y026001D01*
X018317Y026343D01*
X018351Y026308D01*
X018388Y026308D01*
X018422Y026225D01*
X018553Y026095D01*
X018723Y026024D01*
X019617Y026024D01*
X019787Y026095D01*
X019856Y026163D01*
X019856Y026142D02*
X019835Y026142D01*
X019856Y026043D02*
X019663Y026043D01*
X019635Y025945D02*
X019856Y025945D01*
X019856Y025846D02*
X019823Y025846D01*
X018810Y024960D02*
X016871Y024960D01*
X016871Y025058D02*
X018640Y025058D01*
X018490Y025157D02*
X016871Y025157D01*
X016828Y025255D02*
X017684Y025255D01*
X017681Y025257D02*
X017716Y025237D01*
X017754Y025227D01*
X017942Y025227D01*
X017942Y025525D01*
X018038Y025525D01*
X018038Y025622D01*
X017942Y025622D01*
X017942Y025920D01*
X017754Y025920D01*
X017716Y025910D01*
X017681Y025891D01*
X017653Y025863D01*
X017634Y025828D01*
X017623Y025790D01*
X017623Y025622D01*
X017942Y025622D01*
X017942Y025525D01*
X017623Y025525D01*
X017623Y025357D01*
X017634Y025319D01*
X017653Y025285D01*
X017681Y025257D01*
X017624Y025354D02*
X017497Y025354D01*
X017497Y025452D02*
X017623Y025452D01*
X017497Y025551D02*
X017942Y025551D01*
X018038Y025551D02*
X018351Y025551D01*
X018357Y025622D02*
X018038Y025622D01*
X018038Y025920D01*
X018226Y025920D01*
X018264Y025910D01*
X018299Y025891D01*
X018327Y025863D01*
X018346Y025828D01*
X018357Y025790D01*
X018357Y025622D01*
X018357Y025649D02*
X018380Y025649D01*
X018357Y025748D02*
X018421Y025748D01*
X018336Y025846D02*
X018517Y025846D01*
X018705Y025945D02*
X018261Y025945D01*
X018317Y026043D02*
X018677Y026043D01*
X018505Y026142D02*
X018317Y026142D01*
X018317Y026240D02*
X018416Y026240D01*
X018321Y026339D02*
X018317Y026339D01*
X018038Y025846D02*
X017942Y025846D01*
X017942Y025748D02*
X018038Y025748D01*
X018038Y025649D02*
X017942Y025649D01*
X017942Y025452D02*
X018038Y025452D01*
X018038Y025354D02*
X017942Y025354D01*
X017942Y025255D02*
X018038Y025255D01*
X018296Y025255D02*
X018410Y025255D01*
X018369Y025354D02*
X018356Y025354D01*
X018810Y024861D02*
X016871Y024861D01*
X016871Y024763D02*
X018810Y024763D01*
X018717Y024664D02*
X017086Y024664D01*
X017185Y024566D02*
X018618Y024566D01*
X017623Y025649D02*
X017497Y025649D01*
X017497Y025748D02*
X017623Y025748D01*
X017644Y025846D02*
X017466Y025846D01*
X017441Y025945D02*
X017719Y025945D01*
X017663Y026043D02*
X017497Y026043D01*
X016899Y025945D02*
X016799Y025945D01*
X016791Y026043D02*
X016843Y026043D01*
X016840Y025846D02*
X016874Y025846D01*
X016677Y025452D02*
X016575Y025452D01*
X016575Y025354D02*
X016843Y025354D01*
X016871Y024664D02*
X016874Y024664D01*
X016568Y023679D02*
X016472Y023679D01*
X015908Y023679D02*
X015887Y023679D01*
X015864Y024960D02*
X015768Y024960D01*
X015768Y025058D02*
X015864Y025058D01*
X015864Y025157D02*
X015768Y025157D01*
X015768Y025255D02*
X015864Y025255D01*
X015497Y025255D02*
X015421Y025255D01*
X015421Y025157D02*
X015469Y025157D01*
X015469Y025058D02*
X015421Y025058D01*
X015421Y024960D02*
X015469Y024960D01*
X014905Y025354D02*
X014719Y025354D01*
X014905Y025452D02*
X013860Y025452D01*
X013860Y025354D02*
X014132Y025354D01*
X014062Y025255D02*
X013860Y025255D01*
X013860Y025157D02*
X014059Y025157D01*
X014059Y024960D02*
X013857Y024960D01*
X013860Y025058D02*
X014377Y025058D01*
X014377Y024960D02*
X014474Y024960D01*
X014474Y024861D02*
X014377Y024861D01*
X014377Y024763D02*
X014474Y024763D01*
X014775Y024763D02*
X014791Y024763D01*
X014474Y025157D02*
X014377Y025157D01*
X014377Y025255D02*
X014474Y025255D01*
X014474Y025354D02*
X014377Y025354D01*
X014059Y024861D02*
X013869Y024861D01*
X013875Y024763D02*
X014075Y024763D01*
X014031Y024664D02*
X013875Y024664D01*
X013850Y024566D02*
X013780Y024566D01*
X013850Y024467D02*
X013337Y024467D01*
X013337Y024369D02*
X013851Y024369D01*
X013851Y024270D02*
X013820Y024270D01*
X013440Y024270D02*
X013337Y024270D01*
X013308Y024172D02*
X013395Y024172D01*
X013395Y024073D02*
X013364Y024073D01*
X013377Y023975D02*
X013451Y023975D01*
X013377Y023876D02*
X013565Y023876D01*
X013661Y023778D02*
X013078Y023778D01*
X012982Y023778D02*
X012270Y023778D01*
X012270Y023764D02*
X012270Y023864D01*
X012665Y023864D01*
X012665Y024089D01*
X012655Y024127D01*
X012635Y024162D01*
X012620Y024177D01*
X012625Y024181D01*
X012625Y024273D01*
X012723Y024273D01*
X012723Y024201D01*
X012774Y024150D01*
X012741Y024130D01*
X012713Y024102D01*
X012693Y024068D01*
X012683Y024030D01*
X012683Y023842D01*
X012982Y023842D01*
X012982Y023745D01*
X012683Y023745D01*
X012683Y023557D01*
X012684Y023554D01*
X012665Y023554D01*
X012665Y023764D01*
X012270Y023764D01*
X012170Y023764D02*
X011775Y023764D01*
X011775Y023554D01*
X009823Y023554D01*
X009640Y023737D01*
X009640Y024274D01*
X009747Y024274D01*
X009917Y024345D01*
X010048Y024475D01*
X010074Y024539D01*
X010084Y024528D01*
X010696Y024528D01*
X010760Y024593D01*
X010760Y024904D01*
X010759Y024905D01*
X010770Y024916D01*
X010790Y024950D01*
X010800Y024989D01*
X010800Y025113D01*
X010395Y025113D01*
X010395Y025123D01*
X010800Y025123D01*
X010800Y025248D01*
X010790Y025286D01*
X010770Y025320D01*
X010759Y025332D01*
X010760Y025333D01*
X010760Y025644D01*
X010696Y025708D01*
X010084Y025708D01*
X010064Y025688D01*
X009350Y025688D01*
X009350Y025234D01*
X009694Y025234D01*
X009720Y025238D01*
X009720Y025203D01*
X008853Y025203D01*
X008683Y025132D01*
X008555Y025004D01*
X008555Y025418D01*
X008561Y025410D01*
X008617Y025354D01*
X008555Y025354D01*
X008617Y025354D02*
X008681Y025307D01*
X008752Y025271D01*
X008828Y025246D01*
X008906Y025234D01*
X009250Y025234D01*
X009250Y025688D01*
X009350Y025688D01*
X009350Y025788D01*
X010157Y025788D01*
X010146Y025856D01*
X010122Y025932D01*
X010086Y026003D01*
X010039Y026067D01*
X009983Y026123D01*
X009919Y026170D01*
X009848Y026206D01*
X009772Y026230D01*
X009694Y026243D01*
X009350Y026243D01*
X009350Y025788D01*
X009250Y025788D01*
X009250Y026243D01*
X008906Y026243D01*
X008828Y026230D01*
X008752Y026206D01*
X008681Y026170D01*
X008617Y026123D01*
X008561Y026067D01*
X008555Y026059D01*
X008555Y026472D01*
X008683Y026345D01*
X008853Y026274D01*
X009747Y026274D01*
X009917Y026345D01*
X009976Y026403D01*
X010040Y026340D01*
X010151Y026228D01*
X010433Y026228D01*
X010433Y026181D01*
X010498Y026117D01*
X011022Y026117D01*
X011087Y026181D01*
X011087Y026666D01*
X011022Y026730D01*
X010498Y026730D01*
X010433Y026666D01*
X010433Y026608D01*
X010309Y026608D01*
X010119Y026798D01*
X010119Y026831D01*
X010048Y027001D01*
X009917Y027132D01*
X009747Y027203D01*
X009211Y027203D01*
X009444Y027299D01*
X009639Y027495D01*
X009745Y027750D01*
X009745Y028027D01*
X009639Y028282D01*
X009532Y028389D01*
X012483Y028389D01*
X012483Y027901D01*
X012548Y027836D01*
X013032Y027836D01*
X013097Y027901D01*
X013097Y027973D01*
X013293Y027973D01*
X013293Y027921D01*
X013358Y027856D01*
X013882Y027856D01*
X013947Y027921D01*
X013947Y028152D01*
X013962Y028168D01*
X014149Y028168D01*
X014149Y027746D01*
X014213Y027681D01*
X014285Y027681D01*
X014285Y027468D01*
X014044Y027468D01*
X014014Y027438D01*
X013989Y027438D01*
X013947Y027480D01*
X013947Y027736D01*
X013882Y027800D01*
X013358Y027800D01*
X013293Y027736D01*
X013293Y027391D01*
X013097Y027567D01*
X013097Y027756D01*
X013032Y027820D01*
X012548Y027820D01*
X012483Y027756D01*
X012483Y027232D01*
X012548Y027167D01*
X012974Y027167D01*
X013159Y027000D01*
X013211Y026948D01*
X013217Y026948D01*
X013222Y026944D01*
X013262Y026947D01*
X013222Y026850D01*
X013222Y026727D01*
X013242Y026678D01*
X013140Y026678D01*
X013102Y026668D01*
X013068Y026648D01*
X013057Y026637D01*
X013056Y026638D01*
X012744Y026638D01*
X012680Y026574D01*
X012680Y026398D01*
X012411Y026398D01*
X012411Y026470D01*
X012347Y026535D01*
X012285Y026535D01*
X012285Y026722D01*
X012337Y026722D01*
X012401Y026786D01*
X012401Y027310D01*
X012337Y027375D01*
X011852Y027375D01*
X011788Y027310D01*
X011788Y026786D01*
X011852Y026722D01*
X011905Y026722D01*
X011905Y026535D01*
X011862Y026535D01*
X011798Y026470D01*
X011798Y025946D01*
X011862Y025882D01*
X011870Y025882D01*
X011870Y025761D01*
X011825Y025716D01*
X011825Y025521D01*
X011963Y025383D01*
X012157Y025383D01*
X012295Y025521D01*
X012295Y025716D01*
X012250Y025761D01*
X012250Y025882D01*
X012347Y025882D01*
X012411Y025946D01*
X012411Y026018D01*
X012680Y026018D01*
X012680Y025983D01*
X012744Y025918D01*
X012991Y025918D01*
X012710Y025637D01*
X012710Y025584D01*
X012680Y025554D01*
X012680Y025491D01*
X012677Y025493D01*
X012483Y025493D01*
X012345Y025356D01*
X012345Y025161D01*
X012483Y025023D01*
X012677Y025023D01*
X012680Y025026D01*
X012680Y024963D01*
X012744Y024898D01*
X013056Y024898D01*
X013080Y024923D01*
X013080Y024797D01*
X013073Y024789D01*
X012788Y024789D01*
X012723Y024725D01*
X012723Y024653D01*
X012625Y024653D01*
X012625Y024784D01*
X012561Y024849D01*
X012058Y024849D01*
X012035Y024872D01*
X012035Y024936D01*
X011990Y024981D01*
X011990Y025147D01*
X011991Y025224D01*
X011990Y025225D01*
X011990Y025227D01*
X011935Y025282D01*
X011680Y025545D01*
X011680Y025644D01*
X011616Y025708D01*
X011004Y025708D01*
X010940Y025644D01*
X010940Y025333D01*
X011004Y025268D01*
X011419Y025268D01*
X011610Y025071D01*
X011610Y024981D01*
X011598Y024968D01*
X011004Y024968D01*
X010940Y024904D01*
X010940Y024593D01*
X011004Y024528D01*
X011120Y024528D01*
X011120Y024285D01*
X010943Y024285D01*
X010891Y024234D01*
X010872Y024267D01*
X010844Y024295D01*
X010810Y024315D01*
X010772Y024325D01*
X010584Y024325D01*
X010584Y024027D01*
X010487Y024027D01*
X010487Y024325D01*
X010299Y024325D01*
X010261Y024315D01*
X010227Y024295D01*
X010199Y024267D01*
X010179Y024233D01*
X010169Y024195D01*
X010169Y024027D01*
X010487Y024027D01*
X010487Y023930D01*
X010169Y023930D01*
X010169Y023762D01*
X010179Y023724D01*
X010199Y023689D01*
X010227Y023661D01*
X010261Y023642D01*
X010299Y023631D01*
X010487Y023631D01*
X010487Y023930D01*
X010584Y023930D01*
X010584Y023631D01*
X010772Y023631D01*
X010810Y023642D01*
X010844Y023661D01*
X010872Y023689D01*
X010891Y023723D01*
X010943Y023671D01*
X011234Y023671D01*
X011272Y023658D01*
X011299Y023671D01*
X011467Y023671D01*
X011531Y023736D01*
X011531Y024221D01*
X011500Y024252D01*
X011500Y024528D01*
X011616Y024528D01*
X011680Y024593D01*
X011680Y024626D01*
X011703Y024603D01*
X011766Y024603D01*
X011815Y024555D01*
X011815Y024181D01*
X011820Y024177D01*
X011805Y024162D01*
X011785Y024127D01*
X011775Y024089D01*
X011775Y023864D01*
X012170Y023864D01*
X012170Y023764D01*
X012170Y023778D02*
X011531Y023778D01*
X011531Y023876D02*
X011775Y023876D01*
X011775Y023975D02*
X011531Y023975D01*
X011531Y024073D02*
X011775Y024073D01*
X011815Y024172D02*
X011531Y024172D01*
X011500Y024270D02*
X011815Y024270D01*
X011815Y024369D02*
X011500Y024369D01*
X011500Y024467D02*
X011815Y024467D01*
X011804Y024566D02*
X011653Y024566D01*
X012046Y024861D02*
X013080Y024861D01*
X012761Y024763D02*
X012625Y024763D01*
X012625Y024664D02*
X012723Y024664D01*
X012683Y024960D02*
X012011Y024960D01*
X011990Y025058D02*
X012448Y025058D01*
X012349Y025157D02*
X011990Y025157D01*
X011962Y025255D02*
X012345Y025255D01*
X012345Y025354D02*
X011865Y025354D01*
X011894Y025452D02*
X011770Y025452D01*
X011825Y025551D02*
X011680Y025551D01*
X011675Y025649D02*
X011825Y025649D01*
X011857Y025748D02*
X009350Y025748D01*
X009350Y025846D02*
X009250Y025846D01*
X009250Y025945D02*
X009350Y025945D01*
X009350Y026043D02*
X009250Y026043D01*
X009250Y026142D02*
X009350Y026142D01*
X009350Y026240D02*
X009250Y026240D01*
X009708Y026240D02*
X010139Y026240D01*
X010041Y026339D02*
X009903Y026339D01*
X009957Y026142D02*
X010473Y026142D01*
X010115Y025945D02*
X011096Y025945D01*
X011099Y025934D02*
X011118Y025900D01*
X011146Y025872D01*
X011181Y025852D01*
X011219Y025842D01*
X011387Y025842D01*
X011387Y026160D01*
X011089Y026160D01*
X011089Y025972D01*
X011099Y025934D01*
X011089Y026043D02*
X010056Y026043D01*
X010148Y025846D02*
X011202Y025846D01*
X011387Y025846D02*
X011484Y025846D01*
X011484Y025842D02*
X011652Y025842D01*
X011690Y025852D01*
X011724Y025872D01*
X011752Y025900D01*
X011772Y025934D01*
X011782Y025972D01*
X011782Y026160D01*
X011484Y026160D01*
X011484Y026257D01*
X011387Y026257D01*
X011387Y026575D01*
X011219Y026575D01*
X011181Y026565D01*
X011146Y026545D01*
X011118Y026517D01*
X011099Y026483D01*
X011089Y026445D01*
X011089Y026257D01*
X011387Y026257D01*
X011387Y026160D01*
X011484Y026160D01*
X011484Y025842D01*
X011484Y025945D02*
X011387Y025945D01*
X011387Y026043D02*
X011484Y026043D01*
X011484Y026142D02*
X011387Y026142D01*
X011387Y026240D02*
X011087Y026240D01*
X011089Y026142D02*
X011047Y026142D01*
X011087Y026339D02*
X011089Y026339D01*
X011087Y026437D02*
X011089Y026437D01*
X011087Y026536D02*
X011137Y026536D01*
X011087Y026634D02*
X011905Y026634D01*
X011905Y026536D02*
X011733Y026536D01*
X011724Y026545D02*
X011690Y026565D01*
X011652Y026575D01*
X011484Y026575D01*
X011484Y026257D01*
X011782Y026257D01*
X011782Y026445D01*
X011772Y026483D01*
X011752Y026517D01*
X011724Y026545D01*
X011782Y026437D02*
X011798Y026437D01*
X011798Y026339D02*
X011782Y026339D01*
X011798Y026240D02*
X011484Y026240D01*
X011484Y026339D02*
X011387Y026339D01*
X011387Y026437D02*
X011484Y026437D01*
X011484Y026536D02*
X011387Y026536D01*
X011183Y026722D02*
X011668Y026722D01*
X011732Y026786D01*
X011732Y027310D01*
X011668Y027375D01*
X011183Y027375D01*
X011119Y027310D01*
X011119Y027283D01*
X011087Y027283D01*
X011087Y027335D01*
X011022Y027400D01*
X010995Y027400D01*
X010912Y027483D01*
X010608Y027483D01*
X010535Y027410D01*
X010525Y027400D01*
X010498Y027400D01*
X010433Y027335D01*
X010433Y026851D01*
X010498Y026786D01*
X011022Y026786D01*
X011087Y026851D01*
X011087Y026903D01*
X011119Y026903D01*
X011119Y026786D01*
X011183Y026722D01*
X011172Y026733D02*
X010184Y026733D01*
X010118Y026831D02*
X010453Y026831D01*
X010433Y026930D02*
X010078Y026930D01*
X010021Y027028D02*
X010433Y027028D01*
X010433Y027127D02*
X009922Y027127D01*
X009567Y027422D02*
X010547Y027422D01*
X010433Y027324D02*
X009468Y027324D01*
X009266Y027225D02*
X010433Y027225D01*
X010360Y027514D02*
X010410Y027535D01*
X010455Y027565D01*
X010494Y027603D01*
X010524Y027648D01*
X010544Y027698D01*
X010555Y027751D01*
X010555Y027766D01*
X010293Y027766D01*
X010293Y027791D01*
X010555Y027791D01*
X010555Y027805D01*
X010544Y027859D01*
X010524Y027909D01*
X010494Y027954D01*
X010455Y027992D01*
X010410Y028022D01*
X010360Y028043D01*
X010307Y028053D01*
X010293Y028053D01*
X010293Y027791D01*
X010267Y027791D01*
X010267Y027766D01*
X010005Y027766D01*
X010005Y027751D01*
X010016Y027698D01*
X010036Y027648D01*
X010066Y027603D01*
X010105Y027565D01*
X010150Y027535D01*
X010200Y027514D01*
X010253Y027503D01*
X010267Y027503D01*
X010267Y027766D01*
X010293Y027766D01*
X010293Y027503D01*
X010307Y027503D01*
X010360Y027514D01*
X010377Y027521D02*
X012483Y027521D01*
X012483Y027619D02*
X010505Y027619D01*
X010548Y027718D02*
X012483Y027718D01*
X012544Y027816D02*
X010553Y027816D01*
X010520Y027915D02*
X012483Y027915D01*
X012483Y028013D02*
X010423Y028013D01*
X010293Y028013D02*
X010267Y028013D01*
X010267Y028053D02*
X010253Y028053D01*
X010200Y028043D01*
X010150Y028022D01*
X010105Y027992D01*
X010066Y027954D01*
X010036Y027909D01*
X010016Y027859D01*
X010005Y027805D01*
X010005Y027791D01*
X010267Y027791D01*
X010267Y028053D01*
X010137Y028013D02*
X009745Y028013D01*
X009745Y027915D02*
X010040Y027915D01*
X010007Y027816D02*
X009745Y027816D01*
X009732Y027718D02*
X010012Y027718D01*
X010055Y027619D02*
X009691Y027619D01*
X009650Y027521D02*
X010183Y027521D01*
X010267Y027521D02*
X010293Y027521D01*
X010293Y027619D02*
X010267Y027619D01*
X010267Y027718D02*
X010293Y027718D01*
X010293Y027816D02*
X010267Y027816D01*
X010267Y027915D02*
X010293Y027915D01*
X009710Y028112D02*
X012483Y028112D01*
X012483Y028210D02*
X009669Y028210D01*
X009612Y028309D02*
X012483Y028309D01*
X013097Y027915D02*
X013299Y027915D01*
X013293Y027718D02*
X013097Y027718D01*
X013097Y027619D02*
X013293Y027619D01*
X013293Y027521D02*
X013149Y027521D01*
X013258Y027422D02*
X013293Y027422D01*
X013019Y027127D02*
X012401Y027127D01*
X012401Y027225D02*
X012489Y027225D01*
X012483Y027324D02*
X012388Y027324D01*
X012483Y027422D02*
X010973Y027422D01*
X011087Y027324D02*
X011132Y027324D01*
X011119Y026831D02*
X011067Y026831D01*
X011679Y026733D02*
X011841Y026733D01*
X011788Y026831D02*
X011732Y026831D01*
X011732Y026930D02*
X011788Y026930D01*
X011788Y027028D02*
X011732Y027028D01*
X011732Y027127D02*
X011788Y027127D01*
X011788Y027225D02*
X011732Y027225D01*
X011719Y027324D02*
X011801Y027324D01*
X012401Y027028D02*
X013128Y027028D01*
X013255Y026930D02*
X012401Y026930D01*
X012401Y026831D02*
X013222Y026831D01*
X013222Y026733D02*
X012348Y026733D01*
X012285Y026634D02*
X012740Y026634D01*
X012680Y026536D02*
X012285Y026536D01*
X012411Y026437D02*
X012680Y026437D01*
X012718Y025945D02*
X012410Y025945D01*
X012250Y025846D02*
X012919Y025846D01*
X012821Y025748D02*
X012263Y025748D01*
X012295Y025649D02*
X012722Y025649D01*
X012680Y025551D02*
X012295Y025551D01*
X012226Y025452D02*
X012442Y025452D01*
X011870Y025846D02*
X011669Y025846D01*
X011775Y025945D02*
X011799Y025945D01*
X011798Y026043D02*
X011782Y026043D01*
X011782Y026142D02*
X011798Y026142D01*
X011431Y025255D02*
X010798Y025255D01*
X010800Y025157D02*
X011527Y025157D01*
X011610Y025058D02*
X010800Y025058D01*
X010792Y024960D02*
X010996Y024960D01*
X010940Y024861D02*
X010760Y024861D01*
X010760Y024763D02*
X010940Y024763D01*
X010940Y024664D02*
X010760Y024664D01*
X010733Y024566D02*
X010967Y024566D01*
X011120Y024467D02*
X010040Y024467D01*
X009942Y024369D02*
X011120Y024369D01*
X010928Y024270D02*
X010869Y024270D01*
X010584Y024270D02*
X010487Y024270D01*
X010487Y024172D02*
X010584Y024172D01*
X010584Y024073D02*
X010487Y024073D01*
X010487Y023975D02*
X009640Y023975D01*
X009640Y024073D02*
X010169Y024073D01*
X010169Y024172D02*
X009640Y024172D01*
X009640Y024270D02*
X010202Y024270D01*
X010169Y023876D02*
X009640Y023876D01*
X009640Y023778D02*
X010169Y023778D01*
X010209Y023679D02*
X009698Y023679D01*
X009797Y023581D02*
X011775Y023581D01*
X011775Y023679D02*
X011475Y023679D01*
X010935Y023679D02*
X010862Y023679D01*
X010584Y023679D02*
X010487Y023679D01*
X010487Y023778D02*
X010584Y023778D01*
X010584Y023876D02*
X010487Y023876D01*
X009350Y025255D02*
X009250Y025255D01*
X009250Y025354D02*
X009350Y025354D01*
X009350Y025452D02*
X009250Y025452D01*
X009250Y025551D02*
X009350Y025551D01*
X009350Y025649D02*
X009250Y025649D01*
X008800Y025255D02*
X008555Y025255D01*
X008555Y025157D02*
X008743Y025157D01*
X008609Y025058D02*
X008555Y025058D01*
X008555Y026142D02*
X008643Y026142D01*
X008555Y026240D02*
X008892Y026240D01*
X008697Y026339D02*
X008555Y026339D01*
X008555Y026437D02*
X008590Y026437D01*
X010283Y026634D02*
X010433Y026634D01*
X010755Y025649D02*
X010945Y025649D01*
X010940Y025551D02*
X010760Y025551D01*
X010760Y025452D02*
X010940Y025452D01*
X010940Y025354D02*
X010760Y025354D01*
X012625Y024270D02*
X012723Y024270D01*
X012752Y024172D02*
X012625Y024172D01*
X012665Y024073D02*
X012696Y024073D01*
X012683Y023975D02*
X012665Y023975D01*
X012665Y023876D02*
X012683Y023876D01*
X012665Y023679D02*
X012683Y023679D01*
X012683Y023581D02*
X012665Y023581D01*
X013377Y023581D02*
X013855Y023581D01*
X013854Y023679D02*
X013377Y023679D01*
X013384Y024566D02*
X013500Y024566D01*
X014482Y024172D02*
X014538Y024172D01*
X014538Y024073D02*
X014482Y024073D01*
X014482Y023975D02*
X014538Y023975D01*
X014538Y023876D02*
X014482Y023876D01*
X014482Y023778D02*
X014538Y023778D01*
X014555Y023679D02*
X014465Y023679D01*
X016335Y027028D02*
X016345Y027028D01*
X016335Y027127D02*
X016345Y027127D01*
X016335Y027225D02*
X016345Y027225D01*
X016461Y027521D02*
X017425Y027521D01*
X017425Y027619D02*
X016560Y027619D01*
X016753Y027718D02*
X017425Y027718D01*
X017425Y027768D02*
X017840Y027768D01*
X017840Y027313D01*
X017555Y027313D01*
X017517Y027324D01*
X017431Y027422D02*
X016866Y027422D01*
X016771Y027816D02*
X017840Y027816D01*
X017840Y027718D02*
X017940Y027718D01*
X017940Y027816D02*
X018585Y027816D01*
X017940Y027915D02*
X017840Y027915D01*
X017840Y028013D02*
X017940Y028013D01*
X017940Y028112D02*
X017840Y028112D01*
X017840Y028210D02*
X017940Y028210D01*
X017940Y028309D02*
X017840Y028309D01*
X017840Y027619D02*
X017940Y027619D01*
X017940Y027521D02*
X017840Y027521D01*
X017840Y027422D02*
X017940Y027422D01*
X017940Y027324D02*
X017840Y027324D01*
X014285Y027521D02*
X013947Y027521D01*
X013947Y027619D02*
X014285Y027619D01*
X014177Y027718D02*
X013947Y027718D01*
X013941Y027915D02*
X014149Y027915D01*
X014149Y028013D02*
X013947Y028013D01*
X013947Y028112D02*
X014149Y028112D01*
X014149Y027816D02*
X013036Y027816D01*
X021839Y027816D02*
X021945Y027816D01*
X021945Y027829D02*
X021945Y027108D01*
X022010Y027043D01*
X022810Y027043D01*
X022875Y027108D01*
X023306Y027108D01*
X023346Y027011D01*
X023465Y026892D01*
X023290Y026717D01*
X023290Y025264D01*
X023260Y025234D01*
X023260Y024368D01*
X023235Y024368D01*
X023240Y024389D01*
X023240Y024793D01*
X022985Y024793D01*
X022985Y024803D01*
X023240Y024803D01*
X023240Y025208D01*
X023230Y025246D01*
X023210Y025280D01*
X023182Y025308D01*
X023148Y025328D01*
X023110Y025338D01*
X022985Y025338D01*
X022985Y024803D01*
X022975Y024803D01*
X022975Y025338D01*
X022850Y025338D01*
X022812Y025328D01*
X022778Y025308D01*
X022750Y025280D01*
X022730Y025246D01*
X022720Y025208D01*
X022720Y024907D01*
X022719Y024908D01*
X022557Y025070D01*
X022557Y025165D01*
X022492Y025230D01*
X021968Y025230D01*
X021903Y025165D01*
X021903Y024681D01*
X021968Y024616D01*
X022450Y024616D01*
X022450Y024560D01*
X021968Y024560D01*
X021903Y024496D01*
X021903Y024404D01*
X021863Y024360D01*
X021839Y024336D01*
X021839Y028314D01*
X023415Y028314D01*
X023346Y028246D01*
X023276Y028075D01*
X023276Y027828D01*
X022875Y027828D01*
X022875Y027829D01*
X022810Y027893D01*
X022010Y027893D01*
X021945Y027829D01*
X021945Y027718D02*
X021839Y027718D01*
X021839Y027619D02*
X021945Y027619D01*
X021945Y027521D02*
X021839Y027521D01*
X021839Y027422D02*
X021945Y027422D01*
X021945Y027324D02*
X021839Y027324D01*
X021839Y027225D02*
X021945Y027225D01*
X021945Y027127D02*
X021839Y027127D01*
X021839Y027028D02*
X023339Y027028D01*
X023427Y026930D02*
X021839Y026930D01*
X021839Y026831D02*
X023404Y026831D01*
X023306Y026733D02*
X022898Y026733D01*
X022905Y026721D02*
X022885Y026756D01*
X022857Y026783D01*
X022823Y026803D01*
X022785Y026813D01*
X022460Y026813D01*
X022460Y026398D01*
X022915Y026398D01*
X022915Y026683D01*
X022905Y026721D01*
X022915Y026634D02*
X023290Y026634D01*
X023290Y026536D02*
X022915Y026536D01*
X022915Y026437D02*
X023290Y026437D01*
X023290Y026339D02*
X022460Y026339D01*
X022460Y026298D02*
X022460Y026398D01*
X022360Y026398D01*
X022360Y026298D01*
X022460Y026298D01*
X022460Y025883D01*
X022785Y025883D01*
X022823Y025894D01*
X022857Y025913D01*
X022885Y025941D01*
X022905Y025976D01*
X022915Y026014D01*
X022915Y026298D01*
X022460Y026298D01*
X022460Y026240D02*
X022360Y026240D01*
X022360Y026298D02*
X022360Y025883D01*
X022035Y025883D01*
X021997Y025894D01*
X021963Y025913D01*
X021935Y025941D01*
X021915Y025976D01*
X021905Y026014D01*
X021905Y026298D01*
X022360Y026298D01*
X022360Y026339D02*
X021839Y026339D01*
X021905Y026398D02*
X021905Y026683D01*
X021915Y026721D01*
X021935Y026756D01*
X021963Y026783D01*
X021997Y026803D01*
X022035Y026813D01*
X022360Y026813D01*
X022360Y026398D01*
X021905Y026398D01*
X021905Y026437D02*
X021839Y026437D01*
X021839Y026536D02*
X021905Y026536D01*
X021905Y026634D02*
X021839Y026634D01*
X021839Y026733D02*
X021922Y026733D01*
X021905Y026240D02*
X021839Y026240D01*
X021839Y026142D02*
X021905Y026142D01*
X021905Y026043D02*
X021839Y026043D01*
X021839Y025945D02*
X021933Y025945D01*
X021839Y025846D02*
X023290Y025846D01*
X023290Y025748D02*
X021839Y025748D01*
X021839Y025649D02*
X023290Y025649D01*
X023290Y025551D02*
X021839Y025551D01*
X021839Y025452D02*
X023290Y025452D01*
X023290Y025354D02*
X021839Y025354D01*
X021839Y025255D02*
X022736Y025255D01*
X022720Y025157D02*
X022557Y025157D01*
X022569Y025058D02*
X022720Y025058D01*
X022720Y024960D02*
X022667Y024960D01*
X022975Y024960D02*
X022985Y024960D01*
X022975Y025058D02*
X022985Y025058D01*
X022975Y025157D02*
X022985Y025157D01*
X022975Y025255D02*
X022985Y025255D01*
X023224Y025255D02*
X023281Y025255D01*
X023260Y025157D02*
X023240Y025157D01*
X023240Y025058D02*
X023260Y025058D01*
X023260Y024960D02*
X023240Y024960D01*
X023240Y024861D02*
X023260Y024861D01*
X023260Y024763D02*
X023240Y024763D01*
X023240Y024664D02*
X023260Y024664D01*
X023260Y024566D02*
X023240Y024566D01*
X023240Y024467D02*
X023260Y024467D01*
X023260Y024369D02*
X023235Y024369D01*
X022985Y024861D02*
X022975Y024861D01*
X022450Y024566D02*
X021839Y024566D01*
X021839Y024664D02*
X021920Y024664D01*
X021903Y024763D02*
X021839Y024763D01*
X021839Y024861D02*
X021903Y024861D01*
X021903Y024960D02*
X021839Y024960D01*
X021839Y025058D02*
X021903Y025058D01*
X021903Y025157D02*
X021839Y025157D01*
X021839Y024467D02*
X021903Y024467D01*
X021871Y024369D02*
X021839Y024369D01*
X022360Y025945D02*
X022460Y025945D01*
X022460Y026043D02*
X022360Y026043D01*
X022360Y026142D02*
X022460Y026142D01*
X022460Y026437D02*
X022360Y026437D01*
X022360Y026536D02*
X022460Y026536D01*
X022460Y026634D02*
X022360Y026634D01*
X022360Y026733D02*
X022460Y026733D01*
X022875Y027108D02*
X022875Y027108D01*
X023276Y027915D02*
X021839Y027915D01*
X021839Y028013D02*
X023276Y028013D01*
X023291Y028112D02*
X021839Y028112D01*
X021839Y028210D02*
X023332Y028210D01*
X023410Y028309D02*
X021839Y028309D01*
X024070Y028309D02*
X024410Y028309D01*
X024332Y028210D02*
X024148Y028210D01*
X024189Y028112D02*
X024291Y028112D01*
X024276Y028013D02*
X024204Y028013D01*
X024204Y027915D02*
X024276Y027915D01*
X024276Y027816D02*
X024204Y027816D01*
X024204Y027718D02*
X024276Y027718D01*
X024276Y027619D02*
X024204Y027619D01*
X024204Y027521D02*
X024276Y027521D01*
X024276Y027422D02*
X024204Y027422D01*
X024204Y027324D02*
X024276Y027324D01*
X024276Y027225D02*
X024204Y027225D01*
X024182Y027127D02*
X024298Y027127D01*
X024339Y027028D02*
X024141Y027028D01*
X024053Y026930D02*
X024427Y026930D01*
X024595Y026831D02*
X023920Y026831D01*
X024270Y026733D02*
X024324Y026733D01*
X024308Y026634D02*
X024292Y026634D01*
X024292Y026536D02*
X024308Y026536D01*
X023290Y026240D02*
X022915Y026240D01*
X022915Y026142D02*
X023290Y026142D01*
X023290Y026043D02*
X022915Y026043D01*
X022887Y025945D02*
X023290Y025945D01*
X023282Y021709D02*
X023308Y021709D01*
X023222Y021611D02*
X023550Y021611D01*
X023590Y021512D02*
X023133Y021512D01*
X023061Y021414D02*
X023590Y021414D01*
X023590Y021315D02*
X023061Y021315D01*
X023061Y021217D02*
X023590Y021217D01*
X023479Y020823D02*
X023711Y020823D01*
X025700Y019148D02*
X025903Y019148D01*
X025903Y019050D02*
X025700Y019050D01*
X025700Y018951D02*
X026202Y018951D01*
X026298Y018951D02*
X026674Y018951D01*
X026674Y018853D02*
X026597Y018853D01*
X026596Y018754D02*
X026674Y018754D01*
X026674Y018656D02*
X026537Y018656D01*
X026674Y018557D02*
X025700Y018557D01*
X025700Y018656D02*
X025963Y018656D01*
X025904Y018754D02*
X025700Y018754D01*
X025700Y018853D02*
X025903Y018853D01*
X026202Y018853D02*
X026298Y018853D01*
X026298Y018754D02*
X026202Y018754D01*
X026202Y018656D02*
X026298Y018656D01*
X026674Y018459D02*
X025800Y018459D01*
X025890Y018360D02*
X026674Y018360D01*
X026654Y018262D02*
X025931Y018262D01*
X025954Y018163D02*
X026556Y018163D01*
X026597Y019050D02*
X026674Y019050D01*
X026674Y019148D02*
X026597Y019148D01*
X026592Y019247D02*
X026674Y019247D01*
X026674Y019345D02*
X026513Y019345D01*
X026557Y019444D02*
X026674Y019444D01*
X026674Y019542D02*
X026557Y019542D01*
X026557Y019641D02*
X026674Y019641D01*
X026674Y019739D02*
X026565Y019739D01*
X026557Y019838D02*
X026674Y019838D01*
X026674Y019936D02*
X026546Y019936D01*
X026119Y021118D02*
X025955Y021118D01*
X026063Y021217D02*
X026088Y021217D01*
X018620Y014814D02*
X018332Y014814D01*
X018355Y014716D02*
X018585Y014716D01*
X018585Y014617D02*
X018355Y014617D01*
X018355Y014519D02*
X018585Y014519D01*
X017940Y014519D02*
X017840Y014519D01*
X017840Y014617D02*
X017940Y014617D01*
X017940Y014716D02*
X017840Y014716D01*
X017840Y014814D02*
X017940Y014814D01*
X019767Y012450D02*
X019856Y012450D01*
D33*
X017490Y011468D03*
X017190Y013808D03*
X015230Y013018D03*
X013530Y013348D03*
X014170Y010948D03*
X009870Y010448D03*
X009910Y017128D03*
X013570Y020028D03*
X015270Y019698D03*
X017230Y020488D03*
X017530Y018148D03*
X014210Y017628D03*
X009870Y023888D03*
X013530Y026788D03*
X015230Y026458D03*
X017190Y027248D03*
X017490Y024908D03*
X014170Y024388D03*
X022980Y025648D03*
X023770Y023688D03*
X023440Y021988D03*
X025840Y022628D03*
X025320Y025948D03*
X026340Y018328D03*
D34*
X025490Y018058D02*
X025490Y017758D01*
X025490Y018058D02*
X025180Y018368D01*
X025000Y018368D01*
X024740Y018628D01*
X024740Y018848D01*
X025480Y018848D02*
X025490Y018838D01*
X025490Y018058D01*
X025480Y019768D02*
X026145Y019768D01*
X026250Y019663D01*
X026365Y019718D01*
X025745Y020614D02*
X025390Y020258D01*
X025410Y020288D01*
X025410Y020298D01*
X025420Y020298D01*
X025390Y020258D02*
X025080Y020258D01*
X024740Y019928D01*
X024740Y019768D01*
X024610Y020518D02*
X024020Y020518D01*
X024020Y020563D01*
X024020Y021358D01*
X023950Y021358D01*
X024020Y021368D01*
X024350Y021678D02*
X024350Y022268D01*
X024200Y022418D01*
X024060Y022418D01*
X024000Y022478D01*
X024000Y022918D01*
X023980Y022938D01*
X023480Y022938D01*
X023460Y022918D01*
X023460Y022528D01*
X023090Y022118D01*
X023090Y021748D01*
X022735Y021353D01*
X022735Y021248D01*
X022065Y021248D02*
X022065Y022078D01*
X022065Y022153D01*
X021870Y022338D01*
X021870Y024088D01*
X022000Y024228D01*
X022205Y024228D01*
X022230Y024254D01*
X022640Y024338D02*
X022640Y024718D01*
X022435Y024923D01*
X022230Y024923D01*
X022640Y024338D02*
X022800Y024178D01*
X024350Y024178D01*
X024470Y024298D01*
X024470Y024788D01*
X024480Y024798D01*
X024860Y024798D01*
X024480Y025108D02*
X024650Y025278D01*
X024650Y025624D01*
X024655Y025628D01*
X024480Y025108D02*
X024480Y024798D01*
X023980Y024798D02*
X023980Y025623D01*
X023985Y025628D01*
X023985Y026448D01*
X023730Y026888D02*
X023730Y027728D01*
X023770Y027768D01*
X023770Y027758D01*
X023740Y027628D01*
X023730Y026888D02*
X023480Y026638D01*
X023480Y024798D01*
X024605Y023553D02*
X024500Y023448D01*
X024500Y022958D01*
X024480Y022938D01*
X024490Y022928D01*
X024490Y022458D01*
X024570Y022368D01*
X024570Y021878D01*
X024730Y021728D01*
X024970Y021728D01*
X025505Y021728D01*
X025765Y021488D01*
X025765Y020698D01*
X025745Y020678D01*
X025745Y020614D01*
X024970Y021038D02*
X024970Y021358D01*
X024670Y021358D01*
X024350Y021678D01*
X023950Y021728D02*
X023470Y021568D01*
X023440Y021988D02*
X023550Y022098D01*
X023950Y022098D01*
X022980Y022368D02*
X022980Y022938D01*
X022975Y022934D01*
X022240Y022934D01*
X022965Y022923D02*
X022980Y022938D01*
X022980Y022368D02*
X022735Y022123D01*
X022735Y022078D01*
X023180Y020553D02*
X024010Y020553D01*
X024020Y020563D01*
X023180Y019884D02*
X023135Y019839D01*
X023135Y019218D01*
X023805Y019218D02*
X023810Y019213D01*
X023810Y018688D01*
X023490Y018368D01*
X023490Y017758D01*
X019350Y019698D02*
X019340Y019698D01*
X019210Y019728D01*
X019310Y019738D02*
X019350Y019698D01*
X019310Y019738D02*
X018470Y019738D01*
X018220Y019988D01*
X016380Y019988D01*
X016380Y019488D02*
X017205Y019488D01*
X017210Y019483D01*
X018030Y019483D01*
X017210Y018814D02*
X017205Y018818D01*
X016860Y018818D01*
X016690Y018988D01*
X016380Y018988D01*
X016380Y018608D01*
X016380Y018988D02*
X016370Y018998D01*
X015880Y018998D01*
X015760Y019118D01*
X015760Y020668D01*
X015920Y020828D01*
X016300Y020828D01*
X016505Y021033D01*
X016505Y021238D01*
X015835Y021238D02*
X015810Y021264D01*
X015810Y021468D01*
X015670Y021598D01*
X013920Y021598D01*
X013735Y021403D01*
X013660Y021403D01*
X012830Y021403D01*
X012830Y020734D02*
X012935Y020734D01*
X013330Y020378D01*
X013700Y020378D01*
X014110Y020008D01*
X014500Y020008D01*
X014520Y019988D01*
X014520Y019488D01*
X014500Y019468D01*
X014060Y019468D01*
X014000Y019408D01*
X014000Y019268D01*
X013850Y019118D01*
X013260Y019118D01*
X012940Y018798D01*
X012940Y018498D01*
X012620Y018498D01*
X012100Y018858D02*
X012100Y019448D01*
X012145Y019448D01*
X012940Y019448D01*
X012940Y019518D01*
X012950Y019448D01*
X013310Y019518D02*
X013150Y019998D01*
X013570Y020028D02*
X013680Y019918D01*
X013680Y019518D01*
X014040Y018978D02*
X013950Y018898D01*
X013460Y018898D01*
X013310Y018738D01*
X013310Y018498D01*
X013310Y017963D01*
X013070Y017703D01*
X012280Y017703D01*
X012260Y017723D01*
X012195Y017723D01*
X011840Y018078D01*
X011870Y018058D01*
X011880Y018058D01*
X011880Y018048D01*
X011840Y018078D02*
X011840Y018388D01*
X011510Y018728D01*
X011350Y018728D01*
X011350Y017988D02*
X011350Y017324D01*
X011245Y017218D01*
X011300Y017104D01*
X010420Y017978D02*
X010430Y017988D01*
X010420Y017978D02*
X009640Y017978D01*
X009950Y018288D01*
X009950Y018468D01*
X010210Y018728D01*
X010430Y018728D01*
X009640Y017978D02*
X009340Y017978D01*
X010270Y019658D02*
X010795Y019658D01*
X010800Y019664D01*
X010270Y019658D02*
X009950Y019978D01*
X009340Y019978D01*
X010800Y020333D02*
X011421Y020333D01*
X011465Y020288D01*
X012135Y020288D02*
X012135Y019458D01*
X012145Y019448D01*
X013660Y020734D02*
X013705Y020734D01*
X013950Y020488D01*
X014520Y020488D01*
X014515Y020493D01*
X014515Y021228D01*
X014505Y020504D02*
X014520Y020488D01*
X014520Y018988D02*
X014540Y018968D01*
X015030Y018968D01*
X015135Y018864D01*
X015135Y018268D01*
X015300Y017688D02*
X016141Y017688D01*
X016604Y018131D01*
X016993Y017678D02*
X016993Y017182D01*
X016989Y017178D01*
X016550Y017178D01*
X016403Y017325D01*
X016230Y017265D01*
X016167Y017328D01*
X015930Y017328D01*
X015705Y017103D01*
X015600Y017113D01*
X015300Y017688D02*
X014885Y017303D01*
X014885Y017198D01*
X014215Y017198D02*
X014215Y017613D01*
X014200Y017628D01*
X013680Y017998D02*
X013680Y018498D01*
X014040Y018978D02*
X014510Y018978D01*
X014520Y018988D01*
X013670Y017368D02*
X013785Y017204D01*
X014215Y017198D01*
X015600Y016444D02*
X015809Y016434D01*
X015810Y016434D01*
X016993Y017678D02*
X017020Y017678D01*
X015630Y014918D02*
X015770Y014788D01*
X015770Y014584D01*
X015795Y014558D01*
X015880Y014148D02*
X015720Y013988D01*
X015720Y012438D01*
X015840Y012318D01*
X016330Y012318D01*
X016340Y012308D01*
X016340Y011928D01*
X016340Y012308D02*
X016650Y012308D01*
X016820Y012138D01*
X017165Y012138D01*
X017170Y012134D01*
X016564Y011451D02*
X016101Y011008D01*
X015260Y011008D01*
X014845Y010623D01*
X014845Y010518D01*
X014175Y010518D02*
X014175Y010933D01*
X014160Y010948D01*
X014175Y010518D02*
X013745Y010524D01*
X013630Y010688D01*
X013030Y011023D02*
X012240Y011023D01*
X012220Y011043D01*
X012155Y011043D01*
X011800Y011398D01*
X011830Y011378D01*
X011840Y011378D01*
X011840Y011368D01*
X011800Y011398D02*
X011800Y011708D01*
X011470Y012048D01*
X011310Y012048D01*
X011310Y011308D02*
X011310Y010644D01*
X011205Y010538D01*
X011260Y010424D01*
X010380Y011298D02*
X010390Y011308D01*
X010380Y011298D02*
X009600Y011298D01*
X009910Y011608D01*
X009910Y011788D01*
X010170Y012048D01*
X010390Y012048D01*
X010230Y012978D02*
X010755Y012978D01*
X010760Y012984D01*
X010230Y012978D02*
X009910Y013298D01*
X009300Y013298D01*
X010760Y013653D02*
X011381Y013653D01*
X011425Y013608D01*
X012095Y013608D02*
X012095Y012778D01*
X012105Y012768D01*
X012900Y012768D01*
X012900Y012838D01*
X012910Y012768D01*
X013270Y012838D02*
X013110Y013318D01*
X013530Y013348D02*
X013640Y013238D01*
X013640Y012838D01*
X013960Y012728D02*
X014020Y012788D01*
X014460Y012788D01*
X014480Y012808D01*
X014480Y013308D01*
X014460Y013328D01*
X014070Y013328D01*
X013660Y013698D01*
X013290Y013698D01*
X012895Y014054D01*
X012790Y014054D01*
X012790Y014723D02*
X013620Y014723D01*
X013695Y014723D01*
X013880Y014918D01*
X015630Y014918D01*
X016465Y014558D02*
X016465Y014353D01*
X016260Y014148D01*
X015880Y014148D01*
X016340Y013308D02*
X018180Y013308D01*
X018430Y013058D01*
X019270Y013058D01*
X019310Y013018D01*
X019300Y013018D01*
X019170Y013048D01*
X017990Y012803D02*
X017170Y012803D01*
X017165Y012808D01*
X016340Y012808D01*
X015095Y012184D02*
X014990Y012288D01*
X014500Y012288D01*
X014480Y012308D01*
X014470Y012298D01*
X014000Y012298D01*
X013910Y012218D01*
X013420Y012218D01*
X013270Y012058D01*
X013270Y011818D01*
X013270Y011283D01*
X013030Y011023D01*
X013640Y011318D02*
X013640Y011818D01*
X013810Y012438D02*
X013220Y012438D01*
X012900Y012118D01*
X012900Y011818D01*
X012580Y011818D01*
X012060Y012178D02*
X012060Y012768D01*
X012105Y012768D01*
X013810Y012438D02*
X013960Y012588D01*
X013960Y012728D01*
X013910Y013808D02*
X014480Y013808D01*
X014475Y013813D01*
X014475Y014548D01*
X014465Y013824D02*
X014480Y013808D01*
X013910Y013808D02*
X013665Y014054D01*
X013620Y014054D01*
X015095Y012184D02*
X015095Y011588D01*
X015890Y010648D02*
X016127Y010648D01*
X016190Y010585D01*
X016363Y010645D01*
X016510Y010498D01*
X016949Y010498D01*
X016953Y010502D01*
X016953Y010998D01*
X016980Y010998D01*
X015890Y010648D02*
X015665Y010423D01*
X015560Y010433D01*
X015560Y009764D02*
X015769Y009754D01*
X015770Y009754D01*
X009600Y011298D02*
X009300Y011298D01*
X015560Y023204D02*
X015769Y023194D01*
X015770Y023194D01*
X015665Y023863D02*
X015560Y023873D01*
X015665Y023863D02*
X015890Y024088D01*
X016127Y024088D01*
X016190Y024025D01*
X016363Y024085D01*
X016510Y023938D01*
X016949Y023938D01*
X016953Y023942D01*
X016953Y024438D01*
X016980Y024438D01*
X016564Y024891D02*
X016101Y024448D01*
X015260Y024448D01*
X014845Y024063D01*
X014845Y023958D01*
X014175Y023958D02*
X014175Y024373D01*
X014160Y024388D01*
X014175Y023958D02*
X013745Y023964D01*
X013630Y024128D01*
X013640Y024758D02*
X013640Y025258D01*
X013270Y025258D02*
X013270Y024723D01*
X013030Y024463D01*
X012240Y024463D01*
X012220Y024483D01*
X012155Y024483D01*
X011800Y024838D01*
X011830Y024818D01*
X011840Y024818D01*
X011840Y024808D01*
X011800Y024838D02*
X011800Y025148D01*
X011470Y025488D01*
X011310Y025488D01*
X011310Y024748D02*
X011310Y024084D01*
X011205Y023978D01*
X011260Y023864D01*
X010380Y024738D02*
X010390Y024748D01*
X010380Y024738D02*
X009600Y024738D01*
X009910Y025048D01*
X009910Y025228D01*
X010170Y025488D01*
X010390Y025488D01*
X009600Y024738D02*
X009300Y024738D01*
X010230Y026418D02*
X010755Y026418D01*
X010760Y026424D01*
X010230Y026418D02*
X009910Y026738D01*
X009300Y026738D01*
X010760Y027093D02*
X011381Y027093D01*
X011425Y027048D01*
X012060Y026208D02*
X012060Y025618D01*
X012060Y026208D02*
X012105Y026208D01*
X012900Y026208D01*
X012900Y026278D01*
X012910Y026208D01*
X013270Y026278D02*
X013110Y026758D01*
X013530Y026788D02*
X013640Y026678D01*
X013640Y026278D01*
X013960Y026168D02*
X014020Y026228D01*
X014460Y026228D01*
X014480Y026248D01*
X014480Y026748D01*
X014460Y026768D01*
X014070Y026768D01*
X013660Y027138D01*
X013290Y027138D01*
X012895Y027494D01*
X012790Y027494D01*
X012790Y028163D02*
X013620Y028163D01*
X013695Y028163D01*
X013880Y028358D01*
X015630Y028358D01*
X015770Y028228D01*
X015770Y028024D01*
X015795Y027998D01*
X015880Y027588D02*
X015720Y027428D01*
X015720Y025878D01*
X015840Y025758D01*
X016330Y025758D01*
X016340Y025748D01*
X016340Y025368D01*
X016340Y025748D02*
X016650Y025748D01*
X016820Y025578D01*
X017165Y025578D01*
X017170Y025574D01*
X017170Y026243D02*
X017990Y026243D01*
X018430Y026498D02*
X019270Y026498D01*
X019310Y026458D01*
X019300Y026458D01*
X019170Y026488D01*
X018430Y026498D02*
X018180Y026748D01*
X016340Y026748D01*
X016340Y026248D02*
X017165Y026248D01*
X017170Y026243D01*
X016260Y027588D02*
X015880Y027588D01*
X016260Y027588D02*
X016465Y027793D01*
X016465Y027998D01*
X014475Y027988D02*
X014475Y027253D01*
X014480Y027248D01*
X013910Y027248D01*
X013665Y027494D01*
X013620Y027494D01*
X014465Y027264D02*
X014480Y027248D01*
X013960Y026168D02*
X013960Y026028D01*
X013810Y025878D01*
X013220Y025878D01*
X012900Y025558D01*
X012900Y025258D01*
X012580Y025258D01*
X013270Y025258D02*
X013270Y025498D01*
X013420Y025658D01*
X013910Y025658D01*
X014000Y025738D01*
X014470Y025738D01*
X014480Y025748D01*
X014500Y025728D01*
X014990Y025728D01*
X015095Y025624D01*
X015095Y025028D01*
X012105Y026208D02*
X012095Y026218D01*
X012095Y027048D01*
X024605Y023553D02*
X025200Y023553D01*
X025780Y023718D02*
X025780Y024559D01*
X025337Y025022D01*
X025790Y025411D02*
X026286Y025411D01*
X026290Y025407D01*
X026290Y024968D01*
X026143Y024821D01*
X026203Y024648D01*
X026140Y024585D01*
X026140Y024348D01*
X026365Y024123D01*
X026355Y024018D01*
X025780Y023718D02*
X026165Y023303D01*
X026270Y023303D01*
X026270Y022634D02*
X025855Y022634D01*
X025840Y022618D01*
X026270Y022634D02*
X026265Y022204D01*
X026100Y022088D01*
X025470Y022098D02*
X024970Y022098D01*
X027025Y024018D02*
X027035Y024228D01*
X027034Y024228D01*
X025790Y025411D02*
X025790Y025438D01*
D35*
X009674Y009754D02*
X009280Y010148D01*
X009280Y011278D01*
X009300Y011298D01*
X009674Y009754D02*
X015770Y009754D01*
X016953Y009754D01*
X017750Y010128D02*
X017760Y010118D01*
X018120Y010118D01*
X019170Y011168D01*
X019170Y012048D01*
X019170Y013048D02*
X019010Y013308D01*
X019010Y014378D01*
X016993Y016434D02*
X015810Y016434D01*
X009714Y016434D01*
X009320Y016828D01*
X009320Y017958D01*
X009340Y017978D01*
X009674Y023194D02*
X009280Y023588D01*
X009280Y024718D01*
X009300Y024738D01*
X009674Y023194D02*
X015770Y023194D01*
X016953Y023194D01*
X017750Y023568D02*
X017760Y023558D01*
X018120Y023558D01*
X019170Y024608D01*
X019170Y025488D01*
X019170Y026488D02*
X019010Y026748D01*
X019010Y027818D01*
X022410Y027468D02*
X023480Y027468D01*
X023740Y027628D01*
X024740Y027628D02*
X025620Y027628D01*
X026670Y026578D01*
X026670Y026218D01*
X026660Y026208D01*
X027034Y025411D02*
X027034Y024228D01*
X027034Y018132D01*
X026640Y017738D01*
X025510Y017738D01*
X025490Y017758D01*
X019210Y017848D02*
X018160Y016798D01*
X017800Y016798D01*
X017790Y016808D01*
X019210Y017848D02*
X019210Y018728D01*
X019210Y019728D02*
X019050Y019988D01*
X019050Y021058D01*
M02*
