%
M48
M72
T01C0.0236
T02C0.0472
T03C0.0890
%
T01
X9870Y10448
X9910Y17128
X9870Y23888
X13530Y26788
X15230Y26458
X17190Y27248
X17490Y24908
X17230Y20488
X15270Y19698
X13570Y20028
X14210Y17628
X17530Y18148
X26340Y18328
X17490Y11468
X17190Y13808
X15230Y13018
X13530Y13348
X14170Y10948
X23440Y21988
X23770Y23688
X22980Y25648
X25320Y25948
X25840Y22628
X14170Y24388
T02
X9300Y11298
X9300Y12298
X9300Y13298
X9340Y17978
X9340Y18978
X9340Y19978
X9300Y24738
X9300Y25738
X9300Y26738
X19170Y26488
X19170Y25488
X19210Y18728
X19210Y19728
X25490Y17758
X24490Y17758
X23490Y17758
X19170Y13048
X19170Y12048
X23740Y27628
X24740Y27628
T03
X9050Y14448
X9090Y21128
X9050Y27888
X19360Y23488
X19400Y16728
X22340Y17508
X19360Y10048
X26740Y27818
M30
