G75*
G70*
%OFA0B0*%
%FSLAX24Y24*%
%IPPOS*%
%LPD*%
%AMOC8*
5,1,8,0,0,1.08239X$1,22.5*
%
%ADD10C,0.0010*%
%ADD11C,0.0000*%
%ADD12C,0.0160*%
%ADD13C,0.0030*%
%ADD14C,0.0020*%
D10*
X008300Y009298D02*
X008300Y015204D01*
X020111Y015204D01*
X020111Y009298D01*
X008300Y009298D01*
X008340Y015978D02*
X008340Y021884D01*
X020151Y021884D01*
X020151Y015978D01*
X008340Y015978D01*
X008300Y022738D02*
X008300Y028644D01*
X020111Y028644D01*
X020111Y022738D01*
X008300Y022738D01*
X021584Y028569D02*
X021584Y016758D01*
X027490Y016758D01*
X027490Y028569D01*
X021584Y028569D01*
D11*
X026295Y027818D02*
X026297Y027860D01*
X026303Y027901D01*
X026312Y027942D01*
X026326Y027981D01*
X026343Y028019D01*
X026364Y028055D01*
X026387Y028090D01*
X026414Y028121D01*
X026444Y028151D01*
X026477Y028177D01*
X026512Y028200D01*
X026548Y028220D01*
X026587Y028236D01*
X026627Y028248D01*
X026667Y028257D01*
X026709Y028262D01*
X026750Y028263D01*
X026792Y028260D01*
X026833Y028253D01*
X026874Y028242D01*
X026913Y028228D01*
X026950Y028210D01*
X026986Y028189D01*
X027020Y028164D01*
X027051Y028136D01*
X027079Y028106D01*
X027105Y028073D01*
X027127Y028037D01*
X027146Y028000D01*
X027161Y027961D01*
X027173Y027921D01*
X027181Y027880D01*
X027185Y027839D01*
X027185Y027797D01*
X027181Y027756D01*
X027173Y027715D01*
X027161Y027675D01*
X027146Y027636D01*
X027127Y027599D01*
X027105Y027563D01*
X027079Y027530D01*
X027051Y027500D01*
X027020Y027472D01*
X026986Y027447D01*
X026950Y027426D01*
X026913Y027408D01*
X026874Y027394D01*
X026833Y027383D01*
X026792Y027376D01*
X026750Y027373D01*
X026709Y027374D01*
X026667Y027379D01*
X026627Y027388D01*
X026587Y027400D01*
X026548Y027416D01*
X026512Y027436D01*
X026477Y027459D01*
X026444Y027485D01*
X026414Y027515D01*
X026387Y027546D01*
X026364Y027581D01*
X026343Y027617D01*
X026326Y027655D01*
X026312Y027694D01*
X026303Y027735D01*
X026297Y027776D01*
X026295Y027818D01*
X018915Y023488D02*
X018917Y023530D01*
X018923Y023571D01*
X018932Y023612D01*
X018946Y023651D01*
X018963Y023689D01*
X018984Y023725D01*
X019007Y023760D01*
X019034Y023791D01*
X019064Y023821D01*
X019097Y023847D01*
X019132Y023870D01*
X019168Y023890D01*
X019207Y023906D01*
X019247Y023918D01*
X019287Y023927D01*
X019329Y023932D01*
X019370Y023933D01*
X019412Y023930D01*
X019453Y023923D01*
X019494Y023912D01*
X019533Y023898D01*
X019570Y023880D01*
X019606Y023859D01*
X019640Y023834D01*
X019671Y023806D01*
X019699Y023776D01*
X019725Y023743D01*
X019747Y023707D01*
X019766Y023670D01*
X019781Y023631D01*
X019793Y023591D01*
X019801Y023550D01*
X019805Y023509D01*
X019805Y023467D01*
X019801Y023426D01*
X019793Y023385D01*
X019781Y023345D01*
X019766Y023306D01*
X019747Y023269D01*
X019725Y023233D01*
X019699Y023200D01*
X019671Y023170D01*
X019640Y023142D01*
X019606Y023117D01*
X019570Y023096D01*
X019533Y023078D01*
X019494Y023064D01*
X019453Y023053D01*
X019412Y023046D01*
X019370Y023043D01*
X019329Y023044D01*
X019287Y023049D01*
X019247Y023058D01*
X019207Y023070D01*
X019168Y023086D01*
X019132Y023106D01*
X019097Y023129D01*
X019064Y023155D01*
X019034Y023185D01*
X019007Y023216D01*
X018984Y023251D01*
X018963Y023287D01*
X018946Y023325D01*
X018932Y023364D01*
X018923Y023405D01*
X018917Y023446D01*
X018915Y023488D01*
X021895Y017508D02*
X021897Y017550D01*
X021903Y017591D01*
X021912Y017632D01*
X021926Y017671D01*
X021943Y017709D01*
X021964Y017745D01*
X021987Y017780D01*
X022014Y017811D01*
X022044Y017841D01*
X022077Y017867D01*
X022112Y017890D01*
X022148Y017910D01*
X022187Y017926D01*
X022227Y017938D01*
X022267Y017947D01*
X022309Y017952D01*
X022350Y017953D01*
X022392Y017950D01*
X022433Y017943D01*
X022474Y017932D01*
X022513Y017918D01*
X022550Y017900D01*
X022586Y017879D01*
X022620Y017854D01*
X022651Y017826D01*
X022679Y017796D01*
X022705Y017763D01*
X022727Y017727D01*
X022746Y017690D01*
X022761Y017651D01*
X022773Y017611D01*
X022781Y017570D01*
X022785Y017529D01*
X022785Y017487D01*
X022781Y017446D01*
X022773Y017405D01*
X022761Y017365D01*
X022746Y017326D01*
X022727Y017289D01*
X022705Y017253D01*
X022679Y017220D01*
X022651Y017190D01*
X022620Y017162D01*
X022586Y017137D01*
X022550Y017116D01*
X022513Y017098D01*
X022474Y017084D01*
X022433Y017073D01*
X022392Y017066D01*
X022350Y017063D01*
X022309Y017064D01*
X022267Y017069D01*
X022227Y017078D01*
X022187Y017090D01*
X022148Y017106D01*
X022112Y017126D01*
X022077Y017149D01*
X022044Y017175D01*
X022014Y017205D01*
X021987Y017236D01*
X021964Y017271D01*
X021943Y017307D01*
X021926Y017345D01*
X021912Y017384D01*
X021903Y017425D01*
X021897Y017466D01*
X021895Y017508D01*
X018955Y016728D02*
X018957Y016770D01*
X018963Y016811D01*
X018972Y016852D01*
X018986Y016891D01*
X019003Y016929D01*
X019024Y016965D01*
X019047Y017000D01*
X019074Y017031D01*
X019104Y017061D01*
X019137Y017087D01*
X019172Y017110D01*
X019208Y017130D01*
X019247Y017146D01*
X019287Y017158D01*
X019327Y017167D01*
X019369Y017172D01*
X019410Y017173D01*
X019452Y017170D01*
X019493Y017163D01*
X019534Y017152D01*
X019573Y017138D01*
X019610Y017120D01*
X019646Y017099D01*
X019680Y017074D01*
X019711Y017046D01*
X019739Y017016D01*
X019765Y016983D01*
X019787Y016947D01*
X019806Y016910D01*
X019821Y016871D01*
X019833Y016831D01*
X019841Y016790D01*
X019845Y016749D01*
X019845Y016707D01*
X019841Y016666D01*
X019833Y016625D01*
X019821Y016585D01*
X019806Y016546D01*
X019787Y016509D01*
X019765Y016473D01*
X019739Y016440D01*
X019711Y016410D01*
X019680Y016382D01*
X019646Y016357D01*
X019610Y016336D01*
X019573Y016318D01*
X019534Y016304D01*
X019493Y016293D01*
X019452Y016286D01*
X019410Y016283D01*
X019369Y016284D01*
X019327Y016289D01*
X019287Y016298D01*
X019247Y016310D01*
X019208Y016326D01*
X019172Y016346D01*
X019137Y016369D01*
X019104Y016395D01*
X019074Y016425D01*
X019047Y016456D01*
X019024Y016491D01*
X019003Y016527D01*
X018986Y016565D01*
X018972Y016604D01*
X018963Y016645D01*
X018957Y016686D01*
X018955Y016728D01*
X018915Y010048D02*
X018917Y010090D01*
X018923Y010131D01*
X018932Y010172D01*
X018946Y010211D01*
X018963Y010249D01*
X018984Y010285D01*
X019007Y010320D01*
X019034Y010351D01*
X019064Y010381D01*
X019097Y010407D01*
X019132Y010430D01*
X019168Y010450D01*
X019207Y010466D01*
X019247Y010478D01*
X019287Y010487D01*
X019329Y010492D01*
X019370Y010493D01*
X019412Y010490D01*
X019453Y010483D01*
X019494Y010472D01*
X019533Y010458D01*
X019570Y010440D01*
X019606Y010419D01*
X019640Y010394D01*
X019671Y010366D01*
X019699Y010336D01*
X019725Y010303D01*
X019747Y010267D01*
X019766Y010230D01*
X019781Y010191D01*
X019793Y010151D01*
X019801Y010110D01*
X019805Y010069D01*
X019805Y010027D01*
X019801Y009986D01*
X019793Y009945D01*
X019781Y009905D01*
X019766Y009866D01*
X019747Y009829D01*
X019725Y009793D01*
X019699Y009760D01*
X019671Y009730D01*
X019640Y009702D01*
X019606Y009677D01*
X019570Y009656D01*
X019533Y009638D01*
X019494Y009624D01*
X019453Y009613D01*
X019412Y009606D01*
X019370Y009603D01*
X019329Y009604D01*
X019287Y009609D01*
X019247Y009618D01*
X019207Y009630D01*
X019168Y009646D01*
X019132Y009666D01*
X019097Y009689D01*
X019064Y009715D01*
X019034Y009745D01*
X019007Y009776D01*
X018984Y009811D01*
X018963Y009847D01*
X018946Y009885D01*
X018932Y009924D01*
X018923Y009965D01*
X018917Y010006D01*
X018915Y010048D01*
X008605Y014448D02*
X008607Y014490D01*
X008613Y014531D01*
X008622Y014572D01*
X008636Y014611D01*
X008653Y014649D01*
X008674Y014685D01*
X008697Y014720D01*
X008724Y014751D01*
X008754Y014781D01*
X008787Y014807D01*
X008822Y014830D01*
X008858Y014850D01*
X008897Y014866D01*
X008937Y014878D01*
X008977Y014887D01*
X009019Y014892D01*
X009060Y014893D01*
X009102Y014890D01*
X009143Y014883D01*
X009184Y014872D01*
X009223Y014858D01*
X009260Y014840D01*
X009296Y014819D01*
X009330Y014794D01*
X009361Y014766D01*
X009389Y014736D01*
X009415Y014703D01*
X009437Y014667D01*
X009456Y014630D01*
X009471Y014591D01*
X009483Y014551D01*
X009491Y014510D01*
X009495Y014469D01*
X009495Y014427D01*
X009491Y014386D01*
X009483Y014345D01*
X009471Y014305D01*
X009456Y014266D01*
X009437Y014229D01*
X009415Y014193D01*
X009389Y014160D01*
X009361Y014130D01*
X009330Y014102D01*
X009296Y014077D01*
X009260Y014056D01*
X009223Y014038D01*
X009184Y014024D01*
X009143Y014013D01*
X009102Y014006D01*
X009060Y014003D01*
X009019Y014004D01*
X008977Y014009D01*
X008937Y014018D01*
X008897Y014030D01*
X008858Y014046D01*
X008822Y014066D01*
X008787Y014089D01*
X008754Y014115D01*
X008724Y014145D01*
X008697Y014176D01*
X008674Y014211D01*
X008653Y014247D01*
X008636Y014285D01*
X008622Y014324D01*
X008613Y014365D01*
X008607Y014406D01*
X008605Y014448D01*
X008645Y021128D02*
X008647Y021170D01*
X008653Y021211D01*
X008662Y021252D01*
X008676Y021291D01*
X008693Y021329D01*
X008714Y021365D01*
X008737Y021400D01*
X008764Y021431D01*
X008794Y021461D01*
X008827Y021487D01*
X008862Y021510D01*
X008898Y021530D01*
X008937Y021546D01*
X008977Y021558D01*
X009017Y021567D01*
X009059Y021572D01*
X009100Y021573D01*
X009142Y021570D01*
X009183Y021563D01*
X009224Y021552D01*
X009263Y021538D01*
X009300Y021520D01*
X009336Y021499D01*
X009370Y021474D01*
X009401Y021446D01*
X009429Y021416D01*
X009455Y021383D01*
X009477Y021347D01*
X009496Y021310D01*
X009511Y021271D01*
X009523Y021231D01*
X009531Y021190D01*
X009535Y021149D01*
X009535Y021107D01*
X009531Y021066D01*
X009523Y021025D01*
X009511Y020985D01*
X009496Y020946D01*
X009477Y020909D01*
X009455Y020873D01*
X009429Y020840D01*
X009401Y020810D01*
X009370Y020782D01*
X009336Y020757D01*
X009300Y020736D01*
X009263Y020718D01*
X009224Y020704D01*
X009183Y020693D01*
X009142Y020686D01*
X009100Y020683D01*
X009059Y020684D01*
X009017Y020689D01*
X008977Y020698D01*
X008937Y020710D01*
X008898Y020726D01*
X008862Y020746D01*
X008827Y020769D01*
X008794Y020795D01*
X008764Y020825D01*
X008737Y020856D01*
X008714Y020891D01*
X008693Y020927D01*
X008676Y020965D01*
X008662Y021004D01*
X008653Y021045D01*
X008647Y021086D01*
X008645Y021128D01*
X008605Y027888D02*
X008607Y027930D01*
X008613Y027971D01*
X008622Y028012D01*
X008636Y028051D01*
X008653Y028089D01*
X008674Y028125D01*
X008697Y028160D01*
X008724Y028191D01*
X008754Y028221D01*
X008787Y028247D01*
X008822Y028270D01*
X008858Y028290D01*
X008897Y028306D01*
X008937Y028318D01*
X008977Y028327D01*
X009019Y028332D01*
X009060Y028333D01*
X009102Y028330D01*
X009143Y028323D01*
X009184Y028312D01*
X009223Y028298D01*
X009260Y028280D01*
X009296Y028259D01*
X009330Y028234D01*
X009361Y028206D01*
X009389Y028176D01*
X009415Y028143D01*
X009437Y028107D01*
X009456Y028070D01*
X009471Y028031D01*
X009483Y027991D01*
X009491Y027950D01*
X009495Y027909D01*
X009495Y027867D01*
X009491Y027826D01*
X009483Y027785D01*
X009471Y027745D01*
X009456Y027706D01*
X009437Y027669D01*
X009415Y027633D01*
X009389Y027600D01*
X009361Y027570D01*
X009330Y027542D01*
X009296Y027517D01*
X009260Y027496D01*
X009223Y027478D01*
X009184Y027464D01*
X009143Y027453D01*
X009102Y027446D01*
X009060Y027443D01*
X009019Y027444D01*
X008977Y027449D01*
X008937Y027458D01*
X008897Y027470D01*
X008858Y027486D01*
X008822Y027506D01*
X008787Y027529D01*
X008754Y027555D01*
X008724Y027585D01*
X008697Y027616D01*
X008674Y027651D01*
X008653Y027687D01*
X008636Y027725D01*
X008622Y027764D01*
X008613Y027805D01*
X008607Y027846D01*
X008605Y027888D01*
D12*
X007906Y028983D02*
X007906Y008905D01*
X027985Y008905D01*
X027985Y028983D01*
X007906Y028983D01*
D13*
X010496Y027814D02*
X010496Y027523D01*
X010641Y027523D01*
X010689Y027572D01*
X010689Y027765D01*
X010641Y027814D01*
X010496Y027814D01*
X010790Y027717D02*
X010887Y027814D01*
X010887Y027523D01*
X010790Y027523D02*
X010984Y027523D01*
X011455Y027513D02*
X011455Y027804D01*
X011600Y027804D01*
X011648Y027755D01*
X011648Y027658D01*
X011600Y027610D01*
X011455Y027610D01*
X011552Y027610D02*
X011648Y027513D01*
X011750Y027562D02*
X011798Y027513D01*
X011895Y027513D01*
X011943Y027562D01*
X011943Y027610D01*
X011895Y027658D01*
X011750Y027658D01*
X011750Y027562D01*
X011750Y027658D02*
X011846Y027755D01*
X011943Y027804D01*
X011891Y028103D02*
X011939Y028152D01*
X011891Y028103D02*
X011794Y028103D01*
X011746Y028152D01*
X011746Y028345D01*
X011794Y028394D01*
X011891Y028394D01*
X011939Y028345D01*
X012040Y028345D02*
X012089Y028394D01*
X012185Y028394D01*
X012234Y028345D01*
X012234Y028297D01*
X012040Y028103D01*
X012234Y028103D01*
X012855Y027184D02*
X013000Y027184D01*
X013048Y027135D01*
X013048Y027038D01*
X013000Y026990D01*
X012855Y026990D01*
X012855Y026893D02*
X012855Y027184D01*
X012952Y026990D02*
X013048Y026893D01*
X013150Y027038D02*
X013343Y027038D01*
X013295Y026893D02*
X013295Y027184D01*
X013150Y027038D01*
X012823Y026804D02*
X012823Y026755D01*
X012630Y026562D01*
X012630Y026513D01*
X012528Y026513D02*
X012432Y026610D01*
X012480Y026610D02*
X012335Y026610D01*
X012335Y026513D02*
X012335Y026804D01*
X012480Y026804D01*
X012528Y026755D01*
X012528Y026658D01*
X012480Y026610D01*
X012630Y026804D02*
X012823Y026804D01*
X012995Y025944D02*
X012995Y025702D01*
X013043Y025653D01*
X013140Y025653D01*
X013188Y025702D01*
X013188Y025944D01*
X013290Y025895D02*
X013338Y025944D01*
X013435Y025944D01*
X013483Y025895D01*
X013483Y025847D01*
X013290Y025653D01*
X013483Y025653D01*
X014565Y024555D02*
X014565Y024362D01*
X014613Y024313D01*
X014710Y024313D01*
X014758Y024362D01*
X014860Y024362D02*
X014908Y024313D01*
X015005Y024313D01*
X015053Y024362D01*
X015053Y024458D01*
X015005Y024507D01*
X014956Y024507D01*
X014860Y024458D01*
X014860Y024604D01*
X015053Y024604D01*
X014758Y024555D02*
X014710Y024604D01*
X014613Y024604D01*
X014565Y024555D01*
X014467Y023574D02*
X014467Y023283D01*
X014370Y023283D02*
X014564Y023283D01*
X014370Y023477D02*
X014467Y023574D01*
X014269Y023525D02*
X014269Y023428D01*
X014221Y023380D01*
X014076Y023380D01*
X014172Y023380D02*
X014269Y023283D01*
X014076Y023283D02*
X014076Y023574D01*
X014221Y023574D01*
X014269Y023525D01*
X013303Y023424D02*
X013206Y023375D01*
X013110Y023278D01*
X013255Y023278D01*
X013303Y023230D01*
X013303Y023182D01*
X013255Y023133D01*
X013158Y023133D01*
X013110Y023182D01*
X013110Y023278D01*
X013008Y023182D02*
X012960Y023133D01*
X012863Y023133D01*
X012815Y023182D01*
X012815Y023375D01*
X012863Y023424D01*
X012960Y023424D01*
X013008Y023375D01*
X012423Y023335D02*
X012423Y023287D01*
X012375Y023238D01*
X012423Y023190D01*
X012423Y023142D01*
X012375Y023093D01*
X012278Y023093D01*
X012230Y023142D01*
X012128Y023142D02*
X012080Y023093D01*
X011983Y023093D01*
X011935Y023142D01*
X011935Y023335D01*
X011983Y023384D01*
X012080Y023384D01*
X012128Y023335D01*
X012230Y023335D02*
X012278Y023384D01*
X012375Y023384D01*
X012423Y023335D01*
X012375Y023238D02*
X012326Y023238D01*
X010934Y023163D02*
X010740Y023163D01*
X010837Y023163D02*
X010837Y023454D01*
X010740Y023357D01*
X010639Y023405D02*
X010591Y023454D01*
X010494Y023454D01*
X010446Y023405D01*
X010446Y023212D01*
X010494Y023163D01*
X010591Y023163D01*
X010639Y023212D01*
X010713Y024983D02*
X010810Y024983D01*
X010858Y025032D01*
X010858Y025274D01*
X010960Y025177D02*
X011056Y025274D01*
X011056Y024983D01*
X010960Y024983D02*
X011153Y024983D01*
X010713Y024983D02*
X010665Y025032D01*
X010665Y025274D01*
X011834Y021634D02*
X011786Y021585D01*
X011786Y021392D01*
X011834Y021343D01*
X011931Y021343D01*
X011979Y021392D01*
X012080Y021343D02*
X012274Y021537D01*
X012274Y021585D01*
X012225Y021634D01*
X012129Y021634D01*
X012080Y021585D01*
X011979Y021585D02*
X011931Y021634D01*
X011834Y021634D01*
X012080Y021343D02*
X012274Y021343D01*
X011983Y021044D02*
X011886Y020995D01*
X011790Y020898D01*
X011935Y020898D01*
X011983Y020850D01*
X011983Y020802D01*
X011935Y020753D01*
X011838Y020753D01*
X011790Y020802D01*
X011790Y020898D01*
X011688Y020898D02*
X011640Y020850D01*
X011495Y020850D01*
X011495Y020753D02*
X011495Y021044D01*
X011640Y021044D01*
X011688Y020995D01*
X011688Y020898D01*
X011592Y020850D02*
X011688Y020753D01*
X011024Y020763D02*
X010830Y020763D01*
X010927Y020763D02*
X010927Y021054D01*
X010830Y020957D01*
X010729Y021005D02*
X010729Y020812D01*
X010681Y020763D01*
X010536Y020763D01*
X010536Y021054D01*
X010681Y021054D01*
X010729Y021005D01*
X012375Y020044D02*
X012375Y019753D01*
X012375Y019850D02*
X012520Y019850D01*
X012568Y019898D01*
X012568Y019995D01*
X012520Y020044D01*
X012375Y020044D01*
X012472Y019850D02*
X012568Y019753D01*
X012670Y019753D02*
X012670Y019802D01*
X012863Y019995D01*
X012863Y020044D01*
X012670Y020044D01*
X012895Y020133D02*
X012895Y020424D01*
X013040Y020424D01*
X013088Y020375D01*
X013088Y020278D01*
X013040Y020230D01*
X012895Y020230D01*
X012992Y020230D02*
X013088Y020133D01*
X013190Y020278D02*
X013383Y020278D01*
X013335Y020133D02*
X013335Y020424D01*
X013190Y020278D01*
X013228Y019184D02*
X013228Y018942D01*
X013180Y018893D01*
X013083Y018893D01*
X013035Y018942D01*
X013035Y019184D01*
X013330Y019135D02*
X013378Y019184D01*
X013475Y019184D01*
X013523Y019135D01*
X013523Y019087D01*
X013330Y018893D01*
X013523Y018893D01*
X014605Y017795D02*
X014605Y017602D01*
X014653Y017553D01*
X014750Y017553D01*
X014798Y017602D01*
X014900Y017602D02*
X014948Y017553D01*
X015045Y017553D01*
X015093Y017602D01*
X015093Y017698D01*
X015045Y017747D01*
X014996Y017747D01*
X014900Y017698D01*
X014900Y017844D01*
X015093Y017844D01*
X014798Y017795D02*
X014750Y017844D01*
X014653Y017844D01*
X014605Y017795D01*
X014507Y016814D02*
X014507Y016523D01*
X014410Y016523D02*
X014604Y016523D01*
X014410Y016717D02*
X014507Y016814D01*
X014309Y016765D02*
X014309Y016668D01*
X014261Y016620D01*
X014116Y016620D01*
X014212Y016620D02*
X014309Y016523D01*
X014116Y016523D02*
X014116Y016814D01*
X014261Y016814D01*
X014309Y016765D01*
X013343Y016664D02*
X013246Y016615D01*
X013150Y016518D01*
X013295Y016518D01*
X013343Y016470D01*
X013343Y016422D01*
X013295Y016373D01*
X013198Y016373D01*
X013150Y016422D01*
X013150Y016518D01*
X013048Y016422D02*
X013000Y016373D01*
X012903Y016373D01*
X012855Y016422D01*
X012855Y016615D01*
X012903Y016664D01*
X013000Y016664D01*
X013048Y016615D01*
X012463Y016575D02*
X012463Y016527D01*
X012415Y016478D01*
X012463Y016430D01*
X012463Y016382D01*
X012415Y016333D01*
X012318Y016333D01*
X012270Y016382D01*
X012168Y016382D02*
X012120Y016333D01*
X012023Y016333D01*
X011975Y016382D01*
X011975Y016575D01*
X012023Y016624D01*
X012120Y016624D01*
X012168Y016575D01*
X012270Y016575D02*
X012318Y016624D01*
X012415Y016624D01*
X012463Y016575D01*
X012415Y016478D02*
X012366Y016478D01*
X010974Y016403D02*
X010780Y016403D01*
X010877Y016403D02*
X010877Y016694D01*
X010780Y016597D01*
X010679Y016645D02*
X010631Y016694D01*
X010534Y016694D01*
X010486Y016645D01*
X010486Y016452D01*
X010534Y016403D01*
X010631Y016403D01*
X010679Y016452D01*
X011794Y014954D02*
X011746Y014905D01*
X011746Y014712D01*
X011794Y014663D01*
X011891Y014663D01*
X011939Y014712D01*
X012040Y014663D02*
X012234Y014857D01*
X012234Y014905D01*
X012185Y014954D01*
X012089Y014954D01*
X012040Y014905D01*
X011939Y014905D02*
X011891Y014954D01*
X011794Y014954D01*
X012040Y014663D02*
X012234Y014663D01*
X011943Y014364D02*
X011846Y014315D01*
X011750Y014218D01*
X011895Y014218D01*
X011943Y014170D01*
X011943Y014122D01*
X011895Y014073D01*
X011798Y014073D01*
X011750Y014122D01*
X011750Y014218D01*
X011648Y014218D02*
X011600Y014170D01*
X011455Y014170D01*
X011455Y014073D02*
X011455Y014364D01*
X011600Y014364D01*
X011648Y014315D01*
X011648Y014218D01*
X011552Y014170D02*
X011648Y014073D01*
X010984Y014083D02*
X010790Y014083D01*
X010887Y014083D02*
X010887Y014374D01*
X010790Y014277D01*
X010689Y014325D02*
X010689Y014132D01*
X010641Y014083D01*
X010496Y014083D01*
X010496Y014374D01*
X010641Y014374D01*
X010689Y014325D01*
X012335Y013364D02*
X012335Y013073D01*
X012335Y013170D02*
X012480Y013170D01*
X012528Y013218D01*
X012528Y013315D01*
X012480Y013364D01*
X012335Y013364D01*
X012432Y013170D02*
X012528Y013073D01*
X012630Y013073D02*
X012630Y013122D01*
X012823Y013315D01*
X012823Y013364D01*
X012630Y013364D01*
X012855Y013453D02*
X012855Y013744D01*
X013000Y013744D01*
X013048Y013695D01*
X013048Y013598D01*
X013000Y013550D01*
X012855Y013550D01*
X012952Y013550D02*
X013048Y013453D01*
X013150Y013598D02*
X013343Y013598D01*
X013295Y013453D02*
X013295Y013744D01*
X013150Y013598D01*
X013188Y012504D02*
X013188Y012262D01*
X013140Y012213D01*
X013043Y012213D01*
X012995Y012262D01*
X012995Y012504D01*
X013290Y012455D02*
X013338Y012504D01*
X013435Y012504D01*
X013483Y012455D01*
X013483Y012407D01*
X013290Y012213D01*
X013483Y012213D01*
X014565Y011115D02*
X014565Y010922D01*
X014613Y010873D01*
X014710Y010873D01*
X014758Y010922D01*
X014860Y010922D02*
X014908Y010873D01*
X015005Y010873D01*
X015053Y010922D01*
X015053Y011018D01*
X015005Y011067D01*
X014956Y011067D01*
X014860Y011018D01*
X014860Y011164D01*
X015053Y011164D01*
X014758Y011115D02*
X014710Y011164D01*
X014613Y011164D01*
X014565Y011115D01*
X014467Y010134D02*
X014467Y009843D01*
X014370Y009843D02*
X014564Y009843D01*
X014370Y010037D02*
X014467Y010134D01*
X014269Y010085D02*
X014269Y009988D01*
X014221Y009940D01*
X014076Y009940D01*
X014172Y009940D02*
X014269Y009843D01*
X014076Y009843D02*
X014076Y010134D01*
X014221Y010134D01*
X014269Y010085D01*
X013303Y009984D02*
X013206Y009935D01*
X013110Y009838D01*
X013255Y009838D01*
X013303Y009790D01*
X013303Y009742D01*
X013255Y009693D01*
X013158Y009693D01*
X013110Y009742D01*
X013110Y009838D01*
X013008Y009742D02*
X012960Y009693D01*
X012863Y009693D01*
X012815Y009742D01*
X012815Y009935D01*
X012863Y009984D01*
X012960Y009984D01*
X013008Y009935D01*
X012423Y009895D02*
X012423Y009847D01*
X012375Y009798D01*
X012423Y009750D01*
X012423Y009702D01*
X012375Y009653D01*
X012278Y009653D01*
X012230Y009702D01*
X012128Y009702D02*
X012080Y009653D01*
X011983Y009653D01*
X011935Y009702D01*
X011935Y009895D01*
X011983Y009944D01*
X012080Y009944D01*
X012128Y009895D01*
X012230Y009895D02*
X012278Y009944D01*
X012375Y009944D01*
X012423Y009895D01*
X012375Y009798D02*
X012326Y009798D01*
X010934Y009723D02*
X010740Y009723D01*
X010837Y009723D02*
X010837Y010014D01*
X010740Y009917D01*
X010639Y009965D02*
X010591Y010014D01*
X010494Y010014D01*
X010446Y009965D01*
X010446Y009772D01*
X010494Y009723D01*
X010591Y009723D01*
X010639Y009772D01*
X010713Y011543D02*
X010810Y011543D01*
X010858Y011592D01*
X010858Y011834D01*
X010960Y011737D02*
X011056Y011834D01*
X011056Y011543D01*
X010960Y011543D02*
X011153Y011543D01*
X010713Y011543D02*
X010665Y011592D01*
X010665Y011834D01*
X014926Y013842D02*
X014974Y013793D01*
X015071Y013793D01*
X015119Y013842D01*
X015220Y013938D02*
X015414Y013938D01*
X015365Y013793D02*
X015365Y014084D01*
X015220Y013938D01*
X015119Y014035D02*
X015071Y014084D01*
X014974Y014084D01*
X014926Y014035D01*
X014926Y013842D01*
X016746Y014363D02*
X016746Y014654D01*
X016891Y014654D01*
X016939Y014605D01*
X016939Y014508D01*
X016891Y014460D01*
X016746Y014460D01*
X016842Y014460D02*
X016939Y014363D01*
X017040Y014412D02*
X017089Y014363D01*
X017185Y014363D01*
X017234Y014412D01*
X017234Y014460D01*
X017185Y014508D01*
X017137Y014508D01*
X017185Y014508D02*
X017234Y014557D01*
X017234Y014605D01*
X017185Y014654D01*
X017089Y014654D01*
X017040Y014605D01*
X017626Y013794D02*
X017771Y013794D01*
X017819Y013745D01*
X017819Y013648D01*
X017771Y013600D01*
X017626Y013600D01*
X017722Y013600D02*
X017819Y013503D01*
X017920Y013552D02*
X017969Y013503D01*
X018065Y013503D01*
X018114Y013552D01*
X018114Y013648D01*
X018065Y013697D01*
X018017Y013697D01*
X017920Y013648D01*
X017920Y013794D01*
X018114Y013794D01*
X017626Y013794D02*
X017626Y013503D01*
X017245Y011844D02*
X017148Y011844D01*
X017100Y011795D01*
X017100Y011747D01*
X017148Y011698D01*
X017293Y011698D01*
X017293Y011602D02*
X017293Y011795D01*
X017245Y011844D01*
X017293Y011602D02*
X017245Y011553D01*
X017148Y011553D01*
X017100Y011602D01*
X016998Y011553D02*
X016902Y011650D01*
X016950Y011650D02*
X016805Y011650D01*
X016805Y011553D02*
X016805Y011844D01*
X016950Y011844D01*
X016998Y011795D01*
X016998Y011698D01*
X016950Y011650D01*
X016950Y011454D02*
X016998Y011405D01*
X016998Y011212D01*
X016950Y011163D01*
X016853Y011163D01*
X016805Y011212D01*
X016805Y011405D01*
X016853Y011454D01*
X016950Y011454D01*
X017100Y011405D02*
X017148Y011454D01*
X017245Y011454D01*
X017293Y011405D01*
X017293Y011357D01*
X017100Y011163D01*
X017293Y011163D01*
X016998Y011163D02*
X016902Y011260D01*
X017905Y011423D02*
X017905Y011714D01*
X018050Y011714D01*
X018098Y011665D01*
X018098Y011568D01*
X018050Y011520D01*
X017905Y011520D01*
X018002Y011520D02*
X018098Y011423D01*
X018200Y011472D02*
X018200Y011520D01*
X018248Y011568D01*
X018345Y011568D01*
X018393Y011520D01*
X018393Y011472D01*
X018345Y011423D01*
X018248Y011423D01*
X018200Y011472D01*
X018248Y011568D02*
X018200Y011617D01*
X018200Y011665D01*
X018248Y011714D01*
X018345Y011714D01*
X018393Y011665D01*
X018393Y011617D01*
X018345Y011568D01*
X018363Y009864D02*
X018460Y009864D01*
X018508Y009815D01*
X018508Y009622D01*
X018460Y009573D01*
X018363Y009573D01*
X018315Y009622D01*
X018315Y009815D01*
X018363Y009864D01*
X018412Y009670D02*
X018508Y009573D01*
X018610Y009573D02*
X018803Y009573D01*
X018706Y009573D02*
X018706Y009864D01*
X018610Y009767D01*
X016403Y009817D02*
X016403Y009865D01*
X016355Y009914D01*
X016258Y009914D01*
X016210Y009865D01*
X016108Y009865D02*
X016108Y009768D01*
X016060Y009720D01*
X015915Y009720D01*
X015915Y009623D02*
X015915Y009914D01*
X016060Y009914D01*
X016108Y009865D01*
X016012Y009720D02*
X016108Y009623D01*
X016210Y009623D02*
X016403Y009817D01*
X016403Y009623D02*
X016210Y009623D01*
X016250Y016303D02*
X016443Y016497D01*
X016443Y016545D01*
X016395Y016594D01*
X016298Y016594D01*
X016250Y016545D01*
X016148Y016545D02*
X016148Y016448D01*
X016100Y016400D01*
X015955Y016400D01*
X015955Y016303D02*
X015955Y016594D01*
X016100Y016594D01*
X016148Y016545D01*
X016052Y016400D02*
X016148Y016303D01*
X016250Y016303D02*
X016443Y016303D01*
X016893Y017843D02*
X016845Y017892D01*
X016845Y018085D01*
X016893Y018134D01*
X016990Y018134D01*
X017038Y018085D01*
X017038Y017892D01*
X016990Y017843D01*
X016893Y017843D01*
X016942Y017940D02*
X017038Y017843D01*
X017140Y017843D02*
X017333Y018037D01*
X017333Y018085D01*
X017285Y018134D01*
X017188Y018134D01*
X017140Y018085D01*
X017188Y018233D02*
X017140Y018282D01*
X017188Y018233D02*
X017285Y018233D01*
X017333Y018282D01*
X017333Y018475D01*
X017285Y018524D01*
X017188Y018524D01*
X017140Y018475D01*
X017140Y018427D01*
X017188Y018378D01*
X017333Y018378D01*
X017038Y018378D02*
X017038Y018475D01*
X016990Y018524D01*
X016845Y018524D01*
X016845Y018233D01*
X016845Y018330D02*
X016990Y018330D01*
X017038Y018378D01*
X016942Y018330D02*
X017038Y018233D01*
X017140Y017843D02*
X017333Y017843D01*
X017945Y018103D02*
X017945Y018394D01*
X018090Y018394D01*
X018138Y018345D01*
X018138Y018248D01*
X018090Y018200D01*
X017945Y018200D01*
X018042Y018200D02*
X018138Y018103D01*
X018240Y018152D02*
X018288Y018103D01*
X018385Y018103D01*
X018433Y018152D01*
X018433Y018200D01*
X018385Y018248D01*
X018288Y018248D01*
X018240Y018297D01*
X018240Y018345D01*
X018288Y018394D01*
X018385Y018394D01*
X018433Y018345D01*
X018433Y018297D01*
X018385Y018248D01*
X018288Y018248D02*
X018240Y018200D01*
X018240Y018152D01*
X018403Y016544D02*
X018500Y016544D01*
X018548Y016495D01*
X018548Y016302D01*
X018500Y016253D01*
X018403Y016253D01*
X018355Y016302D01*
X018355Y016495D01*
X018403Y016544D01*
X018452Y016350D02*
X018548Y016253D01*
X018650Y016253D02*
X018843Y016253D01*
X018746Y016253D02*
X018746Y016544D01*
X018650Y016447D01*
X018105Y020183D02*
X018009Y020183D01*
X017960Y020232D01*
X017960Y020328D02*
X018057Y020377D01*
X018105Y020377D01*
X018154Y020328D01*
X018154Y020232D01*
X018105Y020183D01*
X017960Y020328D02*
X017960Y020474D01*
X018154Y020474D01*
X017859Y020425D02*
X017859Y020328D01*
X017811Y020280D01*
X017666Y020280D01*
X017762Y020280D02*
X017859Y020183D01*
X017666Y020183D02*
X017666Y020474D01*
X017811Y020474D01*
X017859Y020425D01*
X017225Y021043D02*
X017129Y021043D01*
X017080Y021092D01*
X016979Y021043D02*
X016882Y021140D01*
X016931Y021140D02*
X016786Y021140D01*
X016786Y021043D02*
X016786Y021334D01*
X016931Y021334D01*
X016979Y021285D01*
X016979Y021188D01*
X016931Y021140D01*
X017080Y021285D02*
X017129Y021334D01*
X017225Y021334D01*
X017274Y021285D01*
X017274Y021237D01*
X017225Y021188D01*
X017274Y021140D01*
X017274Y021092D01*
X017225Y021043D01*
X017225Y021188D02*
X017177Y021188D01*
X015454Y020618D02*
X015260Y020618D01*
X015405Y020764D01*
X015405Y020473D01*
X015159Y020522D02*
X015111Y020473D01*
X015014Y020473D01*
X014966Y020522D01*
X014966Y020715D01*
X015014Y020764D01*
X015111Y020764D01*
X015159Y020715D01*
X015915Y023063D02*
X015915Y023354D01*
X016060Y023354D01*
X016108Y023305D01*
X016108Y023208D01*
X016060Y023160D01*
X015915Y023160D01*
X016012Y023160D02*
X016108Y023063D01*
X016210Y023063D02*
X016403Y023257D01*
X016403Y023305D01*
X016355Y023354D01*
X016258Y023354D01*
X016210Y023305D01*
X016210Y023063D02*
X016403Y023063D01*
X016853Y024603D02*
X016805Y024652D01*
X016805Y024845D01*
X016853Y024894D01*
X016950Y024894D01*
X016998Y024845D01*
X016998Y024652D01*
X016950Y024603D01*
X016853Y024603D01*
X016902Y024700D02*
X016998Y024603D01*
X017100Y024603D02*
X017293Y024797D01*
X017293Y024845D01*
X017245Y024894D01*
X017148Y024894D01*
X017100Y024845D01*
X017148Y024993D02*
X017245Y024993D01*
X017293Y025042D01*
X017293Y025235D01*
X017245Y025284D01*
X017148Y025284D01*
X017100Y025235D01*
X017100Y025187D01*
X017148Y025138D01*
X017293Y025138D01*
X017148Y024993D02*
X017100Y025042D01*
X016998Y024993D02*
X016902Y025090D01*
X016950Y025090D02*
X016805Y025090D01*
X016805Y024993D02*
X016805Y025284D01*
X016950Y025284D01*
X016998Y025235D01*
X016998Y025138D01*
X016950Y025090D01*
X017100Y024603D02*
X017293Y024603D01*
X017905Y024863D02*
X017905Y025154D01*
X018050Y025154D01*
X018098Y025105D01*
X018098Y025008D01*
X018050Y024960D01*
X017905Y024960D01*
X018002Y024960D02*
X018098Y024863D01*
X018200Y024912D02*
X018200Y024960D01*
X018248Y025008D01*
X018345Y025008D01*
X018393Y024960D01*
X018393Y024912D01*
X018345Y024863D01*
X018248Y024863D01*
X018200Y024912D01*
X018248Y025008D02*
X018200Y025057D01*
X018200Y025105D01*
X018248Y025154D01*
X018345Y025154D01*
X018393Y025105D01*
X018393Y025057D01*
X018345Y025008D01*
X018363Y023304D02*
X018460Y023304D01*
X018508Y023255D01*
X018508Y023062D01*
X018460Y023013D01*
X018363Y023013D01*
X018315Y023062D01*
X018315Y023255D01*
X018363Y023304D01*
X018412Y023110D02*
X018508Y023013D01*
X018610Y023013D02*
X018803Y023013D01*
X018706Y023013D02*
X018706Y023304D01*
X018610Y023207D01*
X021835Y020644D02*
X021835Y020547D01*
X021883Y020499D01*
X021883Y020397D02*
X021835Y020349D01*
X021835Y020252D01*
X021883Y020204D01*
X022077Y020204D01*
X022125Y020252D01*
X022125Y020349D01*
X022077Y020397D01*
X022125Y020499D02*
X021932Y020692D01*
X021883Y020692D01*
X021835Y020644D01*
X022125Y020692D02*
X022125Y020499D01*
X022425Y020401D02*
X022473Y020305D01*
X022570Y020208D01*
X022570Y020353D01*
X022618Y020401D01*
X022667Y020401D01*
X022715Y020353D01*
X022715Y020256D01*
X022667Y020208D01*
X022570Y020208D01*
X022570Y020107D02*
X022618Y020058D01*
X022618Y019913D01*
X022715Y019913D02*
X022425Y019913D01*
X022425Y020058D01*
X022473Y020107D01*
X022570Y020107D01*
X022618Y020010D02*
X022715Y020107D01*
X022705Y019442D02*
X022705Y019249D01*
X022705Y019345D02*
X022415Y019345D01*
X022512Y019249D01*
X022463Y019147D02*
X022415Y019099D01*
X022415Y018954D01*
X022705Y018954D01*
X022705Y019099D01*
X022657Y019147D01*
X022463Y019147D01*
X023425Y020793D02*
X023425Y020938D01*
X023473Y020987D01*
X023570Y020987D01*
X023618Y020938D01*
X023618Y020793D01*
X023715Y020793D02*
X023425Y020793D01*
X023618Y020890D02*
X023715Y020987D01*
X023715Y021088D02*
X023667Y021088D01*
X023473Y021281D01*
X023425Y021281D01*
X023425Y021088D01*
X023335Y021313D02*
X023045Y021313D01*
X023045Y021458D01*
X023093Y021507D01*
X023190Y021507D01*
X023238Y021458D01*
X023238Y021313D01*
X023238Y021410D02*
X023335Y021507D01*
X023190Y021608D02*
X023190Y021801D01*
X023335Y021753D02*
X023045Y021753D01*
X023190Y021608D01*
X024285Y021647D02*
X024527Y021647D01*
X024575Y021598D01*
X024575Y021502D01*
X024527Y021453D01*
X024285Y021453D01*
X024333Y021748D02*
X024285Y021796D01*
X024285Y021893D01*
X024333Y021941D01*
X024382Y021941D01*
X024575Y021748D01*
X024575Y021941D01*
X025673Y023023D02*
X025867Y023023D01*
X025915Y023072D01*
X025915Y023168D01*
X025867Y023217D01*
X025867Y023318D02*
X025915Y023366D01*
X025915Y023463D01*
X025867Y023511D01*
X025770Y023511D01*
X025722Y023463D01*
X025722Y023415D01*
X025770Y023318D01*
X025625Y023318D01*
X025625Y023511D01*
X025673Y023217D02*
X025625Y023168D01*
X025625Y023072D01*
X025673Y023023D01*
X026655Y022925D02*
X026945Y022925D01*
X026945Y022829D02*
X026945Y023022D01*
X026752Y022829D02*
X026655Y022925D01*
X026703Y022727D02*
X026800Y022727D01*
X026848Y022679D01*
X026848Y022534D01*
X026848Y022631D02*
X026945Y022727D01*
X026945Y022534D02*
X026655Y022534D01*
X026655Y022679D01*
X026703Y022727D01*
X026805Y021761D02*
X026853Y021665D01*
X026950Y021568D01*
X026950Y021713D01*
X026998Y021761D01*
X027047Y021761D01*
X027095Y021713D01*
X027095Y021616D01*
X027047Y021568D01*
X026950Y021568D01*
X027047Y021467D02*
X027095Y021418D01*
X027095Y021322D01*
X027047Y021273D01*
X026853Y021273D01*
X026805Y021322D01*
X026805Y021418D01*
X026853Y021467D01*
X026893Y020881D02*
X026942Y020881D01*
X026990Y020833D01*
X027038Y020881D01*
X027087Y020881D01*
X027135Y020833D01*
X027135Y020736D01*
X027087Y020688D01*
X027087Y020587D02*
X027135Y020538D01*
X027135Y020442D01*
X027087Y020393D01*
X026893Y020393D01*
X026845Y020442D01*
X026845Y020538D01*
X026893Y020587D01*
X026893Y020688D02*
X026845Y020736D01*
X026845Y020833D01*
X026893Y020881D01*
X026990Y020833D02*
X026990Y020785D01*
X027065Y019392D02*
X027065Y019199D01*
X027065Y019295D02*
X026775Y019295D01*
X026872Y019199D01*
X026823Y019097D02*
X026775Y019049D01*
X026775Y018952D01*
X026823Y018904D01*
X027017Y018904D01*
X027065Y018952D01*
X027065Y019049D01*
X027017Y019097D01*
X025245Y019172D02*
X025245Y019268D01*
X025197Y019317D01*
X024955Y019317D01*
X025052Y019418D02*
X024955Y019515D01*
X025245Y019515D01*
X025245Y019611D02*
X025245Y019418D01*
X025245Y019172D02*
X025197Y019123D01*
X024955Y019123D01*
X022947Y023384D02*
X022753Y023384D01*
X022705Y023432D01*
X022705Y023529D01*
X022753Y023577D01*
X022850Y023679D02*
X022850Y023872D01*
X022995Y023824D02*
X022705Y023824D01*
X022850Y023679D01*
X022947Y023577D02*
X022995Y023529D01*
X022995Y023432D01*
X022947Y023384D01*
X022425Y025204D02*
X022135Y025204D01*
X022135Y025349D01*
X022183Y025397D01*
X022280Y025397D01*
X022328Y025349D01*
X022328Y025204D01*
X022328Y025301D02*
X022425Y025397D01*
X022377Y025499D02*
X022425Y025547D01*
X022425Y025644D01*
X022377Y025692D01*
X022328Y025692D01*
X022280Y025644D01*
X022280Y025595D01*
X022280Y025644D02*
X022232Y025692D01*
X022183Y025692D01*
X022135Y025644D01*
X022135Y025547D01*
X022183Y025499D01*
X022995Y026084D02*
X022995Y026229D01*
X023043Y026277D01*
X023140Y026277D01*
X023188Y026229D01*
X023188Y026084D01*
X023188Y026181D02*
X023285Y026277D01*
X023237Y026379D02*
X023285Y026427D01*
X023285Y026524D01*
X023237Y026572D01*
X023140Y026572D01*
X023092Y026524D01*
X023092Y026475D01*
X023140Y026379D01*
X022995Y026379D01*
X022995Y026572D01*
X022995Y026084D02*
X023285Y026084D01*
X024945Y025703D02*
X024945Y025606D01*
X024993Y025558D01*
X025042Y025558D01*
X025090Y025606D01*
X025090Y025751D01*
X025187Y025751D02*
X024993Y025751D01*
X024945Y025703D01*
X025187Y025751D02*
X025235Y025703D01*
X025235Y025606D01*
X025187Y025558D01*
X025235Y025457D02*
X025138Y025360D01*
X025138Y025408D02*
X025138Y025263D01*
X025235Y025263D02*
X024945Y025263D01*
X024945Y025408D01*
X024993Y025457D01*
X025090Y025457D01*
X025138Y025408D01*
X025335Y025408D02*
X025383Y025457D01*
X025577Y025457D01*
X025625Y025408D01*
X025625Y025312D01*
X025577Y025263D01*
X025383Y025263D01*
X025335Y025312D01*
X025335Y025408D01*
X025383Y025558D02*
X025335Y025606D01*
X025335Y025703D01*
X025383Y025751D01*
X025432Y025751D01*
X025625Y025558D01*
X025625Y025751D01*
X025625Y025457D02*
X025528Y025360D01*
X025365Y026363D02*
X025075Y026363D01*
X025075Y026508D01*
X025123Y026557D01*
X025220Y026557D01*
X025268Y026508D01*
X025268Y026363D01*
X025268Y026460D02*
X025365Y026557D01*
X025317Y026658D02*
X025268Y026658D01*
X025220Y026706D01*
X025220Y026803D01*
X025268Y026851D01*
X025317Y026851D01*
X025365Y026803D01*
X025365Y026706D01*
X025317Y026658D01*
X025220Y026706D02*
X025172Y026658D01*
X025123Y026658D01*
X025075Y026706D01*
X025075Y026803D01*
X025123Y026851D01*
X025172Y026851D01*
X025220Y026803D01*
X026925Y026822D02*
X026973Y026773D01*
X027167Y026773D01*
X027215Y026822D01*
X027215Y026918D01*
X027167Y026967D01*
X026973Y026967D01*
X026925Y026918D01*
X026925Y026822D01*
X027118Y026870D02*
X027215Y026967D01*
X027215Y027068D02*
X027215Y027261D01*
X027215Y027165D02*
X026925Y027165D01*
X027022Y027068D01*
X026972Y024861D02*
X026923Y024861D01*
X026875Y024813D01*
X026875Y024716D01*
X026923Y024668D01*
X026923Y024567D02*
X027020Y024567D01*
X027068Y024518D01*
X027068Y024373D01*
X027165Y024373D02*
X026875Y024373D01*
X026875Y024518D01*
X026923Y024567D01*
X027068Y024470D02*
X027165Y024567D01*
X027165Y024668D02*
X026972Y024861D01*
X027165Y024861D02*
X027165Y024668D01*
X018114Y026992D02*
X018065Y026943D01*
X017969Y026943D01*
X017920Y026992D01*
X017920Y027088D02*
X018017Y027137D01*
X018065Y027137D01*
X018114Y027088D01*
X018114Y026992D01*
X017920Y027088D02*
X017920Y027234D01*
X018114Y027234D01*
X017819Y027185D02*
X017819Y027088D01*
X017771Y027040D01*
X017626Y027040D01*
X017722Y027040D02*
X017819Y026943D01*
X017626Y026943D02*
X017626Y027234D01*
X017771Y027234D01*
X017819Y027185D01*
X017185Y027803D02*
X017089Y027803D01*
X017040Y027852D01*
X016939Y027803D02*
X016842Y027900D01*
X016891Y027900D02*
X016746Y027900D01*
X016746Y027803D02*
X016746Y028094D01*
X016891Y028094D01*
X016939Y028045D01*
X016939Y027948D01*
X016891Y027900D01*
X017040Y028045D02*
X017089Y028094D01*
X017185Y028094D01*
X017234Y028045D01*
X017234Y027997D01*
X017185Y027948D01*
X017234Y027900D01*
X017234Y027852D01*
X017185Y027803D01*
X017185Y027948D02*
X017137Y027948D01*
X015414Y027378D02*
X015220Y027378D01*
X015365Y027524D01*
X015365Y027233D01*
X015119Y027282D02*
X015071Y027233D01*
X014974Y027233D01*
X014926Y027282D01*
X014926Y027475D01*
X014974Y027524D01*
X015071Y027524D01*
X015119Y027475D01*
X011096Y018514D02*
X011096Y018223D01*
X011000Y018223D02*
X011193Y018223D01*
X011000Y018417D02*
X011096Y018514D01*
X010898Y018514D02*
X010898Y018272D01*
X010850Y018223D01*
X010753Y018223D01*
X010705Y018272D01*
X010705Y018514D01*
D14*
X015130Y019848D02*
X015180Y019798D01*
X015280Y019798D01*
X015330Y019848D01*
X015330Y020099D01*
X015425Y020049D02*
X015475Y020099D01*
X015575Y020099D01*
X015625Y020049D01*
X015625Y019998D01*
X015575Y019948D01*
X015625Y019898D01*
X015625Y019848D01*
X015575Y019798D01*
X015475Y019798D01*
X015425Y019848D01*
X015525Y019948D02*
X015575Y019948D01*
X015130Y019848D02*
X015130Y020099D01*
X015140Y026558D02*
X015240Y026558D01*
X015290Y026608D01*
X015290Y026859D01*
X015385Y026809D02*
X015435Y026859D01*
X015535Y026859D01*
X015585Y026809D01*
X015585Y026758D01*
X015535Y026708D01*
X015585Y026658D01*
X015585Y026608D01*
X015535Y026558D01*
X015435Y026558D01*
X015385Y026608D01*
X015485Y026708D02*
X015535Y026708D01*
X015140Y026558D02*
X015090Y026608D01*
X015090Y026859D01*
X023370Y023993D02*
X023420Y024043D01*
X023470Y024043D01*
X023520Y023993D01*
X023570Y024043D01*
X023620Y024043D01*
X023670Y023993D01*
X023670Y023893D01*
X023620Y023843D01*
X023620Y023748D02*
X023370Y023748D01*
X023420Y023843D02*
X023370Y023893D01*
X023370Y023993D01*
X023520Y023993D02*
X023520Y023943D01*
X023620Y023748D02*
X023670Y023698D01*
X023670Y023598D01*
X023620Y023548D01*
X023370Y023548D01*
X015535Y013419D02*
X015585Y013369D01*
X015585Y013318D01*
X015535Y013268D01*
X015585Y013218D01*
X015585Y013168D01*
X015535Y013118D01*
X015435Y013118D01*
X015385Y013168D01*
X015290Y013168D02*
X015290Y013419D01*
X015385Y013369D02*
X015435Y013419D01*
X015535Y013419D01*
X015535Y013268D02*
X015485Y013268D01*
X015290Y013168D02*
X015240Y013118D01*
X015140Y013118D01*
X015090Y013168D01*
X015090Y013419D01*
M02*
