G75*
G70*
%OFA0B0*%
%FSLAX24Y24*%
%IPPOS*%
%LPD*%
%AMOC8*
5,1,8,0,0,1.08239X$1,22.5*
%
%ADD10C,0.0040*%
%ADD11C,0.0709*%
%ADD12C,0.0100*%
%ADD13C,0.0396*%
%ADD14C,0.0160*%
D10*
X015513Y014485D02*
X015540Y014458D01*
X015593Y014458D01*
X015620Y014485D01*
X015566Y014538D02*
X015540Y014538D01*
X015513Y014512D01*
X015513Y014485D01*
X015540Y014538D02*
X015513Y014565D01*
X015513Y014592D01*
X015540Y014618D01*
X015593Y014618D01*
X015620Y014592D01*
X015663Y014758D02*
X015636Y014785D01*
X015636Y014812D01*
X015663Y014838D01*
X015743Y014838D01*
X015743Y014785D01*
X015716Y014758D01*
X015663Y014758D01*
X015558Y014785D02*
X015532Y014758D01*
X015478Y014758D01*
X015452Y014785D01*
X015452Y014812D01*
X015478Y014838D01*
X015505Y014838D01*
X015478Y014838D02*
X015452Y014865D01*
X015452Y014892D01*
X015478Y014918D01*
X015532Y014918D01*
X015558Y014892D01*
X015636Y014918D02*
X015689Y014892D01*
X015743Y014838D01*
X015820Y014785D02*
X015847Y014758D01*
X015900Y014758D01*
X015927Y014785D01*
X015820Y014892D01*
X015820Y014785D01*
X015820Y014892D02*
X015847Y014918D01*
X015900Y014918D01*
X015927Y014892D01*
X015927Y014785D01*
X016004Y014785D02*
X016031Y014758D01*
X016084Y014758D01*
X016111Y014785D01*
X016058Y014838D02*
X016031Y014838D01*
X016004Y014812D01*
X016004Y014785D01*
X016031Y014838D02*
X016004Y014865D01*
X016004Y014892D01*
X016031Y014918D01*
X016084Y014918D01*
X016111Y014892D01*
X016242Y014918D02*
X016242Y014758D01*
X016295Y014758D02*
X016188Y014758D01*
X016172Y014618D02*
X016172Y014458D01*
X016066Y014458D01*
X015988Y014458D02*
X015988Y014618D01*
X015908Y014618D01*
X015881Y014592D01*
X015881Y014538D01*
X015908Y014512D01*
X015988Y014512D01*
X015935Y014512D02*
X015881Y014458D01*
X016066Y014618D02*
X016172Y014618D01*
X016250Y014618D02*
X016250Y014512D01*
X016303Y014458D01*
X016356Y014512D01*
X016356Y014618D01*
X016426Y014618D02*
X016479Y014618D01*
X016453Y014618D02*
X016453Y014458D01*
X016479Y014458D02*
X016426Y014458D01*
X016557Y014458D02*
X016610Y014512D01*
X016583Y014512D02*
X016663Y014512D01*
X016663Y014458D02*
X016663Y014618D01*
X016583Y014618D01*
X016557Y014592D01*
X016557Y014538D01*
X016583Y014512D01*
X016741Y014485D02*
X016741Y014592D01*
X016767Y014618D01*
X016848Y014618D01*
X016848Y014458D01*
X016767Y014458D01*
X016741Y014485D01*
X016663Y014758D02*
X016557Y014865D01*
X016557Y014892D01*
X016583Y014918D01*
X016637Y014918D01*
X016663Y014892D01*
X016663Y014758D02*
X016557Y014758D01*
X016479Y014785D02*
X016372Y014892D01*
X016372Y014785D01*
X016399Y014758D01*
X016453Y014758D01*
X016479Y014785D01*
X016479Y014892D01*
X016453Y014918D01*
X016399Y014918D01*
X016372Y014892D01*
X016295Y014865D02*
X016242Y014918D01*
X016172Y014538D02*
X016119Y014538D01*
X015374Y014785D02*
X015268Y014892D01*
X015268Y014785D01*
X015294Y014758D01*
X015348Y014758D01*
X015374Y014785D01*
X015374Y014892D01*
X015348Y014918D01*
X015294Y014918D01*
X015268Y014892D01*
X016925Y014918D02*
X016925Y014758D01*
X017032Y014758D02*
X017032Y014918D01*
X016978Y014865D01*
X016925Y014918D01*
X017109Y014918D02*
X017109Y014758D01*
X017162Y014812D01*
X017216Y014758D01*
X017216Y014918D01*
X017293Y014918D02*
X017400Y014918D01*
X017400Y014758D01*
X017293Y014758D01*
X017347Y014838D02*
X017400Y014838D01*
X017347Y014618D02*
X017293Y014565D01*
X017293Y014458D01*
X017293Y014538D02*
X017400Y014538D01*
X017400Y014565D02*
X017347Y014618D01*
X017400Y014565D02*
X017400Y014458D01*
X017162Y014458D02*
X017162Y014618D01*
X017109Y014618D02*
X017216Y014618D01*
X017202Y021138D02*
X017202Y021298D01*
X017149Y021298D02*
X017256Y021298D01*
X017333Y021245D02*
X017333Y021138D01*
X017333Y021218D02*
X017440Y021218D01*
X017440Y021245D02*
X017387Y021298D01*
X017333Y021245D01*
X017440Y021245D02*
X017440Y021138D01*
X017440Y021438D02*
X017333Y021438D01*
X017256Y021438D02*
X017202Y021492D01*
X017149Y021438D01*
X017149Y021598D01*
X017072Y021598D02*
X017018Y021545D01*
X016965Y021598D01*
X016965Y021438D01*
X017072Y021438D02*
X017072Y021598D01*
X017256Y021598D02*
X017256Y021438D01*
X017387Y021518D02*
X017440Y021518D01*
X017440Y021598D02*
X017440Y021438D01*
X017440Y021598D02*
X017333Y021598D01*
X016888Y021298D02*
X016807Y021298D01*
X016781Y021272D01*
X016781Y021165D01*
X016807Y021138D01*
X016888Y021138D01*
X016888Y021298D01*
X016703Y021298D02*
X016623Y021298D01*
X016597Y021272D01*
X016597Y021218D01*
X016623Y021192D01*
X016703Y021192D01*
X016650Y021192D02*
X016597Y021138D01*
X016519Y021138D02*
X016466Y021138D01*
X016493Y021138D02*
X016493Y021298D01*
X016519Y021298D02*
X016466Y021298D01*
X016396Y021298D02*
X016396Y021192D01*
X016343Y021138D01*
X016290Y021192D01*
X016290Y021298D01*
X016212Y021298D02*
X016212Y021138D01*
X016106Y021138D01*
X016028Y021138D02*
X016028Y021298D01*
X015948Y021298D01*
X015921Y021272D01*
X015921Y021218D01*
X015948Y021192D01*
X016028Y021192D01*
X015975Y021192D02*
X015921Y021138D01*
X016106Y021298D02*
X016212Y021298D01*
X016212Y021218D02*
X016159Y021218D01*
X016124Y021438D02*
X016151Y021465D01*
X016124Y021438D02*
X016071Y021438D01*
X016044Y021465D01*
X016044Y021492D01*
X016071Y021518D01*
X016098Y021518D01*
X016071Y021518D02*
X016044Y021545D01*
X016044Y021572D01*
X016071Y021598D01*
X016124Y021598D01*
X016151Y021572D01*
X016282Y021598D02*
X016282Y021438D01*
X016335Y021438D02*
X016228Y021438D01*
X016335Y021545D02*
X016282Y021598D01*
X016412Y021572D02*
X016519Y021465D01*
X016493Y021438D01*
X016439Y021438D01*
X016412Y021465D01*
X016412Y021572D01*
X016439Y021598D01*
X016493Y021598D01*
X016519Y021572D01*
X016519Y021465D01*
X016597Y021438D02*
X016703Y021438D01*
X016597Y021545D01*
X016597Y021572D01*
X016623Y021598D01*
X016677Y021598D01*
X016703Y021572D01*
X016703Y021298D02*
X016703Y021138D01*
X015967Y021465D02*
X015860Y021572D01*
X015860Y021465D01*
X015887Y021438D01*
X015940Y021438D01*
X015967Y021465D01*
X015967Y021572D01*
X015940Y021598D01*
X015887Y021598D01*
X015860Y021572D01*
X015783Y021518D02*
X015703Y021518D01*
X015676Y021492D01*
X015676Y021465D01*
X015703Y021438D01*
X015756Y021438D01*
X015783Y021465D01*
X015783Y021518D01*
X015729Y021572D01*
X015676Y021598D01*
X015598Y021572D02*
X015572Y021598D01*
X015518Y021598D01*
X015492Y021572D01*
X015492Y021545D01*
X015518Y021518D01*
X015492Y021492D01*
X015492Y021465D01*
X015518Y021438D01*
X015572Y021438D01*
X015598Y021465D01*
X015545Y021518D02*
X015518Y021518D01*
X015414Y021465D02*
X015308Y021572D01*
X015308Y021465D01*
X015334Y021438D01*
X015388Y021438D01*
X015414Y021465D01*
X015414Y021572D01*
X015388Y021598D01*
X015334Y021598D01*
X015308Y021572D01*
X015580Y021298D02*
X015553Y021272D01*
X015553Y021245D01*
X015580Y021218D01*
X015553Y021192D01*
X015553Y021165D01*
X015580Y021138D01*
X015633Y021138D01*
X015660Y021165D01*
X015606Y021218D02*
X015580Y021218D01*
X015580Y021298D02*
X015633Y021298D01*
X015660Y021272D01*
X021870Y023688D02*
X021977Y023688D01*
X022030Y023742D01*
X021977Y023795D01*
X021870Y023795D01*
X021950Y023795D02*
X021950Y023688D01*
X022030Y023873D02*
X022030Y023979D01*
X022030Y023926D02*
X021870Y023926D01*
X022170Y023979D02*
X022330Y023979D01*
X022330Y024057D02*
X022277Y024110D01*
X022330Y024163D01*
X022170Y024163D01*
X022170Y024057D02*
X022330Y024057D01*
X022223Y023926D02*
X022170Y023979D01*
X022223Y023926D02*
X022170Y023873D01*
X022330Y023873D01*
X022330Y023795D02*
X022330Y023688D01*
X022170Y023688D01*
X022170Y023795D01*
X022250Y023742D02*
X022250Y023688D01*
X022030Y024241D02*
X021870Y024241D01*
X021870Y024321D01*
X021897Y024348D01*
X022003Y024348D01*
X022030Y024321D01*
X022030Y024241D01*
X022030Y024425D02*
X021870Y024425D01*
X021923Y024425D02*
X021923Y024505D01*
X021950Y024532D01*
X022003Y024532D01*
X022030Y024505D01*
X022030Y024425D01*
X021923Y024478D02*
X021870Y024532D01*
X021870Y024609D02*
X021870Y024663D01*
X021870Y024636D02*
X022030Y024636D01*
X022030Y024609D02*
X022030Y024663D01*
X022030Y024732D02*
X021923Y024732D01*
X021870Y024785D01*
X021923Y024839D01*
X022030Y024839D01*
X022030Y024916D02*
X021870Y024916D01*
X021870Y025023D01*
X021870Y025100D02*
X022030Y025100D01*
X022030Y025180D01*
X022003Y025207D01*
X021950Y025207D01*
X021923Y025180D01*
X021923Y025100D01*
X021923Y025154D02*
X021870Y025207D01*
X022030Y025023D02*
X022030Y024916D01*
X021950Y024916D02*
X021950Y024969D01*
X022170Y025004D02*
X022197Y024978D01*
X022170Y025004D02*
X022170Y025058D01*
X022197Y025084D01*
X022223Y025084D01*
X022250Y025058D01*
X022250Y025031D01*
X022250Y025058D02*
X022277Y025084D01*
X022303Y025084D01*
X022330Y025058D01*
X022330Y025004D01*
X022303Y024978D01*
X022330Y024847D02*
X022170Y024847D01*
X022170Y024900D02*
X022170Y024793D01*
X022197Y024716D02*
X022170Y024689D01*
X022170Y024636D01*
X022197Y024609D01*
X022303Y024716D01*
X022197Y024716D01*
X022303Y024716D02*
X022330Y024689D01*
X022330Y024636D01*
X022303Y024609D01*
X022197Y024609D01*
X022170Y024532D02*
X022170Y024425D01*
X022277Y024532D01*
X022303Y024532D01*
X022330Y024505D01*
X022330Y024452D01*
X022303Y024425D01*
X022277Y024793D02*
X022330Y024847D01*
X022303Y025162D02*
X022197Y025162D01*
X022303Y025268D01*
X022197Y025268D01*
X022170Y025242D01*
X022170Y025188D01*
X022197Y025162D01*
X022303Y025162D02*
X022330Y025188D01*
X022330Y025242D01*
X022303Y025268D01*
X022250Y025346D02*
X022250Y025426D01*
X022223Y025453D01*
X022197Y025453D01*
X022170Y025426D01*
X022170Y025373D01*
X022197Y025346D01*
X022250Y025346D01*
X022303Y025399D01*
X022330Y025453D01*
X022303Y025530D02*
X022330Y025557D01*
X022330Y025610D01*
X022303Y025637D01*
X022277Y025637D01*
X022250Y025610D01*
X022223Y025637D01*
X022197Y025637D01*
X022170Y025610D01*
X022170Y025557D01*
X022197Y025530D01*
X022250Y025583D02*
X022250Y025610D01*
X022197Y025714D02*
X022303Y025821D01*
X022197Y025821D01*
X022170Y025794D01*
X022170Y025741D01*
X022197Y025714D01*
X022303Y025714D01*
X022330Y025741D01*
X022330Y025794D01*
X022303Y025821D01*
X022030Y025549D02*
X022003Y025575D01*
X021977Y025575D01*
X021950Y025549D01*
X021923Y025575D01*
X021897Y025575D01*
X021870Y025549D01*
X021870Y025495D01*
X021897Y025469D01*
X021950Y025522D02*
X021950Y025549D01*
X022030Y025549D02*
X022030Y025495D01*
X022003Y025469D01*
X017400Y027898D02*
X017400Y028005D01*
X017347Y028058D01*
X017293Y028005D01*
X017293Y027898D01*
X017293Y027978D02*
X017400Y027978D01*
X017216Y028058D02*
X017109Y028058D01*
X017162Y028058D02*
X017162Y027898D01*
X017109Y028198D02*
X017109Y028358D01*
X017032Y028358D02*
X016978Y028305D01*
X016925Y028358D01*
X016925Y028198D01*
X017032Y028198D02*
X017032Y028358D01*
X017162Y028252D02*
X017109Y028198D01*
X017162Y028252D02*
X017216Y028198D01*
X017216Y028358D01*
X017293Y028358D02*
X017400Y028358D01*
X017400Y028198D01*
X017293Y028198D01*
X017347Y028278D02*
X017400Y028278D01*
X016848Y028058D02*
X016848Y027898D01*
X016767Y027898D01*
X016741Y027925D01*
X016741Y028032D01*
X016767Y028058D01*
X016848Y028058D01*
X016663Y028058D02*
X016583Y028058D01*
X016557Y028032D01*
X016557Y027978D01*
X016583Y027952D01*
X016663Y027952D01*
X016610Y027952D02*
X016557Y027898D01*
X016479Y027898D02*
X016426Y027898D01*
X016453Y027898D02*
X016453Y028058D01*
X016479Y028058D02*
X016426Y028058D01*
X016356Y028058D02*
X016356Y027952D01*
X016303Y027898D01*
X016250Y027952D01*
X016250Y028058D01*
X016172Y028058D02*
X016172Y027898D01*
X016066Y027898D01*
X015988Y027898D02*
X015988Y028058D01*
X015908Y028058D01*
X015881Y028032D01*
X015881Y027978D01*
X015908Y027952D01*
X015988Y027952D01*
X015935Y027952D02*
X015881Y027898D01*
X016066Y028058D02*
X016172Y028058D01*
X016172Y027978D02*
X016119Y027978D01*
X016084Y028198D02*
X016111Y028225D01*
X016084Y028198D02*
X016031Y028198D01*
X016004Y028225D01*
X016004Y028252D01*
X016031Y028278D01*
X016058Y028278D01*
X016031Y028278D02*
X016004Y028305D01*
X016004Y028332D01*
X016031Y028358D01*
X016084Y028358D01*
X016111Y028332D01*
X016242Y028358D02*
X016242Y028198D01*
X016295Y028198D02*
X016188Y028198D01*
X016295Y028305D02*
X016242Y028358D01*
X016372Y028332D02*
X016479Y028225D01*
X016453Y028198D01*
X016399Y028198D01*
X016372Y028225D01*
X016372Y028332D01*
X016399Y028358D01*
X016453Y028358D01*
X016479Y028332D01*
X016479Y028225D01*
X016557Y028198D02*
X016663Y028198D01*
X016557Y028305D01*
X016557Y028332D01*
X016583Y028358D01*
X016637Y028358D01*
X016663Y028332D01*
X016663Y028058D02*
X016663Y027898D01*
X015927Y028225D02*
X015927Y028332D01*
X015900Y028358D01*
X015847Y028358D01*
X015820Y028332D01*
X015927Y028225D01*
X015900Y028198D01*
X015847Y028198D01*
X015820Y028225D01*
X015820Y028332D01*
X015743Y028278D02*
X015663Y028278D01*
X015636Y028252D01*
X015636Y028225D01*
X015663Y028198D01*
X015716Y028198D01*
X015743Y028225D01*
X015743Y028278D01*
X015689Y028332D01*
X015636Y028358D01*
X015558Y028332D02*
X015532Y028358D01*
X015478Y028358D01*
X015452Y028332D01*
X015452Y028305D01*
X015478Y028278D01*
X015452Y028252D01*
X015452Y028225D01*
X015478Y028198D01*
X015532Y028198D01*
X015558Y028225D01*
X015505Y028278D02*
X015478Y028278D01*
X015374Y028225D02*
X015268Y028332D01*
X015268Y028225D01*
X015294Y028198D01*
X015348Y028198D01*
X015374Y028225D01*
X015374Y028332D01*
X015348Y028358D01*
X015294Y028358D01*
X015268Y028332D01*
X015540Y028058D02*
X015513Y028032D01*
X015513Y028005D01*
X015540Y027978D01*
X015513Y027952D01*
X015513Y027925D01*
X015540Y027898D01*
X015593Y027898D01*
X015620Y027925D01*
X015566Y027978D02*
X015540Y027978D01*
X015540Y028058D02*
X015593Y028058D01*
X015620Y028032D01*
D11*
X018816Y026488D02*
X019524Y026488D01*
X019524Y025488D02*
X018816Y025488D01*
X023740Y027274D02*
X023740Y027983D01*
X024740Y027983D02*
X024740Y027274D01*
X019564Y019728D02*
X018856Y019728D01*
X018856Y018728D02*
X019564Y018728D01*
X023490Y018113D02*
X023490Y017404D01*
X024490Y017404D02*
X024490Y018113D01*
X025490Y018113D02*
X025490Y017404D01*
X019524Y013048D02*
X018816Y013048D01*
X018816Y012048D02*
X019524Y012048D01*
X009654Y012298D02*
X008946Y012298D01*
X008946Y013298D02*
X009654Y013298D01*
X009654Y011298D02*
X008946Y011298D01*
X008986Y017978D02*
X009694Y017978D01*
X009694Y018978D02*
X008986Y018978D01*
X008986Y019978D02*
X009694Y019978D01*
X009654Y024738D02*
X008946Y024738D01*
X008946Y025738D02*
X009654Y025738D01*
X009654Y026738D02*
X008946Y026738D01*
D12*
X008555Y011032D02*
X008555Y009553D01*
X018872Y009553D01*
X018771Y009655D01*
X018665Y009910D01*
X018665Y010187D01*
X018771Y010442D01*
X018966Y010637D01*
X019222Y010743D01*
X019498Y010743D01*
X019754Y010637D01*
X019856Y010535D01*
X019856Y011723D01*
X019787Y011655D01*
X019617Y011584D01*
X018723Y011584D01*
X018553Y011655D01*
X018422Y011785D01*
X018351Y011956D01*
X018351Y012141D01*
X018422Y012311D01*
X018553Y012442D01*
X018723Y012513D01*
X019617Y012513D01*
X019787Y012442D01*
X019856Y012373D01*
X019856Y012723D01*
X019787Y012655D01*
X019617Y012584D01*
X018723Y012584D01*
X018553Y012655D01*
X018422Y012785D01*
X018351Y012956D01*
X018351Y013141D01*
X018422Y013311D01*
X018553Y013442D01*
X018723Y013513D01*
X019617Y013513D01*
X019787Y013442D01*
X019856Y013373D01*
X019856Y014949D01*
X017530Y014949D01*
X017530Y014704D01*
X017487Y014662D01*
X017530Y014619D01*
X017530Y014567D01*
X017530Y014404D01*
X017454Y014328D01*
X017239Y014328D01*
X017228Y014340D01*
X017216Y014328D01*
X017109Y014328D01*
X017032Y014404D01*
X017032Y014511D01*
X016979Y014565D01*
X016979Y014628D01*
X016978Y014628D01*
X016978Y014404D01*
X016901Y014328D01*
X016372Y014328D01*
X016364Y014336D01*
X016357Y014328D01*
X016249Y014328D01*
X016238Y014340D01*
X016226Y014328D01*
X015828Y014328D01*
X015751Y014404D01*
X015751Y014628D01*
X015750Y014628D01*
X015750Y014431D01*
X015647Y014328D01*
X015486Y014328D01*
X015410Y014404D01*
X015383Y014431D01*
X015383Y014628D01*
X015240Y014628D01*
X015164Y014704D01*
X015138Y014731D01*
X015138Y014946D01*
X015141Y014949D01*
X009532Y014949D01*
X009639Y014842D01*
X009745Y014587D01*
X009745Y014310D01*
X009639Y014055D01*
X009444Y013859D01*
X009211Y013763D01*
X009747Y013763D01*
X009917Y013692D01*
X010048Y013561D01*
X010119Y013391D01*
X010119Y013206D01*
X010048Y013035D01*
X009917Y012905D01*
X009747Y012834D01*
X008853Y012834D01*
X008683Y012905D01*
X008555Y013032D01*
X008555Y012619D01*
X008561Y012627D01*
X008617Y012683D01*
X008681Y012730D01*
X008752Y012766D01*
X008828Y012790D01*
X008906Y012803D01*
X009250Y012803D01*
X009250Y012348D01*
X009350Y012348D01*
X010157Y012348D01*
X010146Y012416D01*
X010122Y012492D01*
X010086Y012563D01*
X010039Y012627D01*
X009983Y012683D01*
X009919Y012730D01*
X009848Y012766D01*
X009772Y012790D01*
X009694Y012803D01*
X009350Y012803D01*
X009350Y012348D01*
X009350Y012248D01*
X009350Y011794D01*
X009694Y011794D01*
X009772Y011806D01*
X009848Y011831D01*
X009919Y011867D01*
X009983Y011914D01*
X010039Y011970D01*
X010086Y012034D01*
X010122Y012105D01*
X010146Y012180D01*
X010157Y012248D01*
X009350Y012248D01*
X009250Y012248D01*
X009250Y011794D01*
X008906Y011794D01*
X008828Y011806D01*
X008752Y011831D01*
X008681Y011867D01*
X008617Y011914D01*
X008561Y011970D01*
X008555Y011978D01*
X008555Y011564D01*
X008683Y011692D01*
X008853Y011763D01*
X009747Y011763D01*
X009917Y011692D01*
X010048Y011561D01*
X010119Y011391D01*
X010119Y011206D01*
X010048Y011035D01*
X009917Y010905D01*
X009747Y010834D01*
X008853Y010834D01*
X008683Y010905D01*
X008555Y011032D01*
X008555Y010973D02*
X008615Y010973D01*
X008555Y010874D02*
X008756Y010874D01*
X008555Y010776D02*
X013908Y010776D01*
X013909Y010774D02*
X013995Y010687D01*
X014109Y010640D01*
X014231Y010640D01*
X014345Y010687D01*
X014431Y010774D01*
X014478Y010887D01*
X014478Y011010D01*
X014431Y011123D01*
X014360Y011194D01*
X014360Y012787D01*
X013838Y013309D01*
X013838Y013410D01*
X013791Y013523D01*
X013705Y013609D01*
X013591Y013656D01*
X013469Y013656D01*
X013355Y013609D01*
X013269Y013523D01*
X013222Y013410D01*
X013222Y013287D01*
X013269Y013174D01*
X013355Y013087D01*
X013469Y013040D01*
X013569Y013040D01*
X013980Y012630D01*
X013980Y011194D01*
X013909Y011123D01*
X013862Y011010D01*
X013862Y010887D01*
X013909Y010774D01*
X013867Y010874D02*
X009844Y010874D01*
X009985Y010973D02*
X013862Y010973D01*
X013887Y011071D02*
X010063Y011071D01*
X010104Y011170D02*
X013956Y011170D01*
X013980Y011268D02*
X010119Y011268D01*
X010119Y011367D02*
X013980Y011367D01*
X013980Y011465D02*
X010088Y011465D01*
X010045Y011564D02*
X013980Y011564D01*
X013980Y011662D02*
X009947Y011662D01*
X009904Y011859D02*
X013980Y011859D01*
X013980Y011761D02*
X009751Y011761D01*
X010027Y011958D02*
X013980Y011958D01*
X013980Y012056D02*
X010097Y012056D01*
X010138Y012155D02*
X013980Y012155D01*
X013980Y012253D02*
X009350Y012253D01*
X009350Y012155D02*
X009250Y012155D01*
X009250Y012056D02*
X009350Y012056D01*
X009350Y011958D02*
X009250Y011958D01*
X009250Y011859D02*
X009350Y011859D01*
X009350Y012352D02*
X009250Y012352D01*
X009250Y012450D02*
X009350Y012450D01*
X009350Y012549D02*
X009250Y012549D01*
X009250Y012647D02*
X009350Y012647D01*
X009350Y012746D02*
X009250Y012746D01*
X009772Y012844D02*
X013765Y012844D01*
X013864Y012746D02*
X009887Y012746D01*
X010019Y012647D02*
X013962Y012647D01*
X013980Y012549D02*
X010093Y012549D01*
X010135Y012450D02*
X013980Y012450D01*
X013980Y012352D02*
X010156Y012352D01*
X009956Y012943D02*
X013667Y012943D01*
X013466Y013041D02*
X010050Y013041D01*
X010091Y013140D02*
X013303Y013140D01*
X013242Y013238D02*
X010119Y013238D01*
X010119Y013337D02*
X013222Y013337D01*
X013233Y013435D02*
X010100Y013435D01*
X010059Y013534D02*
X013280Y013534D01*
X013411Y013632D02*
X009977Y013632D01*
X009824Y013731D02*
X019856Y013731D01*
X019856Y013829D02*
X009372Y013829D01*
X009512Y013928D02*
X019856Y013928D01*
X019856Y014026D02*
X009611Y014026D01*
X009668Y014125D02*
X019856Y014125D01*
X019856Y014223D02*
X009709Y014223D01*
X009745Y014322D02*
X019856Y014322D01*
X019856Y014420D02*
X017530Y014420D01*
X017530Y014519D02*
X019856Y014519D01*
X019856Y014617D02*
X017530Y014617D01*
X017530Y014716D02*
X019856Y014716D01*
X019856Y014814D02*
X017530Y014814D01*
X017530Y014913D02*
X019856Y014913D01*
X018912Y016233D02*
X008595Y016233D01*
X008595Y017712D01*
X008723Y017585D01*
X008893Y017514D01*
X009787Y017514D01*
X009957Y017585D01*
X010088Y017715D01*
X010159Y017886D01*
X010159Y018071D01*
X010088Y018241D01*
X009957Y018372D01*
X009787Y018443D01*
X008893Y018443D01*
X008723Y018372D01*
X008595Y018244D01*
X008595Y018658D01*
X008601Y018650D01*
X008657Y018594D01*
X008721Y018547D01*
X008792Y018511D01*
X008868Y018486D01*
X008946Y018474D01*
X009290Y018474D01*
X009290Y018928D01*
X009390Y018928D01*
X009390Y018474D01*
X009734Y018474D01*
X009812Y018486D01*
X009888Y018511D01*
X009959Y018547D01*
X010023Y018594D01*
X010079Y018650D01*
X010126Y018714D01*
X010162Y018785D01*
X010186Y018860D01*
X010197Y018928D01*
X009390Y018928D01*
X009390Y019028D01*
X010197Y019028D01*
X010186Y019096D01*
X010162Y019172D01*
X010126Y019243D01*
X010079Y019307D01*
X010023Y019363D01*
X009959Y019410D01*
X009888Y019446D01*
X009812Y019470D01*
X009734Y019483D01*
X009390Y019483D01*
X009390Y019028D01*
X009290Y019028D01*
X009290Y019483D01*
X008946Y019483D01*
X008868Y019470D01*
X008792Y019446D01*
X008721Y019410D01*
X008657Y019363D01*
X008601Y019307D01*
X008595Y019299D01*
X008595Y019712D01*
X008723Y019585D01*
X008893Y019514D01*
X009787Y019514D01*
X009957Y019585D01*
X010088Y019715D01*
X010159Y019886D01*
X010159Y020071D01*
X010088Y020241D01*
X009957Y020372D01*
X009787Y020443D01*
X009251Y020443D01*
X009484Y020539D01*
X009679Y020735D01*
X009785Y020990D01*
X009785Y021267D01*
X009679Y021522D01*
X009572Y021629D01*
X015181Y021629D01*
X015178Y021626D01*
X015178Y021411D01*
X015204Y021384D01*
X015280Y021308D01*
X015423Y021308D01*
X015423Y021111D01*
X015450Y021084D01*
X015526Y021008D01*
X015687Y021008D01*
X015790Y021111D01*
X015790Y021308D01*
X015791Y021308D01*
X015791Y021084D01*
X015868Y021008D01*
X016266Y021008D01*
X016278Y021020D01*
X016278Y021020D01*
X016289Y021008D01*
X016397Y021008D01*
X016404Y021016D01*
X016412Y021008D01*
X016941Y021008D01*
X017018Y021084D01*
X017018Y021308D01*
X017019Y021308D01*
X017019Y021245D01*
X017072Y021191D01*
X017072Y021084D01*
X017149Y021008D01*
X017256Y021008D01*
X017268Y021020D01*
X017279Y021008D01*
X017494Y021008D01*
X017570Y021084D01*
X017570Y021247D01*
X017570Y021299D01*
X017527Y021342D01*
X017570Y021384D01*
X017570Y021629D01*
X019896Y021629D01*
X019896Y020053D01*
X019827Y020122D01*
X019657Y020193D01*
X018763Y020193D01*
X018593Y020122D01*
X018462Y019991D01*
X018391Y019821D01*
X018391Y019636D01*
X018462Y019465D01*
X018593Y019335D01*
X018763Y019264D01*
X019657Y019264D01*
X019827Y019335D01*
X019896Y019403D01*
X019896Y019053D01*
X019827Y019122D01*
X019657Y019193D01*
X018763Y019193D01*
X018593Y019122D01*
X018462Y018991D01*
X018391Y018821D01*
X018391Y018636D01*
X018462Y018465D01*
X018593Y018335D01*
X018763Y018264D01*
X019657Y018264D01*
X019827Y018335D01*
X019896Y018403D01*
X019896Y017215D01*
X019794Y017317D01*
X019538Y017423D01*
X019262Y017423D01*
X019006Y017317D01*
X018811Y017122D01*
X018705Y016867D01*
X018705Y016590D01*
X018811Y016335D01*
X018912Y016233D01*
X018854Y016292D02*
X008595Y016292D01*
X008595Y016390D02*
X018788Y016390D01*
X018747Y016489D02*
X008595Y016489D01*
X008595Y016587D02*
X018706Y016587D01*
X018705Y016686D02*
X008595Y016686D01*
X008595Y016784D02*
X018705Y016784D01*
X018712Y016883D02*
X008595Y016883D01*
X008595Y016981D02*
X018753Y016981D01*
X018793Y017080D02*
X008595Y017080D01*
X008595Y017178D02*
X018867Y017178D01*
X018966Y017277D02*
X008595Y017277D01*
X008595Y017375D02*
X014027Y017375D01*
X014035Y017367D02*
X014149Y017320D01*
X014271Y017320D01*
X014385Y017367D01*
X014471Y017454D01*
X014518Y017567D01*
X014518Y017690D01*
X014471Y017803D01*
X014400Y017874D01*
X014400Y019467D01*
X013878Y019989D01*
X013878Y020090D01*
X013831Y020203D01*
X013745Y020289D01*
X013631Y020336D01*
X013509Y020336D01*
X013395Y020289D01*
X013309Y020203D01*
X013262Y020090D01*
X013262Y019967D01*
X013309Y019854D01*
X013395Y019767D01*
X013509Y019720D01*
X013609Y019720D01*
X014020Y019310D01*
X014020Y017874D01*
X013949Y017803D01*
X013902Y017690D01*
X013902Y017567D01*
X013949Y017454D01*
X014035Y017367D01*
X013940Y017474D02*
X008595Y017474D01*
X008595Y017572D02*
X008752Y017572D01*
X008636Y017671D02*
X008595Y017671D01*
X008595Y018262D02*
X008613Y018262D01*
X008595Y018360D02*
X008711Y018360D01*
X008595Y018459D02*
X014020Y018459D01*
X014020Y018557D02*
X009973Y018557D01*
X010083Y018656D02*
X014020Y018656D01*
X014020Y018754D02*
X010146Y018754D01*
X010184Y018853D02*
X014020Y018853D01*
X014020Y018951D02*
X009390Y018951D01*
X009390Y018853D02*
X009290Y018853D01*
X009290Y018754D02*
X009390Y018754D01*
X009390Y018656D02*
X009290Y018656D01*
X009290Y018557D02*
X009390Y018557D01*
X009390Y019050D02*
X009290Y019050D01*
X009290Y019148D02*
X009390Y019148D01*
X009390Y019247D02*
X009290Y019247D01*
X009290Y019345D02*
X009390Y019345D01*
X009390Y019444D02*
X009290Y019444D01*
X009855Y019542D02*
X013787Y019542D01*
X013886Y019444D02*
X009892Y019444D01*
X010041Y019345D02*
X013984Y019345D01*
X014020Y019247D02*
X010123Y019247D01*
X010169Y019148D02*
X014020Y019148D01*
X014020Y019050D02*
X010194Y019050D01*
X010014Y019641D02*
X013689Y019641D01*
X013463Y019739D02*
X010098Y019739D01*
X010139Y019838D02*
X013325Y019838D01*
X013275Y019936D02*
X010159Y019936D01*
X010159Y020035D02*
X013262Y020035D01*
X013280Y020133D02*
X010133Y020133D01*
X010092Y020232D02*
X013338Y020232D01*
X013494Y020330D02*
X009999Y020330D01*
X009820Y020429D02*
X019896Y020429D01*
X019896Y020527D02*
X009455Y020527D01*
X009570Y020626D02*
X019896Y020626D01*
X019896Y020724D02*
X009669Y020724D01*
X009716Y020823D02*
X019896Y020823D01*
X019896Y020921D02*
X009757Y020921D01*
X009785Y021020D02*
X015514Y021020D01*
X015423Y021118D02*
X009785Y021118D01*
X009785Y021217D02*
X015423Y021217D01*
X015273Y021315D02*
X009765Y021315D01*
X009724Y021414D02*
X015178Y021414D01*
X015178Y021512D02*
X009683Y021512D01*
X009590Y021611D02*
X015178Y021611D01*
X015790Y021217D02*
X015791Y021217D01*
X015790Y021118D02*
X015791Y021118D01*
X015856Y021020D02*
X015699Y021020D01*
X016953Y021020D02*
X017137Y021020D01*
X017072Y021118D02*
X017018Y021118D01*
X017018Y021217D02*
X017047Y021217D01*
X017268Y021020D02*
X017268Y021020D01*
X017505Y021020D02*
X019896Y021020D01*
X019896Y021118D02*
X017570Y021118D01*
X017570Y021217D02*
X019896Y021217D01*
X019896Y021315D02*
X017554Y021315D01*
X017570Y021414D02*
X019896Y021414D01*
X019896Y021512D02*
X017570Y021512D01*
X017570Y021611D02*
X019896Y021611D01*
X019896Y020330D02*
X013646Y020330D01*
X013802Y020232D02*
X019896Y020232D01*
X019896Y020133D02*
X019800Y020133D01*
X019838Y019345D02*
X019896Y019345D01*
X019896Y019247D02*
X014400Y019247D01*
X014400Y019345D02*
X018582Y019345D01*
X018483Y019444D02*
X014400Y019444D01*
X014325Y019542D02*
X018430Y019542D01*
X018391Y019641D02*
X014226Y019641D01*
X014128Y019739D02*
X018391Y019739D01*
X018398Y019838D02*
X014029Y019838D01*
X013931Y019936D02*
X018439Y019936D01*
X018506Y020035D02*
X013878Y020035D01*
X013860Y020133D02*
X018620Y020133D01*
X018656Y019148D02*
X014400Y019148D01*
X014400Y019050D02*
X018521Y019050D01*
X018445Y018951D02*
X014400Y018951D01*
X014400Y018853D02*
X018405Y018853D01*
X018391Y018754D02*
X014400Y018754D01*
X014400Y018656D02*
X018391Y018656D01*
X018424Y018557D02*
X014400Y018557D01*
X014400Y018459D02*
X018468Y018459D01*
X018567Y018360D02*
X014400Y018360D01*
X014400Y018262D02*
X019896Y018262D01*
X019896Y018360D02*
X019853Y018360D01*
X019896Y018163D02*
X014400Y018163D01*
X014400Y018065D02*
X019896Y018065D01*
X019896Y017966D02*
X014400Y017966D01*
X014406Y017868D02*
X019896Y017868D01*
X019896Y017769D02*
X014485Y017769D01*
X014518Y017671D02*
X019896Y017671D01*
X019896Y017572D02*
X014518Y017572D01*
X014480Y017474D02*
X019896Y017474D01*
X019896Y017375D02*
X019654Y017375D01*
X019834Y017277D02*
X019896Y017277D01*
X019146Y017375D02*
X014393Y017375D01*
X013902Y017572D02*
X009928Y017572D01*
X010044Y017671D02*
X013902Y017671D01*
X013935Y017769D02*
X010110Y017769D01*
X010151Y017868D02*
X014014Y017868D01*
X014020Y017966D02*
X010159Y017966D01*
X010159Y018065D02*
X014020Y018065D01*
X014020Y018163D02*
X010120Y018163D01*
X010067Y018262D02*
X014020Y018262D01*
X014020Y018360D02*
X009969Y018360D01*
X008707Y018557D02*
X008595Y018557D01*
X008595Y018656D02*
X008597Y018656D01*
X008595Y019345D02*
X008639Y019345D01*
X008595Y019444D02*
X008788Y019444D01*
X008825Y019542D02*
X008595Y019542D01*
X008595Y019641D02*
X008666Y019641D01*
X008555Y022993D02*
X008555Y024472D01*
X008683Y024345D01*
X008853Y024274D01*
X009747Y024274D01*
X009917Y024345D01*
X010048Y024475D01*
X010119Y024646D01*
X010119Y024831D01*
X010048Y025001D01*
X009917Y025132D01*
X009747Y025203D01*
X008853Y025203D01*
X008683Y025132D01*
X008555Y025004D01*
X008555Y025418D01*
X008561Y025410D01*
X008617Y025354D01*
X008555Y025354D01*
X008617Y025354D02*
X008681Y025307D01*
X008752Y025271D01*
X008828Y025246D01*
X008906Y025234D01*
X009250Y025234D01*
X009250Y025688D01*
X009350Y025688D01*
X009350Y025234D01*
X009694Y025234D01*
X009772Y025246D01*
X009848Y025271D01*
X009919Y025307D01*
X009983Y025354D01*
X013980Y025354D01*
X013980Y025452D02*
X010070Y025452D01*
X010086Y025474D02*
X010122Y025545D01*
X010146Y025620D01*
X010157Y025688D01*
X009350Y025688D01*
X009350Y025788D01*
X010157Y025788D01*
X010146Y025856D01*
X010122Y025932D01*
X010086Y026003D01*
X010039Y026067D01*
X009983Y026123D01*
X009919Y026170D01*
X009848Y026206D01*
X009772Y026230D01*
X009694Y026243D01*
X009350Y026243D01*
X009350Y025788D01*
X009250Y025788D01*
X009250Y026243D01*
X008906Y026243D01*
X008828Y026230D01*
X008752Y026206D01*
X008681Y026170D01*
X008617Y026123D01*
X008561Y026067D01*
X008555Y026059D01*
X008555Y026472D01*
X008683Y026345D01*
X008853Y026274D01*
X009747Y026274D01*
X009917Y026345D01*
X010048Y026475D01*
X010119Y026646D01*
X010119Y026831D01*
X010048Y027001D01*
X009917Y027132D01*
X009747Y027203D01*
X009211Y027203D01*
X009444Y027299D01*
X009639Y027495D01*
X009745Y027750D01*
X009745Y028027D01*
X009639Y028282D01*
X009532Y028389D01*
X015141Y028389D01*
X015138Y028386D01*
X015138Y028171D01*
X015164Y028144D01*
X015240Y028068D01*
X015383Y028068D01*
X015383Y027871D01*
X015410Y027844D01*
X015486Y027768D01*
X015647Y027768D01*
X015750Y027871D01*
X015750Y028068D01*
X015751Y028068D01*
X015751Y027844D01*
X015828Y027768D01*
X016226Y027768D01*
X016238Y027780D01*
X016249Y027768D01*
X016357Y027768D01*
X016364Y027776D01*
X016372Y027768D01*
X016901Y027768D01*
X016978Y027844D01*
X016978Y028068D01*
X016979Y028068D01*
X016979Y028005D01*
X017032Y027951D01*
X017032Y027844D01*
X017109Y027768D01*
X017216Y027768D01*
X017228Y027780D01*
X017239Y027768D01*
X017454Y027768D01*
X017530Y027844D01*
X017530Y028004D01*
X017530Y028059D01*
X017487Y028102D01*
X017530Y028144D01*
X017530Y028389D01*
X019856Y028389D01*
X019856Y026813D01*
X019787Y026882D01*
X019617Y026953D01*
X018723Y026953D01*
X018553Y026882D01*
X018422Y026751D01*
X018351Y026581D01*
X018351Y026396D01*
X018422Y026225D01*
X018553Y026095D01*
X018723Y026024D01*
X019617Y026024D01*
X019787Y026095D01*
X019856Y026163D01*
X019856Y025813D01*
X019787Y025882D01*
X019617Y025953D01*
X018723Y025953D01*
X018553Y025882D01*
X018422Y025751D01*
X018351Y025581D01*
X018351Y025396D01*
X018422Y025225D01*
X018553Y025095D01*
X018723Y025024D01*
X019617Y025024D01*
X019787Y025095D01*
X019856Y025163D01*
X019856Y023975D01*
X019754Y024077D01*
X019498Y024183D01*
X019222Y024183D01*
X018966Y024077D01*
X018771Y023882D01*
X018665Y023627D01*
X018665Y023350D01*
X018771Y023095D01*
X018872Y022993D01*
X008555Y022993D01*
X008555Y023088D02*
X018777Y023088D01*
X018733Y023187D02*
X008555Y023187D01*
X008555Y023285D02*
X018692Y023285D01*
X018665Y023384D02*
X008555Y023384D01*
X008555Y023482D02*
X018665Y023482D01*
X018665Y023581D02*
X008555Y023581D01*
X008555Y023679D02*
X018687Y023679D01*
X018728Y023778D02*
X008555Y023778D01*
X008555Y023876D02*
X018768Y023876D01*
X018864Y023975D02*
X008555Y023975D01*
X008555Y024073D02*
X018962Y024073D01*
X019194Y024172D02*
X014389Y024172D01*
X014431Y024214D02*
X014478Y024327D01*
X014478Y024450D01*
X014431Y024563D01*
X014360Y024634D01*
X014360Y026227D01*
X013838Y026749D01*
X013838Y026850D01*
X013791Y026963D01*
X013705Y027049D01*
X013591Y027096D01*
X013469Y027096D01*
X013355Y027049D01*
X013269Y026963D01*
X013222Y026850D01*
X013222Y026727D01*
X013269Y026614D01*
X013355Y026527D01*
X013469Y026480D01*
X013569Y026480D01*
X013980Y026070D01*
X013980Y024634D01*
X013909Y024563D01*
X013862Y024450D01*
X013862Y024327D01*
X013909Y024214D01*
X013995Y024127D01*
X014109Y024080D01*
X014231Y024080D01*
X014345Y024127D01*
X014431Y024214D01*
X014455Y024270D02*
X019856Y024270D01*
X019856Y024172D02*
X019526Y024172D01*
X019758Y024073D02*
X019856Y024073D01*
X019856Y024369D02*
X014478Y024369D01*
X014471Y024467D02*
X019856Y024467D01*
X019856Y024566D02*
X014428Y024566D01*
X014360Y024664D02*
X019856Y024664D01*
X019856Y024763D02*
X014360Y024763D01*
X014360Y024861D02*
X019856Y024861D01*
X019856Y024960D02*
X014360Y024960D01*
X014360Y025058D02*
X018640Y025058D01*
X018490Y025157D02*
X014360Y025157D01*
X014360Y025255D02*
X018410Y025255D01*
X018369Y025354D02*
X014360Y025354D01*
X014360Y025452D02*
X018351Y025452D01*
X018351Y025551D02*
X014360Y025551D01*
X014360Y025649D02*
X018380Y025649D01*
X018421Y025748D02*
X014360Y025748D01*
X014360Y025846D02*
X018517Y025846D01*
X018705Y025945D02*
X014360Y025945D01*
X014360Y026043D02*
X018677Y026043D01*
X018505Y026142D02*
X014360Y026142D01*
X014347Y026240D02*
X018416Y026240D01*
X018375Y026339D02*
X014248Y026339D01*
X014150Y026437D02*
X018351Y026437D01*
X018351Y026536D02*
X014051Y026536D01*
X013953Y026634D02*
X018374Y026634D01*
X018414Y026733D02*
X013854Y026733D01*
X013838Y026831D02*
X018502Y026831D01*
X018668Y026930D02*
X013805Y026930D01*
X013726Y027028D02*
X019856Y027028D01*
X019856Y026930D02*
X019672Y026930D01*
X019838Y026831D02*
X019856Y026831D01*
X019856Y027127D02*
X009922Y027127D01*
X010021Y027028D02*
X013334Y027028D01*
X013255Y026930D02*
X010078Y026930D01*
X010118Y026831D02*
X013222Y026831D01*
X013222Y026733D02*
X010119Y026733D01*
X010114Y026634D02*
X013260Y026634D01*
X013347Y026536D02*
X010073Y026536D01*
X010010Y026437D02*
X013612Y026437D01*
X013711Y026339D02*
X009903Y026339D01*
X009957Y026142D02*
X013908Y026142D01*
X013980Y026043D02*
X010056Y026043D01*
X010115Y025945D02*
X013980Y025945D01*
X013980Y025846D02*
X010148Y025846D01*
X010151Y025649D02*
X013980Y025649D01*
X013980Y025551D02*
X010124Y025551D01*
X010086Y025474D02*
X010039Y025410D01*
X009983Y025354D01*
X009800Y025255D02*
X013980Y025255D01*
X013980Y025157D02*
X009857Y025157D01*
X009991Y025058D02*
X013980Y025058D01*
X013980Y024960D02*
X010065Y024960D01*
X010106Y024861D02*
X013980Y024861D01*
X013980Y024763D02*
X010119Y024763D01*
X010119Y024664D02*
X013980Y024664D01*
X013912Y024566D02*
X010085Y024566D01*
X010040Y024467D02*
X013869Y024467D01*
X013862Y024369D02*
X009942Y024369D01*
X009350Y025255D02*
X009250Y025255D01*
X009250Y025354D02*
X009350Y025354D01*
X009350Y025452D02*
X009250Y025452D01*
X009250Y025551D02*
X009350Y025551D01*
X009350Y025649D02*
X009250Y025649D01*
X009350Y025748D02*
X013980Y025748D01*
X013809Y026240D02*
X009708Y026240D01*
X009350Y026240D02*
X009250Y026240D01*
X009250Y026142D02*
X009350Y026142D01*
X009350Y026043D02*
X009250Y026043D01*
X009250Y025945D02*
X009350Y025945D01*
X009350Y025846D02*
X009250Y025846D01*
X008892Y026240D02*
X008555Y026240D01*
X008555Y026142D02*
X008643Y026142D01*
X008697Y026339D02*
X008555Y026339D01*
X008555Y026437D02*
X008590Y026437D01*
X009266Y027225D02*
X019856Y027225D01*
X019856Y027324D02*
X009468Y027324D01*
X009567Y027422D02*
X019856Y027422D01*
X019856Y027521D02*
X009650Y027521D01*
X009691Y027619D02*
X019856Y027619D01*
X019856Y027718D02*
X009732Y027718D01*
X009745Y027816D02*
X015438Y027816D01*
X015383Y027915D02*
X009745Y027915D01*
X009745Y028013D02*
X015383Y028013D01*
X015197Y028112D02*
X009710Y028112D01*
X009669Y028210D02*
X015138Y028210D01*
X015138Y028309D02*
X009612Y028309D01*
X008800Y025255D02*
X008555Y025255D01*
X008555Y025157D02*
X008743Y025157D01*
X008609Y025058D02*
X008555Y025058D01*
X008555Y024467D02*
X008560Y024467D01*
X008555Y024369D02*
X008658Y024369D01*
X008555Y024270D02*
X013885Y024270D01*
X013951Y024172D02*
X008555Y024172D01*
X015695Y027816D02*
X015779Y027816D01*
X015751Y027915D02*
X015750Y027915D01*
X015750Y028013D02*
X015751Y028013D01*
X016949Y027816D02*
X017061Y027816D01*
X017032Y027915D02*
X016978Y027915D01*
X016978Y028013D02*
X016979Y028013D01*
X017497Y028112D02*
X019856Y028112D01*
X019856Y028210D02*
X017530Y028210D01*
X017530Y028309D02*
X019856Y028309D01*
X019856Y028013D02*
X017530Y028013D01*
X017530Y027915D02*
X019856Y027915D01*
X019856Y027816D02*
X017502Y027816D01*
X019663Y026043D02*
X019856Y026043D01*
X019856Y025945D02*
X019635Y025945D01*
X019823Y025846D02*
X019856Y025846D01*
X019835Y026142D02*
X019856Y026142D01*
X019850Y025157D02*
X019856Y025157D01*
X019856Y025058D02*
X019700Y025058D01*
X021839Y025702D02*
X021839Y028314D01*
X023415Y028314D01*
X023346Y028246D01*
X023276Y028075D01*
X023276Y027182D01*
X023346Y027011D01*
X023477Y026880D01*
X023648Y026810D01*
X023832Y026810D01*
X024003Y026880D01*
X024134Y027011D01*
X024204Y027182D01*
X024204Y028075D01*
X024134Y028246D01*
X024065Y028314D01*
X024415Y028314D01*
X024346Y028246D01*
X024276Y028075D01*
X024276Y027182D01*
X024346Y027011D01*
X024477Y026880D01*
X024648Y026810D01*
X024832Y026810D01*
X025003Y026880D01*
X025134Y027011D01*
X025204Y027182D01*
X025204Y028075D01*
X025134Y028246D01*
X025065Y028314D01*
X026253Y028314D01*
X026151Y028212D01*
X026045Y027957D01*
X026045Y027680D01*
X026151Y027425D01*
X026346Y027229D01*
X026602Y027123D01*
X026878Y027123D01*
X027134Y027229D01*
X027235Y027330D01*
X027235Y017013D01*
X025756Y017013D01*
X025884Y017141D01*
X025954Y017312D01*
X025954Y018205D01*
X025884Y018376D01*
X025753Y018506D01*
X025582Y018577D01*
X025398Y018577D01*
X025227Y018506D01*
X025096Y018376D01*
X025026Y018205D01*
X025026Y017312D01*
X025096Y017141D01*
X025224Y017013D01*
X024810Y017013D01*
X024819Y017019D01*
X024875Y017075D01*
X024921Y017140D01*
X024957Y017210D01*
X024982Y017286D01*
X024994Y017364D01*
X024994Y017708D01*
X024540Y017708D01*
X024540Y017808D01*
X024994Y017808D01*
X024994Y018152D01*
X024982Y018231D01*
X024957Y018306D01*
X024921Y018377D01*
X024875Y018441D01*
X024819Y018497D01*
X024754Y018544D01*
X024684Y018580D01*
X024608Y018605D01*
X024540Y018615D01*
X024540Y017808D01*
X024440Y017808D01*
X024440Y017708D01*
X023986Y017708D01*
X023986Y017364D01*
X023998Y017286D01*
X024023Y017210D01*
X024059Y017140D01*
X024105Y017075D01*
X024161Y017019D01*
X024170Y017013D01*
X023756Y017013D01*
X023884Y017141D01*
X023954Y017312D01*
X023954Y018205D01*
X023884Y018376D01*
X023753Y018506D01*
X023582Y018577D01*
X023398Y018577D01*
X023227Y018506D01*
X023096Y018376D01*
X023026Y018205D01*
X023026Y017669D01*
X022929Y017902D01*
X022734Y018097D01*
X022478Y018203D01*
X022202Y018203D01*
X021946Y018097D01*
X021839Y017991D01*
X021839Y023558D01*
X021978Y023558D01*
X022031Y023558D01*
X022073Y023601D01*
X022116Y023558D01*
X022384Y023558D01*
X022460Y023635D01*
X022460Y024003D01*
X022460Y024057D01*
X022460Y024164D01*
X022460Y024217D01*
X022460Y024217D01*
X022384Y024293D01*
X022330Y024293D01*
X022276Y024293D01*
X022160Y024293D01*
X022160Y024295D01*
X022224Y024295D01*
X022237Y024308D01*
X022250Y024295D01*
X022357Y024295D01*
X022460Y024398D01*
X022460Y024559D01*
X022449Y024570D01*
X022460Y024582D01*
X022460Y024743D01*
X022435Y024768D01*
X022460Y024793D01*
X022460Y024847D01*
X022460Y024901D01*
X022435Y024925D01*
X022460Y024950D01*
X022460Y025111D01*
X022449Y025123D01*
X022460Y025135D01*
X022460Y025296D01*
X022433Y025322D01*
X022422Y025334D01*
X022433Y025345D01*
X022433Y025369D01*
X022470Y025443D01*
X022453Y025496D01*
X022460Y025503D01*
X022460Y025664D01*
X022449Y025675D01*
X022460Y025687D01*
X022460Y025848D01*
X022433Y025875D01*
X022398Y025911D01*
X022357Y025951D01*
X022143Y025951D01*
X022116Y025924D01*
X022040Y025848D01*
X022040Y025705D01*
X021843Y025705D01*
X021839Y025702D01*
X021839Y025748D02*
X022040Y025748D01*
X022040Y025846D02*
X021839Y025846D01*
X021839Y025945D02*
X022137Y025945D01*
X022363Y025945D02*
X027235Y025945D01*
X027235Y026043D02*
X021839Y026043D01*
X021839Y026142D02*
X027235Y026142D01*
X027235Y026240D02*
X021839Y026240D01*
X021839Y026339D02*
X027235Y026339D01*
X027235Y026437D02*
X021839Y026437D01*
X021839Y026536D02*
X027235Y026536D01*
X027235Y026634D02*
X021839Y026634D01*
X021839Y026733D02*
X027235Y026733D01*
X027235Y026831D02*
X024885Y026831D01*
X025053Y026930D02*
X027235Y026930D01*
X027235Y027028D02*
X025141Y027028D01*
X025182Y027127D02*
X026593Y027127D01*
X026355Y027225D02*
X025204Y027225D01*
X025204Y027324D02*
X026252Y027324D01*
X026153Y027422D02*
X025204Y027422D01*
X025204Y027521D02*
X026111Y027521D01*
X026070Y027619D02*
X025204Y027619D01*
X025204Y027718D02*
X026045Y027718D01*
X026045Y027816D02*
X025204Y027816D01*
X025204Y027915D02*
X026045Y027915D01*
X026069Y028013D02*
X025204Y028013D01*
X025189Y028112D02*
X026109Y028112D01*
X026150Y028210D02*
X025148Y028210D01*
X025070Y028309D02*
X026248Y028309D01*
X026887Y027127D02*
X027235Y027127D01*
X027235Y027225D02*
X027125Y027225D01*
X027228Y027324D02*
X027235Y027324D01*
X027235Y025846D02*
X022460Y025846D01*
X022460Y025748D02*
X027235Y025748D01*
X027235Y025649D02*
X022460Y025649D01*
X022460Y025551D02*
X027235Y025551D01*
X027235Y025452D02*
X022467Y025452D01*
X022433Y025354D02*
X027235Y025354D01*
X027235Y025255D02*
X022460Y025255D01*
X022460Y025157D02*
X027235Y025157D01*
X027235Y025058D02*
X022460Y025058D01*
X022460Y024960D02*
X027235Y024960D01*
X027235Y024861D02*
X022460Y024861D01*
X022460Y024901D02*
X022460Y024901D01*
X022440Y024763D02*
X027235Y024763D01*
X027235Y024664D02*
X022460Y024664D01*
X022453Y024566D02*
X027235Y024566D01*
X027235Y024467D02*
X022460Y024467D01*
X022431Y024369D02*
X027235Y024369D01*
X027235Y024270D02*
X022407Y024270D01*
X022460Y024172D02*
X027235Y024172D01*
X027235Y024073D02*
X022460Y024073D01*
X022460Y024003D02*
X022460Y024003D01*
X022460Y023975D02*
X027235Y023975D01*
X027235Y023876D02*
X022460Y023876D01*
X022460Y023778D02*
X027235Y023778D01*
X027235Y023679D02*
X022460Y023679D01*
X022406Y023581D02*
X027235Y023581D01*
X027235Y023482D02*
X021839Y023482D01*
X021839Y023384D02*
X027235Y023384D01*
X027235Y023285D02*
X021839Y023285D01*
X021839Y023187D02*
X027235Y023187D01*
X027235Y023088D02*
X021839Y023088D01*
X021839Y022990D02*
X027235Y022990D01*
X027235Y022891D02*
X026010Y022891D01*
X026015Y022889D02*
X025901Y022936D01*
X025779Y022936D01*
X025665Y022889D01*
X025594Y022818D01*
X024001Y022818D01*
X023479Y022296D01*
X023379Y022296D01*
X023265Y022249D01*
X023179Y022163D01*
X023132Y022050D01*
X023132Y021927D01*
X023179Y021814D01*
X023265Y021727D01*
X023379Y021680D01*
X023501Y021680D01*
X023615Y021727D01*
X023701Y021814D01*
X023748Y021927D01*
X023748Y022028D01*
X024159Y022438D01*
X025594Y022438D01*
X025665Y022367D01*
X025779Y022320D01*
X025901Y022320D01*
X026015Y022367D01*
X026101Y022454D01*
X026148Y022567D01*
X026148Y022690D01*
X026101Y022803D01*
X026015Y022889D01*
X026105Y022793D02*
X027235Y022793D01*
X027235Y022694D02*
X026146Y022694D01*
X026148Y022596D02*
X027235Y022596D01*
X027235Y022497D02*
X026119Y022497D01*
X026046Y022399D02*
X027235Y022399D01*
X027235Y022300D02*
X024021Y022300D01*
X023922Y022202D02*
X027235Y022202D01*
X027235Y022103D02*
X023824Y022103D01*
X023748Y022005D02*
X027235Y022005D01*
X027235Y021906D02*
X023740Y021906D01*
X023695Y021808D02*
X027235Y021808D01*
X027235Y021709D02*
X023572Y021709D01*
X023308Y021709D02*
X021839Y021709D01*
X021839Y021611D02*
X027235Y021611D01*
X027235Y021512D02*
X021839Y021512D01*
X021839Y021414D02*
X027235Y021414D01*
X027235Y021315D02*
X021839Y021315D01*
X021839Y021217D02*
X027235Y021217D01*
X027235Y021118D02*
X021839Y021118D01*
X021839Y021020D02*
X027235Y021020D01*
X027235Y020921D02*
X021839Y020921D01*
X021839Y020823D02*
X027235Y020823D01*
X027235Y020724D02*
X021839Y020724D01*
X021839Y020626D02*
X027235Y020626D01*
X027235Y020527D02*
X021839Y020527D01*
X021839Y020429D02*
X027235Y020429D01*
X027235Y020330D02*
X021839Y020330D01*
X021839Y020232D02*
X027235Y020232D01*
X027235Y020133D02*
X021839Y020133D01*
X021839Y020035D02*
X027235Y020035D01*
X027235Y019936D02*
X021839Y019936D01*
X021839Y019838D02*
X027235Y019838D01*
X027235Y019739D02*
X021839Y019739D01*
X021839Y019641D02*
X027235Y019641D01*
X027235Y019542D02*
X021839Y019542D01*
X021839Y019444D02*
X027235Y019444D01*
X027235Y019345D02*
X021839Y019345D01*
X021839Y019247D02*
X027235Y019247D01*
X027235Y019148D02*
X021839Y019148D01*
X021839Y019050D02*
X027235Y019050D01*
X027235Y018951D02*
X021839Y018951D01*
X021839Y018853D02*
X027235Y018853D01*
X027235Y018754D02*
X021839Y018754D01*
X021839Y018656D02*
X027235Y018656D01*
X027235Y018557D02*
X025630Y018557D01*
X025800Y018459D02*
X027235Y018459D01*
X027235Y018360D02*
X025890Y018360D01*
X025931Y018262D02*
X027235Y018262D01*
X027235Y018163D02*
X025954Y018163D01*
X025954Y018065D02*
X027235Y018065D01*
X027235Y017966D02*
X025954Y017966D01*
X025954Y017868D02*
X027235Y017868D01*
X027235Y017769D02*
X025954Y017769D01*
X025954Y017671D02*
X027235Y017671D01*
X027235Y017572D02*
X025954Y017572D01*
X025954Y017474D02*
X027235Y017474D01*
X027235Y017375D02*
X025954Y017375D01*
X025940Y017277D02*
X027235Y017277D01*
X027235Y017178D02*
X025899Y017178D01*
X025823Y017080D02*
X027235Y017080D01*
X025157Y017080D02*
X024878Y017080D01*
X024941Y017178D02*
X025081Y017178D01*
X025040Y017277D02*
X024979Y017277D01*
X024994Y017375D02*
X025026Y017375D01*
X025026Y017474D02*
X024994Y017474D01*
X024994Y017572D02*
X025026Y017572D01*
X025026Y017671D02*
X024994Y017671D01*
X025026Y017769D02*
X024540Y017769D01*
X024540Y017868D02*
X024440Y017868D01*
X024440Y017808D02*
X024440Y018615D01*
X024372Y018605D01*
X024296Y018580D01*
X024226Y018544D01*
X024161Y018497D01*
X024105Y018441D01*
X024059Y018377D01*
X024023Y018306D01*
X023998Y018231D01*
X023986Y018152D01*
X023986Y017808D01*
X024440Y017808D01*
X024440Y017769D02*
X023954Y017769D01*
X023954Y017671D02*
X023986Y017671D01*
X023986Y017572D02*
X023954Y017572D01*
X023954Y017474D02*
X023986Y017474D01*
X023986Y017375D02*
X023954Y017375D01*
X023940Y017277D02*
X024001Y017277D01*
X024039Y017178D02*
X023899Y017178D01*
X023823Y017080D02*
X024102Y017080D01*
X023986Y017868D02*
X023954Y017868D01*
X023954Y017966D02*
X023986Y017966D01*
X023986Y018065D02*
X023954Y018065D01*
X023954Y018163D02*
X023987Y018163D01*
X024008Y018262D02*
X023931Y018262D01*
X023890Y018360D02*
X024050Y018360D01*
X024123Y018459D02*
X023800Y018459D01*
X023630Y018557D02*
X024252Y018557D01*
X024440Y018557D02*
X024540Y018557D01*
X024540Y018459D02*
X024440Y018459D01*
X024440Y018360D02*
X024540Y018360D01*
X024540Y018262D02*
X024440Y018262D01*
X024440Y018163D02*
X024540Y018163D01*
X024540Y018065D02*
X024440Y018065D01*
X024440Y017966D02*
X024540Y017966D01*
X024994Y017966D02*
X025026Y017966D01*
X025026Y017868D02*
X024994Y017868D01*
X024994Y018065D02*
X025026Y018065D01*
X025026Y018163D02*
X024993Y018163D01*
X024972Y018262D02*
X025049Y018262D01*
X025090Y018360D02*
X024930Y018360D01*
X024857Y018459D02*
X025180Y018459D01*
X025350Y018557D02*
X024728Y018557D01*
X023350Y018557D02*
X021839Y018557D01*
X021839Y018459D02*
X023180Y018459D01*
X023090Y018360D02*
X021839Y018360D01*
X021839Y018262D02*
X023049Y018262D01*
X023026Y018163D02*
X022575Y018163D01*
X022766Y018065D02*
X023026Y018065D01*
X023026Y017966D02*
X022865Y017966D01*
X022943Y017868D02*
X023026Y017868D01*
X023026Y017769D02*
X022984Y017769D01*
X023025Y017671D02*
X023026Y017671D01*
X022105Y018163D02*
X021839Y018163D01*
X021839Y018065D02*
X021914Y018065D01*
X019896Y019148D02*
X019764Y019148D01*
X021839Y021808D02*
X023185Y021808D01*
X023140Y021906D02*
X021839Y021906D01*
X021839Y022005D02*
X023132Y022005D01*
X023154Y022103D02*
X021839Y022103D01*
X021839Y022202D02*
X023218Y022202D01*
X023483Y022300D02*
X021839Y022300D01*
X021839Y022399D02*
X023582Y022399D01*
X023680Y022497D02*
X021839Y022497D01*
X021839Y022596D02*
X023779Y022596D01*
X023877Y022694D02*
X021839Y022694D01*
X021839Y022793D02*
X023976Y022793D01*
X024119Y022399D02*
X025634Y022399D01*
X025670Y022891D02*
X021839Y022891D01*
X022053Y023581D02*
X022094Y023581D01*
X022276Y024293D02*
X022276Y024293D01*
X021839Y026831D02*
X023595Y026831D01*
X023427Y026930D02*
X021839Y026930D01*
X021839Y027028D02*
X023339Y027028D01*
X023298Y027127D02*
X021839Y027127D01*
X021839Y027225D02*
X023276Y027225D01*
X023276Y027324D02*
X021839Y027324D01*
X021839Y027422D02*
X023276Y027422D01*
X023276Y027521D02*
X021839Y027521D01*
X021839Y027619D02*
X023276Y027619D01*
X023276Y027718D02*
X021839Y027718D01*
X021839Y027816D02*
X023276Y027816D01*
X023276Y027915D02*
X021839Y027915D01*
X021839Y028013D02*
X023276Y028013D01*
X023291Y028112D02*
X021839Y028112D01*
X021839Y028210D02*
X023332Y028210D01*
X023410Y028309D02*
X021839Y028309D01*
X024070Y028309D02*
X024410Y028309D01*
X024332Y028210D02*
X024148Y028210D01*
X024189Y028112D02*
X024291Y028112D01*
X024276Y028013D02*
X024204Y028013D01*
X024204Y027915D02*
X024276Y027915D01*
X024276Y027816D02*
X024204Y027816D01*
X024204Y027718D02*
X024276Y027718D01*
X024276Y027619D02*
X024204Y027619D01*
X024204Y027521D02*
X024276Y027521D01*
X024276Y027422D02*
X024204Y027422D01*
X024204Y027324D02*
X024276Y027324D01*
X024276Y027225D02*
X024204Y027225D01*
X024182Y027127D02*
X024298Y027127D01*
X024339Y027028D02*
X024141Y027028D01*
X024053Y026930D02*
X024427Y026930D01*
X024595Y026831D02*
X023885Y026831D01*
X015138Y014913D02*
X009568Y014913D01*
X009651Y014814D02*
X015138Y014814D01*
X015153Y014716D02*
X009691Y014716D01*
X009732Y014617D02*
X015383Y014617D01*
X015383Y014519D02*
X009745Y014519D01*
X009745Y014420D02*
X015394Y014420D01*
X015739Y014420D02*
X015751Y014420D01*
X015750Y014519D02*
X015751Y014519D01*
X015750Y014617D02*
X015751Y014617D01*
X016978Y014617D02*
X016979Y014617D01*
X016978Y014519D02*
X017025Y014519D01*
X017032Y014420D02*
X016978Y014420D01*
X018392Y013238D02*
X013909Y013238D01*
X013838Y013337D02*
X018448Y013337D01*
X018546Y013435D02*
X013827Y013435D01*
X013780Y013534D02*
X019856Y013534D01*
X019856Y013632D02*
X013649Y013632D01*
X014007Y013140D02*
X018351Y013140D01*
X018351Y013041D02*
X014106Y013041D01*
X014204Y012943D02*
X018357Y012943D01*
X018398Y012844D02*
X014303Y012844D01*
X014360Y012746D02*
X018461Y012746D01*
X018570Y012647D02*
X014360Y012647D01*
X014360Y012549D02*
X019856Y012549D01*
X019856Y012647D02*
X019770Y012647D01*
X019767Y012450D02*
X019856Y012450D01*
X019856Y011662D02*
X019795Y011662D01*
X019856Y011564D02*
X014360Y011564D01*
X014360Y011662D02*
X018545Y011662D01*
X018446Y011761D02*
X014360Y011761D01*
X014360Y011859D02*
X018391Y011859D01*
X018351Y011958D02*
X014360Y011958D01*
X014360Y012056D02*
X018351Y012056D01*
X018357Y012155D02*
X014360Y012155D01*
X014360Y012253D02*
X018398Y012253D01*
X018463Y012352D02*
X014360Y012352D01*
X014360Y012450D02*
X018573Y012450D01*
X019794Y013435D02*
X019856Y013435D01*
X019856Y011465D02*
X014360Y011465D01*
X014360Y011367D02*
X019856Y011367D01*
X019856Y011268D02*
X014360Y011268D01*
X014384Y011170D02*
X019856Y011170D01*
X019856Y011071D02*
X014453Y011071D01*
X014478Y010973D02*
X019856Y010973D01*
X019856Y010874D02*
X014473Y010874D01*
X014432Y010776D02*
X019856Y010776D01*
X019856Y010677D02*
X019658Y010677D01*
X019812Y010579D02*
X019856Y010579D01*
X019062Y010677D02*
X014321Y010677D01*
X014019Y010677D02*
X008555Y010677D01*
X008555Y010579D02*
X018908Y010579D01*
X018809Y010480D02*
X008555Y010480D01*
X008555Y010382D02*
X018746Y010382D01*
X018705Y010283D02*
X008555Y010283D01*
X008555Y010185D02*
X018665Y010185D01*
X018665Y010086D02*
X008555Y010086D01*
X008555Y009988D02*
X018665Y009988D01*
X018674Y009889D02*
X008555Y009889D01*
X008555Y009791D02*
X018714Y009791D01*
X018755Y009692D02*
X008555Y009692D01*
X008555Y009594D02*
X018832Y009594D01*
X008849Y011761D02*
X008555Y011761D01*
X008555Y011859D02*
X008696Y011859D01*
X008573Y011958D02*
X008555Y011958D01*
X008555Y011662D02*
X008653Y011662D01*
X008581Y012647D02*
X008555Y012647D01*
X008555Y012746D02*
X008713Y012746D01*
X008828Y012844D02*
X008555Y012844D01*
X008555Y012943D02*
X008644Y012943D01*
D13*
X009870Y010448D03*
X013530Y013348D03*
X015230Y013018D03*
X017190Y013808D03*
X017490Y011468D03*
X014170Y010948D03*
X009910Y017128D03*
X013570Y020028D03*
X015270Y019698D03*
X017230Y020488D03*
X017530Y018148D03*
X014210Y017628D03*
X009870Y023888D03*
X013530Y026788D03*
X015230Y026458D03*
X017190Y027248D03*
X017490Y024908D03*
X014170Y024388D03*
X022980Y025648D03*
X023770Y023688D03*
X023440Y021988D03*
X025840Y022628D03*
X025320Y025948D03*
X026340Y018328D03*
D14*
X023440Y021988D02*
X024080Y022628D01*
X025840Y022628D01*
X014170Y024388D02*
X014170Y026148D01*
X013530Y026788D01*
X013570Y020028D02*
X014210Y019388D01*
X014210Y017628D01*
X013530Y013348D02*
X014170Y012708D01*
X014170Y010948D01*
M02*
