  0
SECTION
  2
HEADER
  9
$ACADVER
  1
AC1009
  9
$FILLMODE
 70
1
  9
$EXTMIN
 10
-0.065000
 20
-0.420829
 30
0.000000
  9
$EXTMAX
 10
1.289435
 20
0.655000
 30
0.000000
  0
ENDSEC
  0
SECTION
  2
TABLES
  0
TABLE
  2
LTYPE
 70
1
  0
LTYPE
  2
CONTINUOUS
 70
64
  3
Solid line
 72
65
 73
0
 40
0
  0
ENDTAB
  0
TABLE
  2
LAYER
 70
255
  0
LAYER
  2
20
 70
64
 62
178
  6
CONTINUOUS
  0
LAYER
  2
100
 70
64
 62
251
  6
CONTINUOUS
  0
ENDTAB
  0
ENDSEC
  0
SECTION
  2
BLOCKS
  0
BLOCK
  8
0
  2
RECT
 70
64
 10
0.000000
 20
0.000000
 30
0.000000
  3
RECT
  0
SOLID
  8
0
 10
-0.500000
 20
-0.500000
 30
0.000000
 11
0.500000
 21
-0.500000
 31
0.000000
 12
-0.500000
 22
0.500000
 32
0.000000
 13
0.500000
 23
0.500000
 33
0.000000
  0
ENDBLK
  8
0
  0
BLOCK
  8
0
  2
PIE
 70
64
 10
0.000000
 20
0.000000
 30
0.000000
  3
PIE
  0
POLYLINE
  8
0
 66
1
 10
0.000000
 20
0.000000
 30
0.000000
 40
0.500000
 41
0.500000
 70
0
  0
VERTEX
  8
0
 10
0.000000
 20
-0.250000
 30
0.000000
 42
1.000000
  0
VERTEX
  8
0
 10
0.000000
 20
0.250000
 30
0.000000
 42
1.000000
  0
VERTEX
  8
0
 10
0.000000
 20
-0.250000
 30
0.000000
  0
SEQEND
  8
0
  0
ENDBLK
  8
0
  0
BLOCK
  8
0
  2
OCTAGONP
 70
64
 10
0.000000
 20
0.000000
 30
0.000000
  3
OCTAGONP
  0
POLYLINE
  8
0
 66
1
 10
0.000000
 20
0.000000
 30
0.000000
 40
0.500000
 41
0.500000
 70
0
  0
VERTEX
  8
0
 10
-0.250000
 20
-0.103553
 30
0.000000
  0
VERTEX
  8
0
 10
-0.250000
 20
0.103553
 30
0.000000
  0
VERTEX
  8
0
 10
-0.103553
 20
0.250000
 30
0.000000
  0
VERTEX
  8
0
 10
0.103553
 20
0.250000
 30
0.000000
  0
VERTEX
  8
0
 10
0.250000
 20
0.103553
 30
0.000000
  0
VERTEX
  8
0
 10
0.250000
 20
-0.103553
 30
0.000000
  0
VERTEX
  8
0
 10
0.103553
 20
-0.250000
 30
0.000000
  0
VERTEX
  8
0
 10
-0.103553
 20
-0.250000
 30
0.000000
  0
VERTEX
  8
0
 10
-0.250000
 20
-0.103553
 30
0.000000
  0
VERTEX
  8
0
 10
-0.250000
 20
0.103553
 30
0.000000
  0
SEQEND
  8
0
  0
ENDBLK
  8
0
  0
BLOCK
  8
0
  2
SQUAREP
 70
64
 10
0.000000
 20
0.000000
 30
0.000000
  3
SQUAREP
  0
SOLID
  8
0
 10
-0.500000
 20
-0.500000
 30
0.000000
 11
0.500000
 21
-0.500000
 31
0.000000
 12
-0.500000
 22
0.500000
 32
0.000000
 13
0.500000
 23
0.500000
 33
0.000000
  0
ENDBLK
  8
0
  0
BLOCK
  8
0
  2
ROUNDP
 70
64
 10
0.000000
 20
0.000000
 30
0.000000
  3
ROUNDP
  0
POLYLINE
  8
0
 66
1
 10
0.000000
 20
0.000000
 30
0.000000
 40
0.500000
 41
0.500000
 70
0
  0
VERTEX
  8
0
 10
0.000000
 20
-0.250000
 30
0.000000
 42
1.000000
  0
VERTEX
  8
0
 10
0.000000
 20
0.250000
 30
0.000000
 42
1.000000
  0
VERTEX
  8
0
 10
0.000000
 20
-0.250000
 30
0.000000
  0
SEQEND
  8
0
  0
ENDBLK
  8
0
  0
BLOCK
  8
0
  2
ANNULUSP
 70
64
 10
0.000000
 20
0.000000
 30
0.000000
  3
ANNULUSP
  0
POLYLINE
  8
0
 66
1
 10
0.000000
 20
0.000000
 30
0.000000
 40
0.500000
 41
0.500000
 70
0
  0
VERTEX
  8
0
 10
0.000000
 20
-0.250000
 30
0.000000
 42
1.000000
  0
VERTEX
  8
0
 10
0.000000
 20
0.250000
 30
0.000000
 42
1.000000
  0
VERTEX
  8
0
 10
0.000000
 20
-0.250000
 30
0.000000
  0
SEQEND
  8
0
  0
ENDBLK
  8
0
  0
BLOCK
  8
0
  2
THERMALP
 70
64
 10
0.000000
 20
0.000000
 30
0.000000
  3
THERMALP
  0
POLYLINE
  8
0
 66
1
 10
0.000000
 20
0.000000
 30
0.000000
 40
0.100000
 41
0.100000
 70
0
  0
VERTEX
  8
0
 10
-0.237868
 20
0.450000
 30
0.000000
  0
VERTEX
  8
0
 10
0.237868
 20
0.450000
 30
0.000000
  0
SEQEND
  8
0
  0
POLYLINE
  8
0
 66
1
 10
0.000000
 20
0.000000
 30
0.000000
 40
0.050000
 41
0.050000
 70
0
  0
VERTEX
  8
0
 10
0.237868
 20
0.425000
 30
0.000000
 42
1.000000
  0
VERTEX
  8
0
 10
0.237868
 20
0.475000
 30
0.000000
  0
SEQEND
  8
0
  0
POLYLINE
  8
0
 66
1
 10
0.000000
 20
0.000000
 30
0.000000
 40
0.050000
 41
0.050000
 70
0
  0
VERTEX
  8
0
 10
-0.237868
 20
0.475000
 30
0.000000
 42
1.000000
  0
VERTEX
  8
0
 10
-0.237868
 20
0.425000
 30
0.000000
  0
SEQEND
  8
0
  0
POLYLINE
  8
0
 66
1
 10
0.000000
 20
0.000000
 30
0.000000
 40
0.100000
 41
0.100000
 70
0
  0
VERTEX
  8
0
 10
0.450000
 20
0.237868
 30
0.000000
  0
VERTEX
  8
0
 10
0.450000
 20
-0.237868
 30
0.000000
  0
SEQEND
  8
0
  0
POLYLINE
  8
0
 66
1
 10
0.000000
 20
0.000000
 30
0.000000
 40
0.050000
 41
0.050000
 70
0
  0
VERTEX
  8
0
 10
0.425000
 20
-0.237868
 30
0.000000
 42
1.000000
  0
VERTEX
  8
0
 10
0.475000
 20
-0.237868
 30
0.000000
  0
SEQEND
  8
0
  0
POLYLINE
  8
0
 66
1
 10
0.000000
 20
0.000000
 30
0.000000
 40
0.050000
 41
0.050000
 70
0
  0
VERTEX
  8
0
 10
0.475000
 20
0.237868
 30
0.000000
 42
1.000000
  0
VERTEX
  8
0
 10
0.425000
 20
0.237868
 30
0.000000
  0
SEQEND
  8
0
  0
POLYLINE
  8
0
 66
1
 10
0.000000
 20
0.000000
 30
0.000000
 40
0.100000
 41
0.100000
 70
0
  0
VERTEX
  8
0
 10
0.237868
 20
-0.450000
 30
0.000000
  0
VERTEX
  8
0
 10
-0.237868
 20
-0.450000
 30
0.000000
  0
SEQEND
  8
0
  0
POLYLINE
  8
0
 66
1
 10
0.000000
 20
0.000000
 30
0.000000
 40
0.050000
 41
0.050000
 70
0
  0
VERTEX
  8
0
 10
-0.237868
 20
-0.425000
 30
0.000000
 42
1.000000
  0
VERTEX
  8
0
 10
-0.237868
 20
-0.475000
 30
0.000000
  0
SEQEND
  8
0
  0
POLYLINE
  8
0
 66
1
 10
0.000000
 20
0.000000
 30
0.000000
 40
0.050000
 41
0.050000
 70
0
  0
VERTEX
  8
0
 10
0.237868
 20
-0.475000
 30
0.000000
 42
1.000000
  0
VERTEX
  8
0
 10
0.237868
 20
-0.425000
 30
0.000000
  0
SEQEND
  8
0
  0
POLYLINE
  8
0
 66
1
 10
0.000000
 20
0.000000
 30
0.000000
 40
0.100000
 41
0.100000
 70
0
  0
VERTEX
  8
0
 10
-0.450000
 20
-0.237868
 30
0.000000
  0
VERTEX
  8
0
 10
-0.450000
 20
0.237868
 30
0.000000
  0
SEQEND
  8
0
  0
POLYLINE
  8
0
 66
1
 10
0.000000
 20
0.000000
 30
0.000000
 40
0.050000
 41
0.050000
 70
0
  0
VERTEX
  8
0
 10
-0.425000
 20
0.237868
 30
0.000000
 42
1.000000
  0
VERTEX
  8
0
 10
-0.475000
 20
0.237868
 30
0.000000
  0
SEQEND
  8
0
  0
POLYLINE
  8
0
 66
1
 10
0.000000
 20
0.000000
 30
0.000000
 40
0.050000
 41
0.050000
 70
0
  0
VERTEX
  8
0
 10
-0.475000
 20
-0.237868
 30
0.000000
 42
1.000000
  0
VERTEX
  8
0
 10
-0.425000
 20
-0.237868
 30
0.000000
  0
SEQEND
  8
0
  0
ENDBLK
  8
0
  0
BLOCK
  8
0
  2
OCTAGONV
 70
64
 10
0.000000
 20
0.000000
 30
0.000000
  3
OCTAGONV
  0
POLYLINE
  8
0
 66
1
 10
0.000000
 20
0.000000
 30
0.000000
 40
0.500000
 41
0.500000
 70
0
  0
VERTEX
  8
0
 10
-0.250000
 20
-0.103553
 30
0.000000
  0
VERTEX
  8
0
 10
-0.250000
 20
0.103553
 30
0.000000
  0
VERTEX
  8
0
 10
-0.103553
 20
0.250000
 30
0.000000
  0
VERTEX
  8
0
 10
0.103553
 20
0.250000
 30
0.000000
  0
VERTEX
  8
0
 10
0.250000
 20
0.103553
 30
0.000000
  0
VERTEX
  8
0
 10
0.250000
 20
-0.103553
 30
0.000000
  0
VERTEX
  8
0
 10
0.103553
 20
-0.250000
 30
0.000000
  0
VERTEX
  8
0
 10
-0.103553
 20
-0.250000
 30
0.000000
  0
VERTEX
  8
0
 10
-0.250000
 20
-0.103553
 30
0.000000
  0
VERTEX
  8
0
 10
-0.250000
 20
0.103553
 30
0.000000
  0
SEQEND
  8
0
  0
ENDBLK
  8
0
  0
BLOCK
  8
0
  2
SQUAREV
 70
64
 10
0.000000
 20
0.000000
 30
0.000000
  3
SQUAREV
  0
SOLID
  8
0
 10
-0.500000
 20
-0.500000
 30
0.000000
 11
0.500000
 21
-0.500000
 31
0.000000
 12
-0.500000
 22
0.500000
 32
0.000000
 13
0.500000
 23
0.500000
 33
0.000000
  0
ENDBLK
  8
0
  0
BLOCK
  8
0
  2
ROUNDV
 70
64
 10
0.000000
 20
0.000000
 30
0.000000
  3
ROUNDV
  0
POLYLINE
  8
0
 66
1
 10
0.000000
 20
0.000000
 30
0.000000
 40
0.500000
 41
0.500000
 70
0
  0
VERTEX
  8
0
 10
0.000000
 20
-0.250000
 30
0.000000
 42
1.000000
  0
VERTEX
  8
0
 10
0.000000
 20
0.250000
 30
0.000000
 42
1.000000
  0
VERTEX
  8
0
 10
0.000000
 20
-0.250000
 30
0.000000
  0
SEQEND
  8
0
  0
ENDBLK
  8
0
  0
BLOCK
  8
0
  2
ANNULUSV
 70
64
 10
0.000000
 20
0.000000
 30
0.000000
  3
ANNULUSV
  0
POLYLINE
  8
0
 66
1
 10
0.000000
 20
0.000000
 30
0.000000
 40
0.500000
 41
0.500000
 70
0
  0
VERTEX
  8
0
 10
0.000000
 20
-0.250000
 30
0.000000
 42
1.000000
  0
VERTEX
  8
0
 10
0.000000
 20
0.250000
 30
0.000000
 42
1.000000
  0
VERTEX
  8
0
 10
0.000000
 20
-0.250000
 30
0.000000
  0
SEQEND
  8
0
  0
ENDBLK
  8
0
  0
BLOCK
  8
0
  2
THERMALV
 70
64
 10
0.000000
 20
0.000000
 30
0.000000
  3
THERMALV
  0
POLYLINE
  8
0
 66
1
 10
0.000000
 20
0.000000
 30
0.000000
 40
0.100000
 41
0.100000
 70
0
  0
VERTEX
  8
0
 10
-0.237868
 20
0.450000
 30
0.000000
  0
VERTEX
  8
0
 10
0.237868
 20
0.450000
 30
0.000000
  0
SEQEND
  8
0
  0
POLYLINE
  8
0
 66
1
 10
0.000000
 20
0.000000
 30
0.000000
 40
0.050000
 41
0.050000
 70
0
  0
VERTEX
  8
0
 10
0.237868
 20
0.425000
 30
0.000000
 42
1.000000
  0
VERTEX
  8
0
 10
0.237868
 20
0.475000
 30
0.000000
  0
SEQEND
  8
0
  0
POLYLINE
  8
0
 66
1
 10
0.000000
 20
0.000000
 30
0.000000
 40
0.050000
 41
0.050000
 70
0
  0
VERTEX
  8
0
 10
-0.237868
 20
0.475000
 30
0.000000
 42
1.000000
  0
VERTEX
  8
0
 10
-0.237868
 20
0.425000
 30
0.000000
  0
SEQEND
  8
0
  0
POLYLINE
  8
0
 66
1
 10
0.000000
 20
0.000000
 30
0.000000
 40
0.100000
 41
0.100000
 70
0
  0
VERTEX
  8
0
 10
0.450000
 20
0.237868
 30
0.000000
  0
VERTEX
  8
0
 10
0.450000
 20
-0.237868
 30
0.000000
  0
SEQEND
  8
0
  0
POLYLINE
  8
0
 66
1
 10
0.000000
 20
0.000000
 30
0.000000
 40
0.050000
 41
0.050000
 70
0
  0
VERTEX
  8
0
 10
0.425000
 20
-0.237868
 30
0.000000
 42
1.000000
  0
VERTEX
  8
0
 10
0.475000
 20
-0.237868
 30
0.000000
  0
SEQEND
  8
0
  0
POLYLINE
  8
0
 66
1
 10
0.000000
 20
0.000000
 30
0.000000
 40
0.050000
 41
0.050000
 70
0
  0
VERTEX
  8
0
 10
0.475000
 20
0.237868
 30
0.000000
 42
1.000000
  0
VERTEX
  8
0
 10
0.425000
 20
0.237868
 30
0.000000
  0
SEQEND
  8
0
  0
POLYLINE
  8
0
 66
1
 10
0.000000
 20
0.000000
 30
0.000000
 40
0.100000
 41
0.100000
 70
0
  0
VERTEX
  8
0
 10
0.237868
 20
-0.450000
 30
0.000000
  0
VERTEX
  8
0
 10
-0.237868
 20
-0.450000
 30
0.000000
  0
SEQEND
  8
0
  0
POLYLINE
  8
0
 66
1
 10
0.000000
 20
0.000000
 30
0.000000
 40
0.050000
 41
0.050000
 70
0
  0
VERTEX
  8
0
 10
-0.237868
 20
-0.425000
 30
0.000000
 42
1.000000
  0
VERTEX
  8
0
 10
-0.237868
 20
-0.475000
 30
0.000000
  0
SEQEND
  8
0
  0
POLYLINE
  8
0
 66
1
 10
0.000000
 20
0.000000
 30
0.000000
 40
0.050000
 41
0.050000
 70
0
  0
VERTEX
  8
0
 10
0.237868
 20
-0.475000
 30
0.000000
 42
1.000000
  0
VERTEX
  8
0
 10
0.237868
 20
-0.425000
 30
0.000000
  0
SEQEND
  8
0
  0
POLYLINE
  8
0
 66
1
 10
0.000000
 20
0.000000
 30
0.000000
 40
0.100000
 41
0.100000
 70
0
  0
VERTEX
  8
0
 10
-0.450000
 20
-0.237868
 30
0.000000
  0
VERTEX
  8
0
 10
-0.450000
 20
0.237868
 30
0.000000
  0
SEQEND
  8
0
  0
POLYLINE
  8
0
 66
1
 10
0.000000
 20
0.000000
 30
0.000000
 40
0.050000
 41
0.050000
 70
0
  0
VERTEX
  8
0
 10
-0.425000
 20
0.237868
 30
0.000000
 42
1.000000
  0
VERTEX
  8
0
 10
-0.475000
 20
0.237868
 30
0.000000
  0
SEQEND
  8
0
  0
POLYLINE
  8
0
 66
1
 10
0.000000
 20
0.000000
 30
0.000000
 40
0.050000
 41
0.050000
 70
0
  0
VERTEX
  8
0
 10
-0.475000
 20
-0.237868
 30
0.000000
 42
1.000000
  0
VERTEX
  8
0
 10
-0.425000
 20
-0.237868
 30
0.000000
  0
SEQEND
  8
0
  0
ENDBLK
  8
0
  0
BLOCK
  8
0
  2
LONGP100
 70
64
 10
0.000000
 20
0.000000
 30
0.000000
  3
LONGP100
  0
POLYLINE
  8
0
 66
1
 10
0.000000
 20
0.000000
 30
0.000000
 40
1.000000
 41
1.000000
 70
0
  0
VERTEX
  8
0
 10
-0.500000
 20
0.000000
 30
0.000000
  0
VERTEX
  8
0
 10
0.500000
 20
0.000000
 30
0.000000
  0
SEQEND
  8
0
  0
POLYLINE
  8
0
 66
1
 10
0.000000
 20
0.000000
 30
0.000000
 40
0.500000
 41
0.500000
 70
0
  0
VERTEX
  8
0
 10
0.500000
 20
-0.250000
 30
0.000000
 42
1.000000
  0
VERTEX
  8
0
 10
0.500000
 20
0.250000
 30
0.000000
  0
SEQEND
  8
0
  0
POLYLINE
  8
0
 66
1
 10
0.000000
 20
0.000000
 30
0.000000
 40
0.500000
 41
0.500000
 70
0
  0
VERTEX
  8
0
 10
-0.500000
 20
0.250000
 30
0.000000
 42
1.000000
  0
VERTEX
  8
0
 10
-0.500000
 20
-0.250000
 30
0.000000
  0
SEQEND
  8
0
  0
ENDBLK
  8
0
  0
ENDSEC
  0
SECTION
  2
ENTITIES
  0
POLYLINE
  8
20
 66
1
 10
0.000000
 20
0.000000
 30
0.000000
 40
0.001000
 41
0.001000
 70
0
  0
VERTEX
  8
20
 10
0.000000
 20
0.000000
 30
0.000000
  0
VERTEX
  8
20
 10
1.181102
 20
0.000000
 30
0.000000
  0
SEQEND
  8
0
  0
POLYLINE
  8
20
 66
1
 10
0.000000
 20
0.000000
 30
0.000000
 40
0.000500
 41
0.000500
 70
0
  0
VERTEX
  8
20
 10
1.181102
 20
-0.000250
 30
0.000000
 42
1.000000
  0
VERTEX
  8
20
 10
1.181102
 20
0.000250
 30
0.000000
  0
SEQEND
  8
0
  0
POLYLINE
  8
20
 66
1
 10
0.000000
 20
0.000000
 30
0.000000
 40
0.000500
 41
0.000500
 70
0
  0
VERTEX
  8
20
 10
0.000000
 20
0.000250
 30
0.000000
 42
1.000000
  0
VERTEX
  8
20
 10
0.000000
 20
-0.000250
 30
0.000000
  0
SEQEND
  8
0
  0
POLYLINE
  8
20
 66
1
 10
0.000000
 20
0.000000
 30
0.000000
 40
0.001000
 41
0.001000
 70
0
  0
VERTEX
  8
20
 10
1.181102
 20
0.000000
 30
0.000000
  0
VERTEX
  8
20
 10
1.181102
 20
0.590551
 30
0.000000
  0
SEQEND
  8
0
  0
POLYLINE
  8
20
 66
1
 10
0.000000
 20
0.000000
 30
0.000000
 40
0.000500
 41
0.000500
 70
0
  0
VERTEX
  8
20
 10
1.181352
 20
0.590551
 30
0.000000
 42
1.000000
  0
VERTEX
  8
20
 10
1.180852
 20
0.590551
 30
0.000000
  0
SEQEND
  8
0
  0
POLYLINE
  8
20
 66
1
 10
0.000000
 20
0.000000
 30
0.000000
 40
0.000500
 41
0.000500
 70
0
  0
VERTEX
  8
20
 10
1.180852
 20
0.000000
 30
0.000000
 42
1.000000
  0
VERTEX
  8
20
 10
1.181352
 20
0.000000
 30
0.000000
  0
SEQEND
  8
0
  0
POLYLINE
  8
20
 66
1
 10
0.000000
 20
0.000000
 30
0.000000
 40
0.001000
 41
0.001000
 70
0
  0
VERTEX
  8
20
 10
1.181102
 20
0.590551
 30
0.000000
  0
VERTEX
  8
20
 10
0.000000
 20
0.590551
 30
0.000000
  0
SEQEND
  8
0
  0
POLYLINE
  8
20
 66
1
 10
0.000000
 20
0.000000
 30
0.000000
 40
0.000500
 41
0.000500
 70
0
  0
VERTEX
  8
20
 10
0.000000
 20
0.590801
 30
0.000000
 42
1.000000
  0
VERTEX
  8
20
 10
0.000000
 20
0.590301
 30
0.000000
  0
SEQEND
  8
0
  0
POLYLINE
  8
20
 66
1
 10
0.000000
 20
0.000000
 30
0.000000
 40
0.000500
 41
0.000500
 70
0
  0
VERTEX
  8
20
 10
1.181102
 20
0.590301
 30
0.000000
 42
1.000000
  0
VERTEX
  8
20
 10
1.181102
 20
0.590801
 30
0.000000
  0
SEQEND
  8
0
  0
POLYLINE
  8
20
 66
1
 10
0.000000
 20
0.000000
 30
0.000000
 40
0.001000
 41
0.001000
 70
0
  0
VERTEX
  8
20
 10
0.000000
 20
0.590551
 30
0.000000
  0
VERTEX
  8
20
 10
0.000000
 20
0.000000
 30
0.000000
  0
SEQEND
  8
0
  0
POLYLINE
  8
20
 66
1
 10
0.000000
 20
0.000000
 30
0.000000
 40
0.000500
 41
0.000500
 70
0
  0
VERTEX
  8
20
 10
-0.000250
 20
0.000000
 30
0.000000
 42
1.000000
  0
VERTEX
  8
20
 10
0.000250
 20
0.000000
 30
0.000000
  0
SEQEND
  8
0
  0
POLYLINE
  8
20
 66
1
 10
0.000000
 20
0.000000
 30
0.000000
 40
0.000500
 41
0.000500
 70
0
  0
VERTEX
  8
20
 10
0.000250
 20
0.590551
 30
0.000000
 42
1.000000
  0
VERTEX
  8
20
 10
-0.000250
 20
0.590551
 30
0.000000
  0
SEQEND
  8
0
  0
CIRCLE
  8
20
 10
0.075000
 20
0.515000
 30
0.000000
 40
0.044500
  0
CIRCLE
  8
20
 10
1.106000
 20
0.075000
 30
0.000000
 40
0.044500
  0
POLYLINE
  8
100
 66
1
 10
0.000000
 20
0.000000
 30
0.000000
 40
0.005000
 41
0.005000
 70
0
  0
VERTEX
  8
100
 10
0.321000
 20
0.223500
 30
0.000000
 42
1.000000
  0
VERTEX
  8
100
 10
0.321000
 20
0.248500
 30
0.000000
 42
1.000000
  0
VERTEX
  8
100
 10
0.321000
 20
0.223500
 30
0.000000
  0
SEQEND
  8
0
  0
POLYLINE
  8
100
 66
1
 10
0.000000
 20
0.000000
 30
0.000000
 40
0.005000
 41
0.005000
 70
0
  0
VERTEX
  8
100
 10
0.198000
 20
0.491500
 30
0.000000
 42
1.000000
  0
VERTEX
  8
100
 10
0.198000
 20
0.516500
 30
0.000000
 42
1.000000
  0
VERTEX
  8
100
 10
0.198000
 20
0.491500
 30
0.000000
  0
SEQEND
  8
0
  0
POLYLINE
  8
100
 66
1
 10
0.000000
 20
0.000000
 30
0.000000
 40
0.005000
 41
0.005000
 70
0
  0
VERTEX
  8
100
 10
0.409000
 20
0.278500
 30
0.000000
 42
1.000000
  0
VERTEX
  8
100
 10
0.409000
 20
0.303500
 30
0.000000
 42
1.000000
  0
VERTEX
  8
100
 10
0.409000
 20
0.278500
 30
0.000000
  0
SEQEND
  8
0
  0
POLYLINE
  8
100
 66
1
 10
0.000000
 20
0.000000
 30
0.000000
 40
0.005000
 41
0.005000
 70
0
  0
VERTEX
  8
100
 10
0.804000
 20
0.250500
 30
0.000000
 42
1.000000
  0
VERTEX
  8
100
 10
0.804000
 20
0.275500
 30
0.000000
 42
1.000000
  0
VERTEX
  8
100
 10
0.804000
 20
0.250500
 30
0.000000
  0
SEQEND
  8
0
  0
POLYLINE
  8
100
 66
1
 10
0.000000
 20
0.000000
 30
0.000000
 40
0.005000
 41
0.005000
 70
0
  0
VERTEX
  8
100
 10
0.868000
 20
0.157500
 30
0.000000
 42
1.000000
  0
VERTEX
  8
100
 10
0.868000
 20
0.182500
 30
0.000000
 42
1.000000
  0
VERTEX
  8
100
 10
0.868000
 20
0.157500
 30
0.000000
  0
SEQEND
  8
0
  0
POLYLINE
  8
100
 66
1
 10
0.000000
 20
0.000000
 30
0.000000
 40
0.005000
 41
0.005000
 70
0
  0
VERTEX
  8
100
 10
0.534000
 20
0.189500
 30
0.000000
 42
1.000000
  0
VERTEX
  8
100
 10
0.534000
 20
0.214500
 30
0.000000
 42
1.000000
  0
VERTEX
  8
100
 10
0.534000
 20
0.189500
 30
0.000000
  0
SEQEND
  8
0
  0
POLYLINE
  8
100
 66
1
 10
0.000000
 20
0.000000
 30
0.000000
 40
0.005000
 41
0.005000
 70
0
  0
VERTEX
  8
100
 10
0.379000
 20
0.481500
 30
0.000000
 42
1.000000
  0
VERTEX
  8
100
 10
0.379000
 20
0.506500
 30
0.000000
 42
1.000000
  0
VERTEX
  8
100
 10
0.379000
 20
0.481500
 30
0.000000
  0
SEQEND
  8
0
  0
POLYLINE
  8
100
 66
1
 10
0.000000
 20
0.000000
 30
0.000000
 40
0.005000
 41
0.005000
 70
0
  0
VERTEX
  8
100
 10
0.533000
 20
0.126500
 30
0.000000
 42
1.000000
  0
VERTEX
  8
100
 10
0.533000
 20
0.151500
 30
0.000000
 42
1.000000
  0
VERTEX
  8
100
 10
0.533000
 20
0.126500
 30
0.000000
  0
SEQEND
  8
0
  0
ENDSEC
  0
EOF
