G75*
G70*
%OFA0B0*%
%FSLAX24Y24*%
%IPPOS*%
%LPD*%
%AMOC8*
5,1,8,0,0,1.08239X$1,22.5*
%
%ADD10R,0.0520X0.0220*%
%ADD11C,0.0709*%
%ADD12R,0.0709X0.0630*%
%ADD13R,0.0630X0.0710*%
%ADD14R,0.0807X0.1142*%
%ADD15R,0.0591X0.0394*%
%ADD16R,0.0220X0.0500*%
%ADD17R,0.0394X0.0433*%
%ADD18R,0.0433X0.0394*%
%ADD19C,0.0250*%
%ADD20C,0.0050*%
%ADD21R,0.0394X0.0551*%
%ADD22R,0.0780X0.0220*%
%ADD23C,0.0030*%
%ADD24C,0.0100*%
%ADD25C,0.0396*%
%ADD26C,0.0160*%
%ADD27C,0.0500*%
D10*
X005200Y006318D03*
X005200Y006688D03*
X005200Y007058D03*
X006120Y007058D03*
X006120Y006318D03*
D11*
X004464Y006308D02*
X003755Y006308D01*
X003755Y007308D02*
X004464Y007308D01*
X004464Y008308D02*
X003755Y008308D01*
X013625Y008058D02*
X014334Y008058D01*
X014334Y007058D02*
X013625Y007058D01*
D12*
X006930Y006549D03*
X006930Y005447D03*
D13*
X012700Y009388D03*
X013819Y009388D03*
D14*
X012560Y005138D03*
D15*
X011762Y004764D03*
X011762Y005512D03*
D16*
X008450Y006828D03*
X008080Y006828D03*
X007710Y006828D03*
X007710Y007848D03*
X008080Y007848D03*
X008450Y007848D03*
D17*
X006914Y007778D03*
X006245Y007778D03*
X006235Y008618D03*
X006904Y008618D03*
X007600Y009064D03*
X007600Y009733D03*
X010605Y009568D03*
X011274Y009568D03*
X007840Y006033D03*
X007840Y005364D03*
X008985Y005528D03*
X009654Y005528D03*
D18*
X010370Y005443D03*
X010370Y004774D03*
X009904Y006598D03*
X009235Y006598D03*
X011980Y007144D03*
X012800Y007144D03*
X012800Y007813D03*
X011980Y007813D03*
X009954Y009558D03*
X009285Y009558D03*
X008430Y009733D03*
X008430Y009064D03*
X005570Y008663D03*
X005570Y007994D03*
X005345Y005548D03*
X006014Y005548D03*
D19*
X006320Y006668D03*
X007200Y007218D03*
X008450Y006328D03*
X008440Y005698D03*
X011150Y006938D03*
X011790Y006008D03*
X006900Y009248D03*
X005090Y009348D03*
D20*
X004965Y009348D02*
X004967Y009370D01*
X004973Y009391D01*
X004982Y009410D01*
X004994Y009428D01*
X005010Y009444D01*
X005027Y009456D01*
X005047Y009465D01*
X005068Y009471D01*
X005090Y009473D01*
X005112Y009471D01*
X005133Y009465D01*
X005152Y009456D01*
X005170Y009444D01*
X005186Y009428D01*
X005198Y009410D01*
X005207Y009391D01*
X005213Y009370D01*
X005215Y009348D01*
X005213Y009326D01*
X005207Y009305D01*
X005198Y009286D01*
X005186Y009268D01*
X005170Y009252D01*
X005153Y009240D01*
X005133Y009231D01*
X005112Y009225D01*
X005090Y009223D01*
X005068Y009225D01*
X005047Y009231D01*
X005027Y009240D01*
X005010Y009252D01*
X004994Y009268D01*
X004982Y009285D01*
X004973Y009305D01*
X004967Y009326D01*
X004965Y009348D01*
X006775Y009248D02*
X006777Y009270D01*
X006783Y009291D01*
X006792Y009310D01*
X006804Y009328D01*
X006820Y009344D01*
X006837Y009356D01*
X006857Y009365D01*
X006878Y009371D01*
X006900Y009373D01*
X006922Y009371D01*
X006943Y009365D01*
X006962Y009356D01*
X006980Y009344D01*
X006996Y009328D01*
X007008Y009310D01*
X007017Y009291D01*
X007023Y009270D01*
X007025Y009248D01*
X007023Y009226D01*
X007017Y009205D01*
X007008Y009186D01*
X006996Y009168D01*
X006980Y009152D01*
X006963Y009140D01*
X006943Y009131D01*
X006922Y009125D01*
X006900Y009123D01*
X006878Y009125D01*
X006857Y009131D01*
X006837Y009140D01*
X006820Y009152D01*
X006804Y009168D01*
X006792Y009185D01*
X006783Y009205D01*
X006777Y009226D01*
X006775Y009248D01*
X007075Y007218D02*
X007077Y007240D01*
X007083Y007261D01*
X007092Y007280D01*
X007104Y007298D01*
X007120Y007314D01*
X007137Y007326D01*
X007157Y007335D01*
X007178Y007341D01*
X007200Y007343D01*
X007222Y007341D01*
X007243Y007335D01*
X007262Y007326D01*
X007280Y007314D01*
X007296Y007298D01*
X007308Y007280D01*
X007317Y007261D01*
X007323Y007240D01*
X007325Y007218D01*
X007323Y007196D01*
X007317Y007175D01*
X007308Y007156D01*
X007296Y007138D01*
X007280Y007122D01*
X007263Y007110D01*
X007243Y007101D01*
X007222Y007095D01*
X007200Y007093D01*
X007178Y007095D01*
X007157Y007101D01*
X007137Y007110D01*
X007120Y007122D01*
X007104Y007138D01*
X007092Y007155D01*
X007083Y007175D01*
X007077Y007196D01*
X007075Y007218D01*
X006195Y006668D02*
X006197Y006690D01*
X006203Y006711D01*
X006212Y006730D01*
X006224Y006748D01*
X006240Y006764D01*
X006257Y006776D01*
X006277Y006785D01*
X006298Y006791D01*
X006320Y006793D01*
X006342Y006791D01*
X006363Y006785D01*
X006382Y006776D01*
X006400Y006764D01*
X006416Y006748D01*
X006428Y006730D01*
X006437Y006711D01*
X006443Y006690D01*
X006445Y006668D01*
X006443Y006646D01*
X006437Y006625D01*
X006428Y006606D01*
X006416Y006588D01*
X006400Y006572D01*
X006383Y006560D01*
X006363Y006551D01*
X006342Y006545D01*
X006320Y006543D01*
X006298Y006545D01*
X006277Y006551D01*
X006257Y006560D01*
X006240Y006572D01*
X006224Y006588D01*
X006212Y006605D01*
X006203Y006625D01*
X006197Y006646D01*
X006195Y006668D01*
X008325Y006328D02*
X008327Y006350D01*
X008333Y006371D01*
X008342Y006390D01*
X008354Y006408D01*
X008370Y006424D01*
X008387Y006436D01*
X008407Y006445D01*
X008428Y006451D01*
X008450Y006453D01*
X008472Y006451D01*
X008493Y006445D01*
X008512Y006436D01*
X008530Y006424D01*
X008546Y006408D01*
X008558Y006390D01*
X008567Y006371D01*
X008573Y006350D01*
X008575Y006328D01*
X008573Y006306D01*
X008567Y006285D01*
X008558Y006266D01*
X008546Y006248D01*
X008530Y006232D01*
X008513Y006220D01*
X008493Y006211D01*
X008472Y006205D01*
X008450Y006203D01*
X008428Y006205D01*
X008407Y006211D01*
X008387Y006220D01*
X008370Y006232D01*
X008354Y006248D01*
X008342Y006265D01*
X008333Y006285D01*
X008327Y006306D01*
X008325Y006328D01*
X008315Y005698D02*
X008317Y005720D01*
X008323Y005741D01*
X008332Y005760D01*
X008344Y005778D01*
X008360Y005794D01*
X008377Y005806D01*
X008397Y005815D01*
X008418Y005821D01*
X008440Y005823D01*
X008462Y005821D01*
X008483Y005815D01*
X008502Y005806D01*
X008520Y005794D01*
X008536Y005778D01*
X008548Y005760D01*
X008557Y005741D01*
X008563Y005720D01*
X008565Y005698D01*
X008563Y005676D01*
X008557Y005655D01*
X008548Y005636D01*
X008536Y005618D01*
X008520Y005602D01*
X008503Y005590D01*
X008483Y005581D01*
X008462Y005575D01*
X008440Y005573D01*
X008418Y005575D01*
X008397Y005581D01*
X008377Y005590D01*
X008360Y005602D01*
X008344Y005618D01*
X008332Y005635D01*
X008323Y005655D01*
X008317Y005676D01*
X008315Y005698D01*
X011025Y006938D02*
X011027Y006960D01*
X011033Y006981D01*
X011042Y007000D01*
X011054Y007018D01*
X011070Y007034D01*
X011087Y007046D01*
X011107Y007055D01*
X011128Y007061D01*
X011150Y007063D01*
X011172Y007061D01*
X011193Y007055D01*
X011212Y007046D01*
X011230Y007034D01*
X011246Y007018D01*
X011258Y007000D01*
X011267Y006981D01*
X011273Y006960D01*
X011275Y006938D01*
X011273Y006916D01*
X011267Y006895D01*
X011258Y006876D01*
X011246Y006858D01*
X011230Y006842D01*
X011213Y006830D01*
X011193Y006821D01*
X011172Y006815D01*
X011150Y006813D01*
X011128Y006815D01*
X011107Y006821D01*
X011087Y006830D01*
X011070Y006842D01*
X011054Y006858D01*
X011042Y006875D01*
X011033Y006895D01*
X011027Y006916D01*
X011025Y006938D01*
X011665Y006008D02*
X011667Y006030D01*
X011673Y006051D01*
X011682Y006070D01*
X011694Y006088D01*
X011710Y006104D01*
X011727Y006116D01*
X011747Y006125D01*
X011768Y006131D01*
X011790Y006133D01*
X011812Y006131D01*
X011833Y006125D01*
X011852Y006116D01*
X011870Y006104D01*
X011886Y006088D01*
X011898Y006070D01*
X011907Y006051D01*
X011913Y006030D01*
X011915Y006008D01*
X011913Y005986D01*
X011907Y005965D01*
X011898Y005946D01*
X011886Y005928D01*
X011870Y005912D01*
X011853Y005900D01*
X011833Y005891D01*
X011812Y005885D01*
X011790Y005883D01*
X011768Y005885D01*
X011747Y005891D01*
X011727Y005900D01*
X011710Y005912D01*
X011694Y005928D01*
X011682Y005945D01*
X011673Y005965D01*
X011667Y005986D01*
X011665Y006008D01*
D21*
X011374Y006461D03*
X010625Y006461D03*
X011000Y005595D03*
D22*
X011150Y007318D03*
X011150Y007818D03*
X011150Y008318D03*
X011150Y008818D03*
X009290Y008818D03*
X009290Y008318D03*
X009290Y007818D03*
X009290Y007318D03*
D23*
X005770Y008828D02*
X005370Y008828D01*
X005470Y008928D01*
X005670Y008928D01*
X005770Y008828D01*
X005758Y008840D02*
X005381Y008840D01*
X005410Y008868D02*
X005729Y008868D01*
X005701Y008897D02*
X005438Y008897D01*
X005467Y008925D02*
X005672Y008925D01*
D24*
X005738Y009036D02*
X006714Y009036D01*
X006714Y009101D02*
X006714Y008945D01*
X006662Y008945D01*
X006597Y008880D01*
X006597Y008356D01*
X006662Y008292D01*
X006714Y008292D01*
X006714Y008105D01*
X006672Y008105D01*
X006607Y008040D01*
X006607Y007516D01*
X006672Y007452D01*
X007101Y007452D01*
X006965Y007316D01*
X006965Y007121D01*
X007102Y006983D01*
X007297Y006983D01*
X007342Y007028D01*
X007490Y007028D01*
X007490Y006533D01*
X007554Y006468D01*
X007865Y006468D01*
X007890Y006493D01*
X007890Y006367D01*
X007882Y006359D01*
X007597Y006359D01*
X007533Y006295D01*
X007533Y006244D01*
X007394Y006383D01*
X007394Y006910D01*
X007329Y006974D01*
X006530Y006974D01*
X006490Y006934D01*
X006490Y007214D01*
X006425Y007278D01*
X005814Y007278D01*
X005750Y007214D01*
X005750Y006903D01*
X005814Y006838D01*
X005930Y006838D01*
X005930Y006790D01*
X006085Y006635D01*
X006085Y006571D01*
X006117Y006538D01*
X005814Y006538D01*
X005750Y006474D01*
X005750Y006163D01*
X005814Y006098D01*
X005930Y006098D01*
X005930Y005855D01*
X005752Y005855D01*
X005701Y005804D01*
X005681Y005837D01*
X005654Y005865D01*
X005619Y005885D01*
X005581Y005895D01*
X005393Y005895D01*
X005393Y005597D01*
X005296Y005597D01*
X005296Y005500D01*
X004978Y005500D01*
X004978Y005332D01*
X004989Y005294D01*
X005008Y005259D01*
X005036Y005231D01*
X005070Y005212D01*
X005109Y005201D01*
X005296Y005201D01*
X005296Y005500D01*
X005393Y005500D01*
X005393Y005201D01*
X005581Y005201D01*
X005619Y005212D01*
X005654Y005231D01*
X005681Y005259D01*
X005701Y005293D01*
X005752Y005241D01*
X006044Y005241D01*
X006081Y005228D01*
X006108Y005241D01*
X006276Y005241D01*
X006341Y005306D01*
X006341Y005791D01*
X006310Y005822D01*
X006310Y006098D01*
X006425Y006098D01*
X006490Y006163D01*
X006490Y006165D01*
X006530Y006125D01*
X007115Y006125D01*
X007280Y005960D01*
X007336Y005903D01*
X007304Y005912D01*
X006980Y005912D01*
X006980Y005497D01*
X007434Y005497D01*
X007434Y005782D01*
X007424Y005820D01*
X007407Y005848D01*
X007533Y005848D01*
X007533Y005771D01*
X007584Y005720D01*
X007551Y005700D01*
X007523Y005672D01*
X007503Y005638D01*
X007493Y005600D01*
X007493Y005412D01*
X007791Y005412D01*
X007791Y005315D01*
X007493Y005315D01*
X007493Y005127D01*
X007493Y005124D01*
X007434Y005124D01*
X007434Y005397D01*
X006980Y005397D01*
X006980Y005497D01*
X006880Y005497D01*
X006880Y005912D01*
X006555Y005912D01*
X006517Y005902D01*
X006483Y005882D01*
X006455Y005854D01*
X006435Y005820D01*
X006425Y005782D01*
X006425Y005497D01*
X006880Y005497D01*
X006880Y005397D01*
X006425Y005397D01*
X006425Y005124D01*
X004633Y005124D01*
X004450Y005307D01*
X004450Y005844D01*
X004556Y005844D01*
X004727Y005915D01*
X004857Y006045D01*
X004884Y006109D01*
X004894Y006098D01*
X005505Y006098D01*
X005570Y006163D01*
X005570Y006474D01*
X005568Y006475D01*
X005580Y006486D01*
X005599Y006520D01*
X005610Y006559D01*
X005610Y006683D01*
X005205Y006683D01*
X005205Y006693D01*
X005610Y006693D01*
X005610Y006818D01*
X005599Y006856D01*
X005580Y006890D01*
X005568Y006902D01*
X005570Y006903D01*
X005570Y007214D01*
X005505Y007278D01*
X004894Y007278D01*
X004874Y007258D01*
X004160Y007258D01*
X004160Y007358D01*
X004967Y007358D01*
X004956Y007426D01*
X004931Y007502D01*
X004895Y007573D01*
X004849Y007637D01*
X004792Y007693D01*
X004728Y007740D01*
X004657Y007776D01*
X004582Y007800D01*
X004504Y007813D01*
X004160Y007813D01*
X004160Y007358D01*
X004060Y007358D01*
X004060Y007813D01*
X003715Y007813D01*
X003637Y007800D01*
X003562Y007776D01*
X003491Y007740D01*
X003427Y007693D01*
X003371Y007637D01*
X003365Y007629D01*
X003365Y008042D01*
X003492Y007915D01*
X003663Y007844D01*
X004556Y007844D01*
X004727Y007915D01*
X004786Y007973D01*
X004850Y007910D01*
X004961Y007798D01*
X005243Y007798D01*
X005243Y007751D01*
X005307Y007687D01*
X005832Y007687D01*
X005896Y007751D01*
X005896Y008236D01*
X005832Y008300D01*
X005307Y008300D01*
X005243Y008236D01*
X005243Y008178D01*
X005118Y008178D01*
X004928Y008368D01*
X004928Y008401D01*
X004857Y008571D01*
X004727Y008702D01*
X004556Y008773D01*
X004020Y008773D01*
X004253Y008869D01*
X004449Y009065D01*
X004555Y009320D01*
X004555Y009597D01*
X004449Y009852D01*
X004342Y009959D01*
X007293Y009959D01*
X007293Y009471D01*
X007357Y009406D01*
X007842Y009406D01*
X007906Y009471D01*
X007906Y009543D01*
X008103Y009543D01*
X008103Y009491D01*
X008167Y009426D01*
X008692Y009426D01*
X008756Y009491D01*
X008756Y009722D01*
X008771Y009738D01*
X008958Y009738D01*
X008958Y009316D01*
X009023Y009251D01*
X009095Y009251D01*
X009095Y009038D01*
X008854Y009038D01*
X008824Y009008D01*
X008798Y009008D01*
X008756Y009050D01*
X008756Y009306D01*
X008692Y009370D01*
X008167Y009370D01*
X008103Y009306D01*
X008103Y008961D01*
X007906Y009137D01*
X007906Y009326D01*
X007842Y009390D01*
X007357Y009390D01*
X007293Y009326D01*
X007293Y008802D01*
X007357Y008737D01*
X007783Y008737D01*
X007969Y008570D01*
X008021Y008518D01*
X008027Y008518D01*
X008031Y008514D01*
X008072Y008517D01*
X008031Y008420D01*
X008031Y008297D01*
X008052Y008248D01*
X007950Y008248D01*
X007912Y008238D01*
X007877Y008218D01*
X007866Y008207D01*
X007865Y008208D01*
X007554Y008208D01*
X007490Y008144D01*
X007490Y007968D01*
X007221Y007968D01*
X007221Y008040D01*
X007157Y008105D01*
X007094Y008105D01*
X007094Y008292D01*
X007147Y008292D01*
X007211Y008356D01*
X007211Y008880D01*
X007147Y008945D01*
X007094Y008945D01*
X007094Y009111D01*
X007135Y009151D01*
X007135Y009346D01*
X006997Y009483D01*
X006802Y009483D01*
X006665Y009346D01*
X006665Y009151D01*
X006714Y009101D01*
X006681Y009135D02*
X005265Y009135D01*
X005303Y009173D01*
X005333Y009218D01*
X005354Y009268D01*
X005365Y009321D01*
X005365Y009336D01*
X005102Y009336D01*
X005102Y009361D01*
X005077Y009361D01*
X005077Y009623D01*
X005062Y009623D01*
X005009Y009613D01*
X004959Y009592D01*
X004914Y009562D01*
X004876Y009524D01*
X004846Y009479D01*
X004825Y009429D01*
X004815Y009375D01*
X004815Y009361D01*
X005077Y009361D01*
X005077Y009336D01*
X004815Y009336D01*
X004815Y009321D01*
X004825Y009268D01*
X004846Y009218D01*
X004876Y009173D01*
X004914Y009135D01*
X004478Y009135D01*
X004519Y009233D02*
X004839Y009233D01*
X004815Y009332D02*
X004555Y009332D01*
X004555Y009430D02*
X004826Y009430D01*
X004881Y009529D02*
X004555Y009529D01*
X004542Y009627D02*
X007293Y009627D01*
X007293Y009529D02*
X005298Y009529D01*
X005303Y009524D02*
X005265Y009562D01*
X005220Y009592D01*
X005170Y009613D01*
X005117Y009623D01*
X005102Y009623D01*
X005102Y009361D01*
X005365Y009361D01*
X005365Y009375D01*
X005354Y009429D01*
X005333Y009479D01*
X005303Y009524D01*
X005353Y009430D02*
X006749Y009430D01*
X006665Y009332D02*
X005365Y009332D01*
X005340Y009233D02*
X006665Y009233D01*
X007050Y009430D02*
X007333Y009430D01*
X007299Y009332D02*
X007135Y009332D01*
X007135Y009233D02*
X007293Y009233D01*
X007293Y009135D02*
X007118Y009135D01*
X007094Y009036D02*
X007293Y009036D01*
X007293Y008938D02*
X007154Y008938D01*
X007211Y008839D02*
X007293Y008839D01*
X007353Y008741D02*
X007211Y008741D01*
X007211Y008642D02*
X007889Y008642D01*
X007995Y008544D02*
X007211Y008544D01*
X007211Y008445D02*
X008042Y008445D01*
X008031Y008347D02*
X007202Y008347D01*
X007094Y008248D02*
X008052Y008248D01*
X007495Y008150D02*
X007094Y008150D01*
X007210Y008051D02*
X007490Y008051D01*
X006714Y008150D02*
X005896Y008150D01*
X005956Y008115D02*
X005928Y008087D01*
X005908Y008053D01*
X005898Y008015D01*
X005898Y007827D01*
X006196Y007827D01*
X006196Y007730D01*
X005898Y007730D01*
X005898Y007542D01*
X005908Y007504D01*
X005928Y007470D01*
X005956Y007442D01*
X005990Y007422D01*
X006028Y007412D01*
X006196Y007412D01*
X006196Y007730D01*
X006293Y007730D01*
X006293Y007412D01*
X006461Y007412D01*
X006500Y007422D01*
X006534Y007442D01*
X006562Y007470D01*
X006581Y007504D01*
X006592Y007542D01*
X006592Y007730D01*
X006293Y007730D01*
X006293Y007827D01*
X006196Y007827D01*
X006196Y008145D01*
X006028Y008145D01*
X005990Y008135D01*
X005956Y008115D01*
X005908Y008051D02*
X005896Y008051D01*
X005896Y007953D02*
X005898Y007953D01*
X005896Y007854D02*
X005898Y007854D01*
X005896Y007756D02*
X006196Y007756D01*
X006293Y007756D02*
X006607Y007756D01*
X006592Y007827D02*
X006592Y008015D01*
X006581Y008053D01*
X006562Y008087D01*
X006534Y008115D01*
X006500Y008135D01*
X006461Y008145D01*
X006293Y008145D01*
X006293Y007827D01*
X006592Y007827D01*
X006592Y007854D02*
X006607Y007854D01*
X006607Y007953D02*
X006592Y007953D01*
X006582Y008051D02*
X006618Y008051D01*
X006714Y008248D02*
X005884Y008248D01*
X005937Y008347D02*
X004950Y008347D01*
X004910Y008445D02*
X005243Y008445D01*
X005243Y008421D02*
X005307Y008356D01*
X005832Y008356D01*
X005896Y008421D01*
X005896Y008473D01*
X005928Y008473D01*
X005928Y008356D01*
X005992Y008292D01*
X006477Y008292D01*
X006542Y008356D01*
X006542Y008880D01*
X006477Y008945D01*
X005992Y008945D01*
X005928Y008880D01*
X005928Y008853D01*
X005896Y008853D01*
X005896Y008905D01*
X005832Y008970D01*
X005805Y008970D01*
X005721Y009053D01*
X005418Y009053D01*
X005345Y008980D01*
X005334Y008970D01*
X005307Y008970D01*
X005243Y008905D01*
X005243Y008421D01*
X005243Y008544D02*
X004869Y008544D01*
X004786Y008642D02*
X005243Y008642D01*
X005243Y008741D02*
X004633Y008741D01*
X004322Y008938D02*
X005275Y008938D01*
X005243Y008839D02*
X004181Y008839D01*
X004420Y009036D02*
X005401Y009036D01*
X005265Y009135D02*
X005220Y009105D01*
X005170Y009084D01*
X005117Y009073D01*
X005102Y009073D01*
X005102Y009336D01*
X005077Y009336D01*
X005077Y009073D01*
X005062Y009073D01*
X005009Y009084D01*
X004959Y009105D01*
X004914Y009135D01*
X005077Y009135D02*
X005102Y009135D01*
X005102Y009233D02*
X005077Y009233D01*
X005077Y009332D02*
X005102Y009332D01*
X005102Y009430D02*
X005077Y009430D01*
X005077Y009529D02*
X005102Y009529D01*
X004501Y009726D02*
X007293Y009726D01*
X007293Y009824D02*
X004460Y009824D01*
X004378Y009923D02*
X007293Y009923D01*
X007906Y009529D02*
X008103Y009529D01*
X008163Y009430D02*
X007866Y009430D01*
X007900Y009332D02*
X008129Y009332D01*
X008103Y009233D02*
X007906Y009233D01*
X007909Y009135D02*
X008103Y009135D01*
X008103Y009036D02*
X008019Y009036D01*
X008696Y009430D02*
X008958Y009430D01*
X008958Y009332D02*
X008730Y009332D01*
X008756Y009233D02*
X009095Y009233D01*
X009095Y009135D02*
X008756Y009135D01*
X008770Y009036D02*
X008852Y009036D01*
X008875Y008598D02*
X009725Y008598D01*
X009790Y008663D01*
X009790Y008974D01*
X009725Y009038D01*
X009475Y009038D01*
X009475Y009251D01*
X009547Y009251D01*
X009598Y009303D01*
X009618Y009269D01*
X009646Y009241D01*
X009680Y009222D01*
X009718Y009211D01*
X009906Y009211D01*
X009906Y009510D01*
X010003Y009510D01*
X010003Y009211D01*
X010190Y009211D01*
X010229Y009222D01*
X010263Y009241D01*
X010291Y009269D01*
X010307Y009297D01*
X010362Y009242D01*
X010504Y009242D01*
X010451Y009188D01*
X010340Y009077D01*
X010340Y007370D01*
X010460Y007250D01*
X010571Y007138D01*
X010674Y007138D01*
X010714Y007098D01*
X010960Y007098D01*
X010960Y007081D01*
X010915Y007036D01*
X010915Y006857D01*
X010914Y006857D01*
X010880Y006877D01*
X010842Y006887D01*
X010674Y006887D01*
X010674Y006510D01*
X010577Y006510D01*
X010577Y006887D01*
X010409Y006887D01*
X010371Y006877D01*
X010337Y006857D01*
X010309Y006829D01*
X010289Y006795D01*
X010279Y006757D01*
X010279Y006510D01*
X010577Y006510D01*
X010577Y006413D01*
X010279Y006413D01*
X010279Y006208D01*
X010073Y006208D01*
X009998Y006211D01*
X009995Y006208D01*
X009991Y006208D01*
X009938Y006155D01*
X009905Y006125D01*
X009241Y006132D01*
X009241Y006133D01*
X009154Y006219D01*
X009077Y006251D01*
X009186Y006251D01*
X009186Y006550D01*
X008868Y006550D01*
X008868Y006382D01*
X008879Y006344D01*
X008898Y006309D01*
X008926Y006281D01*
X008952Y006266D01*
X008918Y006266D01*
X008805Y006219D01*
X008723Y006138D01*
X008660Y006138D01*
X008661Y005809D01*
X008537Y005933D01*
X008342Y005933D01*
X008205Y005796D01*
X008205Y005601D01*
X008342Y005463D01*
X008364Y005463D01*
X008364Y005457D01*
X008408Y005412D01*
X008444Y005360D01*
X008462Y005357D01*
X008474Y005345D01*
X008537Y005344D01*
X008599Y005333D01*
X008614Y005343D01*
X008663Y005342D01*
X008664Y005124D01*
X008186Y005124D01*
X008186Y005127D01*
X008186Y005315D01*
X007888Y005315D01*
X007888Y005412D01*
X008186Y005412D01*
X008186Y005600D01*
X008176Y005638D01*
X008156Y005672D01*
X008128Y005700D01*
X008095Y005720D01*
X008146Y005771D01*
X008146Y006085D01*
X008217Y006161D01*
X008250Y006195D01*
X008352Y006093D01*
X008547Y006093D01*
X008685Y006231D01*
X008685Y006426D01*
X008640Y006471D01*
X008640Y006503D01*
X008670Y006533D01*
X008670Y007038D01*
X008714Y007038D01*
X008787Y007034D01*
X008792Y007038D01*
X008798Y007038D01*
X008850Y007090D01*
X008859Y007098D01*
X009714Y007098D01*
X009714Y006905D01*
X009642Y006905D01*
X009591Y006854D01*
X009571Y006887D01*
X009544Y006915D01*
X009509Y006935D01*
X009471Y006945D01*
X009283Y006945D01*
X009283Y006647D01*
X009186Y006647D01*
X009186Y006550D01*
X009283Y006550D01*
X009283Y006251D01*
X009471Y006251D01*
X009509Y006262D01*
X009544Y006281D01*
X009571Y006309D01*
X009591Y006343D01*
X009642Y006291D01*
X010166Y006291D01*
X010231Y006356D01*
X010231Y006841D01*
X010166Y006905D01*
X010094Y006905D01*
X010094Y007272D01*
X009990Y007377D01*
X009878Y007488D01*
X009775Y007488D01*
X009725Y007538D01*
X008960Y007538D01*
X008960Y007598D01*
X009725Y007598D01*
X009790Y007663D01*
X009790Y007974D01*
X009725Y008038D01*
X009480Y008038D01*
X009480Y008098D01*
X009725Y008098D01*
X009790Y008163D01*
X009790Y008474D01*
X009725Y008538D01*
X008941Y008538D01*
X008875Y008598D01*
X008935Y008544D02*
X010340Y008544D01*
X010340Y008642D02*
X009769Y008642D01*
X009790Y008741D02*
X010340Y008741D01*
X010340Y008839D02*
X009790Y008839D01*
X009790Y008938D02*
X010340Y008938D01*
X010340Y009036D02*
X009727Y009036D01*
X009660Y009233D02*
X009475Y009233D01*
X009475Y009135D02*
X010397Y009135D01*
X010496Y009233D02*
X010249Y009233D01*
X010003Y009233D02*
X009906Y009233D01*
X009906Y009332D02*
X010003Y009332D01*
X010003Y009430D02*
X009906Y009430D01*
X010688Y009959D02*
X014666Y009959D01*
X014666Y008383D01*
X014597Y008452D01*
X014426Y008523D01*
X014179Y008523D01*
X014179Y008923D01*
X014180Y008923D01*
X014244Y008988D01*
X014244Y009789D01*
X014180Y009853D01*
X013459Y009853D01*
X013394Y009789D01*
X013394Y008988D01*
X013459Y008923D01*
X013459Y008923D01*
X013459Y008492D01*
X013362Y008452D01*
X013243Y008333D01*
X013068Y008508D01*
X011615Y008508D01*
X011585Y008538D01*
X010720Y008538D01*
X010720Y008564D01*
X010740Y008558D01*
X011145Y008558D01*
X011145Y008813D01*
X011155Y008813D01*
X011155Y008823D01*
X011690Y008823D01*
X011690Y008948D01*
X011679Y008986D01*
X011660Y009020D01*
X011632Y009048D01*
X011597Y009068D01*
X011559Y009078D01*
X011258Y009078D01*
X011260Y009080D01*
X011422Y009242D01*
X011517Y009242D01*
X011581Y009306D01*
X011581Y009830D01*
X011517Y009895D01*
X011032Y009895D01*
X010967Y009830D01*
X010967Y009348D01*
X010912Y009348D01*
X010912Y009830D01*
X010847Y009895D01*
X010755Y009895D01*
X010711Y009935D01*
X010688Y009959D01*
X010725Y009923D02*
X014666Y009923D01*
X014666Y009824D02*
X014209Y009824D01*
X014244Y009726D02*
X014666Y009726D01*
X014666Y009627D02*
X014244Y009627D01*
X014244Y009529D02*
X014666Y009529D01*
X014666Y009430D02*
X014244Y009430D01*
X014244Y009332D02*
X014666Y009332D01*
X014666Y009233D02*
X014244Y009233D01*
X014244Y009135D02*
X014666Y009135D01*
X014666Y009036D02*
X014244Y009036D01*
X014194Y008938D02*
X014666Y008938D01*
X014666Y008839D02*
X014179Y008839D01*
X014179Y008741D02*
X014666Y008741D01*
X014666Y008642D02*
X014179Y008642D01*
X014179Y008544D02*
X014666Y008544D01*
X014666Y008445D02*
X014603Y008445D01*
X014666Y007733D02*
X014666Y007383D01*
X014597Y007452D01*
X014426Y007523D01*
X013533Y007523D01*
X013362Y007452D01*
X013232Y007321D01*
X013161Y007151D01*
X013161Y007095D01*
X012848Y007095D01*
X012848Y006797D01*
X013036Y006797D01*
X013074Y006807D01*
X013108Y006827D01*
X013136Y006855D01*
X013156Y006889D01*
X013166Y006927D01*
X013166Y006953D01*
X013232Y006795D01*
X013362Y006665D01*
X013533Y006594D01*
X013620Y006594D01*
X013620Y006327D01*
X013390Y006098D01*
X012025Y006105D01*
X012025Y006106D01*
X011887Y006243D01*
X011692Y006243D01*
X011680Y006231D01*
X011680Y006783D01*
X011616Y006847D01*
X011385Y006847D01*
X011385Y007036D01*
X011340Y007081D01*
X011340Y007098D01*
X011411Y007098D01*
X011440Y007070D01*
X011551Y006958D01*
X011653Y006958D01*
X011653Y006901D01*
X011717Y006837D01*
X012242Y006837D01*
X012306Y006901D01*
X012306Y007386D01*
X012242Y007450D01*
X011717Y007450D01*
X011657Y007390D01*
X011650Y007397D01*
X011650Y007474D01*
X011585Y007538D01*
X010720Y007538D01*
X010720Y007598D01*
X011585Y007598D01*
X011615Y007628D01*
X011653Y007628D01*
X011653Y007571D01*
X011717Y007506D01*
X012242Y007506D01*
X012306Y007571D01*
X012306Y007623D01*
X012473Y007623D01*
X012473Y007571D01*
X012537Y007506D01*
X013062Y007506D01*
X013126Y007571D01*
X013126Y007913D01*
X013161Y007878D01*
X013197Y007878D01*
X013232Y007795D01*
X013362Y007665D01*
X013533Y007594D01*
X014426Y007594D01*
X014597Y007665D01*
X014666Y007733D01*
X014666Y007657D02*
X014579Y007657D01*
X014666Y007559D02*
X013114Y007559D01*
X013074Y007480D02*
X013036Y007490D01*
X012848Y007490D01*
X012848Y007192D01*
X013166Y007192D01*
X013166Y007360D01*
X013156Y007398D01*
X013136Y007433D01*
X013108Y007461D01*
X013074Y007480D01*
X013108Y007460D02*
X013382Y007460D01*
X013272Y007362D02*
X013166Y007362D01*
X013166Y007263D02*
X013208Y007263D01*
X013167Y007165D02*
X012848Y007165D01*
X012848Y007192D02*
X012848Y007095D01*
X012751Y007095D01*
X012751Y006797D01*
X012563Y006797D01*
X012525Y006807D01*
X012491Y006827D01*
X012463Y006855D01*
X012443Y006889D01*
X012433Y006927D01*
X012433Y007095D01*
X012751Y007095D01*
X012751Y007192D01*
X012433Y007192D01*
X012433Y007360D01*
X012443Y007398D01*
X012463Y007433D01*
X012491Y007461D01*
X012525Y007480D01*
X012563Y007490D01*
X012751Y007490D01*
X012751Y007192D01*
X012848Y007192D01*
X012848Y007263D02*
X012751Y007263D01*
X012751Y007165D02*
X012306Y007165D01*
X012306Y007263D02*
X012433Y007263D01*
X012433Y007362D02*
X012306Y007362D01*
X012294Y007559D02*
X012485Y007559D01*
X012491Y007460D02*
X011650Y007460D01*
X011665Y007559D02*
X010720Y007559D01*
X010340Y007559D02*
X008960Y007559D01*
X008826Y007066D02*
X009714Y007066D01*
X009714Y006968D02*
X008670Y006968D01*
X008670Y006869D02*
X008888Y006869D01*
X008879Y006853D02*
X008868Y006815D01*
X008868Y006647D01*
X009186Y006647D01*
X009186Y006945D01*
X008999Y006945D01*
X008960Y006935D01*
X008926Y006915D01*
X008898Y006887D01*
X008879Y006853D01*
X008868Y006771D02*
X008670Y006771D01*
X008670Y006672D02*
X008868Y006672D01*
X008868Y006475D02*
X008640Y006475D01*
X008670Y006574D02*
X009186Y006574D01*
X009186Y006672D02*
X009283Y006672D01*
X009283Y006771D02*
X009186Y006771D01*
X009186Y006869D02*
X009283Y006869D01*
X009582Y006869D02*
X009606Y006869D01*
X010094Y006968D02*
X010915Y006968D01*
X010915Y006869D02*
X010893Y006869D01*
X010963Y006793D02*
X011052Y006703D01*
X011067Y006703D01*
X011067Y006431D01*
X010972Y006340D01*
X010972Y006413D01*
X010674Y006413D01*
X010674Y006510D01*
X010972Y006510D01*
X010972Y006757D01*
X010963Y006793D01*
X010969Y006771D02*
X010985Y006771D01*
X010972Y006672D02*
X011067Y006672D01*
X011067Y006574D02*
X010972Y006574D01*
X011067Y006475D02*
X010674Y006475D01*
X010577Y006475D02*
X010231Y006475D01*
X010231Y006377D02*
X010279Y006377D01*
X010279Y006278D02*
X009538Y006278D01*
X009283Y006278D02*
X009186Y006278D01*
X009194Y006180D02*
X009962Y006180D01*
X010140Y005824D02*
X010582Y005810D01*
X010522Y005750D01*
X010107Y005750D01*
X010043Y005685D01*
X010043Y005201D01*
X010107Y005136D01*
X010632Y005136D01*
X010696Y005201D01*
X010696Y005271D01*
X010757Y005210D01*
X011242Y005210D01*
X011306Y005274D01*
X011306Y005318D01*
X011357Y005318D01*
X011357Y005270D01*
X011421Y005205D01*
X012046Y005205D01*
X012046Y005111D01*
X011811Y005111D01*
X011811Y004813D01*
X011714Y004813D01*
X011714Y005111D01*
X011447Y005111D01*
X011409Y005101D01*
X011375Y005081D01*
X011347Y005053D01*
X011327Y005019D01*
X011317Y004981D01*
X011317Y004813D01*
X011714Y004813D01*
X011714Y004716D01*
X011317Y004716D01*
X011317Y004563D01*
X010736Y004563D01*
X010736Y004725D01*
X010418Y004725D01*
X010418Y004822D01*
X010736Y004822D01*
X010736Y004990D01*
X010726Y005028D01*
X010706Y005063D01*
X010678Y005091D01*
X010644Y005110D01*
X010606Y005120D01*
X010418Y005120D01*
X010418Y004822D01*
X010321Y004822D01*
X010321Y004725D01*
X010003Y004725D01*
X010003Y004563D01*
X008890Y004563D01*
X008890Y005202D01*
X009227Y005202D01*
X009292Y005266D01*
X009292Y005790D01*
X009260Y005822D01*
X009383Y005826D01*
X009347Y005790D01*
X009347Y005266D01*
X009412Y005202D01*
X009897Y005202D01*
X009961Y005266D01*
X009961Y005658D01*
X010140Y005824D01*
X010098Y005786D02*
X010558Y005786D01*
X010045Y005687D02*
X009992Y005687D01*
X009961Y005589D02*
X010043Y005589D01*
X010043Y005490D02*
X009961Y005490D01*
X009961Y005392D02*
X010043Y005392D01*
X010043Y005293D02*
X009961Y005293D01*
X010049Y005195D02*
X008890Y005195D01*
X008890Y005096D02*
X010071Y005096D01*
X010061Y005091D02*
X010033Y005063D01*
X010013Y005028D01*
X010003Y004990D01*
X010003Y004822D01*
X010321Y004822D01*
X010321Y005120D01*
X010133Y005120D01*
X010095Y005110D01*
X010061Y005091D01*
X010005Y004998D02*
X008890Y004998D01*
X008890Y004899D02*
X010003Y004899D01*
X010003Y004702D02*
X008890Y004702D01*
X008890Y004604D02*
X010003Y004604D01*
X010321Y004801D02*
X008890Y004801D01*
X008664Y005195D02*
X008186Y005195D01*
X008186Y005293D02*
X008663Y005293D01*
X008422Y005392D02*
X007888Y005392D01*
X007791Y005392D02*
X007434Y005392D01*
X007434Y005293D02*
X007493Y005293D01*
X007493Y005195D02*
X007434Y005195D01*
X007493Y005490D02*
X006980Y005490D01*
X006980Y005589D02*
X006880Y005589D01*
X006880Y005687D02*
X006980Y005687D01*
X006980Y005786D02*
X006880Y005786D01*
X006880Y005884D02*
X006980Y005884D01*
X007158Y006081D02*
X006310Y006081D01*
X006310Y005983D02*
X007256Y005983D01*
X007433Y005786D02*
X007533Y005786D01*
X007538Y005687D02*
X007434Y005687D01*
X007434Y005589D02*
X007493Y005589D01*
X006880Y005490D02*
X006341Y005490D01*
X006341Y005392D02*
X006425Y005392D01*
X006425Y005293D02*
X006328Y005293D01*
X006425Y005195D02*
X004562Y005195D01*
X004464Y005293D02*
X004989Y005293D01*
X004978Y005392D02*
X004450Y005392D01*
X004450Y005490D02*
X004978Y005490D01*
X004978Y005597D02*
X005296Y005597D01*
X005296Y005895D01*
X005109Y005895D01*
X005070Y005885D01*
X005036Y005865D01*
X005008Y005837D01*
X004989Y005803D01*
X004978Y005765D01*
X004978Y005597D01*
X004978Y005687D02*
X004450Y005687D01*
X004450Y005589D02*
X005296Y005589D01*
X005296Y005687D02*
X005393Y005687D01*
X005393Y005786D02*
X005296Y005786D01*
X005296Y005884D02*
X005393Y005884D01*
X005620Y005884D02*
X005930Y005884D01*
X005930Y005983D02*
X004795Y005983D01*
X004872Y006081D02*
X005930Y006081D01*
X005750Y006180D02*
X005570Y006180D01*
X005570Y006278D02*
X005750Y006278D01*
X005750Y006377D02*
X005570Y006377D01*
X005569Y006475D02*
X005751Y006475D01*
X005610Y006574D02*
X006085Y006574D01*
X006047Y006672D02*
X005610Y006672D01*
X005610Y006771D02*
X005948Y006771D01*
X005783Y006869D02*
X005592Y006869D01*
X005570Y006968D02*
X005750Y006968D01*
X005750Y007066D02*
X005570Y007066D01*
X005570Y007165D02*
X005750Y007165D01*
X005799Y007263D02*
X005520Y007263D01*
X005937Y007460D02*
X004945Y007460D01*
X004966Y007362D02*
X007011Y007362D01*
X006965Y007263D02*
X006440Y007263D01*
X006490Y007165D02*
X006965Y007165D01*
X007019Y007066D02*
X006490Y007066D01*
X006490Y006968D02*
X006523Y006968D01*
X006552Y007460D02*
X006663Y007460D01*
X006607Y007559D02*
X006592Y007559D01*
X006592Y007657D02*
X006607Y007657D01*
X006293Y007657D02*
X006196Y007657D01*
X006196Y007559D02*
X006293Y007559D01*
X006293Y007460D02*
X006196Y007460D01*
X005898Y007559D02*
X004902Y007559D01*
X004828Y007657D02*
X005898Y007657D01*
X006196Y007854D02*
X006293Y007854D01*
X006293Y007953D02*
X006196Y007953D01*
X006196Y008051D02*
X006293Y008051D01*
X006532Y008347D02*
X006607Y008347D01*
X006597Y008445D02*
X006542Y008445D01*
X006542Y008544D02*
X006597Y008544D01*
X006597Y008642D02*
X006542Y008642D01*
X006542Y008741D02*
X006597Y008741D01*
X006597Y008839D02*
X006542Y008839D01*
X006484Y008938D02*
X006655Y008938D01*
X005985Y008938D02*
X005864Y008938D01*
X005896Y008445D02*
X005928Y008445D01*
X005255Y008248D02*
X005048Y008248D01*
X004806Y007953D02*
X004765Y007953D01*
X004850Y007910D02*
X004850Y007910D01*
X004905Y007854D02*
X004581Y007854D01*
X004696Y007756D02*
X005243Y007756D01*
X004879Y007263D02*
X004160Y007263D01*
X004160Y007258D02*
X004160Y006804D01*
X004504Y006804D01*
X004530Y006808D01*
X004530Y006773D01*
X003663Y006773D01*
X003492Y006702D01*
X003365Y006574D01*
X003365Y006988D01*
X003371Y006980D01*
X003427Y006924D01*
X003491Y006877D01*
X003562Y006841D01*
X003637Y006816D01*
X003715Y006804D01*
X004060Y006804D01*
X004060Y007258D01*
X004160Y007258D01*
X004160Y007165D02*
X004060Y007165D01*
X004060Y007066D02*
X004160Y007066D01*
X004160Y006968D02*
X004060Y006968D01*
X004060Y006869D02*
X004160Y006869D01*
X003658Y006771D02*
X003365Y006771D01*
X003365Y006869D02*
X003506Y006869D01*
X003382Y006968D02*
X003365Y006968D01*
X003365Y006672D02*
X003463Y006672D01*
X004060Y007362D02*
X004160Y007362D01*
X004160Y007460D02*
X004060Y007460D01*
X004060Y007559D02*
X004160Y007559D01*
X004160Y007657D02*
X004060Y007657D01*
X004060Y007756D02*
X004160Y007756D01*
X003638Y007854D02*
X003365Y007854D01*
X003365Y007756D02*
X003523Y007756D01*
X003391Y007657D02*
X003365Y007657D01*
X003365Y007953D02*
X003454Y007953D01*
X004654Y005884D02*
X005069Y005884D01*
X004984Y005786D02*
X004450Y005786D01*
X005296Y005490D02*
X005393Y005490D01*
X005393Y005392D02*
X005296Y005392D01*
X005296Y005293D02*
X005393Y005293D01*
X006341Y005589D02*
X006425Y005589D01*
X006425Y005687D02*
X006341Y005687D01*
X006341Y005786D02*
X006426Y005786D01*
X006487Y005884D02*
X006310Y005884D01*
X007400Y006377D02*
X007890Y006377D01*
X007890Y006475D02*
X007872Y006475D01*
X007547Y006475D02*
X007394Y006475D01*
X007394Y006574D02*
X007490Y006574D01*
X007490Y006672D02*
X007394Y006672D01*
X007394Y006771D02*
X007490Y006771D01*
X007490Y006869D02*
X007394Y006869D01*
X007336Y006968D02*
X007490Y006968D01*
X007498Y006278D02*
X007533Y006278D01*
X008146Y006081D02*
X008660Y006081D01*
X008660Y005983D02*
X008146Y005983D01*
X008146Y005884D02*
X008293Y005884D01*
X008205Y005786D02*
X008146Y005786D01*
X008141Y005687D02*
X008205Y005687D01*
X008217Y005589D02*
X008186Y005589D01*
X008186Y005490D02*
X008315Y005490D01*
X008586Y005884D02*
X008661Y005884D01*
X008633Y006180D02*
X008765Y006180D01*
X008685Y006278D02*
X008932Y006278D01*
X008870Y006377D02*
X008685Y006377D01*
X008266Y006180D02*
X008235Y006180D01*
X009186Y006377D02*
X009283Y006377D01*
X009283Y006475D02*
X009186Y006475D01*
X010094Y007066D02*
X010945Y007066D01*
X010674Y006869D02*
X010577Y006869D01*
X010577Y006771D02*
X010674Y006771D01*
X010674Y006672D02*
X010577Y006672D01*
X010577Y006574D02*
X010674Y006574D01*
X010972Y006377D02*
X011010Y006377D01*
X011385Y006869D02*
X011685Y006869D01*
X011680Y006771D02*
X013256Y006771D01*
X013201Y006869D02*
X013145Y006869D01*
X013355Y006672D02*
X011680Y006672D01*
X011680Y006574D02*
X013620Y006574D01*
X013620Y006475D02*
X011680Y006475D01*
X011680Y006377D02*
X013620Y006377D01*
X013570Y006278D02*
X011680Y006278D01*
X011950Y006180D02*
X013472Y006180D01*
X012848Y006869D02*
X012751Y006869D01*
X012751Y006968D02*
X012848Y006968D01*
X012848Y007066D02*
X012751Y007066D01*
X012433Y007066D02*
X012306Y007066D01*
X012306Y006968D02*
X012433Y006968D01*
X012455Y006869D02*
X012274Y006869D01*
X012751Y007362D02*
X012848Y007362D01*
X012848Y007460D02*
X012751Y007460D01*
X013126Y007657D02*
X013380Y007657D01*
X013271Y007756D02*
X013126Y007756D01*
X013126Y007854D02*
X013207Y007854D01*
X013230Y008347D02*
X013257Y008347D01*
X013356Y008445D02*
X013131Y008445D01*
X013459Y008544D02*
X010720Y008544D01*
X010340Y008445D02*
X009790Y008445D01*
X009790Y008347D02*
X010340Y008347D01*
X010340Y008248D02*
X009790Y008248D01*
X009777Y008150D02*
X010340Y008150D01*
X010340Y008051D02*
X009480Y008051D01*
X009790Y007953D02*
X010340Y007953D01*
X010340Y007854D02*
X009790Y007854D01*
X009790Y007756D02*
X010340Y007756D01*
X010340Y007657D02*
X009784Y007657D01*
X009906Y007460D02*
X010340Y007460D01*
X010347Y007362D02*
X010005Y007362D01*
X010094Y007263D02*
X010446Y007263D01*
X010544Y007165D02*
X010094Y007165D01*
X010202Y006869D02*
X010358Y006869D01*
X010282Y006771D02*
X010231Y006771D01*
X010231Y006672D02*
X010279Y006672D01*
X010279Y006574D02*
X010231Y006574D01*
X009347Y005786D02*
X009292Y005786D01*
X009292Y005687D02*
X009347Y005687D01*
X009347Y005589D02*
X009292Y005589D01*
X009292Y005490D02*
X009347Y005490D01*
X009347Y005392D02*
X009292Y005392D01*
X009292Y005293D02*
X009347Y005293D01*
X010321Y005096D02*
X010418Y005096D01*
X010418Y004998D02*
X010321Y004998D01*
X010321Y004899D02*
X010418Y004899D01*
X010418Y004801D02*
X011714Y004801D01*
X011714Y004899D02*
X011811Y004899D01*
X011811Y004998D02*
X011714Y004998D01*
X011714Y005096D02*
X011811Y005096D01*
X012046Y005195D02*
X010690Y005195D01*
X010668Y005096D02*
X011401Y005096D01*
X011322Y004998D02*
X010734Y004998D01*
X010736Y004899D02*
X011317Y004899D01*
X011317Y004702D02*
X010736Y004702D01*
X010736Y004604D02*
X011317Y004604D01*
X011306Y005293D02*
X011357Y005293D01*
X011385Y006968D02*
X011541Y006968D01*
X011443Y007066D02*
X011354Y007066D01*
X011155Y008558D02*
X011559Y008558D01*
X011597Y008569D01*
X011632Y008588D01*
X011660Y008616D01*
X011679Y008650D01*
X011690Y008689D01*
X011690Y008813D01*
X011155Y008813D01*
X011155Y008558D01*
X011145Y008642D02*
X011155Y008642D01*
X011145Y008741D02*
X011155Y008741D01*
X011675Y008642D02*
X013459Y008642D01*
X013459Y008741D02*
X011690Y008741D01*
X011690Y008839D02*
X013459Y008839D01*
X013444Y008938D02*
X013131Y008938D01*
X013135Y008941D02*
X013154Y008975D01*
X013165Y009014D01*
X013165Y009338D01*
X012750Y009338D01*
X012750Y009438D01*
X013165Y009438D01*
X013165Y009763D01*
X013154Y009801D01*
X013135Y009835D01*
X013107Y009863D01*
X013073Y009883D01*
X013034Y009893D01*
X012750Y009893D01*
X012750Y009438D01*
X012650Y009438D01*
X012650Y009338D01*
X012750Y009338D01*
X012750Y008883D01*
X013034Y008883D01*
X013073Y008894D01*
X013107Y008913D01*
X013135Y008941D01*
X013165Y009036D02*
X013394Y009036D01*
X013394Y009135D02*
X013165Y009135D01*
X013165Y009233D02*
X013394Y009233D01*
X013394Y009332D02*
X013165Y009332D01*
X013165Y009529D02*
X013394Y009529D01*
X013394Y009627D02*
X013165Y009627D01*
X013165Y009726D02*
X013394Y009726D01*
X013430Y009824D02*
X013141Y009824D01*
X012750Y009824D02*
X012650Y009824D01*
X012650Y009893D02*
X012365Y009893D01*
X012327Y009883D01*
X012293Y009863D01*
X012265Y009835D01*
X012245Y009801D01*
X012235Y009763D01*
X012235Y009438D01*
X012650Y009438D01*
X012650Y009893D01*
X012650Y009726D02*
X012750Y009726D01*
X012750Y009627D02*
X012650Y009627D01*
X012650Y009529D02*
X012750Y009529D01*
X012750Y009430D02*
X013394Y009430D01*
X012750Y009332D02*
X012650Y009332D01*
X012650Y009338D02*
X012650Y008883D01*
X012365Y008883D01*
X012327Y008894D01*
X012293Y008913D01*
X012265Y008941D01*
X012245Y008975D01*
X012235Y009014D01*
X012235Y009338D01*
X012650Y009338D01*
X012650Y009430D02*
X011581Y009430D01*
X011581Y009332D02*
X012235Y009332D01*
X012235Y009233D02*
X011413Y009233D01*
X011315Y009135D02*
X012235Y009135D01*
X012235Y009036D02*
X011644Y009036D01*
X011690Y008938D02*
X012268Y008938D01*
X012650Y008938D02*
X012750Y008938D01*
X012750Y009036D02*
X012650Y009036D01*
X012650Y009135D02*
X012750Y009135D01*
X012750Y009233D02*
X012650Y009233D01*
X012235Y009529D02*
X011581Y009529D01*
X011581Y009627D02*
X012235Y009627D01*
X012235Y009726D02*
X011581Y009726D01*
X011581Y009824D02*
X012258Y009824D01*
X010967Y009824D02*
X010912Y009824D01*
X010912Y009726D02*
X010967Y009726D01*
X010967Y009627D02*
X010912Y009627D01*
X010912Y009529D02*
X010967Y009529D01*
X010967Y009430D02*
X010912Y009430D01*
X008958Y009529D02*
X008756Y009529D01*
X008756Y009627D02*
X008958Y009627D01*
X008958Y009726D02*
X008759Y009726D01*
X014577Y007460D02*
X014666Y007460D01*
D25*
X012300Y006478D03*
X010040Y008028D03*
X008340Y008358D03*
X008980Y005958D03*
X012000Y008818D03*
X004680Y005458D03*
D26*
X004410Y006308D02*
X004110Y006308D01*
X004410Y006308D02*
X004720Y006618D01*
X004720Y006798D01*
X004980Y007058D01*
X005200Y007058D01*
X006120Y007058D02*
X006120Y006868D01*
X006320Y006668D01*
X006811Y006668D01*
X006930Y006549D01*
X006958Y006549D01*
X007470Y006038D01*
X007834Y006038D01*
X007840Y006033D01*
X008080Y006293D01*
X008080Y006828D01*
X008080Y007068D01*
X008230Y007228D01*
X008720Y007228D01*
X008810Y007308D01*
X009280Y007308D01*
X009290Y007318D01*
X009310Y007298D01*
X009800Y007298D01*
X009904Y007194D01*
X009904Y006598D01*
X010070Y006018D02*
X010910Y006018D01*
X011374Y006461D01*
X011762Y006008D02*
X011762Y005512D01*
X011758Y005508D01*
X011320Y005508D01*
X011173Y005655D01*
X011000Y005595D01*
X010936Y005658D01*
X010700Y005658D01*
X010474Y005433D01*
X010370Y005443D01*
X010070Y006018D02*
X009654Y005633D01*
X009654Y005528D01*
X008985Y005528D02*
X008985Y005943D01*
X008970Y005958D01*
X008440Y005698D02*
X008555Y005534D01*
X008985Y005528D01*
X008450Y006328D02*
X008450Y006828D01*
X008620Y007448D02*
X008030Y007448D01*
X007710Y007128D01*
X007620Y007218D01*
X007200Y007218D01*
X007710Y007128D02*
X007710Y006828D01*
X008620Y007448D02*
X008770Y007598D01*
X008770Y007738D01*
X008830Y007798D01*
X009270Y007798D01*
X009290Y007818D01*
X009290Y008318D01*
X009270Y008338D01*
X008880Y008338D01*
X008470Y008708D01*
X008100Y008708D01*
X007704Y009064D01*
X007600Y009064D01*
X006904Y009248D02*
X006904Y008618D01*
X006904Y007788D01*
X006914Y007778D01*
X007710Y007778D01*
X007710Y007848D01*
X007720Y007778D01*
X008080Y007848D02*
X007920Y008328D01*
X008340Y008358D02*
X008450Y008248D01*
X008450Y007848D01*
X008720Y008818D02*
X009290Y008818D01*
X009285Y008823D01*
X009285Y009558D01*
X008690Y009928D02*
X010440Y009928D01*
X010580Y009798D01*
X010580Y009594D01*
X010605Y009568D01*
X010690Y009158D02*
X010530Y008998D01*
X010530Y007448D01*
X010650Y007328D01*
X011140Y007328D01*
X011150Y007318D01*
X011150Y006938D01*
X011150Y007318D02*
X011460Y007318D01*
X011630Y007148D01*
X011975Y007148D01*
X011980Y007144D01*
X011980Y007813D02*
X012800Y007813D01*
X013240Y008068D02*
X014080Y008068D01*
X014120Y008028D01*
X014110Y008028D01*
X013980Y008058D01*
X013240Y008068D02*
X012990Y008318D01*
X011150Y008318D01*
X011150Y007818D02*
X011974Y007818D01*
X011980Y007813D01*
X011070Y009158D02*
X010690Y009158D01*
X011070Y009158D02*
X011274Y009363D01*
X011274Y009568D01*
X009290Y008818D02*
X009274Y008834D01*
X008720Y008818D02*
X008474Y009064D01*
X008430Y009064D01*
X008430Y009733D02*
X007600Y009733D01*
X008430Y009733D02*
X008504Y009733D01*
X008690Y009928D01*
X006904Y009248D02*
X006900Y009248D01*
X006235Y008618D02*
X006190Y008663D01*
X005570Y008663D01*
X005040Y007988D02*
X004720Y008308D01*
X004110Y008308D01*
X005040Y007988D02*
X005564Y007988D01*
X005570Y007994D01*
X005200Y006318D02*
X005190Y006308D01*
X004410Y006308D01*
X006014Y005548D02*
X006070Y005434D01*
X006014Y005548D02*
X006120Y005654D01*
X006120Y006318D01*
X010370Y004774D02*
X010579Y004764D01*
X010580Y004764D01*
X011762Y006008D02*
X011790Y006008D01*
D27*
X004484Y004764D02*
X004090Y005158D01*
X004090Y006288D01*
X004110Y006308D01*
X004484Y004764D02*
X010580Y004764D01*
X011762Y004764D01*
X012560Y005138D02*
X012570Y005128D01*
X012930Y005128D01*
X013980Y006178D01*
X013980Y007058D01*
X013980Y008058D02*
X013819Y008318D01*
X013819Y009388D01*
M02*
