G75*
G70*
%OFA0B0*%
%FSLAX24Y24*%
%IPPOS*%
%LPD*%
%AMOC8*
5,1,8,0,0,1.08239X$1,22.5*
%
%ADD10C,0.0970*%
%ADD11C,0.0789*%
%ADD12C,0.0050*%
%ADD13C,0.0476*%
D10*
X003860Y009458D03*
X014170Y005058D03*
D11*
X014334Y007058D02*
X013625Y007058D01*
X013625Y008058D02*
X014334Y008058D01*
X004464Y008308D02*
X003755Y008308D01*
X003755Y007308D02*
X004464Y007308D01*
X004464Y006308D02*
X003755Y006308D01*
D12*
X006195Y006668D02*
X006197Y006690D01*
X006203Y006711D01*
X006212Y006730D01*
X006224Y006748D01*
X006240Y006764D01*
X006257Y006776D01*
X006277Y006785D01*
X006298Y006791D01*
X006320Y006793D01*
X006342Y006791D01*
X006363Y006785D01*
X006382Y006776D01*
X006400Y006764D01*
X006416Y006748D01*
X006428Y006730D01*
X006437Y006711D01*
X006443Y006690D01*
X006445Y006668D01*
X006443Y006646D01*
X006437Y006625D01*
X006428Y006606D01*
X006416Y006588D01*
X006400Y006572D01*
X006383Y006560D01*
X006363Y006551D01*
X006342Y006545D01*
X006320Y006543D01*
X006298Y006545D01*
X006277Y006551D01*
X006257Y006560D01*
X006240Y006572D01*
X006224Y006588D01*
X006212Y006605D01*
X006203Y006625D01*
X006197Y006646D01*
X006195Y006668D01*
X007075Y007218D02*
X007077Y007240D01*
X007083Y007261D01*
X007092Y007280D01*
X007104Y007298D01*
X007120Y007314D01*
X007137Y007326D01*
X007157Y007335D01*
X007178Y007341D01*
X007200Y007343D01*
X007222Y007341D01*
X007243Y007335D01*
X007262Y007326D01*
X007280Y007314D01*
X007296Y007298D01*
X007308Y007280D01*
X007317Y007261D01*
X007323Y007240D01*
X007325Y007218D01*
X007323Y007196D01*
X007317Y007175D01*
X007308Y007156D01*
X007296Y007138D01*
X007280Y007122D01*
X007263Y007110D01*
X007243Y007101D01*
X007222Y007095D01*
X007200Y007093D01*
X007178Y007095D01*
X007157Y007101D01*
X007137Y007110D01*
X007120Y007122D01*
X007104Y007138D01*
X007092Y007155D01*
X007083Y007175D01*
X007077Y007196D01*
X007075Y007218D01*
X008325Y006328D02*
X008327Y006350D01*
X008333Y006371D01*
X008342Y006390D01*
X008354Y006408D01*
X008370Y006424D01*
X008387Y006436D01*
X008407Y006445D01*
X008428Y006451D01*
X008450Y006453D01*
X008472Y006451D01*
X008493Y006445D01*
X008512Y006436D01*
X008530Y006424D01*
X008546Y006408D01*
X008558Y006390D01*
X008567Y006371D01*
X008573Y006350D01*
X008575Y006328D01*
X008573Y006306D01*
X008567Y006285D01*
X008558Y006266D01*
X008546Y006248D01*
X008530Y006232D01*
X008513Y006220D01*
X008493Y006211D01*
X008472Y006205D01*
X008450Y006203D01*
X008428Y006205D01*
X008407Y006211D01*
X008387Y006220D01*
X008370Y006232D01*
X008354Y006248D01*
X008342Y006265D01*
X008333Y006285D01*
X008327Y006306D01*
X008325Y006328D01*
X008315Y005698D02*
X008317Y005720D01*
X008323Y005741D01*
X008332Y005760D01*
X008344Y005778D01*
X008360Y005794D01*
X008377Y005806D01*
X008397Y005815D01*
X008418Y005821D01*
X008440Y005823D01*
X008462Y005821D01*
X008483Y005815D01*
X008502Y005806D01*
X008520Y005794D01*
X008536Y005778D01*
X008548Y005760D01*
X008557Y005741D01*
X008563Y005720D01*
X008565Y005698D01*
X008563Y005676D01*
X008557Y005655D01*
X008548Y005636D01*
X008536Y005618D01*
X008520Y005602D01*
X008503Y005590D01*
X008483Y005581D01*
X008462Y005575D01*
X008440Y005573D01*
X008418Y005575D01*
X008397Y005581D01*
X008377Y005590D01*
X008360Y005602D01*
X008344Y005618D01*
X008332Y005635D01*
X008323Y005655D01*
X008317Y005676D01*
X008315Y005698D01*
X011025Y006938D02*
X011027Y006960D01*
X011033Y006981D01*
X011042Y007000D01*
X011054Y007018D01*
X011070Y007034D01*
X011087Y007046D01*
X011107Y007055D01*
X011128Y007061D01*
X011150Y007063D01*
X011172Y007061D01*
X011193Y007055D01*
X011212Y007046D01*
X011230Y007034D01*
X011246Y007018D01*
X011258Y007000D01*
X011267Y006981D01*
X011273Y006960D01*
X011275Y006938D01*
X011273Y006916D01*
X011267Y006895D01*
X011258Y006876D01*
X011246Y006858D01*
X011230Y006842D01*
X011213Y006830D01*
X011193Y006821D01*
X011172Y006815D01*
X011150Y006813D01*
X011128Y006815D01*
X011107Y006821D01*
X011087Y006830D01*
X011070Y006842D01*
X011054Y006858D01*
X011042Y006875D01*
X011033Y006895D01*
X011027Y006916D01*
X011025Y006938D01*
X011665Y006008D02*
X011667Y006030D01*
X011673Y006051D01*
X011682Y006070D01*
X011694Y006088D01*
X011710Y006104D01*
X011727Y006116D01*
X011747Y006125D01*
X011768Y006131D01*
X011790Y006133D01*
X011812Y006131D01*
X011833Y006125D01*
X011852Y006116D01*
X011870Y006104D01*
X011886Y006088D01*
X011898Y006070D01*
X011907Y006051D01*
X011913Y006030D01*
X011915Y006008D01*
X011913Y005986D01*
X011907Y005965D01*
X011898Y005946D01*
X011886Y005928D01*
X011870Y005912D01*
X011853Y005900D01*
X011833Y005891D01*
X011812Y005885D01*
X011790Y005883D01*
X011768Y005885D01*
X011747Y005891D01*
X011727Y005900D01*
X011710Y005912D01*
X011694Y005928D01*
X011682Y005945D01*
X011673Y005965D01*
X011667Y005986D01*
X011665Y006008D01*
X006775Y009248D02*
X006777Y009270D01*
X006783Y009291D01*
X006792Y009310D01*
X006804Y009328D01*
X006820Y009344D01*
X006837Y009356D01*
X006857Y009365D01*
X006878Y009371D01*
X006900Y009373D01*
X006922Y009371D01*
X006943Y009365D01*
X006962Y009356D01*
X006980Y009344D01*
X006996Y009328D01*
X007008Y009310D01*
X007017Y009291D01*
X007023Y009270D01*
X007025Y009248D01*
X007023Y009226D01*
X007017Y009205D01*
X007008Y009186D01*
X006996Y009168D01*
X006980Y009152D01*
X006963Y009140D01*
X006943Y009131D01*
X006922Y009125D01*
X006900Y009123D01*
X006878Y009125D01*
X006857Y009131D01*
X006837Y009140D01*
X006820Y009152D01*
X006804Y009168D01*
X006792Y009185D01*
X006783Y009205D01*
X006777Y009226D01*
X006775Y009248D01*
X004965Y009348D02*
X004967Y009370D01*
X004973Y009391D01*
X004982Y009410D01*
X004994Y009428D01*
X005010Y009444D01*
X005027Y009456D01*
X005047Y009465D01*
X005068Y009471D01*
X005090Y009473D01*
X005112Y009471D01*
X005133Y009465D01*
X005152Y009456D01*
X005170Y009444D01*
X005186Y009428D01*
X005198Y009410D01*
X005207Y009391D01*
X005213Y009370D01*
X005215Y009348D01*
X005213Y009326D01*
X005207Y009305D01*
X005198Y009286D01*
X005186Y009268D01*
X005170Y009252D01*
X005153Y009240D01*
X005133Y009231D01*
X005112Y009225D01*
X005090Y009223D01*
X005068Y009225D01*
X005047Y009231D01*
X005027Y009240D01*
X005010Y009252D01*
X004994Y009268D01*
X004982Y009285D01*
X004973Y009305D01*
X004967Y009326D01*
X004965Y009348D01*
D13*
X004680Y005458D03*
X008980Y005958D03*
X010040Y008028D03*
X008340Y008358D03*
X012000Y008818D03*
X012300Y006478D03*
M02*
