  0
SECTION
  2
HEADER
  9
$ACADVER
  1
AC1009
  9
$FILLMODE
 70
1
  9
$EXTMIN
 10
-0.105000
 20
-0.919829
 30
0.000000
  9
$EXTMAX
 10
2.275829
 20
1.954435
 30
0.000000
  0
ENDSEC
  0
SECTION
  2
TABLES
  0
TABLE
  2
LTYPE
 70
1
  0
LTYPE
  2
CONTINUOUS
 70
64
  3
Solid line
 72
65
 73
0
 40
0
  0
ENDTAB
  0
TABLE
  2
LAYER
 70
255
  0
LAYER
  2
20
 70
64
 62
178
  6
CONTINUOUS
  0
ENDTAB
  0
ENDSEC
  0
SECTION
  2
BLOCKS
  0
BLOCK
  8
0
  2
RECT
 70
64
 10
0.000000
 20
0.000000
 30
0.000000
  3
RECT
  0
SOLID
  8
0
 10
-0.500000
 20
-0.500000
 30
0.000000
 11
0.500000
 21
-0.500000
 31
0.000000
 12
-0.500000
 22
0.500000
 32
0.000000
 13
0.500000
 23
0.500000
 33
0.000000
  0
ENDBLK
  8
0
  0
BLOCK
  8
0
  2
PIE
 70
64
 10
0.000000
 20
0.000000
 30
0.000000
  3
PIE
  0
POLYLINE
  8
0
 66
1
 10
0.000000
 20
0.000000
 30
0.000000
 40
0.500000
 41
0.500000
 70
0
  0
VERTEX
  8
0
 10
0.000000
 20
-0.250000
 30
0.000000
 42
1.000000
  0
VERTEX
  8
0
 10
0.000000
 20
0.250000
 30
0.000000
 42
1.000000
  0
VERTEX
  8
0
 10
0.000000
 20
-0.250000
 30
0.000000
  0
SEQEND
  8
0
  0
ENDBLK
  8
0
  0
BLOCK
  8
0
  2
OCTAGONP
 70
64
 10
0.000000
 20
0.000000
 30
0.000000
  3
OCTAGONP
  0
POLYLINE
  8
0
 66
1
 10
0.000000
 20
0.000000
 30
0.000000
 40
0.500000
 41
0.500000
 70
0
  0
VERTEX
  8
0
 10
-0.250000
 20
-0.103553
 30
0.000000
  0
VERTEX
  8
0
 10
-0.250000
 20
0.103553
 30
0.000000
  0
VERTEX
  8
0
 10
-0.103553
 20
0.250000
 30
0.000000
  0
VERTEX
  8
0
 10
0.103553
 20
0.250000
 30
0.000000
  0
VERTEX
  8
0
 10
0.250000
 20
0.103553
 30
0.000000
  0
VERTEX
  8
0
 10
0.250000
 20
-0.103553
 30
0.000000
  0
VERTEX
  8
0
 10
0.103553
 20
-0.250000
 30
0.000000
  0
VERTEX
  8
0
 10
-0.103553
 20
-0.250000
 30
0.000000
  0
VERTEX
  8
0
 10
-0.250000
 20
-0.103553
 30
0.000000
  0
VERTEX
  8
0
 10
-0.250000
 20
0.103553
 30
0.000000
  0
SEQEND
  8
0
  0
ENDBLK
  8
0
  0
BLOCK
  8
0
  2
SQUAREP
 70
64
 10
0.000000
 20
0.000000
 30
0.000000
  3
SQUAREP
  0
SOLID
  8
0
 10
-0.500000
 20
-0.500000
 30
0.000000
 11
0.500000
 21
-0.500000
 31
0.000000
 12
-0.500000
 22
0.500000
 32
0.000000
 13
0.500000
 23
0.500000
 33
0.000000
  0
ENDBLK
  8
0
  0
BLOCK
  8
0
  2
ROUNDP
 70
64
 10
0.000000
 20
0.000000
 30
0.000000
  3
ROUNDP
  0
POLYLINE
  8
0
 66
1
 10
0.000000
 20
0.000000
 30
0.000000
 40
0.500000
 41
0.500000
 70
0
  0
VERTEX
  8
0
 10
0.000000
 20
-0.250000
 30
0.000000
 42
1.000000
  0
VERTEX
  8
0
 10
0.000000
 20
0.250000
 30
0.000000
 42
1.000000
  0
VERTEX
  8
0
 10
0.000000
 20
-0.250000
 30
0.000000
  0
SEQEND
  8
0
  0
ENDBLK
  8
0
  0
BLOCK
  8
0
  2
ANNULUSP
 70
64
 10
0.000000
 20
0.000000
 30
0.000000
  3
ANNULUSP
  0
POLYLINE
  8
0
 66
1
 10
0.000000
 20
0.000000
 30
0.000000
 40
0.500000
 41
0.500000
 70
0
  0
VERTEX
  8
0
 10
0.000000
 20
-0.250000
 30
0.000000
 42
1.000000
  0
VERTEX
  8
0
 10
0.000000
 20
0.250000
 30
0.000000
 42
1.000000
  0
VERTEX
  8
0
 10
0.000000
 20
-0.250000
 30
0.000000
  0
SEQEND
  8
0
  0
ENDBLK
  8
0
  0
BLOCK
  8
0
  2
THERMALP
 70
64
 10
0.000000
 20
0.000000
 30
0.000000
  3
THERMALP
  0
POLYLINE
  8
0
 66
1
 10
0.000000
 20
0.000000
 30
0.000000
 40
0.100000
 41
0.100000
 70
0
  0
VERTEX
  8
0
 10
-0.237868
 20
0.450000
 30
0.000000
  0
VERTEX
  8
0
 10
0.237868
 20
0.450000
 30
0.000000
  0
SEQEND
  8
0
  0
POLYLINE
  8
0
 66
1
 10
0.000000
 20
0.000000
 30
0.000000
 40
0.050000
 41
0.050000
 70
0
  0
VERTEX
  8
0
 10
0.237868
 20
0.425000
 30
0.000000
 42
1.000000
  0
VERTEX
  8
0
 10
0.237868
 20
0.475000
 30
0.000000
  0
SEQEND
  8
0
  0
POLYLINE
  8
0
 66
1
 10
0.000000
 20
0.000000
 30
0.000000
 40
0.050000
 41
0.050000
 70
0
  0
VERTEX
  8
0
 10
-0.237868
 20
0.475000
 30
0.000000
 42
1.000000
  0
VERTEX
  8
0
 10
-0.237868
 20
0.425000
 30
0.000000
  0
SEQEND
  8
0
  0
POLYLINE
  8
0
 66
1
 10
0.000000
 20
0.000000
 30
0.000000
 40
0.100000
 41
0.100000
 70
0
  0
VERTEX
  8
0
 10
0.450000
 20
0.237868
 30
0.000000
  0
VERTEX
  8
0
 10
0.450000
 20
-0.237868
 30
0.000000
  0
SEQEND
  8
0
  0
POLYLINE
  8
0
 66
1
 10
0.000000
 20
0.000000
 30
0.000000
 40
0.050000
 41
0.050000
 70
0
  0
VERTEX
  8
0
 10
0.425000
 20
-0.237868
 30
0.000000
 42
1.000000
  0
VERTEX
  8
0
 10
0.475000
 20
-0.237868
 30
0.000000
  0
SEQEND
  8
0
  0
POLYLINE
  8
0
 66
1
 10
0.000000
 20
0.000000
 30
0.000000
 40
0.050000
 41
0.050000
 70
0
  0
VERTEX
  8
0
 10
0.475000
 20
0.237868
 30
0.000000
 42
1.000000
  0
VERTEX
  8
0
 10
0.425000
 20
0.237868
 30
0.000000
  0
SEQEND
  8
0
  0
POLYLINE
  8
0
 66
1
 10
0.000000
 20
0.000000
 30
0.000000
 40
0.100000
 41
0.100000
 70
0
  0
VERTEX
  8
0
 10
0.237868
 20
-0.450000
 30
0.000000
  0
VERTEX
  8
0
 10
-0.237868
 20
-0.450000
 30
0.000000
  0
SEQEND
  8
0
  0
POLYLINE
  8
0
 66
1
 10
0.000000
 20
0.000000
 30
0.000000
 40
0.050000
 41
0.050000
 70
0
  0
VERTEX
  8
0
 10
-0.237868
 20
-0.425000
 30
0.000000
 42
1.000000
  0
VERTEX
  8
0
 10
-0.237868
 20
-0.475000
 30
0.000000
  0
SEQEND
  8
0
  0
POLYLINE
  8
0
 66
1
 10
0.000000
 20
0.000000
 30
0.000000
 40
0.050000
 41
0.050000
 70
0
  0
VERTEX
  8
0
 10
0.237868
 20
-0.475000
 30
0.000000
 42
1.000000
  0
VERTEX
  8
0
 10
0.237868
 20
-0.425000
 30
0.000000
  0
SEQEND
  8
0
  0
POLYLINE
  8
0
 66
1
 10
0.000000
 20
0.000000
 30
0.000000
 40
0.100000
 41
0.100000
 70
0
  0
VERTEX
  8
0
 10
-0.450000
 20
-0.237868
 30
0.000000
  0
VERTEX
  8
0
 10
-0.450000
 20
0.237868
 30
0.000000
  0
SEQEND
  8
0
  0
POLYLINE
  8
0
 66
1
 10
0.000000
 20
0.000000
 30
0.000000
 40
0.050000
 41
0.050000
 70
0
  0
VERTEX
  8
0
 10
-0.425000
 20
0.237868
 30
0.000000
 42
1.000000
  0
VERTEX
  8
0
 10
-0.475000
 20
0.237868
 30
0.000000
  0
SEQEND
  8
0
  0
POLYLINE
  8
0
 66
1
 10
0.000000
 20
0.000000
 30
0.000000
 40
0.050000
 41
0.050000
 70
0
  0
VERTEX
  8
0
 10
-0.475000
 20
-0.237868
 30
0.000000
 42
1.000000
  0
VERTEX
  8
0
 10
-0.425000
 20
-0.237868
 30
0.000000
  0
SEQEND
  8
0
  0
ENDBLK
  8
0
  0
BLOCK
  8
0
  2
OCTAGONV
 70
64
 10
0.000000
 20
0.000000
 30
0.000000
  3
OCTAGONV
  0
POLYLINE
  8
0
 66
1
 10
0.000000
 20
0.000000
 30
0.000000
 40
0.500000
 41
0.500000
 70
0
  0
VERTEX
  8
0
 10
-0.250000
 20
-0.103553
 30
0.000000
  0
VERTEX
  8
0
 10
-0.250000
 20
0.103553
 30
0.000000
  0
VERTEX
  8
0
 10
-0.103553
 20
0.250000
 30
0.000000
  0
VERTEX
  8
0
 10
0.103553
 20
0.250000
 30
0.000000
  0
VERTEX
  8
0
 10
0.250000
 20
0.103553
 30
0.000000
  0
VERTEX
  8
0
 10
0.250000
 20
-0.103553
 30
0.000000
  0
VERTEX
  8
0
 10
0.103553
 20
-0.250000
 30
0.000000
  0
VERTEX
  8
0
 10
-0.103553
 20
-0.250000
 30
0.000000
  0
VERTEX
  8
0
 10
-0.250000
 20
-0.103553
 30
0.000000
  0
VERTEX
  8
0
 10
-0.250000
 20
0.103553
 30
0.000000
  0
SEQEND
  8
0
  0
ENDBLK
  8
0
  0
BLOCK
  8
0
  2
SQUAREV
 70
64
 10
0.000000
 20
0.000000
 30
0.000000
  3
SQUAREV
  0
SOLID
  8
0
 10
-0.500000
 20
-0.500000
 30
0.000000
 11
0.500000
 21
-0.500000
 31
0.000000
 12
-0.500000
 22
0.500000
 32
0.000000
 13
0.500000
 23
0.500000
 33
0.000000
  0
ENDBLK
  8
0
  0
BLOCK
  8
0
  2
ROUNDV
 70
64
 10
0.000000
 20
0.000000
 30
0.000000
  3
ROUNDV
  0
POLYLINE
  8
0
 66
1
 10
0.000000
 20
0.000000
 30
0.000000
 40
0.500000
 41
0.500000
 70
0
  0
VERTEX
  8
0
 10
0.000000
 20
-0.250000
 30
0.000000
 42
1.000000
  0
VERTEX
  8
0
 10
0.000000
 20
0.250000
 30
0.000000
 42
1.000000
  0
VERTEX
  8
0
 10
0.000000
 20
-0.250000
 30
0.000000
  0
SEQEND
  8
0
  0
ENDBLK
  8
0
  0
BLOCK
  8
0
  2
ANNULUSV
 70
64
 10
0.000000
 20
0.000000
 30
0.000000
  3
ANNULUSV
  0
POLYLINE
  8
0
 66
1
 10
0.000000
 20
0.000000
 30
0.000000
 40
0.500000
 41
0.500000
 70
0
  0
VERTEX
  8
0
 10
0.000000
 20
-0.250000
 30
0.000000
 42
1.000000
  0
VERTEX
  8
0
 10
0.000000
 20
0.250000
 30
0.000000
 42
1.000000
  0
VERTEX
  8
0
 10
0.000000
 20
-0.250000
 30
0.000000
  0
SEQEND
  8
0
  0
ENDBLK
  8
0
  0
BLOCK
  8
0
  2
THERMALV
 70
64
 10
0.000000
 20
0.000000
 30
0.000000
  3
THERMALV
  0
POLYLINE
  8
0
 66
1
 10
0.000000
 20
0.000000
 30
0.000000
 40
0.100000
 41
0.100000
 70
0
  0
VERTEX
  8
0
 10
-0.237868
 20
0.450000
 30
0.000000
  0
VERTEX
  8
0
 10
0.237868
 20
0.450000
 30
0.000000
  0
SEQEND
  8
0
  0
POLYLINE
  8
0
 66
1
 10
0.000000
 20
0.000000
 30
0.000000
 40
0.050000
 41
0.050000
 70
0
  0
VERTEX
  8
0
 10
0.237868
 20
0.425000
 30
0.000000
 42
1.000000
  0
VERTEX
  8
0
 10
0.237868
 20
0.475000
 30
0.000000
  0
SEQEND
  8
0
  0
POLYLINE
  8
0
 66
1
 10
0.000000
 20
0.000000
 30
0.000000
 40
0.050000
 41
0.050000
 70
0
  0
VERTEX
  8
0
 10
-0.237868
 20
0.475000
 30
0.000000
 42
1.000000
  0
VERTEX
  8
0
 10
-0.237868
 20
0.425000
 30
0.000000
  0
SEQEND
  8
0
  0
POLYLINE
  8
0
 66
1
 10
0.000000
 20
0.000000
 30
0.000000
 40
0.100000
 41
0.100000
 70
0
  0
VERTEX
  8
0
 10
0.450000
 20
0.237868
 30
0.000000
  0
VERTEX
  8
0
 10
0.450000
 20
-0.237868
 30
0.000000
  0
SEQEND
  8
0
  0
POLYLINE
  8
0
 66
1
 10
0.000000
 20
0.000000
 30
0.000000
 40
0.050000
 41
0.050000
 70
0
  0
VERTEX
  8
0
 10
0.425000
 20
-0.237868
 30
0.000000
 42
1.000000
  0
VERTEX
  8
0
 10
0.475000
 20
-0.237868
 30
0.000000
  0
SEQEND
  8
0
  0
POLYLINE
  8
0
 66
1
 10
0.000000
 20
0.000000
 30
0.000000
 40
0.050000
 41
0.050000
 70
0
  0
VERTEX
  8
0
 10
0.475000
 20
0.237868
 30
0.000000
 42
1.000000
  0
VERTEX
  8
0
 10
0.425000
 20
0.237868
 30
0.000000
  0
SEQEND
  8
0
  0
POLYLINE
  8
0
 66
1
 10
0.000000
 20
0.000000
 30
0.000000
 40
0.100000
 41
0.100000
 70
0
  0
VERTEX
  8
0
 10
0.237868
 20
-0.450000
 30
0.000000
  0
VERTEX
  8
0
 10
-0.237868
 20
-0.450000
 30
0.000000
  0
SEQEND
  8
0
  0
POLYLINE
  8
0
 66
1
 10
0.000000
 20
0.000000
 30
0.000000
 40
0.050000
 41
0.050000
 70
0
  0
VERTEX
  8
0
 10
-0.237868
 20
-0.425000
 30
0.000000
 42
1.000000
  0
VERTEX
  8
0
 10
-0.237868
 20
-0.475000
 30
0.000000
  0
SEQEND
  8
0
  0
POLYLINE
  8
0
 66
1
 10
0.000000
 20
0.000000
 30
0.000000
 40
0.050000
 41
0.050000
 70
0
  0
VERTEX
  8
0
 10
0.237868
 20
-0.475000
 30
0.000000
 42
1.000000
  0
VERTEX
  8
0
 10
0.237868
 20
-0.425000
 30
0.000000
  0
SEQEND
  8
0
  0
POLYLINE
  8
0
 66
1
 10
0.000000
 20
0.000000
 30
0.000000
 40
0.100000
 41
0.100000
 70
0
  0
VERTEX
  8
0
 10
-0.450000
 20
-0.237868
 30
0.000000
  0
VERTEX
  8
0
 10
-0.450000
 20
0.237868
 30
0.000000
  0
SEQEND
  8
0
  0
POLYLINE
  8
0
 66
1
 10
0.000000
 20
0.000000
 30
0.000000
 40
0.050000
 41
0.050000
 70
0
  0
VERTEX
  8
0
 10
-0.425000
 20
0.237868
 30
0.000000
 42
1.000000
  0
VERTEX
  8
0
 10
-0.475000
 20
0.237868
 30
0.000000
  0
SEQEND
  8
0
  0
POLYLINE
  8
0
 66
1
 10
0.000000
 20
0.000000
 30
0.000000
 40
0.050000
 41
0.050000
 70
0
  0
VERTEX
  8
0
 10
-0.475000
 20
-0.237868
 30
0.000000
 42
1.000000
  0
VERTEX
  8
0
 10
-0.425000
 20
-0.237868
 30
0.000000
  0
SEQEND
  8
0
  0
ENDBLK
  8
0
  0
BLOCK
  8
0
  2
LONGP100
 70
64
 10
0.000000
 20
0.000000
 30
0.000000
  3
LONGP100
  0
POLYLINE
  8
0
 66
1
 10
0.000000
 20
0.000000
 30
0.000000
 40
1.000000
 41
1.000000
 70
0
  0
VERTEX
  8
0
 10
-0.500000
 20
0.000000
 30
0.000000
  0
VERTEX
  8
0
 10
0.500000
 20
0.000000
 30
0.000000
  0
SEQEND
  8
0
  0
POLYLINE
  8
0
 66
1
 10
0.000000
 20
0.000000
 30
0.000000
 40
0.500000
 41
0.500000
 70
0
  0
VERTEX
  8
0
 10
0.500000
 20
-0.250000
 30
0.000000
 42
1.000000
  0
VERTEX
  8
0
 10
0.500000
 20
0.250000
 30
0.000000
  0
SEQEND
  8
0
  0
POLYLINE
  8
0
 66
1
 10
0.000000
 20
0.000000
 30
0.000000
 40
0.500000
 41
0.500000
 70
0
  0
VERTEX
  8
0
 10
-0.500000
 20
0.250000
 30
0.000000
 42
1.000000
  0
VERTEX
  8
0
 10
-0.500000
 20
-0.250000
 30
0.000000
  0
SEQEND
  8
0
  0
ENDBLK
  8
0
  0
ENDSEC
  0
SECTION
  2
ENTITIES
  0
POLYLINE
  8
20
 66
1
 10
0.000000
 20
0.000000
 30
0.000000
 40
0.001000
 41
0.001000
 70
0
  0
VERTEX
  8
20
 10
0.000000
 20
0.000000
 30
0.000000
  0
VERTEX
  8
20
 10
1.181102
 20
0.000000
 30
0.000000
  0
SEQEND
  8
0
  0
POLYLINE
  8
20
 66
1
 10
0.000000
 20
0.000000
 30
0.000000
 40
0.000500
 41
0.000500
 70
0
  0
VERTEX
  8
20
 10
1.181102
 20
-0.000250
 30
0.000000
 42
1.000000
  0
VERTEX
  8
20
 10
1.181102
 20
0.000250
 30
0.000000
  0
SEQEND
  8
0
  0
POLYLINE
  8
20
 66
1
 10
0.000000
 20
0.000000
 30
0.000000
 40
0.000500
 41
0.000500
 70
0
  0
VERTEX
  8
20
 10
0.000000
 20
0.000250
 30
0.000000
 42
1.000000
  0
VERTEX
  8
20
 10
0.000000
 20
-0.000250
 30
0.000000
  0
SEQEND
  8
0
  0
POLYLINE
  8
20
 66
1
 10
0.000000
 20
0.000000
 30
0.000000
 40
0.001000
 41
0.001000
 70
0
  0
VERTEX
  8
20
 10
1.181102
 20
0.000000
 30
0.000000
  0
VERTEX
  8
20
 10
1.181102
 20
0.590551
 30
0.000000
  0
SEQEND
  8
0
  0
POLYLINE
  8
20
 66
1
 10
0.000000
 20
0.000000
 30
0.000000
 40
0.000500
 41
0.000500
 70
0
  0
VERTEX
  8
20
 10
1.181352
 20
0.590551
 30
0.000000
 42
1.000000
  0
VERTEX
  8
20
 10
1.180852
 20
0.590551
 30
0.000000
  0
SEQEND
  8
0
  0
POLYLINE
  8
20
 66
1
 10
0.000000
 20
0.000000
 30
0.000000
 40
0.000500
 41
0.000500
 70
0
  0
VERTEX
  8
20
 10
1.180852
 20
0.000000
 30
0.000000
 42
1.000000
  0
VERTEX
  8
20
 10
1.181352
 20
0.000000
 30
0.000000
  0
SEQEND
  8
0
  0
POLYLINE
  8
20
 66
1
 10
0.000000
 20
0.000000
 30
0.000000
 40
0.001000
 41
0.001000
 70
0
  0
VERTEX
  8
20
 10
1.181102
 20
0.590551
 30
0.000000
  0
VERTEX
  8
20
 10
0.000000
 20
0.590551
 30
0.000000
  0
SEQEND
  8
0
  0
POLYLINE
  8
20
 66
1
 10
0.000000
 20
0.000000
 30
0.000000
 40
0.000500
 41
0.000500
 70
0
  0
VERTEX
  8
20
 10
0.000000
 20
0.590801
 30
0.000000
 42
1.000000
  0
VERTEX
  8
20
 10
0.000000
 20
0.590301
 30
0.000000
  0
SEQEND
  8
0
  0
POLYLINE
  8
20
 66
1
 10
0.000000
 20
0.000000
 30
0.000000
 40
0.000500
 41
0.000500
 70
0
  0
VERTEX
  8
20
 10
1.181102
 20
0.590301
 30
0.000000
 42
1.000000
  0
VERTEX
  8
20
 10
1.181102
 20
0.590801
 30
0.000000
  0
SEQEND
  8
0
  0
POLYLINE
  8
20
 66
1
 10
0.000000
 20
0.000000
 30
0.000000
 40
0.001000
 41
0.001000
 70
0
  0
VERTEX
  8
20
 10
0.000000
 20
0.590551
 30
0.000000
  0
VERTEX
  8
20
 10
0.000000
 20
0.000000
 30
0.000000
  0
SEQEND
  8
0
  0
POLYLINE
  8
20
 66
1
 10
0.000000
 20
0.000000
 30
0.000000
 40
0.000500
 41
0.000500
 70
0
  0
VERTEX
  8
20
 10
-0.000250
 20
0.000000
 30
0.000000
 42
1.000000
  0
VERTEX
  8
20
 10
0.000250
 20
0.000000
 30
0.000000
  0
SEQEND
  8
0
  0
POLYLINE
  8
20
 66
1
 10
0.000000
 20
0.000000
 30
0.000000
 40
0.000500
 41
0.000500
 70
0
  0
VERTEX
  8
20
 10
0.000250
 20
0.590551
 30
0.000000
 42
1.000000
  0
VERTEX
  8
20
 10
-0.000250
 20
0.590551
 30
0.000000
  0
SEQEND
  8
0
  0
POLYLINE
  8
20
 66
1
 10
0.000000
 20
0.000000
 30
0.000000
 40
0.001000
 41
0.001000
 70
0
  0
VERTEX
  8
20
 10
0.006000
 20
0.631000
 30
0.000000
  0
VERTEX
  8
20
 10
1.187102
 20
0.631000
 30
0.000000
  0
SEQEND
  8
0
  0
POLYLINE
  8
20
 66
1
 10
0.000000
 20
0.000000
 30
0.000000
 40
0.000500
 41
0.000500
 70
0
  0
VERTEX
  8
20
 10
1.187102
 20
0.630750
 30
0.000000
 42
1.000000
  0
VERTEX
  8
20
 10
1.187102
 20
0.631250
 30
0.000000
  0
SEQEND
  8
0
  0
POLYLINE
  8
20
 66
1
 10
0.000000
 20
0.000000
 30
0.000000
 40
0.000500
 41
0.000500
 70
0
  0
VERTEX
  8
20
 10
0.006000
 20
0.631250
 30
0.000000
 42
1.000000
  0
VERTEX
  8
20
 10
0.006000
 20
0.630750
 30
0.000000
  0
SEQEND
  8
0
  0
POLYLINE
  8
20
 66
1
 10
0.000000
 20
0.000000
 30
0.000000
 40
0.001000
 41
0.001000
 70
0
  0
VERTEX
  8
20
 10
1.187102
 20
0.631000
 30
0.000000
  0
VERTEX
  8
20
 10
1.187102
 20
1.221551
 30
0.000000
  0
SEQEND
  8
0
  0
POLYLINE
  8
20
 66
1
 10
0.000000
 20
0.000000
 30
0.000000
 40
0.000500
 41
0.000500
 70
0
  0
VERTEX
  8
20
 10
1.187352
 20
1.221551
 30
0.000000
 42
1.000000
  0
VERTEX
  8
20
 10
1.186852
 20
1.221551
 30
0.000000
  0
SEQEND
  8
0
  0
POLYLINE
  8
20
 66
1
 10
0.000000
 20
0.000000
 30
0.000000
 40
0.000500
 41
0.000500
 70
0
  0
VERTEX
  8
20
 10
1.186852
 20
0.631000
 30
0.000000
 42
1.000000
  0
VERTEX
  8
20
 10
1.187352
 20
0.631000
 30
0.000000
  0
SEQEND
  8
0
  0
POLYLINE
  8
20
 66
1
 10
0.000000
 20
0.000000
 30
0.000000
 40
0.001000
 41
0.001000
 70
0
  0
VERTEX
  8
20
 10
1.187102
 20
1.221551
 30
0.000000
  0
VERTEX
  8
20
 10
0.006000
 20
1.221551
 30
0.000000
  0
SEQEND
  8
0
  0
POLYLINE
  8
20
 66
1
 10
0.000000
 20
0.000000
 30
0.000000
 40
0.000500
 41
0.000500
 70
0
  0
VERTEX
  8
20
 10
0.006000
 20
1.221801
 30
0.000000
 42
1.000000
  0
VERTEX
  8
20
 10
0.006000
 20
1.221301
 30
0.000000
  0
SEQEND
  8
0
  0
POLYLINE
  8
20
 66
1
 10
0.000000
 20
0.000000
 30
0.000000
 40
0.000500
 41
0.000500
 70
0
  0
VERTEX
  8
20
 10
1.187102
 20
1.221301
 30
0.000000
 42
1.000000
  0
VERTEX
  8
20
 10
1.187102
 20
1.221801
 30
0.000000
  0
SEQEND
  8
0
  0
POLYLINE
  8
20
 66
1
 10
0.000000
 20
0.000000
 30
0.000000
 40
0.001000
 41
0.001000
 70
0
  0
VERTEX
  8
20
 10
0.006000
 20
1.221551
 30
0.000000
  0
VERTEX
  8
20
 10
0.006000
 20
0.631000
 30
0.000000
  0
SEQEND
  8
0
  0
POLYLINE
  8
20
 66
1
 10
0.000000
 20
0.000000
 30
0.000000
 40
0.000500
 41
0.000500
 70
0
  0
VERTEX
  8
20
 10
0.005750
 20
0.631000
 30
0.000000
 42
1.000000
  0
VERTEX
  8
20
 10
0.006250
 20
0.631000
 30
0.000000
  0
SEQEND
  8
0
  0
POLYLINE
  8
20
 66
1
 10
0.000000
 20
0.000000
 30
0.000000
 40
0.000500
 41
0.000500
 70
0
  0
VERTEX
  8
20
 10
0.006250
 20
1.221551
 30
0.000000
 42
1.000000
  0
VERTEX
  8
20
 10
0.005750
 20
1.221551
 30
0.000000
  0
SEQEND
  8
0
  0
POLYLINE
  8
20
 66
1
 10
0.000000
 20
0.000000
 30
0.000000
 40
0.001000
 41
0.001000
 70
0
  0
VERTEX
  8
20
 10
0.000000
 20
1.275000
 30
0.000000
  0
VERTEX
  8
20
 10
1.181102
 20
1.275000
 30
0.000000
  0
SEQEND
  8
0
  0
POLYLINE
  8
20
 66
1
 10
0.000000
 20
0.000000
 30
0.000000
 40
0.000500
 41
0.000500
 70
0
  0
VERTEX
  8
20
 10
1.181102
 20
1.274750
 30
0.000000
 42
1.000000
  0
VERTEX
  8
20
 10
1.181102
 20
1.275250
 30
0.000000
  0
SEQEND
  8
0
  0
POLYLINE
  8
20
 66
1
 10
0.000000
 20
0.000000
 30
0.000000
 40
0.000500
 41
0.000500
 70
0
  0
VERTEX
  8
20
 10
0.000000
 20
1.275250
 30
0.000000
 42
1.000000
  0
VERTEX
  8
20
 10
0.000000
 20
1.274750
 30
0.000000
  0
SEQEND
  8
0
  0
POLYLINE
  8
20
 66
1
 10
0.000000
 20
0.000000
 30
0.000000
 40
0.001000
 41
0.001000
 70
0
  0
VERTEX
  8
20
 10
1.181102
 20
1.275000
 30
0.000000
  0
VERTEX
  8
20
 10
1.181102
 20
1.865551
 30
0.000000
  0
SEQEND
  8
0
  0
POLYLINE
  8
20
 66
1
 10
0.000000
 20
0.000000
 30
0.000000
 40
0.000500
 41
0.000500
 70
0
  0
VERTEX
  8
20
 10
1.181352
 20
1.865551
 30
0.000000
 42
1.000000
  0
VERTEX
  8
20
 10
1.180852
 20
1.865551
 30
0.000000
  0
SEQEND
  8
0
  0
POLYLINE
  8
20
 66
1
 10
0.000000
 20
0.000000
 30
0.000000
 40
0.000500
 41
0.000500
 70
0
  0
VERTEX
  8
20
 10
1.180852
 20
1.275000
 30
0.000000
 42
1.000000
  0
VERTEX
  8
20
 10
1.181352
 20
1.275000
 30
0.000000
  0
SEQEND
  8
0
  0
POLYLINE
  8
20
 66
1
 10
0.000000
 20
0.000000
 30
0.000000
 40
0.001000
 41
0.001000
 70
0
  0
VERTEX
  8
20
 10
1.181102
 20
1.865551
 30
0.000000
  0
VERTEX
  8
20
 10
0.000000
 20
1.865551
 30
0.000000
  0
SEQEND
  8
0
  0
POLYLINE
  8
20
 66
1
 10
0.000000
 20
0.000000
 30
0.000000
 40
0.000500
 41
0.000500
 70
0
  0
VERTEX
  8
20
 10
0.000000
 20
1.865801
 30
0.000000
 42
1.000000
  0
VERTEX
  8
20
 10
0.000000
 20
1.865301
 30
0.000000
  0
SEQEND
  8
0
  0
POLYLINE
  8
20
 66
1
 10
0.000000
 20
0.000000
 30
0.000000
 40
0.000500
 41
0.000500
 70
0
  0
VERTEX
  8
20
 10
1.181102
 20
1.865301
 30
0.000000
 42
1.000000
  0
VERTEX
  8
20
 10
1.181102
 20
1.865801
 30
0.000000
  0
SEQEND
  8
0
  0
POLYLINE
  8
20
 66
1
 10
0.000000
 20
0.000000
 30
0.000000
 40
0.001000
 41
0.001000
 70
0
  0
VERTEX
  8
20
 10
0.000000
 20
1.865551
 30
0.000000
  0
VERTEX
  8
20
 10
0.000000
 20
1.275000
 30
0.000000
  0
SEQEND
  8
0
  0
POLYLINE
  8
20
 66
1
 10
0.000000
 20
0.000000
 30
0.000000
 40
0.000500
 41
0.000500
 70
0
  0
VERTEX
  8
20
 10
-0.000250
 20
1.275000
 30
0.000000
 42
1.000000
  0
VERTEX
  8
20
 10
0.000250
 20
1.275000
 30
0.000000
  0
SEQEND
  8
0
  0
POLYLINE
  8
20
 66
1
 10
0.000000
 20
0.000000
 30
0.000000
 40
0.000500
 41
0.000500
 70
0
  0
VERTEX
  8
20
 10
0.000250
 20
1.865551
 30
0.000000
 42
1.000000
  0
VERTEX
  8
20
 10
-0.000250
 20
1.865551
 30
0.000000
  0
SEQEND
  8
0
  0
POLYLINE
  8
20
 66
1
 10
0.000000
 20
0.000000
 30
0.000000
 40
0.001000
 41
0.001000
 70
0
  0
VERTEX
  8
20
 10
1.855000
 20
0.665000
 30
0.000000
  0
VERTEX
  8
20
 10
1.855000
 20
1.846102
 30
0.000000
  0
SEQEND
  8
0
  0
POLYLINE
  8
20
 66
1
 10
0.000000
 20
0.000000
 30
0.000000
 40
0.000500
 41
0.000500
 70
0
  0
VERTEX
  8
20
 10
1.855250
 20
1.846102
 30
0.000000
 42
1.000000
  0
VERTEX
  8
20
 10
1.854750
 20
1.846102
 30
0.000000
  0
SEQEND
  8
0
  0
POLYLINE
  8
20
 66
1
 10
0.000000
 20
0.000000
 30
0.000000
 40
0.000500
 41
0.000500
 70
0
  0
VERTEX
  8
20
 10
1.854750
 20
0.665000
 30
0.000000
 42
1.000000
  0
VERTEX
  8
20
 10
1.855250
 20
0.665000
 30
0.000000
  0
SEQEND
  8
0
  0
POLYLINE
  8
20
 66
1
 10
0.000000
 20
0.000000
 30
0.000000
 40
0.001000
 41
0.001000
 70
0
  0
VERTEX
  8
20
 10
1.855000
 20
1.846102
 30
0.000000
  0
VERTEX
  8
20
 10
1.264449
 20
1.846102
 30
0.000000
  0
SEQEND
  8
0
  0
POLYLINE
  8
20
 66
1
 10
0.000000
 20
0.000000
 30
0.000000
 40
0.000500
 41
0.000500
 70
0
  0
VERTEX
  8
20
 10
1.264449
 20
1.846352
 30
0.000000
 42
1.000000
  0
VERTEX
  8
20
 10
1.264449
 20
1.845852
 30
0.000000
  0
SEQEND
  8
0
  0
POLYLINE
  8
20
 66
1
 10
0.000000
 20
0.000000
 30
0.000000
 40
0.000500
 41
0.000500
 70
0
  0
VERTEX
  8
20
 10
1.855000
 20
1.845852
 30
0.000000
 42
1.000000
  0
VERTEX
  8
20
 10
1.855000
 20
1.846352
 30
0.000000
  0
SEQEND
  8
0
  0
POLYLINE
  8
20
 66
1
 10
0.000000
 20
0.000000
 30
0.000000
 40
0.001000
 41
0.001000
 70
0
  0
VERTEX
  8
20
 10
1.264449
 20
1.846102
 30
0.000000
  0
VERTEX
  8
20
 10
1.264449
 20
0.665000
 30
0.000000
  0
SEQEND
  8
0
  0
POLYLINE
  8
20
 66
1
 10
0.000000
 20
0.000000
 30
0.000000
 40
0.000500
 41
0.000500
 70
0
  0
VERTEX
  8
20
 10
1.264199
 20
0.665000
 30
0.000000
 42
1.000000
  0
VERTEX
  8
20
 10
1.264699
 20
0.665000
 30
0.000000
  0
SEQEND
  8
0
  0
POLYLINE
  8
20
 66
1
 10
0.000000
 20
0.000000
 30
0.000000
 40
0.000500
 41
0.000500
 70
0
  0
VERTEX
  8
20
 10
1.264699
 20
1.846102
 30
0.000000
 42
1.000000
  0
VERTEX
  8
20
 10
1.264199
 20
1.846102
 30
0.000000
  0
SEQEND
  8
0
  0
POLYLINE
  8
20
 66
1
 10
0.000000
 20
0.000000
 30
0.000000
 40
0.001000
 41
0.001000
 70
0
  0
VERTEX
  8
20
 10
1.264449
 20
0.665000
 30
0.000000
  0
VERTEX
  8
20
 10
1.855000
 20
0.665000
 30
0.000000
  0
SEQEND
  8
0
  0
POLYLINE
  8
20
 66
1
 10
0.000000
 20
0.000000
 30
0.000000
 40
0.000500
 41
0.000500
 70
0
  0
VERTEX
  8
20
 10
1.855000
 20
0.664750
 30
0.000000
 42
1.000000
  0
VERTEX
  8
20
 10
1.855000
 20
0.665250
 30
0.000000
  0
SEQEND
  8
0
  0
POLYLINE
  8
20
 66
1
 10
0.000000
 20
0.000000
 30
0.000000
 40
0.000500
 41
0.000500
 70
0
  0
VERTEX
  8
20
 10
1.264449
 20
0.665250
 30
0.000000
 42
1.000000
  0
VERTEX
  8
20
 10
1.264449
 20
0.664750
 30
0.000000
  0
SEQEND
  8
0
  0
POLYLINE
  8
20
 66
1
 10
0.000000
 20
0.000000
 30
0.000000
 40
0.016000
 41
0.016000
 70
0
  0
VERTEX
  8
20
 10
-0.039370
 20
-0.039370
 30
0.000000
  0
VERTEX
  8
20
 10
1.929134
 20
-0.039370
 30
0.000000
  0
SEQEND
  8
0
  0
POLYLINE
  8
20
 66
1
 10
0.000000
 20
0.000000
 30
0.000000
 40
0.008000
 41
0.008000
 70
0
  0
VERTEX
  8
20
 10
1.929134
 20
-0.043370
 30
0.000000
 42
1.000000
  0
VERTEX
  8
20
 10
1.929134
 20
-0.035370
 30
0.000000
  0
SEQEND
  8
0
  0
POLYLINE
  8
20
 66
1
 10
0.000000
 20
0.000000
 30
0.000000
 40
0.008000
 41
0.008000
 70
0
  0
VERTEX
  8
20
 10
-0.039370
 20
-0.035370
 30
0.000000
 42
1.000000
  0
VERTEX
  8
20
 10
-0.039370
 20
-0.043370
 30
0.000000
  0
SEQEND
  8
0
  0
POLYLINE
  8
20
 66
1
 10
0.000000
 20
0.000000
 30
0.000000
 40
0.016000
 41
0.016000
 70
0
  0
VERTEX
  8
20
 10
1.929134
 20
-0.039370
 30
0.000000
  0
VERTEX
  8
20
 10
1.929134
 20
1.929134
 30
0.000000
  0
SEQEND
  8
0
  0
POLYLINE
  8
20
 66
1
 10
0.000000
 20
0.000000
 30
0.000000
 40
0.008000
 41
0.008000
 70
0
  0
VERTEX
  8
20
 10
1.933134
 20
1.929134
 30
0.000000
 42
1.000000
  0
VERTEX
  8
20
 10
1.925134
 20
1.929134
 30
0.000000
  0
SEQEND
  8
0
  0
POLYLINE
  8
20
 66
1
 10
0.000000
 20
0.000000
 30
0.000000
 40
0.008000
 41
0.008000
 70
0
  0
VERTEX
  8
20
 10
1.925134
 20
-0.039370
 30
0.000000
 42
1.000000
  0
VERTEX
  8
20
 10
1.933134
 20
-0.039370
 30
0.000000
  0
SEQEND
  8
0
  0
POLYLINE
  8
20
 66
1
 10
0.000000
 20
0.000000
 30
0.000000
 40
0.016000
 41
0.016000
 70
0
  0
VERTEX
  8
20
 10
1.929134
 20
1.929134
 30
0.000000
  0
VERTEX
  8
20
 10
-0.039370
 20
1.929134
 30
0.000000
  0
SEQEND
  8
0
  0
POLYLINE
  8
20
 66
1
 10
0.000000
 20
0.000000
 30
0.000000
 40
0.008000
 41
0.008000
 70
0
  0
VERTEX
  8
20
 10
-0.039370
 20
1.933134
 30
0.000000
 42
1.000000
  0
VERTEX
  8
20
 10
-0.039370
 20
1.925134
 30
0.000000
  0
SEQEND
  8
0
  0
POLYLINE
  8
20
 66
1
 10
0.000000
 20
0.000000
 30
0.000000
 40
0.008000
 41
0.008000
 70
0
  0
VERTEX
  8
20
 10
1.929134
 20
1.925134
 30
0.000000
 42
1.000000
  0
VERTEX
  8
20
 10
1.929134
 20
1.933134
 30
0.000000
  0
SEQEND
  8
0
  0
POLYLINE
  8
20
 66
1
 10
0.000000
 20
0.000000
 30
0.000000
 40
0.016000
 41
0.016000
 70
0
  0
VERTEX
  8
20
 10
-0.039370
 20
1.929134
 30
0.000000
  0
VERTEX
  8
20
 10
-0.039370
 20
-0.039370
 30
0.000000
  0
SEQEND
  8
0
  0
POLYLINE
  8
20
 66
1
 10
0.000000
 20
0.000000
 30
0.000000
 40
0.008000
 41
0.008000
 70
0
  0
VERTEX
  8
20
 10
-0.043370
 20
-0.039370
 30
0.000000
 42
1.000000
  0
VERTEX
  8
20
 10
-0.035370
 20
-0.039370
 30
0.000000
  0
SEQEND
  8
0
  0
POLYLINE
  8
20
 66
1
 10
0.000000
 20
0.000000
 30
0.000000
 40
0.008000
 41
0.008000
 70
0
  0
VERTEX
  8
20
 10
-0.035370
 20
1.929134
 30
0.000000
 42
1.000000
  0
VERTEX
  8
20
 10
-0.043370
 20
1.929134
 30
0.000000
  0
SEQEND
  8
0
  0
CIRCLE
  8
20
 10
0.075000
 20
0.515000
 30
0.000000
 40
0.044500
  0
CIRCLE
  8
20
 10
1.106000
 20
0.075000
 30
0.000000
 40
0.044500
  0
CIRCLE
  8
20
 10
0.081000
 20
1.146000
 30
0.000000
 40
0.044500
  0
CIRCLE
  8
20
 10
1.112000
 20
0.706000
 30
0.000000
 40
0.044500
  0
CIRCLE
  8
20
 10
0.075000
 20
1.790000
 30
0.000000
 40
0.044500
  0
CIRCLE
  8
20
 10
1.106000
 20
1.350000
 30
0.000000
 40
0.044500
  0
CIRCLE
  8
20
 10
1.340000
 20
0.740000
 30
0.000000
 40
0.044500
  0
CIRCLE
  8
20
 10
1.780000
 20
1.771000
 30
0.000000
 40
0.044500
  0
ENDSEC
  0
EOF
